%TF.GenerationSoftware,KiCad,Pcbnew,7.0.7*%
%TF.CreationDate,2024-11-27T08:57:40-05:00*%
%TF.ProjectId,cross-point-exp-brd-mini-lc,63726f73-732d-4706-9f69-6e742d657870,rev?*%
%TF.SameCoordinates,Original*%
%TF.FileFunction,Legend,Bot*%
%TF.FilePolarity,Positive*%
%FSLAX46Y46*%
G04 Gerber Fmt 4.6, Leading zero omitted, Abs format (unit mm)*
G04 Created by KiCad (PCBNEW 7.0.7) date 2024-11-27 08:57:40*
%MOMM*%
%LPD*%
G01*
G04 APERTURE LIST*
%ADD10C,0.254000*%
%ADD11C,0.228600*%
%ADD12C,0.150000*%
%ADD13C,0.120000*%
G04 APERTURE END LIST*
D10*
X87115952Y-138261368D02*
X87841667Y-138261368D01*
X87478810Y-138261368D02*
X87478810Y-136991368D01*
X87478810Y-136991368D02*
X87599762Y-137172796D01*
X87599762Y-137172796D02*
X87720714Y-137293749D01*
X87720714Y-137293749D02*
X87841667Y-137354225D01*
X85906428Y-138261368D02*
X86632143Y-138261368D01*
X86269286Y-138261368D02*
X86269286Y-136991368D01*
X86269286Y-136991368D02*
X86390238Y-137172796D01*
X86390238Y-137172796D02*
X86511190Y-137293749D01*
X86511190Y-137293749D02*
X86632143Y-137354225D01*
X84455000Y-136930892D02*
X85543571Y-138563749D01*
X84092143Y-137112320D02*
X84031667Y-137051844D01*
X84031667Y-137051844D02*
X83910714Y-136991368D01*
X83910714Y-136991368D02*
X83608333Y-136991368D01*
X83608333Y-136991368D02*
X83487381Y-137051844D01*
X83487381Y-137051844D02*
X83426905Y-137112320D01*
X83426905Y-137112320D02*
X83366428Y-137233272D01*
X83366428Y-137233272D02*
X83366428Y-137354225D01*
X83366428Y-137354225D02*
X83426905Y-137535653D01*
X83426905Y-137535653D02*
X84152619Y-138261368D01*
X84152619Y-138261368D02*
X83366428Y-138261368D01*
X82943095Y-136991368D02*
X82096428Y-136991368D01*
X82096428Y-136991368D02*
X82640714Y-138261368D01*
X80705476Y-136930892D02*
X81794047Y-138563749D01*
X80342619Y-137112320D02*
X80282143Y-137051844D01*
X80282143Y-137051844D02*
X80161190Y-136991368D01*
X80161190Y-136991368D02*
X79858809Y-136991368D01*
X79858809Y-136991368D02*
X79737857Y-137051844D01*
X79737857Y-137051844D02*
X79677381Y-137112320D01*
X79677381Y-137112320D02*
X79616904Y-137233272D01*
X79616904Y-137233272D02*
X79616904Y-137354225D01*
X79616904Y-137354225D02*
X79677381Y-137535653D01*
X79677381Y-137535653D02*
X80403095Y-138261368D01*
X80403095Y-138261368D02*
X79616904Y-138261368D01*
X78830714Y-136991368D02*
X78709761Y-136991368D01*
X78709761Y-136991368D02*
X78588809Y-137051844D01*
X78588809Y-137051844D02*
X78528333Y-137112320D01*
X78528333Y-137112320D02*
X78467857Y-137233272D01*
X78467857Y-137233272D02*
X78407380Y-137475177D01*
X78407380Y-137475177D02*
X78407380Y-137777558D01*
X78407380Y-137777558D02*
X78467857Y-138019463D01*
X78467857Y-138019463D02*
X78528333Y-138140415D01*
X78528333Y-138140415D02*
X78588809Y-138200892D01*
X78588809Y-138200892D02*
X78709761Y-138261368D01*
X78709761Y-138261368D02*
X78830714Y-138261368D01*
X78830714Y-138261368D02*
X78951666Y-138200892D01*
X78951666Y-138200892D02*
X79012142Y-138140415D01*
X79012142Y-138140415D02*
X79072619Y-138019463D01*
X79072619Y-138019463D02*
X79133095Y-137777558D01*
X79133095Y-137777558D02*
X79133095Y-137475177D01*
X79133095Y-137475177D02*
X79072619Y-137233272D01*
X79072619Y-137233272D02*
X79012142Y-137112320D01*
X79012142Y-137112320D02*
X78951666Y-137051844D01*
X78951666Y-137051844D02*
X78830714Y-136991368D01*
X77923571Y-137112320D02*
X77863095Y-137051844D01*
X77863095Y-137051844D02*
X77742142Y-136991368D01*
X77742142Y-136991368D02*
X77439761Y-136991368D01*
X77439761Y-136991368D02*
X77318809Y-137051844D01*
X77318809Y-137051844D02*
X77258333Y-137112320D01*
X77258333Y-137112320D02*
X77197856Y-137233272D01*
X77197856Y-137233272D02*
X77197856Y-137354225D01*
X77197856Y-137354225D02*
X77258333Y-137535653D01*
X77258333Y-137535653D02*
X77984047Y-138261368D01*
X77984047Y-138261368D02*
X77197856Y-138261368D01*
X76109285Y-137414701D02*
X76109285Y-138261368D01*
X76411666Y-136930892D02*
X76714047Y-137838034D01*
X76714047Y-137838034D02*
X75927856Y-137838034D01*
D11*
X169097476Y-95054143D02*
X168468523Y-95054143D01*
X168468523Y-95054143D02*
X168807190Y-95634714D01*
X168807190Y-95634714D02*
X168662047Y-95634714D01*
X168662047Y-95634714D02*
X168565285Y-95707286D01*
X168565285Y-95707286D02*
X168516904Y-95779857D01*
X168516904Y-95779857D02*
X168468523Y-95925000D01*
X168468523Y-95925000D02*
X168468523Y-96287857D01*
X168468523Y-96287857D02*
X168516904Y-96433000D01*
X168516904Y-96433000D02*
X168565285Y-96505572D01*
X168565285Y-96505572D02*
X168662047Y-96578143D01*
X168662047Y-96578143D02*
X168952333Y-96578143D01*
X168952333Y-96578143D02*
X169049095Y-96505572D01*
X169049095Y-96505572D02*
X169097476Y-96433000D01*
X167839571Y-95054143D02*
X167742809Y-95054143D01*
X167742809Y-95054143D02*
X167646047Y-95126714D01*
X167646047Y-95126714D02*
X167597666Y-95199286D01*
X167597666Y-95199286D02*
X167549285Y-95344429D01*
X167549285Y-95344429D02*
X167500904Y-95634714D01*
X167500904Y-95634714D02*
X167500904Y-95997572D01*
X167500904Y-95997572D02*
X167549285Y-96287857D01*
X167549285Y-96287857D02*
X167597666Y-96433000D01*
X167597666Y-96433000D02*
X167646047Y-96505572D01*
X167646047Y-96505572D02*
X167742809Y-96578143D01*
X167742809Y-96578143D02*
X167839571Y-96578143D01*
X167839571Y-96578143D02*
X167936333Y-96505572D01*
X167936333Y-96505572D02*
X167984714Y-96433000D01*
X167984714Y-96433000D02*
X168033095Y-96287857D01*
X168033095Y-96287857D02*
X168081476Y-95997572D01*
X168081476Y-95997572D02*
X168081476Y-95634714D01*
X168081476Y-95634714D02*
X168033095Y-95344429D01*
X168033095Y-95344429D02*
X167984714Y-95199286D01*
X167984714Y-95199286D02*
X167936333Y-95126714D01*
X167936333Y-95126714D02*
X167839571Y-95054143D01*
X166509095Y-95199286D02*
X166460714Y-95126714D01*
X166460714Y-95126714D02*
X166363952Y-95054143D01*
X166363952Y-95054143D02*
X166122047Y-95054143D01*
X166122047Y-95054143D02*
X166025285Y-95126714D01*
X166025285Y-95126714D02*
X165976904Y-95199286D01*
X165976904Y-95199286D02*
X165928523Y-95344429D01*
X165928523Y-95344429D02*
X165928523Y-95489572D01*
X165928523Y-95489572D02*
X165976904Y-95707286D01*
X165976904Y-95707286D02*
X166557476Y-96578143D01*
X166557476Y-96578143D02*
X165928523Y-96578143D01*
X165444714Y-96578143D02*
X165251190Y-96578143D01*
X165251190Y-96578143D02*
X165154428Y-96505572D01*
X165154428Y-96505572D02*
X165106047Y-96433000D01*
X165106047Y-96433000D02*
X165009285Y-96215286D01*
X165009285Y-96215286D02*
X164960904Y-95925000D01*
X164960904Y-95925000D02*
X164960904Y-95344429D01*
X164960904Y-95344429D02*
X165009285Y-95199286D01*
X165009285Y-95199286D02*
X165057666Y-95126714D01*
X165057666Y-95126714D02*
X165154428Y-95054143D01*
X165154428Y-95054143D02*
X165347952Y-95054143D01*
X165347952Y-95054143D02*
X165444714Y-95126714D01*
X165444714Y-95126714D02*
X165493095Y-95199286D01*
X165493095Y-95199286D02*
X165541476Y-95344429D01*
X165541476Y-95344429D02*
X165541476Y-95707286D01*
X165541476Y-95707286D02*
X165493095Y-95852429D01*
X165493095Y-95852429D02*
X165444714Y-95925000D01*
X165444714Y-95925000D02*
X165347952Y-95997572D01*
X165347952Y-95997572D02*
X165154428Y-95997572D01*
X165154428Y-95997572D02*
X165057666Y-95925000D01*
X165057666Y-95925000D02*
X165009285Y-95852429D01*
X165009285Y-95852429D02*
X164960904Y-95707286D01*
X153809095Y-95199286D02*
X153760714Y-95126714D01*
X153760714Y-95126714D02*
X153663952Y-95054143D01*
X153663952Y-95054143D02*
X153422047Y-95054143D01*
X153422047Y-95054143D02*
X153325285Y-95126714D01*
X153325285Y-95126714D02*
X153276904Y-95199286D01*
X153276904Y-95199286D02*
X153228523Y-95344429D01*
X153228523Y-95344429D02*
X153228523Y-95489572D01*
X153228523Y-95489572D02*
X153276904Y-95707286D01*
X153276904Y-95707286D02*
X153857476Y-96578143D01*
X153857476Y-96578143D02*
X153228523Y-96578143D01*
X152357666Y-95562143D02*
X152357666Y-96578143D01*
X152599571Y-94981572D02*
X152841476Y-96070143D01*
X152841476Y-96070143D02*
X152212523Y-96070143D01*
X148729095Y-95199286D02*
X148680714Y-95126714D01*
X148680714Y-95126714D02*
X148583952Y-95054143D01*
X148583952Y-95054143D02*
X148342047Y-95054143D01*
X148342047Y-95054143D02*
X148245285Y-95126714D01*
X148245285Y-95126714D02*
X148196904Y-95199286D01*
X148196904Y-95199286D02*
X148148523Y-95344429D01*
X148148523Y-95344429D02*
X148148523Y-95489572D01*
X148148523Y-95489572D02*
X148196904Y-95707286D01*
X148196904Y-95707286D02*
X148777476Y-96578143D01*
X148777476Y-96578143D02*
X148148523Y-96578143D01*
X147761476Y-95199286D02*
X147713095Y-95126714D01*
X147713095Y-95126714D02*
X147616333Y-95054143D01*
X147616333Y-95054143D02*
X147374428Y-95054143D01*
X147374428Y-95054143D02*
X147277666Y-95126714D01*
X147277666Y-95126714D02*
X147229285Y-95199286D01*
X147229285Y-95199286D02*
X147180904Y-95344429D01*
X147180904Y-95344429D02*
X147180904Y-95489572D01*
X147180904Y-95489572D02*
X147229285Y-95707286D01*
X147229285Y-95707286D02*
X147809857Y-96578143D01*
X147809857Y-96578143D02*
X147180904Y-96578143D01*
X160848523Y-114358143D02*
X161429095Y-114358143D01*
X161138809Y-114358143D02*
X161138809Y-112834143D01*
X161138809Y-112834143D02*
X161235571Y-113051857D01*
X161235571Y-113051857D02*
X161332333Y-113197000D01*
X161332333Y-113197000D02*
X161429095Y-113269572D01*
X160219571Y-112834143D02*
X160122809Y-112834143D01*
X160122809Y-112834143D02*
X160026047Y-112906714D01*
X160026047Y-112906714D02*
X159977666Y-112979286D01*
X159977666Y-112979286D02*
X159929285Y-113124429D01*
X159929285Y-113124429D02*
X159880904Y-113414714D01*
X159880904Y-113414714D02*
X159880904Y-113777572D01*
X159880904Y-113777572D02*
X159929285Y-114067857D01*
X159929285Y-114067857D02*
X159977666Y-114213000D01*
X159977666Y-114213000D02*
X160026047Y-114285572D01*
X160026047Y-114285572D02*
X160122809Y-114358143D01*
X160122809Y-114358143D02*
X160219571Y-114358143D01*
X160219571Y-114358143D02*
X160316333Y-114285572D01*
X160316333Y-114285572D02*
X160364714Y-114213000D01*
X160364714Y-114213000D02*
X160413095Y-114067857D01*
X160413095Y-114067857D02*
X160461476Y-113777572D01*
X160461476Y-113777572D02*
X160461476Y-113414714D01*
X160461476Y-113414714D02*
X160413095Y-113124429D01*
X160413095Y-113124429D02*
X160364714Y-112979286D01*
X160364714Y-112979286D02*
X160316333Y-112906714D01*
X160316333Y-112906714D02*
X160219571Y-112834143D01*
X145221475Y-113342143D02*
X145221475Y-114358143D01*
X145463380Y-112761572D02*
X145705285Y-113850143D01*
X145705285Y-113850143D02*
X145076332Y-113850143D01*
X178628523Y-114358143D02*
X179209095Y-114358143D01*
X178918809Y-114358143D02*
X178918809Y-112834143D01*
X178918809Y-112834143D02*
X179015571Y-113051857D01*
X179015571Y-113051857D02*
X179112333Y-113197000D01*
X179112333Y-113197000D02*
X179209095Y-113269572D01*
X178289857Y-112834143D02*
X177612523Y-112834143D01*
X177612523Y-112834143D02*
X178047952Y-114358143D01*
X165928523Y-114358143D02*
X166509095Y-114358143D01*
X166218809Y-114358143D02*
X166218809Y-112834143D01*
X166218809Y-112834143D02*
X166315571Y-113051857D01*
X166315571Y-113051857D02*
X166412333Y-113197000D01*
X166412333Y-113197000D02*
X166509095Y-113269572D01*
X165541476Y-112979286D02*
X165493095Y-112906714D01*
X165493095Y-112906714D02*
X165396333Y-112834143D01*
X165396333Y-112834143D02*
X165154428Y-112834143D01*
X165154428Y-112834143D02*
X165057666Y-112906714D01*
X165057666Y-112906714D02*
X165009285Y-112979286D01*
X165009285Y-112979286D02*
X164960904Y-113124429D01*
X164960904Y-113124429D02*
X164960904Y-113269572D01*
X164960904Y-113269572D02*
X165009285Y-113487286D01*
X165009285Y-113487286D02*
X165589857Y-114358143D01*
X165589857Y-114358143D02*
X164960904Y-114358143D01*
X158889095Y-95199286D02*
X158840714Y-95126714D01*
X158840714Y-95126714D02*
X158743952Y-95054143D01*
X158743952Y-95054143D02*
X158502047Y-95054143D01*
X158502047Y-95054143D02*
X158405285Y-95126714D01*
X158405285Y-95126714D02*
X158356904Y-95199286D01*
X158356904Y-95199286D02*
X158308523Y-95344429D01*
X158308523Y-95344429D02*
X158308523Y-95489572D01*
X158308523Y-95489572D02*
X158356904Y-95707286D01*
X158356904Y-95707286D02*
X158937476Y-96578143D01*
X158937476Y-96578143D02*
X158308523Y-96578143D01*
X157437666Y-95054143D02*
X157631190Y-95054143D01*
X157631190Y-95054143D02*
X157727952Y-95126714D01*
X157727952Y-95126714D02*
X157776333Y-95199286D01*
X157776333Y-95199286D02*
X157873095Y-95417000D01*
X157873095Y-95417000D02*
X157921476Y-95707286D01*
X157921476Y-95707286D02*
X157921476Y-96287857D01*
X157921476Y-96287857D02*
X157873095Y-96433000D01*
X157873095Y-96433000D02*
X157824714Y-96505572D01*
X157824714Y-96505572D02*
X157727952Y-96578143D01*
X157727952Y-96578143D02*
X157534428Y-96578143D01*
X157534428Y-96578143D02*
X157437666Y-96505572D01*
X157437666Y-96505572D02*
X157389285Y-96433000D01*
X157389285Y-96433000D02*
X157340904Y-96287857D01*
X157340904Y-96287857D02*
X157340904Y-95925000D01*
X157340904Y-95925000D02*
X157389285Y-95779857D01*
X157389285Y-95779857D02*
X157437666Y-95707286D01*
X157437666Y-95707286D02*
X157534428Y-95634714D01*
X157534428Y-95634714D02*
X157727952Y-95634714D01*
X157727952Y-95634714D02*
X157824714Y-95707286D01*
X157824714Y-95707286D02*
X157873095Y-95779857D01*
X157873095Y-95779857D02*
X157921476Y-95925000D01*
X171637476Y-95054143D02*
X171008523Y-95054143D01*
X171008523Y-95054143D02*
X171347190Y-95634714D01*
X171347190Y-95634714D02*
X171202047Y-95634714D01*
X171202047Y-95634714D02*
X171105285Y-95707286D01*
X171105285Y-95707286D02*
X171056904Y-95779857D01*
X171056904Y-95779857D02*
X171008523Y-95925000D01*
X171008523Y-95925000D02*
X171008523Y-96287857D01*
X171008523Y-96287857D02*
X171056904Y-96433000D01*
X171056904Y-96433000D02*
X171105285Y-96505572D01*
X171105285Y-96505572D02*
X171202047Y-96578143D01*
X171202047Y-96578143D02*
X171492333Y-96578143D01*
X171492333Y-96578143D02*
X171589095Y-96505572D01*
X171589095Y-96505572D02*
X171637476Y-96433000D01*
X170040904Y-96578143D02*
X170621476Y-96578143D01*
X170331190Y-96578143D02*
X170331190Y-95054143D01*
X170331190Y-95054143D02*
X170427952Y-95271857D01*
X170427952Y-95271857D02*
X170524714Y-95417000D01*
X170524714Y-95417000D02*
X170621476Y-95489572D01*
X179257476Y-95054143D02*
X178628523Y-95054143D01*
X178628523Y-95054143D02*
X178967190Y-95634714D01*
X178967190Y-95634714D02*
X178822047Y-95634714D01*
X178822047Y-95634714D02*
X178725285Y-95707286D01*
X178725285Y-95707286D02*
X178676904Y-95779857D01*
X178676904Y-95779857D02*
X178628523Y-95925000D01*
X178628523Y-95925000D02*
X178628523Y-96287857D01*
X178628523Y-96287857D02*
X178676904Y-96433000D01*
X178676904Y-96433000D02*
X178725285Y-96505572D01*
X178725285Y-96505572D02*
X178822047Y-96578143D01*
X178822047Y-96578143D02*
X179112333Y-96578143D01*
X179112333Y-96578143D02*
X179209095Y-96505572D01*
X179209095Y-96505572D02*
X179257476Y-96433000D01*
X177757666Y-95562143D02*
X177757666Y-96578143D01*
X177999571Y-94981572D02*
X178241476Y-96070143D01*
X178241476Y-96070143D02*
X177612523Y-96070143D01*
X146189095Y-95199286D02*
X146140714Y-95126714D01*
X146140714Y-95126714D02*
X146043952Y-95054143D01*
X146043952Y-95054143D02*
X145802047Y-95054143D01*
X145802047Y-95054143D02*
X145705285Y-95126714D01*
X145705285Y-95126714D02*
X145656904Y-95199286D01*
X145656904Y-95199286D02*
X145608523Y-95344429D01*
X145608523Y-95344429D02*
X145608523Y-95489572D01*
X145608523Y-95489572D02*
X145656904Y-95707286D01*
X145656904Y-95707286D02*
X146237476Y-96578143D01*
X146237476Y-96578143D02*
X145608523Y-96578143D01*
X144640904Y-96578143D02*
X145221476Y-96578143D01*
X144931190Y-96578143D02*
X144931190Y-95054143D01*
X144931190Y-95054143D02*
X145027952Y-95271857D01*
X145027952Y-95271857D02*
X145124714Y-95417000D01*
X145124714Y-95417000D02*
X145221476Y-95489572D01*
X161429095Y-95199286D02*
X161380714Y-95126714D01*
X161380714Y-95126714D02*
X161283952Y-95054143D01*
X161283952Y-95054143D02*
X161042047Y-95054143D01*
X161042047Y-95054143D02*
X160945285Y-95126714D01*
X160945285Y-95126714D02*
X160896904Y-95199286D01*
X160896904Y-95199286D02*
X160848523Y-95344429D01*
X160848523Y-95344429D02*
X160848523Y-95489572D01*
X160848523Y-95489572D02*
X160896904Y-95707286D01*
X160896904Y-95707286D02*
X161477476Y-96578143D01*
X161477476Y-96578143D02*
X160848523Y-96578143D01*
X160509857Y-95054143D02*
X159832523Y-95054143D01*
X159832523Y-95054143D02*
X160267952Y-96578143D01*
X143213666Y-112834143D02*
X142584713Y-112834143D01*
X142584713Y-112834143D02*
X142923380Y-113414714D01*
X142923380Y-113414714D02*
X142778237Y-113414714D01*
X142778237Y-113414714D02*
X142681475Y-113487286D01*
X142681475Y-113487286D02*
X142633094Y-113559857D01*
X142633094Y-113559857D02*
X142584713Y-113705000D01*
X142584713Y-113705000D02*
X142584713Y-114067857D01*
X142584713Y-114067857D02*
X142633094Y-114213000D01*
X142633094Y-114213000D02*
X142681475Y-114285572D01*
X142681475Y-114285572D02*
X142778237Y-114358143D01*
X142778237Y-114358143D02*
X143068523Y-114358143D01*
X143068523Y-114358143D02*
X143165285Y-114285572D01*
X143165285Y-114285572D02*
X143213666Y-114213000D01*
X150301475Y-112834143D02*
X150494999Y-112834143D01*
X150494999Y-112834143D02*
X150591761Y-112906714D01*
X150591761Y-112906714D02*
X150640142Y-112979286D01*
X150640142Y-112979286D02*
X150736904Y-113197000D01*
X150736904Y-113197000D02*
X150785285Y-113487286D01*
X150785285Y-113487286D02*
X150785285Y-114067857D01*
X150785285Y-114067857D02*
X150736904Y-114213000D01*
X150736904Y-114213000D02*
X150688523Y-114285572D01*
X150688523Y-114285572D02*
X150591761Y-114358143D01*
X150591761Y-114358143D02*
X150398237Y-114358143D01*
X150398237Y-114358143D02*
X150301475Y-114285572D01*
X150301475Y-114285572D02*
X150253094Y-114213000D01*
X150253094Y-114213000D02*
X150204713Y-114067857D01*
X150204713Y-114067857D02*
X150204713Y-113705000D01*
X150204713Y-113705000D02*
X150253094Y-113559857D01*
X150253094Y-113559857D02*
X150301475Y-113487286D01*
X150301475Y-113487286D02*
X150398237Y-113414714D01*
X150398237Y-113414714D02*
X150591761Y-113414714D01*
X150591761Y-113414714D02*
X150688523Y-113487286D01*
X150688523Y-113487286D02*
X150736904Y-113559857D01*
X150736904Y-113559857D02*
X150785285Y-113705000D01*
X176717476Y-95054143D02*
X176088523Y-95054143D01*
X176088523Y-95054143D02*
X176427190Y-95634714D01*
X176427190Y-95634714D02*
X176282047Y-95634714D01*
X176282047Y-95634714D02*
X176185285Y-95707286D01*
X176185285Y-95707286D02*
X176136904Y-95779857D01*
X176136904Y-95779857D02*
X176088523Y-95925000D01*
X176088523Y-95925000D02*
X176088523Y-96287857D01*
X176088523Y-96287857D02*
X176136904Y-96433000D01*
X176136904Y-96433000D02*
X176185285Y-96505572D01*
X176185285Y-96505572D02*
X176282047Y-96578143D01*
X176282047Y-96578143D02*
X176572333Y-96578143D01*
X176572333Y-96578143D02*
X176669095Y-96505572D01*
X176669095Y-96505572D02*
X176717476Y-96433000D01*
X175749857Y-95054143D02*
X175120904Y-95054143D01*
X175120904Y-95054143D02*
X175459571Y-95634714D01*
X175459571Y-95634714D02*
X175314428Y-95634714D01*
X175314428Y-95634714D02*
X175217666Y-95707286D01*
X175217666Y-95707286D02*
X175169285Y-95779857D01*
X175169285Y-95779857D02*
X175120904Y-95925000D01*
X175120904Y-95925000D02*
X175120904Y-96287857D01*
X175120904Y-96287857D02*
X175169285Y-96433000D01*
X175169285Y-96433000D02*
X175217666Y-96505572D01*
X175217666Y-96505572D02*
X175314428Y-96578143D01*
X175314428Y-96578143D02*
X175604714Y-96578143D01*
X175604714Y-96578143D02*
X175701476Y-96505572D01*
X175701476Y-96505572D02*
X175749857Y-96433000D01*
X155671761Y-113487286D02*
X155768523Y-113414714D01*
X155768523Y-113414714D02*
X155816904Y-113342143D01*
X155816904Y-113342143D02*
X155865285Y-113197000D01*
X155865285Y-113197000D02*
X155865285Y-113124429D01*
X155865285Y-113124429D02*
X155816904Y-112979286D01*
X155816904Y-112979286D02*
X155768523Y-112906714D01*
X155768523Y-112906714D02*
X155671761Y-112834143D01*
X155671761Y-112834143D02*
X155478237Y-112834143D01*
X155478237Y-112834143D02*
X155381475Y-112906714D01*
X155381475Y-112906714D02*
X155333094Y-112979286D01*
X155333094Y-112979286D02*
X155284713Y-113124429D01*
X155284713Y-113124429D02*
X155284713Y-113197000D01*
X155284713Y-113197000D02*
X155333094Y-113342143D01*
X155333094Y-113342143D02*
X155381475Y-113414714D01*
X155381475Y-113414714D02*
X155478237Y-113487286D01*
X155478237Y-113487286D02*
X155671761Y-113487286D01*
X155671761Y-113487286D02*
X155768523Y-113559857D01*
X155768523Y-113559857D02*
X155816904Y-113632429D01*
X155816904Y-113632429D02*
X155865285Y-113777572D01*
X155865285Y-113777572D02*
X155865285Y-114067857D01*
X155865285Y-114067857D02*
X155816904Y-114213000D01*
X155816904Y-114213000D02*
X155768523Y-114285572D01*
X155768523Y-114285572D02*
X155671761Y-114358143D01*
X155671761Y-114358143D02*
X155478237Y-114358143D01*
X155478237Y-114358143D02*
X155381475Y-114285572D01*
X155381475Y-114285572D02*
X155333094Y-114213000D01*
X155333094Y-114213000D02*
X155284713Y-114067857D01*
X155284713Y-114067857D02*
X155284713Y-113777572D01*
X155284713Y-113777572D02*
X155333094Y-113632429D01*
X155333094Y-113632429D02*
X155381475Y-113559857D01*
X155381475Y-113559857D02*
X155478237Y-113487286D01*
X140625285Y-112979286D02*
X140576904Y-112906714D01*
X140576904Y-112906714D02*
X140480142Y-112834143D01*
X140480142Y-112834143D02*
X140238237Y-112834143D01*
X140238237Y-112834143D02*
X140141475Y-112906714D01*
X140141475Y-112906714D02*
X140093094Y-112979286D01*
X140093094Y-112979286D02*
X140044713Y-113124429D01*
X140044713Y-113124429D02*
X140044713Y-113269572D01*
X140044713Y-113269572D02*
X140093094Y-113487286D01*
X140093094Y-113487286D02*
X140673666Y-114358143D01*
X140673666Y-114358143D02*
X140044713Y-114358143D01*
X147713094Y-112834143D02*
X148196904Y-112834143D01*
X148196904Y-112834143D02*
X148245285Y-113559857D01*
X148245285Y-113559857D02*
X148196904Y-113487286D01*
X148196904Y-113487286D02*
X148100142Y-113414714D01*
X148100142Y-113414714D02*
X147858237Y-113414714D01*
X147858237Y-113414714D02*
X147761475Y-113487286D01*
X147761475Y-113487286D02*
X147713094Y-113559857D01*
X147713094Y-113559857D02*
X147664713Y-113705000D01*
X147664713Y-113705000D02*
X147664713Y-114067857D01*
X147664713Y-114067857D02*
X147713094Y-114213000D01*
X147713094Y-114213000D02*
X147761475Y-114285572D01*
X147761475Y-114285572D02*
X147858237Y-114358143D01*
X147858237Y-114358143D02*
X148100142Y-114358143D01*
X148100142Y-114358143D02*
X148196904Y-114285572D01*
X148196904Y-114285572D02*
X148245285Y-114213000D01*
X151269095Y-95199286D02*
X151220714Y-95126714D01*
X151220714Y-95126714D02*
X151123952Y-95054143D01*
X151123952Y-95054143D02*
X150882047Y-95054143D01*
X150882047Y-95054143D02*
X150785285Y-95126714D01*
X150785285Y-95126714D02*
X150736904Y-95199286D01*
X150736904Y-95199286D02*
X150688523Y-95344429D01*
X150688523Y-95344429D02*
X150688523Y-95489572D01*
X150688523Y-95489572D02*
X150736904Y-95707286D01*
X150736904Y-95707286D02*
X151317476Y-96578143D01*
X151317476Y-96578143D02*
X150688523Y-96578143D01*
X150349857Y-95054143D02*
X149720904Y-95054143D01*
X149720904Y-95054143D02*
X150059571Y-95634714D01*
X150059571Y-95634714D02*
X149914428Y-95634714D01*
X149914428Y-95634714D02*
X149817666Y-95707286D01*
X149817666Y-95707286D02*
X149769285Y-95779857D01*
X149769285Y-95779857D02*
X149720904Y-95925000D01*
X149720904Y-95925000D02*
X149720904Y-96287857D01*
X149720904Y-96287857D02*
X149769285Y-96433000D01*
X149769285Y-96433000D02*
X149817666Y-96505572D01*
X149817666Y-96505572D02*
X149914428Y-96578143D01*
X149914428Y-96578143D02*
X150204714Y-96578143D01*
X150204714Y-96578143D02*
X150301476Y-96505572D01*
X150301476Y-96505572D02*
X150349857Y-96433000D01*
X153373666Y-112834143D02*
X152696332Y-112834143D01*
X152696332Y-112834143D02*
X153131761Y-114358143D01*
X163388523Y-114358143D02*
X163969095Y-114358143D01*
X163678809Y-114358143D02*
X163678809Y-112834143D01*
X163678809Y-112834143D02*
X163775571Y-113051857D01*
X163775571Y-113051857D02*
X163872333Y-113197000D01*
X163872333Y-113197000D02*
X163969095Y-113269572D01*
X162420904Y-114358143D02*
X163001476Y-114358143D01*
X162711190Y-114358143D02*
X162711190Y-112834143D01*
X162711190Y-112834143D02*
X162807952Y-113051857D01*
X162807952Y-113051857D02*
X162904714Y-113197000D01*
X162904714Y-113197000D02*
X163001476Y-113269572D01*
X137988523Y-96578143D02*
X138569095Y-96578143D01*
X138278809Y-96578143D02*
X138278809Y-95054143D01*
X138278809Y-95054143D02*
X138375571Y-95271857D01*
X138375571Y-95271857D02*
X138472333Y-95417000D01*
X138472333Y-95417000D02*
X138569095Y-95489572D01*
X137407952Y-95707286D02*
X137504714Y-95634714D01*
X137504714Y-95634714D02*
X137553095Y-95562143D01*
X137553095Y-95562143D02*
X137601476Y-95417000D01*
X137601476Y-95417000D02*
X137601476Y-95344429D01*
X137601476Y-95344429D02*
X137553095Y-95199286D01*
X137553095Y-95199286D02*
X137504714Y-95126714D01*
X137504714Y-95126714D02*
X137407952Y-95054143D01*
X137407952Y-95054143D02*
X137214428Y-95054143D01*
X137214428Y-95054143D02*
X137117666Y-95126714D01*
X137117666Y-95126714D02*
X137069285Y-95199286D01*
X137069285Y-95199286D02*
X137020904Y-95344429D01*
X137020904Y-95344429D02*
X137020904Y-95417000D01*
X137020904Y-95417000D02*
X137069285Y-95562143D01*
X137069285Y-95562143D02*
X137117666Y-95634714D01*
X137117666Y-95634714D02*
X137214428Y-95707286D01*
X137214428Y-95707286D02*
X137407952Y-95707286D01*
X137407952Y-95707286D02*
X137504714Y-95779857D01*
X137504714Y-95779857D02*
X137553095Y-95852429D01*
X137553095Y-95852429D02*
X137601476Y-95997572D01*
X137601476Y-95997572D02*
X137601476Y-96287857D01*
X137601476Y-96287857D02*
X137553095Y-96433000D01*
X137553095Y-96433000D02*
X137504714Y-96505572D01*
X137504714Y-96505572D02*
X137407952Y-96578143D01*
X137407952Y-96578143D02*
X137214428Y-96578143D01*
X137214428Y-96578143D02*
X137117666Y-96505572D01*
X137117666Y-96505572D02*
X137069285Y-96433000D01*
X137069285Y-96433000D02*
X137020904Y-96287857D01*
X137020904Y-96287857D02*
X137020904Y-95997572D01*
X137020904Y-95997572D02*
X137069285Y-95852429D01*
X137069285Y-95852429D02*
X137117666Y-95779857D01*
X137117666Y-95779857D02*
X137214428Y-95707286D01*
X176088523Y-114358143D02*
X176669095Y-114358143D01*
X176378809Y-114358143D02*
X176378809Y-112834143D01*
X176378809Y-112834143D02*
X176475571Y-113051857D01*
X176475571Y-113051857D02*
X176572333Y-113197000D01*
X176572333Y-113197000D02*
X176669095Y-113269572D01*
X175217666Y-112834143D02*
X175411190Y-112834143D01*
X175411190Y-112834143D02*
X175507952Y-112906714D01*
X175507952Y-112906714D02*
X175556333Y-112979286D01*
X175556333Y-112979286D02*
X175653095Y-113197000D01*
X175653095Y-113197000D02*
X175701476Y-113487286D01*
X175701476Y-113487286D02*
X175701476Y-114067857D01*
X175701476Y-114067857D02*
X175653095Y-114213000D01*
X175653095Y-114213000D02*
X175604714Y-114285572D01*
X175604714Y-114285572D02*
X175507952Y-114358143D01*
X175507952Y-114358143D02*
X175314428Y-114358143D01*
X175314428Y-114358143D02*
X175217666Y-114285572D01*
X175217666Y-114285572D02*
X175169285Y-114213000D01*
X175169285Y-114213000D02*
X175120904Y-114067857D01*
X175120904Y-114067857D02*
X175120904Y-113705000D01*
X175120904Y-113705000D02*
X175169285Y-113559857D01*
X175169285Y-113559857D02*
X175217666Y-113487286D01*
X175217666Y-113487286D02*
X175314428Y-113414714D01*
X175314428Y-113414714D02*
X175507952Y-113414714D01*
X175507952Y-113414714D02*
X175604714Y-113487286D01*
X175604714Y-113487286D02*
X175653095Y-113559857D01*
X175653095Y-113559857D02*
X175701476Y-113705000D01*
X173548523Y-114358143D02*
X174129095Y-114358143D01*
X173838809Y-114358143D02*
X173838809Y-112834143D01*
X173838809Y-112834143D02*
X173935571Y-113051857D01*
X173935571Y-113051857D02*
X174032333Y-113197000D01*
X174032333Y-113197000D02*
X174129095Y-113269572D01*
X172629285Y-112834143D02*
X173113095Y-112834143D01*
X173113095Y-112834143D02*
X173161476Y-113559857D01*
X173161476Y-113559857D02*
X173113095Y-113487286D01*
X173113095Y-113487286D02*
X173016333Y-113414714D01*
X173016333Y-113414714D02*
X172774428Y-113414714D01*
X172774428Y-113414714D02*
X172677666Y-113487286D01*
X172677666Y-113487286D02*
X172629285Y-113559857D01*
X172629285Y-113559857D02*
X172580904Y-113705000D01*
X172580904Y-113705000D02*
X172580904Y-114067857D01*
X172580904Y-114067857D02*
X172629285Y-114213000D01*
X172629285Y-114213000D02*
X172677666Y-114285572D01*
X172677666Y-114285572D02*
X172774428Y-114358143D01*
X172774428Y-114358143D02*
X173016333Y-114358143D01*
X173016333Y-114358143D02*
X173113095Y-114285572D01*
X173113095Y-114285572D02*
X173161476Y-114213000D01*
X156349095Y-95199286D02*
X156300714Y-95126714D01*
X156300714Y-95126714D02*
X156203952Y-95054143D01*
X156203952Y-95054143D02*
X155962047Y-95054143D01*
X155962047Y-95054143D02*
X155865285Y-95126714D01*
X155865285Y-95126714D02*
X155816904Y-95199286D01*
X155816904Y-95199286D02*
X155768523Y-95344429D01*
X155768523Y-95344429D02*
X155768523Y-95489572D01*
X155768523Y-95489572D02*
X155816904Y-95707286D01*
X155816904Y-95707286D02*
X156397476Y-96578143D01*
X156397476Y-96578143D02*
X155768523Y-96578143D01*
X154849285Y-95054143D02*
X155333095Y-95054143D01*
X155333095Y-95054143D02*
X155381476Y-95779857D01*
X155381476Y-95779857D02*
X155333095Y-95707286D01*
X155333095Y-95707286D02*
X155236333Y-95634714D01*
X155236333Y-95634714D02*
X154994428Y-95634714D01*
X154994428Y-95634714D02*
X154897666Y-95707286D01*
X154897666Y-95707286D02*
X154849285Y-95779857D01*
X154849285Y-95779857D02*
X154800904Y-95925000D01*
X154800904Y-95925000D02*
X154800904Y-96287857D01*
X154800904Y-96287857D02*
X154849285Y-96433000D01*
X154849285Y-96433000D02*
X154897666Y-96505572D01*
X154897666Y-96505572D02*
X154994428Y-96578143D01*
X154994428Y-96578143D02*
X155236333Y-96578143D01*
X155236333Y-96578143D02*
X155333095Y-96505572D01*
X155333095Y-96505572D02*
X155381476Y-96433000D01*
X168468523Y-114358143D02*
X169049095Y-114358143D01*
X168758809Y-114358143D02*
X168758809Y-112834143D01*
X168758809Y-112834143D02*
X168855571Y-113051857D01*
X168855571Y-113051857D02*
X168952333Y-113197000D01*
X168952333Y-113197000D02*
X169049095Y-113269572D01*
X168129857Y-112834143D02*
X167500904Y-112834143D01*
X167500904Y-112834143D02*
X167839571Y-113414714D01*
X167839571Y-113414714D02*
X167694428Y-113414714D01*
X167694428Y-113414714D02*
X167597666Y-113487286D01*
X167597666Y-113487286D02*
X167549285Y-113559857D01*
X167549285Y-113559857D02*
X167500904Y-113705000D01*
X167500904Y-113705000D02*
X167500904Y-114067857D01*
X167500904Y-114067857D02*
X167549285Y-114213000D01*
X167549285Y-114213000D02*
X167597666Y-114285572D01*
X167597666Y-114285572D02*
X167694428Y-114358143D01*
X167694428Y-114358143D02*
X167984714Y-114358143D01*
X167984714Y-114358143D02*
X168081476Y-114285572D01*
X168081476Y-114285572D02*
X168129857Y-114213000D01*
X137504713Y-114358143D02*
X138085285Y-114358143D01*
X137794999Y-114358143D02*
X137794999Y-112834143D01*
X137794999Y-112834143D02*
X137891761Y-113051857D01*
X137891761Y-113051857D02*
X137988523Y-113197000D01*
X137988523Y-113197000D02*
X138085285Y-113269572D01*
X143649095Y-95199286D02*
X143600714Y-95126714D01*
X143600714Y-95126714D02*
X143503952Y-95054143D01*
X143503952Y-95054143D02*
X143262047Y-95054143D01*
X143262047Y-95054143D02*
X143165285Y-95126714D01*
X143165285Y-95126714D02*
X143116904Y-95199286D01*
X143116904Y-95199286D02*
X143068523Y-95344429D01*
X143068523Y-95344429D02*
X143068523Y-95489572D01*
X143068523Y-95489572D02*
X143116904Y-95707286D01*
X143116904Y-95707286D02*
X143697476Y-96578143D01*
X143697476Y-96578143D02*
X143068523Y-96578143D01*
X142439571Y-95054143D02*
X142342809Y-95054143D01*
X142342809Y-95054143D02*
X142246047Y-95126714D01*
X142246047Y-95126714D02*
X142197666Y-95199286D01*
X142197666Y-95199286D02*
X142149285Y-95344429D01*
X142149285Y-95344429D02*
X142100904Y-95634714D01*
X142100904Y-95634714D02*
X142100904Y-95997572D01*
X142100904Y-95997572D02*
X142149285Y-96287857D01*
X142149285Y-96287857D02*
X142197666Y-96433000D01*
X142197666Y-96433000D02*
X142246047Y-96505572D01*
X142246047Y-96505572D02*
X142342809Y-96578143D01*
X142342809Y-96578143D02*
X142439571Y-96578143D01*
X142439571Y-96578143D02*
X142536333Y-96505572D01*
X142536333Y-96505572D02*
X142584714Y-96433000D01*
X142584714Y-96433000D02*
X142633095Y-96287857D01*
X142633095Y-96287857D02*
X142681476Y-95997572D01*
X142681476Y-95997572D02*
X142681476Y-95634714D01*
X142681476Y-95634714D02*
X142633095Y-95344429D01*
X142633095Y-95344429D02*
X142584714Y-95199286D01*
X142584714Y-95199286D02*
X142536333Y-95126714D01*
X142536333Y-95126714D02*
X142439571Y-95054143D01*
X171008523Y-114358143D02*
X171589095Y-114358143D01*
X171298809Y-114358143D02*
X171298809Y-112834143D01*
X171298809Y-112834143D02*
X171395571Y-113051857D01*
X171395571Y-113051857D02*
X171492333Y-113197000D01*
X171492333Y-113197000D02*
X171589095Y-113269572D01*
X170137666Y-113342143D02*
X170137666Y-114358143D01*
X170379571Y-112761572D02*
X170621476Y-113850143D01*
X170621476Y-113850143D02*
X169992523Y-113850143D01*
X174177476Y-95054143D02*
X173548523Y-95054143D01*
X173548523Y-95054143D02*
X173887190Y-95634714D01*
X173887190Y-95634714D02*
X173742047Y-95634714D01*
X173742047Y-95634714D02*
X173645285Y-95707286D01*
X173645285Y-95707286D02*
X173596904Y-95779857D01*
X173596904Y-95779857D02*
X173548523Y-95925000D01*
X173548523Y-95925000D02*
X173548523Y-96287857D01*
X173548523Y-96287857D02*
X173596904Y-96433000D01*
X173596904Y-96433000D02*
X173645285Y-96505572D01*
X173645285Y-96505572D02*
X173742047Y-96578143D01*
X173742047Y-96578143D02*
X174032333Y-96578143D01*
X174032333Y-96578143D02*
X174129095Y-96505572D01*
X174129095Y-96505572D02*
X174177476Y-96433000D01*
X173161476Y-95199286D02*
X173113095Y-95126714D01*
X173113095Y-95126714D02*
X173016333Y-95054143D01*
X173016333Y-95054143D02*
X172774428Y-95054143D01*
X172774428Y-95054143D02*
X172677666Y-95126714D01*
X172677666Y-95126714D02*
X172629285Y-95199286D01*
X172629285Y-95199286D02*
X172580904Y-95344429D01*
X172580904Y-95344429D02*
X172580904Y-95489572D01*
X172580904Y-95489572D02*
X172629285Y-95707286D01*
X172629285Y-95707286D02*
X173209857Y-96578143D01*
X173209857Y-96578143D02*
X172580904Y-96578143D01*
X163969095Y-95199286D02*
X163920714Y-95126714D01*
X163920714Y-95126714D02*
X163823952Y-95054143D01*
X163823952Y-95054143D02*
X163582047Y-95054143D01*
X163582047Y-95054143D02*
X163485285Y-95126714D01*
X163485285Y-95126714D02*
X163436904Y-95199286D01*
X163436904Y-95199286D02*
X163388523Y-95344429D01*
X163388523Y-95344429D02*
X163388523Y-95489572D01*
X163388523Y-95489572D02*
X163436904Y-95707286D01*
X163436904Y-95707286D02*
X164017476Y-96578143D01*
X164017476Y-96578143D02*
X163388523Y-96578143D01*
X162807952Y-95707286D02*
X162904714Y-95634714D01*
X162904714Y-95634714D02*
X162953095Y-95562143D01*
X162953095Y-95562143D02*
X163001476Y-95417000D01*
X163001476Y-95417000D02*
X163001476Y-95344429D01*
X163001476Y-95344429D02*
X162953095Y-95199286D01*
X162953095Y-95199286D02*
X162904714Y-95126714D01*
X162904714Y-95126714D02*
X162807952Y-95054143D01*
X162807952Y-95054143D02*
X162614428Y-95054143D01*
X162614428Y-95054143D02*
X162517666Y-95126714D01*
X162517666Y-95126714D02*
X162469285Y-95199286D01*
X162469285Y-95199286D02*
X162420904Y-95344429D01*
X162420904Y-95344429D02*
X162420904Y-95417000D01*
X162420904Y-95417000D02*
X162469285Y-95562143D01*
X162469285Y-95562143D02*
X162517666Y-95634714D01*
X162517666Y-95634714D02*
X162614428Y-95707286D01*
X162614428Y-95707286D02*
X162807952Y-95707286D01*
X162807952Y-95707286D02*
X162904714Y-95779857D01*
X162904714Y-95779857D02*
X162953095Y-95852429D01*
X162953095Y-95852429D02*
X163001476Y-95997572D01*
X163001476Y-95997572D02*
X163001476Y-96287857D01*
X163001476Y-96287857D02*
X162953095Y-96433000D01*
X162953095Y-96433000D02*
X162904714Y-96505572D01*
X162904714Y-96505572D02*
X162807952Y-96578143D01*
X162807952Y-96578143D02*
X162614428Y-96578143D01*
X162614428Y-96578143D02*
X162517666Y-96505572D01*
X162517666Y-96505572D02*
X162469285Y-96433000D01*
X162469285Y-96433000D02*
X162420904Y-96287857D01*
X162420904Y-96287857D02*
X162420904Y-95997572D01*
X162420904Y-95997572D02*
X162469285Y-95852429D01*
X162469285Y-95852429D02*
X162517666Y-95779857D01*
X162517666Y-95779857D02*
X162614428Y-95707286D01*
X158308523Y-114358143D02*
X158114999Y-114358143D01*
X158114999Y-114358143D02*
X158018237Y-114285572D01*
X158018237Y-114285572D02*
X157969856Y-114213000D01*
X157969856Y-114213000D02*
X157873094Y-113995286D01*
X157873094Y-113995286D02*
X157824713Y-113705000D01*
X157824713Y-113705000D02*
X157824713Y-113124429D01*
X157824713Y-113124429D02*
X157873094Y-112979286D01*
X157873094Y-112979286D02*
X157921475Y-112906714D01*
X157921475Y-112906714D02*
X158018237Y-112834143D01*
X158018237Y-112834143D02*
X158211761Y-112834143D01*
X158211761Y-112834143D02*
X158308523Y-112906714D01*
X158308523Y-112906714D02*
X158356904Y-112979286D01*
X158356904Y-112979286D02*
X158405285Y-113124429D01*
X158405285Y-113124429D02*
X158405285Y-113487286D01*
X158405285Y-113487286D02*
X158356904Y-113632429D01*
X158356904Y-113632429D02*
X158308523Y-113705000D01*
X158308523Y-113705000D02*
X158211761Y-113777572D01*
X158211761Y-113777572D02*
X158018237Y-113777572D01*
X158018237Y-113777572D02*
X157921475Y-113705000D01*
X157921475Y-113705000D02*
X157873094Y-113632429D01*
X157873094Y-113632429D02*
X157824713Y-113487286D01*
X140528523Y-96578143D02*
X141109095Y-96578143D01*
X140818809Y-96578143D02*
X140818809Y-95054143D01*
X140818809Y-95054143D02*
X140915571Y-95271857D01*
X140915571Y-95271857D02*
X141012333Y-95417000D01*
X141012333Y-95417000D02*
X141109095Y-95489572D01*
X140044714Y-96578143D02*
X139851190Y-96578143D01*
X139851190Y-96578143D02*
X139754428Y-96505572D01*
X139754428Y-96505572D02*
X139706047Y-96433000D01*
X139706047Y-96433000D02*
X139609285Y-96215286D01*
X139609285Y-96215286D02*
X139560904Y-95925000D01*
X139560904Y-95925000D02*
X139560904Y-95344429D01*
X139560904Y-95344429D02*
X139609285Y-95199286D01*
X139609285Y-95199286D02*
X139657666Y-95126714D01*
X139657666Y-95126714D02*
X139754428Y-95054143D01*
X139754428Y-95054143D02*
X139947952Y-95054143D01*
X139947952Y-95054143D02*
X140044714Y-95126714D01*
X140044714Y-95126714D02*
X140093095Y-95199286D01*
X140093095Y-95199286D02*
X140141476Y-95344429D01*
X140141476Y-95344429D02*
X140141476Y-95707286D01*
X140141476Y-95707286D02*
X140093095Y-95852429D01*
X140093095Y-95852429D02*
X140044714Y-95925000D01*
X140044714Y-95925000D02*
X139947952Y-95997572D01*
X139947952Y-95997572D02*
X139754428Y-95997572D01*
X139754428Y-95997572D02*
X139657666Y-95925000D01*
X139657666Y-95925000D02*
X139609285Y-95852429D01*
X139609285Y-95852429D02*
X139560904Y-95707286D01*
X122107476Y-95054143D02*
X121478523Y-95054143D01*
X121478523Y-95054143D02*
X121817190Y-95634714D01*
X121817190Y-95634714D02*
X121672047Y-95634714D01*
X121672047Y-95634714D02*
X121575285Y-95707286D01*
X121575285Y-95707286D02*
X121526904Y-95779857D01*
X121526904Y-95779857D02*
X121478523Y-95925000D01*
X121478523Y-95925000D02*
X121478523Y-96287857D01*
X121478523Y-96287857D02*
X121526904Y-96433000D01*
X121526904Y-96433000D02*
X121575285Y-96505572D01*
X121575285Y-96505572D02*
X121672047Y-96578143D01*
X121672047Y-96578143D02*
X121962333Y-96578143D01*
X121962333Y-96578143D02*
X122059095Y-96505572D01*
X122059095Y-96505572D02*
X122107476Y-96433000D01*
X120849571Y-95054143D02*
X120752809Y-95054143D01*
X120752809Y-95054143D02*
X120656047Y-95126714D01*
X120656047Y-95126714D02*
X120607666Y-95199286D01*
X120607666Y-95199286D02*
X120559285Y-95344429D01*
X120559285Y-95344429D02*
X120510904Y-95634714D01*
X120510904Y-95634714D02*
X120510904Y-95997572D01*
X120510904Y-95997572D02*
X120559285Y-96287857D01*
X120559285Y-96287857D02*
X120607666Y-96433000D01*
X120607666Y-96433000D02*
X120656047Y-96505572D01*
X120656047Y-96505572D02*
X120752809Y-96578143D01*
X120752809Y-96578143D02*
X120849571Y-96578143D01*
X120849571Y-96578143D02*
X120946333Y-96505572D01*
X120946333Y-96505572D02*
X120994714Y-96433000D01*
X120994714Y-96433000D02*
X121043095Y-96287857D01*
X121043095Y-96287857D02*
X121091476Y-95997572D01*
X121091476Y-95997572D02*
X121091476Y-95634714D01*
X121091476Y-95634714D02*
X121043095Y-95344429D01*
X121043095Y-95344429D02*
X120994714Y-95199286D01*
X120994714Y-95199286D02*
X120946333Y-95126714D01*
X120946333Y-95126714D02*
X120849571Y-95054143D01*
X96223666Y-112834143D02*
X95594713Y-112834143D01*
X95594713Y-112834143D02*
X95933380Y-113414714D01*
X95933380Y-113414714D02*
X95788237Y-113414714D01*
X95788237Y-113414714D02*
X95691475Y-113487286D01*
X95691475Y-113487286D02*
X95643094Y-113559857D01*
X95643094Y-113559857D02*
X95594713Y-113705000D01*
X95594713Y-113705000D02*
X95594713Y-114067857D01*
X95594713Y-114067857D02*
X95643094Y-114213000D01*
X95643094Y-114213000D02*
X95691475Y-114285572D01*
X95691475Y-114285572D02*
X95788237Y-114358143D01*
X95788237Y-114358143D02*
X96078523Y-114358143D01*
X96078523Y-114358143D02*
X96175285Y-114285572D01*
X96175285Y-114285572D02*
X96223666Y-114213000D01*
X90998523Y-96578143D02*
X91579095Y-96578143D01*
X91288809Y-96578143D02*
X91288809Y-95054143D01*
X91288809Y-95054143D02*
X91385571Y-95271857D01*
X91385571Y-95271857D02*
X91482333Y-95417000D01*
X91482333Y-95417000D02*
X91579095Y-95489572D01*
X90417952Y-95707286D02*
X90514714Y-95634714D01*
X90514714Y-95634714D02*
X90563095Y-95562143D01*
X90563095Y-95562143D02*
X90611476Y-95417000D01*
X90611476Y-95417000D02*
X90611476Y-95344429D01*
X90611476Y-95344429D02*
X90563095Y-95199286D01*
X90563095Y-95199286D02*
X90514714Y-95126714D01*
X90514714Y-95126714D02*
X90417952Y-95054143D01*
X90417952Y-95054143D02*
X90224428Y-95054143D01*
X90224428Y-95054143D02*
X90127666Y-95126714D01*
X90127666Y-95126714D02*
X90079285Y-95199286D01*
X90079285Y-95199286D02*
X90030904Y-95344429D01*
X90030904Y-95344429D02*
X90030904Y-95417000D01*
X90030904Y-95417000D02*
X90079285Y-95562143D01*
X90079285Y-95562143D02*
X90127666Y-95634714D01*
X90127666Y-95634714D02*
X90224428Y-95707286D01*
X90224428Y-95707286D02*
X90417952Y-95707286D01*
X90417952Y-95707286D02*
X90514714Y-95779857D01*
X90514714Y-95779857D02*
X90563095Y-95852429D01*
X90563095Y-95852429D02*
X90611476Y-95997572D01*
X90611476Y-95997572D02*
X90611476Y-96287857D01*
X90611476Y-96287857D02*
X90563095Y-96433000D01*
X90563095Y-96433000D02*
X90514714Y-96505572D01*
X90514714Y-96505572D02*
X90417952Y-96578143D01*
X90417952Y-96578143D02*
X90224428Y-96578143D01*
X90224428Y-96578143D02*
X90127666Y-96505572D01*
X90127666Y-96505572D02*
X90079285Y-96433000D01*
X90079285Y-96433000D02*
X90030904Y-96287857D01*
X90030904Y-96287857D02*
X90030904Y-95997572D01*
X90030904Y-95997572D02*
X90079285Y-95852429D01*
X90079285Y-95852429D02*
X90127666Y-95779857D01*
X90127666Y-95779857D02*
X90224428Y-95707286D01*
X113858523Y-114358143D02*
X114439095Y-114358143D01*
X114148809Y-114358143D02*
X114148809Y-112834143D01*
X114148809Y-112834143D02*
X114245571Y-113051857D01*
X114245571Y-113051857D02*
X114342333Y-113197000D01*
X114342333Y-113197000D02*
X114439095Y-113269572D01*
X113229571Y-112834143D02*
X113132809Y-112834143D01*
X113132809Y-112834143D02*
X113036047Y-112906714D01*
X113036047Y-112906714D02*
X112987666Y-112979286D01*
X112987666Y-112979286D02*
X112939285Y-113124429D01*
X112939285Y-113124429D02*
X112890904Y-113414714D01*
X112890904Y-113414714D02*
X112890904Y-113777572D01*
X112890904Y-113777572D02*
X112939285Y-114067857D01*
X112939285Y-114067857D02*
X112987666Y-114213000D01*
X112987666Y-114213000D02*
X113036047Y-114285572D01*
X113036047Y-114285572D02*
X113132809Y-114358143D01*
X113132809Y-114358143D02*
X113229571Y-114358143D01*
X113229571Y-114358143D02*
X113326333Y-114285572D01*
X113326333Y-114285572D02*
X113374714Y-114213000D01*
X113374714Y-114213000D02*
X113423095Y-114067857D01*
X113423095Y-114067857D02*
X113471476Y-113777572D01*
X113471476Y-113777572D02*
X113471476Y-113414714D01*
X113471476Y-113414714D02*
X113423095Y-113124429D01*
X113423095Y-113124429D02*
X113374714Y-112979286D01*
X113374714Y-112979286D02*
X113326333Y-112906714D01*
X113326333Y-112906714D02*
X113229571Y-112834143D01*
X121478523Y-114358143D02*
X122059095Y-114358143D01*
X121768809Y-114358143D02*
X121768809Y-112834143D01*
X121768809Y-112834143D02*
X121865571Y-113051857D01*
X121865571Y-113051857D02*
X121962333Y-113197000D01*
X121962333Y-113197000D02*
X122059095Y-113269572D01*
X121139857Y-112834143D02*
X120510904Y-112834143D01*
X120510904Y-112834143D02*
X120849571Y-113414714D01*
X120849571Y-113414714D02*
X120704428Y-113414714D01*
X120704428Y-113414714D02*
X120607666Y-113487286D01*
X120607666Y-113487286D02*
X120559285Y-113559857D01*
X120559285Y-113559857D02*
X120510904Y-113705000D01*
X120510904Y-113705000D02*
X120510904Y-114067857D01*
X120510904Y-114067857D02*
X120559285Y-114213000D01*
X120559285Y-114213000D02*
X120607666Y-114285572D01*
X120607666Y-114285572D02*
X120704428Y-114358143D01*
X120704428Y-114358143D02*
X120994714Y-114358143D01*
X120994714Y-114358143D02*
X121091476Y-114285572D01*
X121091476Y-114285572D02*
X121139857Y-114213000D01*
X131638523Y-114358143D02*
X132219095Y-114358143D01*
X131928809Y-114358143D02*
X131928809Y-112834143D01*
X131928809Y-112834143D02*
X132025571Y-113051857D01*
X132025571Y-113051857D02*
X132122333Y-113197000D01*
X132122333Y-113197000D02*
X132219095Y-113269572D01*
X131299857Y-112834143D02*
X130622523Y-112834143D01*
X130622523Y-112834143D02*
X131057952Y-114358143D01*
X116979095Y-95199286D02*
X116930714Y-95126714D01*
X116930714Y-95126714D02*
X116833952Y-95054143D01*
X116833952Y-95054143D02*
X116592047Y-95054143D01*
X116592047Y-95054143D02*
X116495285Y-95126714D01*
X116495285Y-95126714D02*
X116446904Y-95199286D01*
X116446904Y-95199286D02*
X116398523Y-95344429D01*
X116398523Y-95344429D02*
X116398523Y-95489572D01*
X116398523Y-95489572D02*
X116446904Y-95707286D01*
X116446904Y-95707286D02*
X117027476Y-96578143D01*
X117027476Y-96578143D02*
X116398523Y-96578143D01*
X115817952Y-95707286D02*
X115914714Y-95634714D01*
X115914714Y-95634714D02*
X115963095Y-95562143D01*
X115963095Y-95562143D02*
X116011476Y-95417000D01*
X116011476Y-95417000D02*
X116011476Y-95344429D01*
X116011476Y-95344429D02*
X115963095Y-95199286D01*
X115963095Y-95199286D02*
X115914714Y-95126714D01*
X115914714Y-95126714D02*
X115817952Y-95054143D01*
X115817952Y-95054143D02*
X115624428Y-95054143D01*
X115624428Y-95054143D02*
X115527666Y-95126714D01*
X115527666Y-95126714D02*
X115479285Y-95199286D01*
X115479285Y-95199286D02*
X115430904Y-95344429D01*
X115430904Y-95344429D02*
X115430904Y-95417000D01*
X115430904Y-95417000D02*
X115479285Y-95562143D01*
X115479285Y-95562143D02*
X115527666Y-95634714D01*
X115527666Y-95634714D02*
X115624428Y-95707286D01*
X115624428Y-95707286D02*
X115817952Y-95707286D01*
X115817952Y-95707286D02*
X115914714Y-95779857D01*
X115914714Y-95779857D02*
X115963095Y-95852429D01*
X115963095Y-95852429D02*
X116011476Y-95997572D01*
X116011476Y-95997572D02*
X116011476Y-96287857D01*
X116011476Y-96287857D02*
X115963095Y-96433000D01*
X115963095Y-96433000D02*
X115914714Y-96505572D01*
X115914714Y-96505572D02*
X115817952Y-96578143D01*
X115817952Y-96578143D02*
X115624428Y-96578143D01*
X115624428Y-96578143D02*
X115527666Y-96505572D01*
X115527666Y-96505572D02*
X115479285Y-96433000D01*
X115479285Y-96433000D02*
X115430904Y-96287857D01*
X115430904Y-96287857D02*
X115430904Y-95997572D01*
X115430904Y-95997572D02*
X115479285Y-95852429D01*
X115479285Y-95852429D02*
X115527666Y-95779857D01*
X115527666Y-95779857D02*
X115624428Y-95707286D01*
X119519095Y-95199286D02*
X119470714Y-95126714D01*
X119470714Y-95126714D02*
X119373952Y-95054143D01*
X119373952Y-95054143D02*
X119132047Y-95054143D01*
X119132047Y-95054143D02*
X119035285Y-95126714D01*
X119035285Y-95126714D02*
X118986904Y-95199286D01*
X118986904Y-95199286D02*
X118938523Y-95344429D01*
X118938523Y-95344429D02*
X118938523Y-95489572D01*
X118938523Y-95489572D02*
X118986904Y-95707286D01*
X118986904Y-95707286D02*
X119567476Y-96578143D01*
X119567476Y-96578143D02*
X118938523Y-96578143D01*
X118454714Y-96578143D02*
X118261190Y-96578143D01*
X118261190Y-96578143D02*
X118164428Y-96505572D01*
X118164428Y-96505572D02*
X118116047Y-96433000D01*
X118116047Y-96433000D02*
X118019285Y-96215286D01*
X118019285Y-96215286D02*
X117970904Y-95925000D01*
X117970904Y-95925000D02*
X117970904Y-95344429D01*
X117970904Y-95344429D02*
X118019285Y-95199286D01*
X118019285Y-95199286D02*
X118067666Y-95126714D01*
X118067666Y-95126714D02*
X118164428Y-95054143D01*
X118164428Y-95054143D02*
X118357952Y-95054143D01*
X118357952Y-95054143D02*
X118454714Y-95126714D01*
X118454714Y-95126714D02*
X118503095Y-95199286D01*
X118503095Y-95199286D02*
X118551476Y-95344429D01*
X118551476Y-95344429D02*
X118551476Y-95707286D01*
X118551476Y-95707286D02*
X118503095Y-95852429D01*
X118503095Y-95852429D02*
X118454714Y-95925000D01*
X118454714Y-95925000D02*
X118357952Y-95997572D01*
X118357952Y-95997572D02*
X118164428Y-95997572D01*
X118164428Y-95997572D02*
X118067666Y-95925000D01*
X118067666Y-95925000D02*
X118019285Y-95852429D01*
X118019285Y-95852429D02*
X117970904Y-95707286D01*
X111318523Y-114358143D02*
X111124999Y-114358143D01*
X111124999Y-114358143D02*
X111028237Y-114285572D01*
X111028237Y-114285572D02*
X110979856Y-114213000D01*
X110979856Y-114213000D02*
X110883094Y-113995286D01*
X110883094Y-113995286D02*
X110834713Y-113705000D01*
X110834713Y-113705000D02*
X110834713Y-113124429D01*
X110834713Y-113124429D02*
X110883094Y-112979286D01*
X110883094Y-112979286D02*
X110931475Y-112906714D01*
X110931475Y-112906714D02*
X111028237Y-112834143D01*
X111028237Y-112834143D02*
X111221761Y-112834143D01*
X111221761Y-112834143D02*
X111318523Y-112906714D01*
X111318523Y-112906714D02*
X111366904Y-112979286D01*
X111366904Y-112979286D02*
X111415285Y-113124429D01*
X111415285Y-113124429D02*
X111415285Y-113487286D01*
X111415285Y-113487286D02*
X111366904Y-113632429D01*
X111366904Y-113632429D02*
X111318523Y-113705000D01*
X111318523Y-113705000D02*
X111221761Y-113777572D01*
X111221761Y-113777572D02*
X111028237Y-113777572D01*
X111028237Y-113777572D02*
X110931475Y-113705000D01*
X110931475Y-113705000D02*
X110883094Y-113632429D01*
X110883094Y-113632429D02*
X110834713Y-113487286D01*
X90514713Y-114358143D02*
X91095285Y-114358143D01*
X90804999Y-114358143D02*
X90804999Y-112834143D01*
X90804999Y-112834143D02*
X90901761Y-113051857D01*
X90901761Y-113051857D02*
X90998523Y-113197000D01*
X90998523Y-113197000D02*
X91095285Y-113269572D01*
X111899095Y-95199286D02*
X111850714Y-95126714D01*
X111850714Y-95126714D02*
X111753952Y-95054143D01*
X111753952Y-95054143D02*
X111512047Y-95054143D01*
X111512047Y-95054143D02*
X111415285Y-95126714D01*
X111415285Y-95126714D02*
X111366904Y-95199286D01*
X111366904Y-95199286D02*
X111318523Y-95344429D01*
X111318523Y-95344429D02*
X111318523Y-95489572D01*
X111318523Y-95489572D02*
X111366904Y-95707286D01*
X111366904Y-95707286D02*
X111947476Y-96578143D01*
X111947476Y-96578143D02*
X111318523Y-96578143D01*
X110447666Y-95054143D02*
X110641190Y-95054143D01*
X110641190Y-95054143D02*
X110737952Y-95126714D01*
X110737952Y-95126714D02*
X110786333Y-95199286D01*
X110786333Y-95199286D02*
X110883095Y-95417000D01*
X110883095Y-95417000D02*
X110931476Y-95707286D01*
X110931476Y-95707286D02*
X110931476Y-96287857D01*
X110931476Y-96287857D02*
X110883095Y-96433000D01*
X110883095Y-96433000D02*
X110834714Y-96505572D01*
X110834714Y-96505572D02*
X110737952Y-96578143D01*
X110737952Y-96578143D02*
X110544428Y-96578143D01*
X110544428Y-96578143D02*
X110447666Y-96505572D01*
X110447666Y-96505572D02*
X110399285Y-96433000D01*
X110399285Y-96433000D02*
X110350904Y-96287857D01*
X110350904Y-96287857D02*
X110350904Y-95925000D01*
X110350904Y-95925000D02*
X110399285Y-95779857D01*
X110399285Y-95779857D02*
X110447666Y-95707286D01*
X110447666Y-95707286D02*
X110544428Y-95634714D01*
X110544428Y-95634714D02*
X110737952Y-95634714D01*
X110737952Y-95634714D02*
X110834714Y-95707286D01*
X110834714Y-95707286D02*
X110883095Y-95779857D01*
X110883095Y-95779857D02*
X110931476Y-95925000D01*
X99199095Y-95199286D02*
X99150714Y-95126714D01*
X99150714Y-95126714D02*
X99053952Y-95054143D01*
X99053952Y-95054143D02*
X98812047Y-95054143D01*
X98812047Y-95054143D02*
X98715285Y-95126714D01*
X98715285Y-95126714D02*
X98666904Y-95199286D01*
X98666904Y-95199286D02*
X98618523Y-95344429D01*
X98618523Y-95344429D02*
X98618523Y-95489572D01*
X98618523Y-95489572D02*
X98666904Y-95707286D01*
X98666904Y-95707286D02*
X99247476Y-96578143D01*
X99247476Y-96578143D02*
X98618523Y-96578143D01*
X97650904Y-96578143D02*
X98231476Y-96578143D01*
X97941190Y-96578143D02*
X97941190Y-95054143D01*
X97941190Y-95054143D02*
X98037952Y-95271857D01*
X98037952Y-95271857D02*
X98134714Y-95417000D01*
X98134714Y-95417000D02*
X98231476Y-95489572D01*
X127187476Y-95054143D02*
X126558523Y-95054143D01*
X126558523Y-95054143D02*
X126897190Y-95634714D01*
X126897190Y-95634714D02*
X126752047Y-95634714D01*
X126752047Y-95634714D02*
X126655285Y-95707286D01*
X126655285Y-95707286D02*
X126606904Y-95779857D01*
X126606904Y-95779857D02*
X126558523Y-95925000D01*
X126558523Y-95925000D02*
X126558523Y-96287857D01*
X126558523Y-96287857D02*
X126606904Y-96433000D01*
X126606904Y-96433000D02*
X126655285Y-96505572D01*
X126655285Y-96505572D02*
X126752047Y-96578143D01*
X126752047Y-96578143D02*
X127042333Y-96578143D01*
X127042333Y-96578143D02*
X127139095Y-96505572D01*
X127139095Y-96505572D02*
X127187476Y-96433000D01*
X126171476Y-95199286D02*
X126123095Y-95126714D01*
X126123095Y-95126714D02*
X126026333Y-95054143D01*
X126026333Y-95054143D02*
X125784428Y-95054143D01*
X125784428Y-95054143D02*
X125687666Y-95126714D01*
X125687666Y-95126714D02*
X125639285Y-95199286D01*
X125639285Y-95199286D02*
X125590904Y-95344429D01*
X125590904Y-95344429D02*
X125590904Y-95489572D01*
X125590904Y-95489572D02*
X125639285Y-95707286D01*
X125639285Y-95707286D02*
X126219857Y-96578143D01*
X126219857Y-96578143D02*
X125590904Y-96578143D01*
X104279095Y-95199286D02*
X104230714Y-95126714D01*
X104230714Y-95126714D02*
X104133952Y-95054143D01*
X104133952Y-95054143D02*
X103892047Y-95054143D01*
X103892047Y-95054143D02*
X103795285Y-95126714D01*
X103795285Y-95126714D02*
X103746904Y-95199286D01*
X103746904Y-95199286D02*
X103698523Y-95344429D01*
X103698523Y-95344429D02*
X103698523Y-95489572D01*
X103698523Y-95489572D02*
X103746904Y-95707286D01*
X103746904Y-95707286D02*
X104327476Y-96578143D01*
X104327476Y-96578143D02*
X103698523Y-96578143D01*
X103359857Y-95054143D02*
X102730904Y-95054143D01*
X102730904Y-95054143D02*
X103069571Y-95634714D01*
X103069571Y-95634714D02*
X102924428Y-95634714D01*
X102924428Y-95634714D02*
X102827666Y-95707286D01*
X102827666Y-95707286D02*
X102779285Y-95779857D01*
X102779285Y-95779857D02*
X102730904Y-95925000D01*
X102730904Y-95925000D02*
X102730904Y-96287857D01*
X102730904Y-96287857D02*
X102779285Y-96433000D01*
X102779285Y-96433000D02*
X102827666Y-96505572D01*
X102827666Y-96505572D02*
X102924428Y-96578143D01*
X102924428Y-96578143D02*
X103214714Y-96578143D01*
X103214714Y-96578143D02*
X103311476Y-96505572D01*
X103311476Y-96505572D02*
X103359857Y-96433000D01*
X98231475Y-113342143D02*
X98231475Y-114358143D01*
X98473380Y-112761572D02*
X98715285Y-113850143D01*
X98715285Y-113850143D02*
X98086332Y-113850143D01*
X129727476Y-95054143D02*
X129098523Y-95054143D01*
X129098523Y-95054143D02*
X129437190Y-95634714D01*
X129437190Y-95634714D02*
X129292047Y-95634714D01*
X129292047Y-95634714D02*
X129195285Y-95707286D01*
X129195285Y-95707286D02*
X129146904Y-95779857D01*
X129146904Y-95779857D02*
X129098523Y-95925000D01*
X129098523Y-95925000D02*
X129098523Y-96287857D01*
X129098523Y-96287857D02*
X129146904Y-96433000D01*
X129146904Y-96433000D02*
X129195285Y-96505572D01*
X129195285Y-96505572D02*
X129292047Y-96578143D01*
X129292047Y-96578143D02*
X129582333Y-96578143D01*
X129582333Y-96578143D02*
X129679095Y-96505572D01*
X129679095Y-96505572D02*
X129727476Y-96433000D01*
X128759857Y-95054143D02*
X128130904Y-95054143D01*
X128130904Y-95054143D02*
X128469571Y-95634714D01*
X128469571Y-95634714D02*
X128324428Y-95634714D01*
X128324428Y-95634714D02*
X128227666Y-95707286D01*
X128227666Y-95707286D02*
X128179285Y-95779857D01*
X128179285Y-95779857D02*
X128130904Y-95925000D01*
X128130904Y-95925000D02*
X128130904Y-96287857D01*
X128130904Y-96287857D02*
X128179285Y-96433000D01*
X128179285Y-96433000D02*
X128227666Y-96505572D01*
X128227666Y-96505572D02*
X128324428Y-96578143D01*
X128324428Y-96578143D02*
X128614714Y-96578143D01*
X128614714Y-96578143D02*
X128711476Y-96505572D01*
X128711476Y-96505572D02*
X128759857Y-96433000D01*
X100723094Y-112834143D02*
X101206904Y-112834143D01*
X101206904Y-112834143D02*
X101255285Y-113559857D01*
X101255285Y-113559857D02*
X101206904Y-113487286D01*
X101206904Y-113487286D02*
X101110142Y-113414714D01*
X101110142Y-113414714D02*
X100868237Y-113414714D01*
X100868237Y-113414714D02*
X100771475Y-113487286D01*
X100771475Y-113487286D02*
X100723094Y-113559857D01*
X100723094Y-113559857D02*
X100674713Y-113705000D01*
X100674713Y-113705000D02*
X100674713Y-114067857D01*
X100674713Y-114067857D02*
X100723094Y-114213000D01*
X100723094Y-114213000D02*
X100771475Y-114285572D01*
X100771475Y-114285572D02*
X100868237Y-114358143D01*
X100868237Y-114358143D02*
X101110142Y-114358143D01*
X101110142Y-114358143D02*
X101206904Y-114285572D01*
X101206904Y-114285572D02*
X101255285Y-114213000D01*
X132267476Y-95054143D02*
X131638523Y-95054143D01*
X131638523Y-95054143D02*
X131977190Y-95634714D01*
X131977190Y-95634714D02*
X131832047Y-95634714D01*
X131832047Y-95634714D02*
X131735285Y-95707286D01*
X131735285Y-95707286D02*
X131686904Y-95779857D01*
X131686904Y-95779857D02*
X131638523Y-95925000D01*
X131638523Y-95925000D02*
X131638523Y-96287857D01*
X131638523Y-96287857D02*
X131686904Y-96433000D01*
X131686904Y-96433000D02*
X131735285Y-96505572D01*
X131735285Y-96505572D02*
X131832047Y-96578143D01*
X131832047Y-96578143D02*
X132122333Y-96578143D01*
X132122333Y-96578143D02*
X132219095Y-96505572D01*
X132219095Y-96505572D02*
X132267476Y-96433000D01*
X130767666Y-95562143D02*
X130767666Y-96578143D01*
X131009571Y-94981572D02*
X131251476Y-96070143D01*
X131251476Y-96070143D02*
X130622523Y-96070143D01*
X124018523Y-114358143D02*
X124599095Y-114358143D01*
X124308809Y-114358143D02*
X124308809Y-112834143D01*
X124308809Y-112834143D02*
X124405571Y-113051857D01*
X124405571Y-113051857D02*
X124502333Y-113197000D01*
X124502333Y-113197000D02*
X124599095Y-113269572D01*
X123147666Y-113342143D02*
X123147666Y-114358143D01*
X123389571Y-112761572D02*
X123631476Y-113850143D01*
X123631476Y-113850143D02*
X123002523Y-113850143D01*
X118938523Y-114358143D02*
X119519095Y-114358143D01*
X119228809Y-114358143D02*
X119228809Y-112834143D01*
X119228809Y-112834143D02*
X119325571Y-113051857D01*
X119325571Y-113051857D02*
X119422333Y-113197000D01*
X119422333Y-113197000D02*
X119519095Y-113269572D01*
X118551476Y-112979286D02*
X118503095Y-112906714D01*
X118503095Y-112906714D02*
X118406333Y-112834143D01*
X118406333Y-112834143D02*
X118164428Y-112834143D01*
X118164428Y-112834143D02*
X118067666Y-112906714D01*
X118067666Y-112906714D02*
X118019285Y-112979286D01*
X118019285Y-112979286D02*
X117970904Y-113124429D01*
X117970904Y-113124429D02*
X117970904Y-113269572D01*
X117970904Y-113269572D02*
X118019285Y-113487286D01*
X118019285Y-113487286D02*
X118599857Y-114358143D01*
X118599857Y-114358143D02*
X117970904Y-114358143D01*
X93635285Y-112979286D02*
X93586904Y-112906714D01*
X93586904Y-112906714D02*
X93490142Y-112834143D01*
X93490142Y-112834143D02*
X93248237Y-112834143D01*
X93248237Y-112834143D02*
X93151475Y-112906714D01*
X93151475Y-112906714D02*
X93103094Y-112979286D01*
X93103094Y-112979286D02*
X93054713Y-113124429D01*
X93054713Y-113124429D02*
X93054713Y-113269572D01*
X93054713Y-113269572D02*
X93103094Y-113487286D01*
X93103094Y-113487286D02*
X93683666Y-114358143D01*
X93683666Y-114358143D02*
X93054713Y-114358143D01*
X126558523Y-114358143D02*
X127139095Y-114358143D01*
X126848809Y-114358143D02*
X126848809Y-112834143D01*
X126848809Y-112834143D02*
X126945571Y-113051857D01*
X126945571Y-113051857D02*
X127042333Y-113197000D01*
X127042333Y-113197000D02*
X127139095Y-113269572D01*
X125639285Y-112834143D02*
X126123095Y-112834143D01*
X126123095Y-112834143D02*
X126171476Y-113559857D01*
X126171476Y-113559857D02*
X126123095Y-113487286D01*
X126123095Y-113487286D02*
X126026333Y-113414714D01*
X126026333Y-113414714D02*
X125784428Y-113414714D01*
X125784428Y-113414714D02*
X125687666Y-113487286D01*
X125687666Y-113487286D02*
X125639285Y-113559857D01*
X125639285Y-113559857D02*
X125590904Y-113705000D01*
X125590904Y-113705000D02*
X125590904Y-114067857D01*
X125590904Y-114067857D02*
X125639285Y-114213000D01*
X125639285Y-114213000D02*
X125687666Y-114285572D01*
X125687666Y-114285572D02*
X125784428Y-114358143D01*
X125784428Y-114358143D02*
X126026333Y-114358143D01*
X126026333Y-114358143D02*
X126123095Y-114285572D01*
X126123095Y-114285572D02*
X126171476Y-114213000D01*
X103311475Y-112834143D02*
X103504999Y-112834143D01*
X103504999Y-112834143D02*
X103601761Y-112906714D01*
X103601761Y-112906714D02*
X103650142Y-112979286D01*
X103650142Y-112979286D02*
X103746904Y-113197000D01*
X103746904Y-113197000D02*
X103795285Y-113487286D01*
X103795285Y-113487286D02*
X103795285Y-114067857D01*
X103795285Y-114067857D02*
X103746904Y-114213000D01*
X103746904Y-114213000D02*
X103698523Y-114285572D01*
X103698523Y-114285572D02*
X103601761Y-114358143D01*
X103601761Y-114358143D02*
X103408237Y-114358143D01*
X103408237Y-114358143D02*
X103311475Y-114285572D01*
X103311475Y-114285572D02*
X103263094Y-114213000D01*
X103263094Y-114213000D02*
X103214713Y-114067857D01*
X103214713Y-114067857D02*
X103214713Y-113705000D01*
X103214713Y-113705000D02*
X103263094Y-113559857D01*
X103263094Y-113559857D02*
X103311475Y-113487286D01*
X103311475Y-113487286D02*
X103408237Y-113414714D01*
X103408237Y-113414714D02*
X103601761Y-113414714D01*
X103601761Y-113414714D02*
X103698523Y-113487286D01*
X103698523Y-113487286D02*
X103746904Y-113559857D01*
X103746904Y-113559857D02*
X103795285Y-113705000D01*
X116398523Y-114358143D02*
X116979095Y-114358143D01*
X116688809Y-114358143D02*
X116688809Y-112834143D01*
X116688809Y-112834143D02*
X116785571Y-113051857D01*
X116785571Y-113051857D02*
X116882333Y-113197000D01*
X116882333Y-113197000D02*
X116979095Y-113269572D01*
X115430904Y-114358143D02*
X116011476Y-114358143D01*
X115721190Y-114358143D02*
X115721190Y-112834143D01*
X115721190Y-112834143D02*
X115817952Y-113051857D01*
X115817952Y-113051857D02*
X115914714Y-113197000D01*
X115914714Y-113197000D02*
X116011476Y-113269572D01*
X114439095Y-95199286D02*
X114390714Y-95126714D01*
X114390714Y-95126714D02*
X114293952Y-95054143D01*
X114293952Y-95054143D02*
X114052047Y-95054143D01*
X114052047Y-95054143D02*
X113955285Y-95126714D01*
X113955285Y-95126714D02*
X113906904Y-95199286D01*
X113906904Y-95199286D02*
X113858523Y-95344429D01*
X113858523Y-95344429D02*
X113858523Y-95489572D01*
X113858523Y-95489572D02*
X113906904Y-95707286D01*
X113906904Y-95707286D02*
X114487476Y-96578143D01*
X114487476Y-96578143D02*
X113858523Y-96578143D01*
X113519857Y-95054143D02*
X112842523Y-95054143D01*
X112842523Y-95054143D02*
X113277952Y-96578143D01*
X101739095Y-95199286D02*
X101690714Y-95126714D01*
X101690714Y-95126714D02*
X101593952Y-95054143D01*
X101593952Y-95054143D02*
X101352047Y-95054143D01*
X101352047Y-95054143D02*
X101255285Y-95126714D01*
X101255285Y-95126714D02*
X101206904Y-95199286D01*
X101206904Y-95199286D02*
X101158523Y-95344429D01*
X101158523Y-95344429D02*
X101158523Y-95489572D01*
X101158523Y-95489572D02*
X101206904Y-95707286D01*
X101206904Y-95707286D02*
X101787476Y-96578143D01*
X101787476Y-96578143D02*
X101158523Y-96578143D01*
X100771476Y-95199286D02*
X100723095Y-95126714D01*
X100723095Y-95126714D02*
X100626333Y-95054143D01*
X100626333Y-95054143D02*
X100384428Y-95054143D01*
X100384428Y-95054143D02*
X100287666Y-95126714D01*
X100287666Y-95126714D02*
X100239285Y-95199286D01*
X100239285Y-95199286D02*
X100190904Y-95344429D01*
X100190904Y-95344429D02*
X100190904Y-95489572D01*
X100190904Y-95489572D02*
X100239285Y-95707286D01*
X100239285Y-95707286D02*
X100819857Y-96578143D01*
X100819857Y-96578143D02*
X100190904Y-96578143D01*
X129098523Y-114358143D02*
X129679095Y-114358143D01*
X129388809Y-114358143D02*
X129388809Y-112834143D01*
X129388809Y-112834143D02*
X129485571Y-113051857D01*
X129485571Y-113051857D02*
X129582333Y-113197000D01*
X129582333Y-113197000D02*
X129679095Y-113269572D01*
X128227666Y-112834143D02*
X128421190Y-112834143D01*
X128421190Y-112834143D02*
X128517952Y-112906714D01*
X128517952Y-112906714D02*
X128566333Y-112979286D01*
X128566333Y-112979286D02*
X128663095Y-113197000D01*
X128663095Y-113197000D02*
X128711476Y-113487286D01*
X128711476Y-113487286D02*
X128711476Y-114067857D01*
X128711476Y-114067857D02*
X128663095Y-114213000D01*
X128663095Y-114213000D02*
X128614714Y-114285572D01*
X128614714Y-114285572D02*
X128517952Y-114358143D01*
X128517952Y-114358143D02*
X128324428Y-114358143D01*
X128324428Y-114358143D02*
X128227666Y-114285572D01*
X128227666Y-114285572D02*
X128179285Y-114213000D01*
X128179285Y-114213000D02*
X128130904Y-114067857D01*
X128130904Y-114067857D02*
X128130904Y-113705000D01*
X128130904Y-113705000D02*
X128179285Y-113559857D01*
X128179285Y-113559857D02*
X128227666Y-113487286D01*
X128227666Y-113487286D02*
X128324428Y-113414714D01*
X128324428Y-113414714D02*
X128517952Y-113414714D01*
X128517952Y-113414714D02*
X128614714Y-113487286D01*
X128614714Y-113487286D02*
X128663095Y-113559857D01*
X128663095Y-113559857D02*
X128711476Y-113705000D01*
X93538523Y-96578143D02*
X94119095Y-96578143D01*
X93828809Y-96578143D02*
X93828809Y-95054143D01*
X93828809Y-95054143D02*
X93925571Y-95271857D01*
X93925571Y-95271857D02*
X94022333Y-95417000D01*
X94022333Y-95417000D02*
X94119095Y-95489572D01*
X93054714Y-96578143D02*
X92861190Y-96578143D01*
X92861190Y-96578143D02*
X92764428Y-96505572D01*
X92764428Y-96505572D02*
X92716047Y-96433000D01*
X92716047Y-96433000D02*
X92619285Y-96215286D01*
X92619285Y-96215286D02*
X92570904Y-95925000D01*
X92570904Y-95925000D02*
X92570904Y-95344429D01*
X92570904Y-95344429D02*
X92619285Y-95199286D01*
X92619285Y-95199286D02*
X92667666Y-95126714D01*
X92667666Y-95126714D02*
X92764428Y-95054143D01*
X92764428Y-95054143D02*
X92957952Y-95054143D01*
X92957952Y-95054143D02*
X93054714Y-95126714D01*
X93054714Y-95126714D02*
X93103095Y-95199286D01*
X93103095Y-95199286D02*
X93151476Y-95344429D01*
X93151476Y-95344429D02*
X93151476Y-95707286D01*
X93151476Y-95707286D02*
X93103095Y-95852429D01*
X93103095Y-95852429D02*
X93054714Y-95925000D01*
X93054714Y-95925000D02*
X92957952Y-95997572D01*
X92957952Y-95997572D02*
X92764428Y-95997572D01*
X92764428Y-95997572D02*
X92667666Y-95925000D01*
X92667666Y-95925000D02*
X92619285Y-95852429D01*
X92619285Y-95852429D02*
X92570904Y-95707286D01*
X108681761Y-113487286D02*
X108778523Y-113414714D01*
X108778523Y-113414714D02*
X108826904Y-113342143D01*
X108826904Y-113342143D02*
X108875285Y-113197000D01*
X108875285Y-113197000D02*
X108875285Y-113124429D01*
X108875285Y-113124429D02*
X108826904Y-112979286D01*
X108826904Y-112979286D02*
X108778523Y-112906714D01*
X108778523Y-112906714D02*
X108681761Y-112834143D01*
X108681761Y-112834143D02*
X108488237Y-112834143D01*
X108488237Y-112834143D02*
X108391475Y-112906714D01*
X108391475Y-112906714D02*
X108343094Y-112979286D01*
X108343094Y-112979286D02*
X108294713Y-113124429D01*
X108294713Y-113124429D02*
X108294713Y-113197000D01*
X108294713Y-113197000D02*
X108343094Y-113342143D01*
X108343094Y-113342143D02*
X108391475Y-113414714D01*
X108391475Y-113414714D02*
X108488237Y-113487286D01*
X108488237Y-113487286D02*
X108681761Y-113487286D01*
X108681761Y-113487286D02*
X108778523Y-113559857D01*
X108778523Y-113559857D02*
X108826904Y-113632429D01*
X108826904Y-113632429D02*
X108875285Y-113777572D01*
X108875285Y-113777572D02*
X108875285Y-114067857D01*
X108875285Y-114067857D02*
X108826904Y-114213000D01*
X108826904Y-114213000D02*
X108778523Y-114285572D01*
X108778523Y-114285572D02*
X108681761Y-114358143D01*
X108681761Y-114358143D02*
X108488237Y-114358143D01*
X108488237Y-114358143D02*
X108391475Y-114285572D01*
X108391475Y-114285572D02*
X108343094Y-114213000D01*
X108343094Y-114213000D02*
X108294713Y-114067857D01*
X108294713Y-114067857D02*
X108294713Y-113777572D01*
X108294713Y-113777572D02*
X108343094Y-113632429D01*
X108343094Y-113632429D02*
X108391475Y-113559857D01*
X108391475Y-113559857D02*
X108488237Y-113487286D01*
X109359095Y-95199286D02*
X109310714Y-95126714D01*
X109310714Y-95126714D02*
X109213952Y-95054143D01*
X109213952Y-95054143D02*
X108972047Y-95054143D01*
X108972047Y-95054143D02*
X108875285Y-95126714D01*
X108875285Y-95126714D02*
X108826904Y-95199286D01*
X108826904Y-95199286D02*
X108778523Y-95344429D01*
X108778523Y-95344429D02*
X108778523Y-95489572D01*
X108778523Y-95489572D02*
X108826904Y-95707286D01*
X108826904Y-95707286D02*
X109407476Y-96578143D01*
X109407476Y-96578143D02*
X108778523Y-96578143D01*
X107859285Y-95054143D02*
X108343095Y-95054143D01*
X108343095Y-95054143D02*
X108391476Y-95779857D01*
X108391476Y-95779857D02*
X108343095Y-95707286D01*
X108343095Y-95707286D02*
X108246333Y-95634714D01*
X108246333Y-95634714D02*
X108004428Y-95634714D01*
X108004428Y-95634714D02*
X107907666Y-95707286D01*
X107907666Y-95707286D02*
X107859285Y-95779857D01*
X107859285Y-95779857D02*
X107810904Y-95925000D01*
X107810904Y-95925000D02*
X107810904Y-96287857D01*
X107810904Y-96287857D02*
X107859285Y-96433000D01*
X107859285Y-96433000D02*
X107907666Y-96505572D01*
X107907666Y-96505572D02*
X108004428Y-96578143D01*
X108004428Y-96578143D02*
X108246333Y-96578143D01*
X108246333Y-96578143D02*
X108343095Y-96505572D01*
X108343095Y-96505572D02*
X108391476Y-96433000D01*
X106383666Y-112834143D02*
X105706332Y-112834143D01*
X105706332Y-112834143D02*
X106141761Y-114358143D01*
X96659095Y-95199286D02*
X96610714Y-95126714D01*
X96610714Y-95126714D02*
X96513952Y-95054143D01*
X96513952Y-95054143D02*
X96272047Y-95054143D01*
X96272047Y-95054143D02*
X96175285Y-95126714D01*
X96175285Y-95126714D02*
X96126904Y-95199286D01*
X96126904Y-95199286D02*
X96078523Y-95344429D01*
X96078523Y-95344429D02*
X96078523Y-95489572D01*
X96078523Y-95489572D02*
X96126904Y-95707286D01*
X96126904Y-95707286D02*
X96707476Y-96578143D01*
X96707476Y-96578143D02*
X96078523Y-96578143D01*
X95449571Y-95054143D02*
X95352809Y-95054143D01*
X95352809Y-95054143D02*
X95256047Y-95126714D01*
X95256047Y-95126714D02*
X95207666Y-95199286D01*
X95207666Y-95199286D02*
X95159285Y-95344429D01*
X95159285Y-95344429D02*
X95110904Y-95634714D01*
X95110904Y-95634714D02*
X95110904Y-95997572D01*
X95110904Y-95997572D02*
X95159285Y-96287857D01*
X95159285Y-96287857D02*
X95207666Y-96433000D01*
X95207666Y-96433000D02*
X95256047Y-96505572D01*
X95256047Y-96505572D02*
X95352809Y-96578143D01*
X95352809Y-96578143D02*
X95449571Y-96578143D01*
X95449571Y-96578143D02*
X95546333Y-96505572D01*
X95546333Y-96505572D02*
X95594714Y-96433000D01*
X95594714Y-96433000D02*
X95643095Y-96287857D01*
X95643095Y-96287857D02*
X95691476Y-95997572D01*
X95691476Y-95997572D02*
X95691476Y-95634714D01*
X95691476Y-95634714D02*
X95643095Y-95344429D01*
X95643095Y-95344429D02*
X95594714Y-95199286D01*
X95594714Y-95199286D02*
X95546333Y-95126714D01*
X95546333Y-95126714D02*
X95449571Y-95054143D01*
X124647476Y-95054143D02*
X124018523Y-95054143D01*
X124018523Y-95054143D02*
X124357190Y-95634714D01*
X124357190Y-95634714D02*
X124212047Y-95634714D01*
X124212047Y-95634714D02*
X124115285Y-95707286D01*
X124115285Y-95707286D02*
X124066904Y-95779857D01*
X124066904Y-95779857D02*
X124018523Y-95925000D01*
X124018523Y-95925000D02*
X124018523Y-96287857D01*
X124018523Y-96287857D02*
X124066904Y-96433000D01*
X124066904Y-96433000D02*
X124115285Y-96505572D01*
X124115285Y-96505572D02*
X124212047Y-96578143D01*
X124212047Y-96578143D02*
X124502333Y-96578143D01*
X124502333Y-96578143D02*
X124599095Y-96505572D01*
X124599095Y-96505572D02*
X124647476Y-96433000D01*
X123050904Y-96578143D02*
X123631476Y-96578143D01*
X123341190Y-96578143D02*
X123341190Y-95054143D01*
X123341190Y-95054143D02*
X123437952Y-95271857D01*
X123437952Y-95271857D02*
X123534714Y-95417000D01*
X123534714Y-95417000D02*
X123631476Y-95489572D01*
X106819095Y-95199286D02*
X106770714Y-95126714D01*
X106770714Y-95126714D02*
X106673952Y-95054143D01*
X106673952Y-95054143D02*
X106432047Y-95054143D01*
X106432047Y-95054143D02*
X106335285Y-95126714D01*
X106335285Y-95126714D02*
X106286904Y-95199286D01*
X106286904Y-95199286D02*
X106238523Y-95344429D01*
X106238523Y-95344429D02*
X106238523Y-95489572D01*
X106238523Y-95489572D02*
X106286904Y-95707286D01*
X106286904Y-95707286D02*
X106867476Y-96578143D01*
X106867476Y-96578143D02*
X106238523Y-96578143D01*
X105367666Y-95562143D02*
X105367666Y-96578143D01*
X105609571Y-94981572D02*
X105851476Y-96070143D01*
X105851476Y-96070143D02*
X105222523Y-96070143D01*
D12*
X181793333Y-92164819D02*
X181793333Y-92879104D01*
X181793333Y-92879104D02*
X181840952Y-93021961D01*
X181840952Y-93021961D02*
X181936190Y-93117200D01*
X181936190Y-93117200D02*
X182079047Y-93164819D01*
X182079047Y-93164819D02*
X182174285Y-93164819D01*
X181317142Y-93164819D02*
X181317142Y-92164819D01*
X181317142Y-92164819D02*
X180936190Y-92164819D01*
X180936190Y-92164819D02*
X180840952Y-92212438D01*
X180840952Y-92212438D02*
X180793333Y-92260057D01*
X180793333Y-92260057D02*
X180745714Y-92355295D01*
X180745714Y-92355295D02*
X180745714Y-92498152D01*
X180745714Y-92498152D02*
X180793333Y-92593390D01*
X180793333Y-92593390D02*
X180840952Y-92641009D01*
X180840952Y-92641009D02*
X180936190Y-92688628D01*
X180936190Y-92688628D02*
X181317142Y-92688628D01*
X180364761Y-92260057D02*
X180317142Y-92212438D01*
X180317142Y-92212438D02*
X180221904Y-92164819D01*
X180221904Y-92164819D02*
X179983809Y-92164819D01*
X179983809Y-92164819D02*
X179888571Y-92212438D01*
X179888571Y-92212438D02*
X179840952Y-92260057D01*
X179840952Y-92260057D02*
X179793333Y-92355295D01*
X179793333Y-92355295D02*
X179793333Y-92450533D01*
X179793333Y-92450533D02*
X179840952Y-92593390D01*
X179840952Y-92593390D02*
X180412380Y-93164819D01*
X180412380Y-93164819D02*
X179793333Y-93164819D01*
X132278333Y-89639819D02*
X132278333Y-90354104D01*
X132278333Y-90354104D02*
X132325952Y-90496961D01*
X132325952Y-90496961D02*
X132421190Y-90592200D01*
X132421190Y-90592200D02*
X132564047Y-90639819D01*
X132564047Y-90639819D02*
X132659285Y-90639819D01*
X131802142Y-90639819D02*
X131802142Y-89639819D01*
X131802142Y-89639819D02*
X131421190Y-89639819D01*
X131421190Y-89639819D02*
X131325952Y-89687438D01*
X131325952Y-89687438D02*
X131278333Y-89735057D01*
X131278333Y-89735057D02*
X131230714Y-89830295D01*
X131230714Y-89830295D02*
X131230714Y-89973152D01*
X131230714Y-89973152D02*
X131278333Y-90068390D01*
X131278333Y-90068390D02*
X131325952Y-90116009D01*
X131325952Y-90116009D02*
X131421190Y-90163628D01*
X131421190Y-90163628D02*
X131802142Y-90163628D01*
X130278333Y-90639819D02*
X130849761Y-90639819D01*
X130564047Y-90639819D02*
X130564047Y-89639819D01*
X130564047Y-89639819D02*
X130659285Y-89782676D01*
X130659285Y-89782676D02*
X130754523Y-89877914D01*
X130754523Y-89877914D02*
X130849761Y-89925533D01*
X135453333Y-116929819D02*
X135453333Y-117644104D01*
X135453333Y-117644104D02*
X135500952Y-117786961D01*
X135500952Y-117786961D02*
X135596190Y-117882200D01*
X135596190Y-117882200D02*
X135739047Y-117929819D01*
X135739047Y-117929819D02*
X135834285Y-117929819D01*
X134977142Y-117929819D02*
X134977142Y-116929819D01*
X134977142Y-116929819D02*
X134596190Y-116929819D01*
X134596190Y-116929819D02*
X134500952Y-116977438D01*
X134500952Y-116977438D02*
X134453333Y-117025057D01*
X134453333Y-117025057D02*
X134405714Y-117120295D01*
X134405714Y-117120295D02*
X134405714Y-117263152D01*
X134405714Y-117263152D02*
X134453333Y-117358390D01*
X134453333Y-117358390D02*
X134500952Y-117406009D01*
X134500952Y-117406009D02*
X134596190Y-117453628D01*
X134596190Y-117453628D02*
X134977142Y-117453628D01*
X134072380Y-116929819D02*
X133453333Y-116929819D01*
X133453333Y-116929819D02*
X133786666Y-117310771D01*
X133786666Y-117310771D02*
X133643809Y-117310771D01*
X133643809Y-117310771D02*
X133548571Y-117358390D01*
X133548571Y-117358390D02*
X133500952Y-117406009D01*
X133500952Y-117406009D02*
X133453333Y-117501247D01*
X133453333Y-117501247D02*
X133453333Y-117739342D01*
X133453333Y-117739342D02*
X133500952Y-117834580D01*
X133500952Y-117834580D02*
X133548571Y-117882200D01*
X133548571Y-117882200D02*
X133643809Y-117929819D01*
X133643809Y-117929819D02*
X133929523Y-117929819D01*
X133929523Y-117929819D02*
X134024761Y-117882200D01*
X134024761Y-117882200D02*
X134072380Y-117834580D01*
X178648333Y-117564819D02*
X178648333Y-118279104D01*
X178648333Y-118279104D02*
X178695952Y-118421961D01*
X178695952Y-118421961D02*
X178791190Y-118517200D01*
X178791190Y-118517200D02*
X178934047Y-118564819D01*
X178934047Y-118564819D02*
X179029285Y-118564819D01*
X178172142Y-118564819D02*
X178172142Y-117564819D01*
X178172142Y-117564819D02*
X177791190Y-117564819D01*
X177791190Y-117564819D02*
X177695952Y-117612438D01*
X177695952Y-117612438D02*
X177648333Y-117660057D01*
X177648333Y-117660057D02*
X177600714Y-117755295D01*
X177600714Y-117755295D02*
X177600714Y-117898152D01*
X177600714Y-117898152D02*
X177648333Y-117993390D01*
X177648333Y-117993390D02*
X177695952Y-118041009D01*
X177695952Y-118041009D02*
X177791190Y-118088628D01*
X177791190Y-118088628D02*
X178172142Y-118088628D01*
X176743571Y-117898152D02*
X176743571Y-118564819D01*
X176981666Y-117517200D02*
X177219761Y-118231485D01*
X177219761Y-118231485D02*
X176600714Y-118231485D01*
D13*
%TO.C,JP2*%
X179560000Y-94950000D02*
X179560000Y-95550000D01*
X180260000Y-96250000D02*
X181660000Y-96250000D01*
X181660000Y-94250000D02*
X180260000Y-94250000D01*
X182360000Y-95550000D02*
X182360000Y-94950000D01*
X180260000Y-94250000D02*
G75*
G03*
X179560000Y-94950000I-1J-699999D01*
G01*
X179560000Y-95550000D02*
G75*
G03*
X180260000Y-96250000I699999J-1D01*
G01*
X182360000Y-94950000D02*
G75*
G03*
X181660000Y-94250000I-700000J0D01*
G01*
X181660000Y-96250000D02*
G75*
G03*
X182360000Y-95550000I0J700000D01*
G01*
%TO.C,JP1*%
X131745000Y-91310000D02*
X131145000Y-91310000D01*
X130445000Y-92010000D02*
X130445000Y-93410000D01*
X132445000Y-93410000D02*
X132445000Y-92010000D01*
X131145000Y-94110000D02*
X131745000Y-94110000D01*
X132445000Y-92010000D02*
G75*
G03*
X131745000Y-91310000I-699999J1D01*
G01*
X131145000Y-91310000D02*
G75*
G03*
X130445000Y-92010000I-1J-699999D01*
G01*
X131745000Y-94110000D02*
G75*
G03*
X132445000Y-93410000I0J700000D01*
G01*
X130445000Y-93410000D02*
G75*
G03*
X131145000Y-94110000I700000J0D01*
G01*
%TO.C,JP3*%
X134920000Y-113535000D02*
X134320000Y-113535000D01*
X133620000Y-114235000D02*
X133620000Y-115635000D01*
X135620000Y-115635000D02*
X135620000Y-114235000D01*
X134320000Y-116335000D02*
X134920000Y-116335000D01*
X135620000Y-114235000D02*
G75*
G03*
X134920000Y-113535000I-699999J1D01*
G01*
X134320000Y-113535000D02*
G75*
G03*
X133620000Y-114235000I-1J-699999D01*
G01*
X134920000Y-116335000D02*
G75*
G03*
X135620000Y-115635000I0J700000D01*
G01*
X133620000Y-115635000D02*
G75*
G03*
X134320000Y-116335000I700000J0D01*
G01*
%TO.C,JP4*%
X179200000Y-116505000D02*
X179200000Y-115905000D01*
X178500000Y-115205000D02*
X177100000Y-115205000D01*
X177100000Y-117205000D02*
X178500000Y-117205000D01*
X176400000Y-115905000D02*
X176400000Y-116505000D01*
X178500000Y-117205000D02*
G75*
G03*
X179200000Y-116505000I1J699999D01*
G01*
X179200000Y-115905000D02*
G75*
G03*
X178500000Y-115205000I-699999J1D01*
G01*
X176400000Y-116505000D02*
G75*
G03*
X177100000Y-117205000I700000J0D01*
G01*
X177100000Y-115205000D02*
G75*
G03*
X176400000Y-115905000I0J-700000D01*
G01*
%TD*%
M02*
