%TF.GenerationSoftware,KiCad,Pcbnew,7.0.7*%
%TF.CreationDate,2024-11-27T08:57:40-05:00*%
%TF.ProjectId,cross-point-exp-brd-mini-lc,63726f73-732d-4706-9f69-6e742d657870,rev?*%
%TF.SameCoordinates,Original*%
%TF.FileFunction,Paste,Top*%
%TF.FilePolarity,Positive*%
%FSLAX46Y46*%
G04 Gerber Fmt 4.6, Leading zero omitted, Abs format (unit mm)*
G04 Created by KiCad (PCBNEW 7.0.7) date 2024-11-27 08:57:40*
%MOMM*%
%LPD*%
G01*
G04 APERTURE LIST*
%ADD10R,1.200000X0.500000*%
%ADD11R,0.500000X1.200000*%
G04 APERTURE END LIST*
D10*
%TO.C,U3*%
X168666400Y-70025000D03*
X168666400Y-69225000D03*
X168666400Y-68425000D03*
X168666400Y-67625000D03*
X168666400Y-66825000D03*
X168666400Y-66025000D03*
X168666400Y-65225000D03*
X168666400Y-64425000D03*
X168666400Y-63625000D03*
X168666400Y-62825000D03*
X168666400Y-62025000D03*
D11*
X166966400Y-60325000D03*
X166166400Y-60325000D03*
X165366400Y-60325000D03*
X164566400Y-60325000D03*
X163766400Y-60325000D03*
X162966400Y-60325000D03*
X162166400Y-60325000D03*
X161366400Y-60325000D03*
X160566400Y-60325000D03*
X159766400Y-60325000D03*
X158966400Y-60325000D03*
D10*
X157266400Y-62025000D03*
X157266400Y-62825000D03*
X157266400Y-63625000D03*
X157266400Y-64425000D03*
X157266400Y-65225000D03*
X157266400Y-66025000D03*
X157266400Y-66825000D03*
X157266400Y-67625000D03*
X157266400Y-68425000D03*
X157266400Y-69225000D03*
X157266400Y-70025000D03*
D11*
X158966400Y-71725000D03*
X159766400Y-71725000D03*
X160566400Y-71725000D03*
X161366400Y-71725000D03*
X162166400Y-71725000D03*
X162966400Y-71725000D03*
X163766400Y-71725000D03*
X164566400Y-71725000D03*
X165366400Y-71725000D03*
X166166400Y-71725000D03*
X166966400Y-71725000D03*
%TD*%
D10*
%TO.C,U1*%
X95680000Y-70025000D03*
X95680000Y-69225000D03*
X95680000Y-68425000D03*
X95680000Y-67625000D03*
X95680000Y-66825000D03*
X95680000Y-66025000D03*
X95680000Y-65225000D03*
X95680000Y-64425000D03*
X95680000Y-63625000D03*
X95680000Y-62825000D03*
X95680000Y-62025000D03*
D11*
X93980000Y-60325000D03*
X93180000Y-60325000D03*
X92380000Y-60325000D03*
X91580000Y-60325000D03*
X90780000Y-60325000D03*
X89980000Y-60325000D03*
X89180000Y-60325000D03*
X88380000Y-60325000D03*
X87580000Y-60325000D03*
X86780000Y-60325000D03*
X85980000Y-60325000D03*
D10*
X84280000Y-62025000D03*
X84280000Y-62825000D03*
X84280000Y-63625000D03*
X84280000Y-64425000D03*
X84280000Y-65225000D03*
X84280000Y-66025000D03*
X84280000Y-66825000D03*
X84280000Y-67625000D03*
X84280000Y-68425000D03*
X84280000Y-69225000D03*
X84280000Y-70025000D03*
D11*
X85980000Y-71725000D03*
X86780000Y-71725000D03*
X87580000Y-71725000D03*
X88380000Y-71725000D03*
X89180000Y-71725000D03*
X89980000Y-71725000D03*
X90780000Y-71725000D03*
X91580000Y-71725000D03*
X92380000Y-71725000D03*
X93180000Y-71725000D03*
X93980000Y-71725000D03*
%TD*%
D10*
%TO.C,U2*%
X118920000Y-70025000D03*
X118920000Y-69225000D03*
X118920000Y-68425000D03*
X118920000Y-67625000D03*
X118920000Y-66825000D03*
X118920000Y-66025000D03*
X118920000Y-65225000D03*
X118920000Y-64425000D03*
X118920000Y-63625000D03*
X118920000Y-62825000D03*
X118920000Y-62025000D03*
D11*
X117220000Y-60325000D03*
X116420000Y-60325000D03*
X115620000Y-60325000D03*
X114820000Y-60325000D03*
X114020000Y-60325000D03*
X113220000Y-60325000D03*
X112420000Y-60325000D03*
X111620000Y-60325000D03*
X110820000Y-60325000D03*
X110020000Y-60325000D03*
X109220000Y-60325000D03*
D10*
X107520000Y-62025000D03*
X107520000Y-62825000D03*
X107520000Y-63625000D03*
X107520000Y-64425000D03*
X107520000Y-65225000D03*
X107520000Y-66025000D03*
X107520000Y-66825000D03*
X107520000Y-67625000D03*
X107520000Y-68425000D03*
X107520000Y-69225000D03*
X107520000Y-70025000D03*
D11*
X109220000Y-71725000D03*
X110020000Y-71725000D03*
X110820000Y-71725000D03*
X111620000Y-71725000D03*
X112420000Y-71725000D03*
X113220000Y-71725000D03*
X114020000Y-71725000D03*
X114820000Y-71725000D03*
X115620000Y-71725000D03*
X116420000Y-71725000D03*
X117220000Y-71725000D03*
%TD*%
D10*
%TO.C,U4*%
X192161400Y-70025000D03*
X192161400Y-69225000D03*
X192161400Y-68425000D03*
X192161400Y-67625000D03*
X192161400Y-66825000D03*
X192161400Y-66025000D03*
X192161400Y-65225000D03*
X192161400Y-64425000D03*
X192161400Y-63625000D03*
X192161400Y-62825000D03*
X192161400Y-62025000D03*
D11*
X190461400Y-60325000D03*
X189661400Y-60325000D03*
X188861400Y-60325000D03*
X188061400Y-60325000D03*
X187261400Y-60325000D03*
X186461400Y-60325000D03*
X185661400Y-60325000D03*
X184861400Y-60325000D03*
X184061400Y-60325000D03*
X183261400Y-60325000D03*
X182461400Y-60325000D03*
D10*
X180761400Y-62025000D03*
X180761400Y-62825000D03*
X180761400Y-63625000D03*
X180761400Y-64425000D03*
X180761400Y-65225000D03*
X180761400Y-66025000D03*
X180761400Y-66825000D03*
X180761400Y-67625000D03*
X180761400Y-68425000D03*
X180761400Y-69225000D03*
X180761400Y-70025000D03*
D11*
X182461400Y-71725000D03*
X183261400Y-71725000D03*
X184061400Y-71725000D03*
X184861400Y-71725000D03*
X185661400Y-71725000D03*
X186461400Y-71725000D03*
X187261400Y-71725000D03*
X188061400Y-71725000D03*
X188861400Y-71725000D03*
X189661400Y-71725000D03*
X190461400Y-71725000D03*
%TD*%
D10*
%TO.C,U5*%
X142415000Y-70025000D03*
X142415000Y-69225000D03*
X142415000Y-68425000D03*
X142415000Y-67625000D03*
X142415000Y-66825000D03*
X142415000Y-66025000D03*
X142415000Y-65225000D03*
X142415000Y-64425000D03*
X142415000Y-63625000D03*
X142415000Y-62825000D03*
X142415000Y-62025000D03*
D11*
X140715000Y-60325000D03*
X139915000Y-60325000D03*
X139115000Y-60325000D03*
X138315000Y-60325000D03*
X137515000Y-60325000D03*
X136715000Y-60325000D03*
X135915000Y-60325000D03*
X135115000Y-60325000D03*
X134315000Y-60325000D03*
X133515000Y-60325000D03*
X132715000Y-60325000D03*
D10*
X131015000Y-62025000D03*
X131015000Y-62825000D03*
X131015000Y-63625000D03*
X131015000Y-64425000D03*
X131015000Y-65225000D03*
X131015000Y-66025000D03*
X131015000Y-66825000D03*
X131015000Y-67625000D03*
X131015000Y-68425000D03*
X131015000Y-69225000D03*
X131015000Y-70025000D03*
D11*
X132715000Y-71725000D03*
X133515000Y-71725000D03*
X134315000Y-71725000D03*
X135115000Y-71725000D03*
X135915000Y-71725000D03*
X136715000Y-71725000D03*
X137515000Y-71725000D03*
X138315000Y-71725000D03*
X139115000Y-71725000D03*
X139915000Y-71725000D03*
X140715000Y-71725000D03*
%TD*%
M02*
