%TF.GenerationSoftware,KiCad,Pcbnew,7.0.7*%
%TF.CreationDate,2024-11-27T08:57:41-05:00*%
%TF.ProjectId,cross-point-exp-brd-mini-lc,63726f73-732d-4706-9f69-6e742d657870,rev?*%
%TF.SameCoordinates,Original*%
%TF.FileFunction,Soldermask,Top*%
%TF.FilePolarity,Negative*%
%FSLAX46Y46*%
G04 Gerber Fmt 4.6, Leading zero omitted, Abs format (unit mm)*
G04 Created by KiCad (PCBNEW 7.0.7) date 2024-11-27 08:57:41*
%MOMM*%
%LPD*%
G01*
G04 APERTURE LIST*
%ADD10C,1.600000*%
%ADD11C,1.500000*%
%ADD12R,1.700000X1.700000*%
%ADD13O,1.700000X1.700000*%
%ADD14C,1.400000*%
%ADD15O,1.400000X1.400000*%
%ADD16C,2.200000*%
%ADD17R,1.600000X1.600000*%
%ADD18O,1.600000X1.600000*%
%ADD19R,1.200000X0.500000*%
%ADD20R,0.500000X1.200000*%
%ADD21C,2.286000*%
%ADD22O,1.700000X4.240000*%
%ADD23O,4.240000X1.700000*%
%ADD24O,1.800000X1.800000*%
%ADD25O,1.500000X1.500000*%
%ADD26R,3.500000X1.700000*%
%ADD27R,1.700000X3.500000*%
%ADD28C,1.440000*%
G04 APERTURE END LIST*
D10*
%TO.C,C2*%
X190460000Y-128905000D03*
X185460000Y-128905000D03*
%TD*%
D11*
%TO.C,TP10*%
X201930000Y-99060000D03*
%TD*%
D12*
%TO.C,JVEE1*%
X158750000Y-133985000D03*
D13*
X156210000Y-133985000D03*
X153670000Y-133985000D03*
X151130000Y-133985000D03*
%TD*%
D10*
%TO.C,C5*%
X86360000Y-121285000D03*
X81360000Y-121285000D03*
%TD*%
%TO.C,C3*%
X94615000Y-134620000D03*
X89615000Y-134620000D03*
%TD*%
D14*
%TO.C,R9*%
X193675000Y-121920000D03*
D15*
X193675000Y-114300000D03*
%TD*%
D16*
%TO.C,REF\u002A\u002A*%
X90805000Y-126365000D03*
%TD*%
%TO.C,REF\u002A\u002A*%
X167005000Y-126365000D03*
%TD*%
D11*
%TO.C,TP6*%
X228600000Y-123825000D03*
%TD*%
D10*
%TO.C,C8*%
X79415000Y-104775000D03*
X84415000Y-104775000D03*
%TD*%
D14*
%TO.C,R12*%
X186690000Y-134620000D03*
D15*
X194310000Y-134620000D03*
%TD*%
D17*
%TO.C,U10*%
X216535000Y-114290000D03*
D18*
X216535000Y-111750000D03*
X216535000Y-109210000D03*
X216535000Y-106670000D03*
X208915000Y-106670000D03*
X208915000Y-109210000D03*
X208915000Y-111750000D03*
X208915000Y-114290000D03*
%TD*%
D12*
%TO.C,JpVDD2*%
X140970000Y-133985000D03*
D13*
X143510000Y-133985000D03*
X146050000Y-133985000D03*
%TD*%
D19*
%TO.C,U3*%
X168666400Y-70025000D03*
X168666400Y-69225000D03*
X168666400Y-68425000D03*
X168666400Y-67625000D03*
X168666400Y-66825000D03*
X168666400Y-66025000D03*
X168666400Y-65225000D03*
X168666400Y-64425000D03*
X168666400Y-63625000D03*
X168666400Y-62825000D03*
X168666400Y-62025000D03*
D20*
X166966400Y-60325000D03*
X166166400Y-60325000D03*
X165366400Y-60325000D03*
X164566400Y-60325000D03*
X163766400Y-60325000D03*
X162966400Y-60325000D03*
X162166400Y-60325000D03*
X161366400Y-60325000D03*
X160566400Y-60325000D03*
X159766400Y-60325000D03*
X158966400Y-60325000D03*
D19*
X157266400Y-62025000D03*
X157266400Y-62825000D03*
X157266400Y-63625000D03*
X157266400Y-64425000D03*
X157266400Y-65225000D03*
X157266400Y-66025000D03*
X157266400Y-66825000D03*
X157266400Y-67625000D03*
X157266400Y-68425000D03*
X157266400Y-69225000D03*
X157266400Y-70025000D03*
D20*
X158966400Y-71725000D03*
X159766400Y-71725000D03*
X160566400Y-71725000D03*
X161366400Y-71725000D03*
X162166400Y-71725000D03*
X162966400Y-71725000D03*
X163766400Y-71725000D03*
X164566400Y-71725000D03*
X165366400Y-71725000D03*
X166166400Y-71725000D03*
X166966400Y-71725000D03*
%TD*%
D12*
%TO.C,J1*%
X125730000Y-74930000D03*
D13*
X125730000Y-72390000D03*
X125730000Y-69850000D03*
X125730000Y-67310000D03*
X125730000Y-64770000D03*
X125730000Y-62230000D03*
X125730000Y-59690000D03*
X125730000Y-57150000D03*
%TD*%
D11*
%TO.C,TP8*%
X201930000Y-96520000D03*
%TD*%
D12*
%TO.C,J2*%
X149860000Y-74930000D03*
D13*
X149860000Y-72390000D03*
X149860000Y-69850000D03*
X149860000Y-67310000D03*
X149860000Y-64770000D03*
X149860000Y-62230000D03*
X149860000Y-59690000D03*
X149860000Y-57150000D03*
%TD*%
D21*
%TO.C,J4*%
X140106400Y-104775000D03*
X176123600Y-104775000D03*
D12*
X137795000Y-111125000D03*
D22*
X137795000Y-109855000D03*
X140335000Y-109855000D03*
D13*
X140335000Y-108585000D03*
D22*
X142875000Y-109855000D03*
D13*
X142875000Y-108585000D03*
D22*
X145415000Y-109855000D03*
D13*
X145415000Y-108585000D03*
D22*
X147955000Y-109855000D03*
D13*
X147955000Y-108585000D03*
D22*
X150495000Y-109855000D03*
D13*
X150495000Y-108585000D03*
D22*
X153035000Y-109855000D03*
D13*
X153035000Y-108585000D03*
D22*
X155575000Y-109855000D03*
D13*
X155575000Y-108585000D03*
D22*
X158115000Y-109855000D03*
D13*
X158115000Y-108585000D03*
D22*
X160655000Y-109855000D03*
D13*
X160655000Y-108585000D03*
D22*
X163195000Y-109855000D03*
D13*
X163195000Y-108585000D03*
D22*
X165735000Y-109855000D03*
D13*
X165735000Y-108585000D03*
D22*
X168275000Y-109855000D03*
D13*
X168275000Y-108585000D03*
D22*
X170815000Y-109855000D03*
D13*
X170815000Y-108585000D03*
D22*
X173355000Y-109855000D03*
D13*
X173355000Y-108585000D03*
D22*
X175895000Y-109855000D03*
D13*
X175895000Y-108585000D03*
D22*
X178435000Y-109855000D03*
D13*
X178435000Y-108585000D03*
D22*
X137795000Y-99695000D03*
D13*
X137795000Y-98425000D03*
D22*
X140335000Y-99695000D03*
D13*
X140335000Y-98425000D03*
D22*
X142875000Y-99695000D03*
D13*
X142875000Y-98425000D03*
D22*
X145415000Y-99695000D03*
D13*
X145415000Y-98425000D03*
D22*
X147955000Y-99695000D03*
D13*
X147955000Y-98425000D03*
D22*
X150495000Y-99695000D03*
D13*
X150495000Y-98425000D03*
D22*
X153035000Y-99695000D03*
D13*
X153035000Y-98425000D03*
D22*
X155575000Y-99695000D03*
D13*
X155575000Y-98425000D03*
D22*
X158115000Y-99695000D03*
D13*
X158115000Y-98425000D03*
D22*
X160655000Y-99695000D03*
D13*
X160655000Y-98425000D03*
D22*
X163195000Y-99695000D03*
D13*
X163195000Y-98425000D03*
D22*
X165735000Y-99695000D03*
D13*
X165735000Y-98425000D03*
D22*
X168275000Y-99695000D03*
D13*
X168275000Y-98425000D03*
D22*
X170815000Y-99695000D03*
D13*
X170815000Y-98425000D03*
D22*
X173355000Y-99695000D03*
D13*
X173355000Y-98425000D03*
D22*
X175895000Y-99695000D03*
D13*
X175895000Y-98425000D03*
D22*
X178435000Y-99695000D03*
D13*
X178435000Y-98425000D03*
%TD*%
D12*
%TO.C,DC1*%
X179070000Y-133975000D03*
D13*
X179070000Y-131435000D03*
X179070000Y-128895000D03*
X179070000Y-126355000D03*
%TD*%
D14*
%TO.C,R1*%
X230505000Y-109855000D03*
D15*
X222885000Y-109855000D03*
%TD*%
D10*
%TO.C,C1*%
X224750000Y-134620000D03*
X219750000Y-134620000D03*
%TD*%
D14*
%TO.C,R8*%
X196215000Y-121920000D03*
D15*
X196215000Y-114300000D03*
%TD*%
D11*
%TO.C,TP0*%
X201930000Y-78740000D03*
%TD*%
D13*
%TO.C,J6*%
X94615000Y-127635000D03*
D23*
X95885000Y-127635000D03*
D13*
X94615000Y-125095000D03*
D23*
X95885000Y-125095000D03*
D13*
X160655000Y-127635000D03*
D23*
X161925000Y-127635000D03*
D13*
X160655000Y-125095000D03*
D23*
X161925000Y-125095000D03*
%TD*%
D14*
%TO.C,R6*%
X191135000Y-121920000D03*
D15*
X191135000Y-114300000D03*
%TD*%
D14*
%TO.C,R4*%
X186055000Y-121920000D03*
D15*
X186055000Y-114300000D03*
%TD*%
D12*
%TO.C,JpVDD1*%
X110490000Y-133985000D03*
D13*
X113030000Y-133985000D03*
X115570000Y-133985000D03*
%TD*%
D12*
%TO.C,J8*%
X183515000Y-109855000D03*
D13*
X186055000Y-109855000D03*
X188595000Y-109855000D03*
X191135000Y-109855000D03*
X193675000Y-109855000D03*
X196215000Y-109855000D03*
X198755000Y-109855000D03*
X201295000Y-109855000D03*
%TD*%
D12*
%TO.C,JpVDD5*%
X135890000Y-133985000D03*
D13*
X133350000Y-133985000D03*
X130810000Y-133985000D03*
%TD*%
D11*
%TO.C,TP3*%
X201930000Y-86360000D03*
%TD*%
D21*
%TO.C,J3*%
X93116400Y-104775000D03*
X129133600Y-104775000D03*
D12*
X90805000Y-111125000D03*
D22*
X90805000Y-109855000D03*
X93345000Y-109855000D03*
D13*
X93345000Y-108585000D03*
D22*
X95885000Y-109855000D03*
D13*
X95885000Y-108585000D03*
D22*
X98425000Y-109855000D03*
D13*
X98425000Y-108585000D03*
D22*
X100965000Y-109855000D03*
D13*
X100965000Y-108585000D03*
D22*
X103505000Y-109855000D03*
D13*
X103505000Y-108585000D03*
D22*
X106045000Y-109855000D03*
D13*
X106045000Y-108585000D03*
D22*
X108585000Y-109855000D03*
D13*
X108585000Y-108585000D03*
D22*
X111125000Y-109855000D03*
D13*
X111125000Y-108585000D03*
D22*
X113665000Y-109855000D03*
D13*
X113665000Y-108585000D03*
D22*
X116205000Y-109855000D03*
D13*
X116205000Y-108585000D03*
D22*
X118745000Y-109855000D03*
D13*
X118745000Y-108585000D03*
D22*
X121285000Y-109855000D03*
D13*
X121285000Y-108585000D03*
D22*
X123825000Y-109855000D03*
D13*
X123825000Y-108585000D03*
D22*
X126365000Y-109855000D03*
D13*
X126365000Y-108585000D03*
D22*
X128905000Y-109855000D03*
D13*
X128905000Y-108585000D03*
D22*
X131445000Y-109855000D03*
D13*
X131445000Y-108585000D03*
D22*
X90805000Y-99695000D03*
D13*
X90805000Y-98425000D03*
D22*
X93345000Y-99695000D03*
D13*
X93345000Y-98425000D03*
D22*
X95885000Y-99695000D03*
D13*
X95885000Y-98425000D03*
D22*
X98425000Y-99695000D03*
D13*
X98425000Y-98425000D03*
D22*
X100965000Y-99695000D03*
D13*
X100965000Y-98425000D03*
D22*
X103505000Y-99695000D03*
D13*
X103505000Y-98425000D03*
D22*
X106045000Y-99695000D03*
D13*
X106045000Y-98425000D03*
D22*
X108585000Y-99695000D03*
D13*
X108585000Y-98425000D03*
D22*
X111125000Y-99695000D03*
D13*
X111125000Y-98425000D03*
D22*
X113665000Y-99695000D03*
D13*
X113665000Y-98425000D03*
D22*
X116205000Y-99695000D03*
D13*
X116205000Y-98425000D03*
D22*
X118745000Y-99695000D03*
D13*
X118745000Y-98425000D03*
D22*
X121285000Y-99695000D03*
D13*
X121285000Y-98425000D03*
D22*
X123825000Y-99695000D03*
D13*
X123825000Y-98425000D03*
D22*
X126365000Y-99695000D03*
D13*
X126365000Y-98425000D03*
D22*
X128905000Y-99695000D03*
D13*
X128905000Y-98425000D03*
D22*
X131445000Y-99695000D03*
D13*
X131445000Y-98425000D03*
%TD*%
D19*
%TO.C,U1*%
X95680000Y-70025000D03*
X95680000Y-69225000D03*
X95680000Y-68425000D03*
X95680000Y-67625000D03*
X95680000Y-66825000D03*
X95680000Y-66025000D03*
X95680000Y-65225000D03*
X95680000Y-64425000D03*
X95680000Y-63625000D03*
X95680000Y-62825000D03*
X95680000Y-62025000D03*
D20*
X93980000Y-60325000D03*
X93180000Y-60325000D03*
X92380000Y-60325000D03*
X91580000Y-60325000D03*
X90780000Y-60325000D03*
X89980000Y-60325000D03*
X89180000Y-60325000D03*
X88380000Y-60325000D03*
X87580000Y-60325000D03*
X86780000Y-60325000D03*
X85980000Y-60325000D03*
D19*
X84280000Y-62025000D03*
X84280000Y-62825000D03*
X84280000Y-63625000D03*
X84280000Y-64425000D03*
X84280000Y-65225000D03*
X84280000Y-66025000D03*
X84280000Y-66825000D03*
X84280000Y-67625000D03*
X84280000Y-68425000D03*
X84280000Y-69225000D03*
X84280000Y-70025000D03*
D20*
X85980000Y-71725000D03*
X86780000Y-71725000D03*
X87580000Y-71725000D03*
X88380000Y-71725000D03*
X89180000Y-71725000D03*
X89980000Y-71725000D03*
X90780000Y-71725000D03*
X91580000Y-71725000D03*
X92380000Y-71725000D03*
X93180000Y-71725000D03*
X93980000Y-71725000D03*
%TD*%
D14*
%TO.C,R2*%
X230505000Y-112395000D03*
D15*
X222885000Y-112395000D03*
%TD*%
D12*
%TO.C,J7*%
X183515000Y-107315000D03*
D13*
X186055000Y-107315000D03*
X188595000Y-107315000D03*
X191135000Y-107315000D03*
X193675000Y-107315000D03*
X196215000Y-107315000D03*
X198755000Y-107315000D03*
X201295000Y-107315000D03*
%TD*%
D10*
%TO.C,C6*%
X210900000Y-134620000D03*
X215900000Y-134620000D03*
%TD*%
D11*
%TO.C,TP4*%
X201930000Y-88900000D03*
%TD*%
D17*
%TO.C,U11*%
X203195000Y-130165000D03*
D18*
X205735000Y-130165000D03*
X208275000Y-130165000D03*
X210815000Y-130165000D03*
X213355000Y-130165000D03*
X215895000Y-130165000D03*
X218435000Y-130165000D03*
X218435000Y-122545000D03*
X215895000Y-122545000D03*
X213355000Y-122545000D03*
X210815000Y-122545000D03*
X208275000Y-122545000D03*
X205735000Y-122545000D03*
X203195000Y-122545000D03*
%TD*%
D14*
%TO.C,R3*%
X230505000Y-114935000D03*
D15*
X222885000Y-114935000D03*
%TD*%
D19*
%TO.C,U2*%
X118920000Y-70025000D03*
X118920000Y-69225000D03*
X118920000Y-68425000D03*
X118920000Y-67625000D03*
X118920000Y-66825000D03*
X118920000Y-66025000D03*
X118920000Y-65225000D03*
X118920000Y-64425000D03*
X118920000Y-63625000D03*
X118920000Y-62825000D03*
X118920000Y-62025000D03*
D20*
X117220000Y-60325000D03*
X116420000Y-60325000D03*
X115620000Y-60325000D03*
X114820000Y-60325000D03*
X114020000Y-60325000D03*
X113220000Y-60325000D03*
X112420000Y-60325000D03*
X111620000Y-60325000D03*
X110820000Y-60325000D03*
X110020000Y-60325000D03*
X109220000Y-60325000D03*
D19*
X107520000Y-62025000D03*
X107520000Y-62825000D03*
X107520000Y-63625000D03*
X107520000Y-64425000D03*
X107520000Y-65225000D03*
X107520000Y-66025000D03*
X107520000Y-66825000D03*
X107520000Y-67625000D03*
X107520000Y-68425000D03*
X107520000Y-69225000D03*
X107520000Y-70025000D03*
D20*
X109220000Y-71725000D03*
X110020000Y-71725000D03*
X110820000Y-71725000D03*
X111620000Y-71725000D03*
X112420000Y-71725000D03*
X113220000Y-71725000D03*
X114020000Y-71725000D03*
X114820000Y-71725000D03*
X115620000Y-71725000D03*
X116420000Y-71725000D03*
X117220000Y-71725000D03*
%TD*%
D11*
%TO.C,TP5*%
X201930000Y-91440000D03*
%TD*%
%TO.C,TP2*%
X201930000Y-83820000D03*
%TD*%
D12*
%TO.C,JpVDD4*%
X120650000Y-133985000D03*
D13*
X123190000Y-133985000D03*
X125730000Y-133985000D03*
%TD*%
D24*
%TO.C,U9*%
X214445000Y-53470000D03*
D25*
X214745000Y-56500000D03*
X219595000Y-56500000D03*
D24*
X219895000Y-53470000D03*
D13*
X208280000Y-53340000D03*
D26*
X207380000Y-53340000D03*
D13*
X208280000Y-55880000D03*
D26*
X207380000Y-55880000D03*
D12*
X208280000Y-58420000D03*
D26*
X207380000Y-58420000D03*
D13*
X208280000Y-60960000D03*
D26*
X207380000Y-60960000D03*
D13*
X208280000Y-63500000D03*
D26*
X207380000Y-63500000D03*
D13*
X208280000Y-66040000D03*
D26*
X207380000Y-66040000D03*
D13*
X208280000Y-68580000D03*
D26*
X207380000Y-68580000D03*
D12*
X208280000Y-71120000D03*
D26*
X207380000Y-71120000D03*
D13*
X208280000Y-73660000D03*
D26*
X207380000Y-73660000D03*
D13*
X208280000Y-76200000D03*
D26*
X207380000Y-76200000D03*
D13*
X208280000Y-78740000D03*
D26*
X207380000Y-78740000D03*
D13*
X208280000Y-81280000D03*
D26*
X207380000Y-81280000D03*
D12*
X208280000Y-83820000D03*
D26*
X207380000Y-83820000D03*
D13*
X208280000Y-86360000D03*
D26*
X207380000Y-86360000D03*
D13*
X208280000Y-88900000D03*
D26*
X207380000Y-88900000D03*
D13*
X208280000Y-91440000D03*
D26*
X207380000Y-91440000D03*
D13*
X208280000Y-93980000D03*
D26*
X207380000Y-93980000D03*
D12*
X208280000Y-96520000D03*
D26*
X207380000Y-96520000D03*
D13*
X208280000Y-99060000D03*
D26*
X207380000Y-99060000D03*
D13*
X208280000Y-101600000D03*
D26*
X207380000Y-101600000D03*
D13*
X226060000Y-101600000D03*
D26*
X226960000Y-101600000D03*
D13*
X226060000Y-99060000D03*
D26*
X226960000Y-99060000D03*
D12*
X226060000Y-96520000D03*
D26*
X226960000Y-96520000D03*
D13*
X226060000Y-93980000D03*
D26*
X226960000Y-93980000D03*
D13*
X226060000Y-91440000D03*
D26*
X226960000Y-91440000D03*
D13*
X226060000Y-88900000D03*
D26*
X226960000Y-88900000D03*
D13*
X226060000Y-86360000D03*
D26*
X226960000Y-86360000D03*
D12*
X226060000Y-83820000D03*
D26*
X226960000Y-83820000D03*
D13*
X226060000Y-81280000D03*
D26*
X226960000Y-81280000D03*
D13*
X226060000Y-78740000D03*
D26*
X226960000Y-78740000D03*
D13*
X226060000Y-76200000D03*
D26*
X226960000Y-76200000D03*
D13*
X226060000Y-73660000D03*
D26*
X226960000Y-73660000D03*
D12*
X226060000Y-71120000D03*
D26*
X226960000Y-71120000D03*
D13*
X226060000Y-68580000D03*
D26*
X226960000Y-68580000D03*
D13*
X226060000Y-66040000D03*
D26*
X226960000Y-66040000D03*
D13*
X226060000Y-63500000D03*
D26*
X226960000Y-63500000D03*
D13*
X226060000Y-60960000D03*
D26*
X226960000Y-60960000D03*
D12*
X226060000Y-58420000D03*
D26*
X226960000Y-58420000D03*
D13*
X226060000Y-55880000D03*
D26*
X226960000Y-55880000D03*
D13*
X226060000Y-53340000D03*
D26*
X226960000Y-53340000D03*
D13*
X214630000Y-101370000D03*
D27*
X214630000Y-102270000D03*
D12*
X217170000Y-101370000D03*
D27*
X217170000Y-102270000D03*
D13*
X219710000Y-101370000D03*
D27*
X219710000Y-102270000D03*
%TD*%
D16*
%TO.C,REF\u002A\u002A*%
X90805000Y-83185000D03*
%TD*%
D13*
%TO.C,J5*%
X94615000Y-84455000D03*
D23*
X95885000Y-84455000D03*
D13*
X94615000Y-81915000D03*
D23*
X95885000Y-81915000D03*
D13*
X160655000Y-84455000D03*
D23*
X161925000Y-84455000D03*
D13*
X160655000Y-81915000D03*
D23*
X161925000Y-81915000D03*
%TD*%
D10*
%TO.C,C4*%
X105330000Y-134620000D03*
X100330000Y-134620000D03*
%TD*%
D19*
%TO.C,U4*%
X192161400Y-70025000D03*
X192161400Y-69225000D03*
X192161400Y-68425000D03*
X192161400Y-67625000D03*
X192161400Y-66825000D03*
X192161400Y-66025000D03*
X192161400Y-65225000D03*
X192161400Y-64425000D03*
X192161400Y-63625000D03*
X192161400Y-62825000D03*
X192161400Y-62025000D03*
D20*
X190461400Y-60325000D03*
X189661400Y-60325000D03*
X188861400Y-60325000D03*
X188061400Y-60325000D03*
X187261400Y-60325000D03*
X186461400Y-60325000D03*
X185661400Y-60325000D03*
X184861400Y-60325000D03*
X184061400Y-60325000D03*
X183261400Y-60325000D03*
X182461400Y-60325000D03*
D19*
X180761400Y-62025000D03*
X180761400Y-62825000D03*
X180761400Y-63625000D03*
X180761400Y-64425000D03*
X180761400Y-65225000D03*
X180761400Y-66025000D03*
X180761400Y-66825000D03*
X180761400Y-67625000D03*
X180761400Y-68425000D03*
X180761400Y-69225000D03*
X180761400Y-70025000D03*
D20*
X182461400Y-71725000D03*
X183261400Y-71725000D03*
X184061400Y-71725000D03*
X184861400Y-71725000D03*
X185661400Y-71725000D03*
X186461400Y-71725000D03*
X187261400Y-71725000D03*
X188061400Y-71725000D03*
X188861400Y-71725000D03*
X189661400Y-71725000D03*
X190461400Y-71725000D03*
%TD*%
D14*
%TO.C,R7*%
X188595000Y-121920000D03*
D15*
X188595000Y-114300000D03*
%TD*%
D11*
%TO.C,TP7*%
X201930000Y-93980000D03*
%TD*%
%TO.C,TP1*%
X201930000Y-81280000D03*
%TD*%
D19*
%TO.C,U5*%
X142415000Y-70025000D03*
X142415000Y-69225000D03*
X142415000Y-68425000D03*
X142415000Y-67625000D03*
X142415000Y-66825000D03*
X142415000Y-66025000D03*
X142415000Y-65225000D03*
X142415000Y-64425000D03*
X142415000Y-63625000D03*
X142415000Y-62825000D03*
X142415000Y-62025000D03*
D20*
X140715000Y-60325000D03*
X139915000Y-60325000D03*
X139115000Y-60325000D03*
X138315000Y-60325000D03*
X137515000Y-60325000D03*
X136715000Y-60325000D03*
X135915000Y-60325000D03*
X135115000Y-60325000D03*
X134315000Y-60325000D03*
X133515000Y-60325000D03*
X132715000Y-60325000D03*
D19*
X131015000Y-62025000D03*
X131015000Y-62825000D03*
X131015000Y-63625000D03*
X131015000Y-64425000D03*
X131015000Y-65225000D03*
X131015000Y-66025000D03*
X131015000Y-66825000D03*
X131015000Y-67625000D03*
X131015000Y-68425000D03*
X131015000Y-69225000D03*
X131015000Y-70025000D03*
D20*
X132715000Y-71725000D03*
X133515000Y-71725000D03*
X134315000Y-71725000D03*
X135115000Y-71725000D03*
X135915000Y-71725000D03*
X136715000Y-71725000D03*
X137515000Y-71725000D03*
X138315000Y-71725000D03*
X139115000Y-71725000D03*
X139915000Y-71725000D03*
X140715000Y-71725000D03*
%TD*%
D10*
%TO.C,C7*%
X79455000Y-95885000D03*
X84455000Y-95885000D03*
%TD*%
D14*
%TO.C,R5*%
X183515000Y-121920000D03*
D15*
X183515000Y-114300000D03*
%TD*%
D11*
%TO.C,TP9*%
X201930000Y-76200000D03*
%TD*%
D28*
%TO.C,RV1*%
X226060000Y-123840000D03*
X228600000Y-126380000D03*
X231140000Y-123840000D03*
%TD*%
D12*
%TO.C,JpVDD3*%
X168910000Y-133985000D03*
D13*
X166370000Y-133985000D03*
X163830000Y-133985000D03*
%TD*%
M02*
