M48
; DRILL file {KiCad 7.0.7} date Wed Nov 27 08:57:54 2024
; FORMAT={-:-/ absolute / inch / decimal}
; #@! TF.CreationDate,2024-11-27T08:57:54-05:00
; #@! TF.GenerationSoftware,Kicad,Pcbnew,7.0.7
; #@! TF.FileFunction,Plated,1,2,PTH
FMAT,2
INCH
; #@! TA.AperFunction,Plated,PTH,ViaDrill
T1C0.0157
; #@! TA.AperFunction,Plated,PTH,ViaDrill
T2C0.0157
; #@! TA.AperFunction,Plated,PTH,ComponentDrill
T3C0.0276
; #@! TA.AperFunction,Plated,PTH,ComponentDrill
T4C0.0315
; #@! TA.AperFunction,Plated,PTH,ComponentDrill
T5C0.0394
; #@! TA.AperFunction,Plated,PTH,ComponentDrill
T6C0.0402
%
G90
G05
T1
X3.25Y-3.55
X3.448Y-2.75
X3.45Y-2.9
X3.45Y-3.725
X3.4581Y-2.65
X3.475Y-2.55
X3.55Y-2.95
X3.575Y-2.475
X3.6Y-2.2
X3.6Y-2.6
X3.625Y-2.25
X3.675Y-3.0
X3.7Y-2.3
X3.725Y-3.05
X3.875Y-2.425
X4.3Y-2.65
X4.363Y-2.75
X4.375Y-2.525
X4.375Y-2.9
X4.45Y-2.95
X4.475Y-2.2
X4.5Y-2.475
X4.5Y-3.05
X4.525Y-2.25
X4.525Y-2.6
X4.525Y-3.0
X4.6Y-2.3
X4.75Y-2.425
X5.225Y-2.65
X5.225Y-3.025
X5.25Y-2.75
X5.2506Y-4.95
X5.275Y-2.7
X5.275Y-2.9
X5.3Y-2.95
X5.325Y-2.525
X5.4Y-2.25
X5.425Y-2.45
X5.45Y-2.3
X5.45Y-2.6
X6.05Y-5.025
X6.15Y-4.95
X6.25Y-3.0
X6.275Y-2.65
X6.2919Y-2.75
X6.325Y-2.7
X6.35Y-2.525
X6.35Y-2.9
X6.4Y-2.95
X6.425Y-2.2
X6.45Y-2.475
X6.475Y-2.25
X6.475Y-2.6
X6.565Y-2.3
X6.7Y-2.375
X6.7Y-3.1
X6.775Y-2.425
X7.175Y-3.0
X7.2Y-2.65
X7.2Y-5.45
X7.2169Y-2.75
X7.225Y-2.9
X7.225Y-3.575
X7.25Y-2.7
X7.25Y-2.95
X7.275Y-2.55
X7.275Y-3.55
X7.325Y-3.475
X7.341Y-2.216
X7.375Y-2.475
X7.4Y-2.25
X7.4Y-2.6
X7.45Y-3.775
X7.495Y-2.3
X7.55Y-3.775
X7.575Y-2.35
X7.675Y-2.425
X7.8225Y-2.9275
X7.975Y-2.275
X7.975Y-2.5
X8.55Y-4.675
T2
X3.475Y-2.2
X4.225Y-2.35
X5.075Y-3.225
X5.25Y-2.275
X5.325Y-3.4
X5.3825Y-3.3575
X5.425Y-3.325
X5.475Y-4.55
X5.725Y-3.125
X5.775Y-3.075
X6.0625Y-2.3625
X6.1Y-2.425
X9.275Y-4.625
T3
X7.225Y-4.5
X7.225Y-4.8
X7.325Y-4.5
X7.325Y-4.8
X7.35Y-5.3
X7.425Y-4.5
X7.425Y-4.8
X7.525Y-4.5
X7.525Y-4.8
X7.625Y-4.5
X7.625Y-4.8
X7.65Y-5.3
X7.725Y-4.5
X7.725Y-4.8
X7.95Y-3.0
X7.95Y-3.1
X7.95Y-3.2
X7.95Y-3.3
X7.95Y-3.4
X7.95Y-3.5
X7.95Y-3.6
X7.95Y-3.7
X7.95Y-3.8
X7.95Y-3.9
X8.775Y-4.325
X8.775Y-4.425
X8.775Y-4.525
X9.0Y-4.875
X9.075Y-4.325
X9.075Y-4.425
X9.075Y-4.525
T4
X3.1266Y-4.125
X3.1281Y-3.775
X3.2031Y-4.775
X3.3234Y-4.125
X3.325Y-3.775
X3.4Y-4.775
X3.5281Y-5.3
X3.725Y-5.3
X3.95Y-5.3
X4.1469Y-5.3
X7.3016Y-5.075
X7.4984Y-5.075
X7.9998Y-4.8246
X7.9998Y-5.1246
X8.0998Y-4.8246
X8.0998Y-5.1246
X8.1998Y-4.8246
X8.1998Y-5.1246
X8.225Y-4.1996
X8.225Y-4.2996
X8.225Y-4.3996
X8.225Y-4.4996
X8.2998Y-4.8246
X8.2998Y-5.1246
X8.3031Y-5.3
X8.3998Y-4.8246
X8.3998Y-5.1246
X8.4998Y-4.8246
X8.4998Y-5.1246
X8.5Y-5.3
X8.525Y-4.1996
X8.525Y-4.2996
X8.525Y-4.3996
X8.525Y-4.4996
X8.5998Y-4.8246
X8.5998Y-5.1246
X8.6516Y-5.3
X8.8484Y-5.3
X8.9Y-4.8756
X9.0Y-4.9756
X9.1Y-4.8756
T5
X3.575Y-3.875
X3.575Y-3.975
X3.575Y-4.275
X3.575Y-4.375
X3.675Y-3.875
X3.675Y-3.975
X3.675Y-4.275
X3.675Y-4.375
X3.725Y-3.225
X3.725Y-3.325
X3.725Y-4.925
X3.725Y-5.025
X3.775Y-3.875
X3.775Y-3.975
X3.775Y-4.275
X3.775Y-4.375
X3.825Y-3.225
X3.825Y-3.325
X3.825Y-4.925
X3.825Y-5.025
X3.875Y-3.875
X3.875Y-3.975
X3.875Y-4.275
X3.875Y-4.375
X3.975Y-3.875
X3.975Y-3.975
X3.975Y-4.275
X3.975Y-4.375
X4.075Y-3.875
X4.075Y-3.975
X4.075Y-4.275
X4.075Y-4.375
X4.175Y-3.875
X4.175Y-3.975
X4.175Y-4.275
X4.175Y-4.375
X4.275Y-3.875
X4.275Y-3.975
X4.275Y-4.275
X4.275Y-4.375
X4.35Y-5.275
X4.375Y-3.875
X4.375Y-3.975
X4.375Y-4.275
X4.375Y-4.375
X4.45Y-5.275
X4.475Y-3.875
X4.475Y-3.975
X4.475Y-4.275
X4.475Y-4.375
X4.55Y-5.275
X4.575Y-3.875
X4.575Y-3.975
X4.575Y-4.275
X4.575Y-4.375
X4.675Y-3.875
X4.675Y-3.975
X4.675Y-4.275
X4.675Y-4.375
X4.75Y-5.275
X4.775Y-3.875
X4.775Y-3.975
X4.775Y-4.275
X4.775Y-4.375
X4.85Y-5.275
X4.875Y-3.875
X4.875Y-3.975
X4.875Y-4.275
X4.875Y-4.375
X4.95Y-2.25
X4.95Y-2.35
X4.95Y-2.45
X4.95Y-2.55
X4.95Y-2.65
X4.95Y-2.75
X4.95Y-2.85
X4.95Y-2.95
X4.95Y-5.275
X4.975Y-3.875
X4.975Y-3.975
X4.975Y-4.275
X4.975Y-4.375
X5.075Y-3.875
X5.075Y-3.975
X5.075Y-4.275
X5.075Y-4.375
X5.15Y-5.275
X5.175Y-3.875
X5.175Y-3.975
X5.175Y-4.275
X5.175Y-4.375
X5.25Y-5.275
X5.35Y-5.275
X5.425Y-3.875
X5.425Y-3.975
X5.425Y-4.275
X5.425Y-4.375
X5.525Y-3.875
X5.525Y-3.975
X5.525Y-4.275
X5.525Y-4.375
X5.55Y-5.275
X5.625Y-3.875
X5.625Y-3.975
X5.625Y-4.275
X5.625Y-4.375
X5.65Y-5.275
X5.725Y-3.875
X5.725Y-3.975
X5.725Y-4.275
X5.725Y-4.375
X5.75Y-5.275
X5.825Y-3.875
X5.825Y-3.975
X5.825Y-4.275
X5.825Y-4.375
X5.9Y-2.25
X5.9Y-2.35
X5.9Y-2.45
X5.9Y-2.55
X5.9Y-2.65
X5.9Y-2.75
X5.9Y-2.85
X5.9Y-2.95
X5.925Y-3.875
X5.925Y-3.975
X5.925Y-4.275
X5.925Y-4.375
X5.95Y-5.275
X6.025Y-3.875
X6.025Y-3.975
X6.025Y-4.275
X6.025Y-4.375
X6.05Y-5.275
X6.125Y-3.875
X6.125Y-3.975
X6.125Y-4.275
X6.125Y-4.375
X6.15Y-5.275
X6.225Y-3.875
X6.225Y-3.975
X6.225Y-4.275
X6.225Y-4.375
X6.25Y-5.275
X6.325Y-3.225
X6.325Y-3.325
X6.325Y-3.875
X6.325Y-3.975
X6.325Y-4.275
X6.325Y-4.375
X6.325Y-4.925
X6.325Y-5.025
X6.425Y-3.225
X6.425Y-3.325
X6.425Y-3.875
X6.425Y-3.975
X6.425Y-4.275
X6.425Y-4.375
X6.425Y-4.925
X6.425Y-5.025
X6.45Y-5.275
X6.525Y-3.875
X6.525Y-3.975
X6.525Y-4.275
X6.525Y-4.375
X6.55Y-5.275
X6.625Y-3.875
X6.625Y-3.975
X6.625Y-4.275
X6.625Y-4.375
X6.65Y-5.275
X6.725Y-3.875
X6.725Y-3.975
X6.725Y-4.275
X6.725Y-4.375
X6.825Y-3.875
X6.825Y-3.975
X6.825Y-4.275
X6.825Y-4.375
X6.925Y-3.875
X6.925Y-3.975
X6.925Y-4.275
X6.925Y-4.375
X7.025Y-3.875
X7.025Y-3.975
X7.025Y-4.275
X7.025Y-4.375
X7.05Y-4.9746
X7.05Y-5.0746
X7.05Y-5.1746
X7.05Y-5.2746
X7.225Y-4.225
X7.225Y-4.325
X7.325Y-4.225
X7.325Y-4.325
X7.425Y-4.225
X7.425Y-4.325
X7.525Y-4.225
X7.525Y-4.325
X7.625Y-4.225
X7.625Y-4.325
X7.725Y-4.225
X7.725Y-4.325
X7.825Y-4.225
X7.825Y-4.325
X7.925Y-4.225
X7.925Y-4.325
T6
X8.2Y-2.1
X8.2Y-2.2
X8.2Y-2.3
X8.2Y-2.4
X8.2Y-2.5
X8.2Y-2.6
X8.2Y-2.7
X8.2Y-2.8
X8.2Y-2.9
X8.2Y-3.0
X8.2Y-3.1
X8.2Y-3.2
X8.2Y-3.3
X8.2Y-3.4
X8.2Y-3.5
X8.2Y-3.6
X8.2Y-3.7
X8.2Y-3.8
X8.2Y-3.9
X8.2Y-4.0
X8.45Y-3.9909
X8.55Y-3.9909
X8.65Y-3.9909
X8.9Y-2.1
X8.9Y-2.2
X8.9Y-2.3
X8.9Y-2.4
X8.9Y-2.5
X8.9Y-2.6
X8.9Y-2.7
X8.9Y-2.8
X8.9Y-2.9
X8.9Y-3.0
X8.9Y-3.1
X8.9Y-3.2
X8.9Y-3.3
X8.9Y-3.4
X8.9Y-3.5
X8.9Y-3.6
X8.9Y-3.7
X8.9Y-3.8
X8.9Y-3.9
X8.9Y-4.0
T0
M30
