%TF.GenerationSoftware,KiCad,Pcbnew,7.0.7*%
%TF.CreationDate,2025-01-28T12:58:34-05:00*%
%TF.ProjectId,cross-point-exp-brd-mini-smd,63726f73-732d-4706-9f69-6e742d657870,rev?*%
%TF.SameCoordinates,Original*%
%TF.FileFunction,Soldermask,Bot*%
%TF.FilePolarity,Negative*%
%FSLAX46Y46*%
G04 Gerber Fmt 4.6, Leading zero omitted, Abs format (unit mm)*
G04 Created by KiCad (PCBNEW 7.0.7) date 2025-01-28 12:58:34*
%MOMM*%
%LPD*%
G01*
G04 APERTURE LIST*
G04 Aperture macros list*
%AMFreePoly0*
4,1,19,0.500000,-0.750000,0.000000,-0.750000,0.000000,-0.744911,-0.071157,-0.744911,-0.207708,-0.704816,-0.327430,-0.627875,-0.420627,-0.520320,-0.479746,-0.390866,-0.500000,-0.250000,-0.500000,0.250000,-0.479746,0.390866,-0.420627,0.520320,-0.327430,0.627875,-0.207708,0.704816,-0.071157,0.744911,0.000000,0.744911,0.000000,0.750000,0.500000,0.750000,0.500000,-0.750000,0.500000,-0.750000,
$1*%
%AMFreePoly1*
4,1,19,0.000000,0.744911,0.071157,0.744911,0.207708,0.704816,0.327430,0.627875,0.420627,0.520320,0.479746,0.390866,0.500000,0.250000,0.500000,-0.250000,0.479746,-0.390866,0.420627,-0.520320,0.327430,-0.627875,0.207708,-0.704816,0.071157,-0.744911,0.000000,-0.744911,0.000000,-0.750000,-0.500000,-0.750000,-0.500000,0.750000,0.000000,0.750000,0.000000,0.744911,0.000000,0.744911,
$1*%
G04 Aperture macros list end*
%ADD10C,1.600000*%
%ADD11R,1.700000X1.700000*%
%ADD12O,1.700000X1.700000*%
%ADD13C,1.400000*%
%ADD14O,1.400000X1.400000*%
%ADD15C,2.200000*%
%ADD16C,1.500000*%
%ADD17R,1.600000X1.600000*%
%ADD18O,1.600000X1.600000*%
%ADD19C,2.286000*%
%ADD20O,1.700000X2.300000*%
%ADD21O,4.240000X1.700000*%
%ADD22O,1.800000X1.800000*%
%ADD23O,1.500000X1.500000*%
%ADD24C,1.440000*%
%ADD25FreePoly0,270.000000*%
%ADD26FreePoly1,270.000000*%
%ADD27FreePoly0,180.000000*%
%ADD28FreePoly1,180.000000*%
G04 APERTURE END LIST*
D10*
%TO.C,C2*%
X93305000Y-134610000D03*
X88305000Y-134610000D03*
%TD*%
D11*
%TO.C,JVEE1*%
X82550000Y-118745000D03*
D12*
X85090000Y-118745000D03*
X87630000Y-118745000D03*
X90170000Y-118745000D03*
%TD*%
D10*
%TO.C,C5*%
X99060000Y-132755000D03*
X99060000Y-137755000D03*
%TD*%
%TO.C,C3*%
X89535000Y-114300000D03*
X89535000Y-109300000D03*
%TD*%
D13*
%TO.C,R9*%
X119380000Y-126365000D03*
D14*
X119380000Y-118745000D03*
%TD*%
D15*
%TO.C,REF\u002A\u002A*%
X96520000Y-100965000D03*
%TD*%
%TO.C,REF\u002A\u002A*%
X175260000Y-100965000D03*
%TD*%
D16*
%TO.C,TP6*%
X139700000Y-132080000D03*
%TD*%
D10*
%TO.C,C8*%
X81915000Y-95210000D03*
X81915000Y-90210000D03*
%TD*%
D13*
%TO.C,R12*%
X89535000Y-140325000D03*
D14*
X97155000Y-140325000D03*
%TD*%
D17*
%TO.C,U10*%
X134620000Y-123190000D03*
D18*
X137160000Y-123190000D03*
X139700000Y-123190000D03*
X142240000Y-123190000D03*
X142240000Y-115570000D03*
X139700000Y-115570000D03*
X137160000Y-115570000D03*
X134620000Y-115570000D03*
%TD*%
D11*
%TO.C,JpVDD2*%
X96520000Y-123825000D03*
D12*
X99060000Y-123825000D03*
X101600000Y-123825000D03*
%TD*%
D11*
%TO.C,J1*%
X81915000Y-67945000D03*
D12*
X81915000Y-70485000D03*
X81915000Y-73025000D03*
X81915000Y-75565000D03*
X81915000Y-78105000D03*
X81915000Y-80645000D03*
X81915000Y-83185000D03*
X81915000Y-85725000D03*
%TD*%
D11*
%TO.C,J2*%
X189230000Y-67945000D03*
D12*
X189230000Y-70485000D03*
X189230000Y-73025000D03*
X189230000Y-75565000D03*
X189230000Y-78105000D03*
X189230000Y-80645000D03*
X189230000Y-83185000D03*
X189230000Y-85725000D03*
%TD*%
D19*
%TO.C,J4*%
X144614900Y-76835000D03*
X181775100Y-76835000D03*
D20*
X142875000Y-90805000D03*
X145415000Y-90805000D03*
X147955000Y-90805000D03*
X150495000Y-90805000D03*
X153035000Y-90805000D03*
X155575000Y-90805000D03*
X158115000Y-90805000D03*
X160655000Y-90805000D03*
X163195000Y-90805000D03*
X165735000Y-90805000D03*
X168275000Y-90805000D03*
X170815000Y-90805000D03*
X173355000Y-90805000D03*
X175895000Y-90805000D03*
X178435000Y-90805000D03*
X180975000Y-90805000D03*
X183515000Y-90805000D03*
X142875000Y-62865000D03*
X145415000Y-62865000D03*
X147955000Y-62865000D03*
X150495000Y-62865000D03*
X153035000Y-62865000D03*
X155575000Y-62865000D03*
X158115000Y-62865000D03*
X160655000Y-62865000D03*
X163195000Y-62865000D03*
X165735000Y-62865000D03*
X168275000Y-62865000D03*
X170815000Y-62865000D03*
X173355000Y-62865000D03*
X175895000Y-62865000D03*
X178435000Y-62865000D03*
X180975000Y-62865000D03*
X183515000Y-62865000D03*
%TD*%
D11*
%TO.C,DC1*%
X83820000Y-139700000D03*
D12*
X83820000Y-137160000D03*
X83820000Y-134620000D03*
X83820000Y-132080000D03*
%TD*%
D13*
%TO.C,R1*%
X132715000Y-136525000D03*
D14*
X125095000Y-136525000D03*
%TD*%
D10*
%TO.C,C1*%
X130810000Y-132080000D03*
X130810000Y-127080000D03*
%TD*%
D13*
%TO.C,R8*%
X121920000Y-126365000D03*
D14*
X121920000Y-118745000D03*
%TD*%
D12*
%TO.C,J5*%
X100330000Y-53975000D03*
D21*
X101600000Y-53975000D03*
X104140000Y-53975000D03*
X106680000Y-53975000D03*
X109220000Y-53975000D03*
X111760000Y-53975000D03*
X114300000Y-53975000D03*
X116840000Y-53975000D03*
D12*
X100330000Y-51435000D03*
D21*
X101600000Y-51435000D03*
X104140000Y-51435000D03*
X106680000Y-51435000D03*
X109220000Y-51435000D03*
X111760000Y-51435000D03*
X114300000Y-51435000D03*
X116840000Y-51435000D03*
X154940000Y-53975000D03*
X157480000Y-53975000D03*
X160020000Y-53975000D03*
X162560000Y-53975000D03*
X165100000Y-53975000D03*
X167640000Y-53975000D03*
X170180000Y-53975000D03*
D12*
X171450000Y-53975000D03*
D21*
X154940000Y-51435000D03*
X157480000Y-51435000D03*
X160020000Y-51435000D03*
X162560000Y-51435000D03*
X165100000Y-51435000D03*
X167640000Y-51435000D03*
X170180000Y-51435000D03*
D12*
X171450000Y-51435000D03*
%TD*%
%TO.C,J6*%
X100330000Y-102235000D03*
D21*
X101600000Y-102235000D03*
X104140000Y-102235000D03*
X106680000Y-102235000D03*
X109220000Y-102235000D03*
X111760000Y-102235000D03*
X114300000Y-102235000D03*
X116840000Y-102235000D03*
D12*
X100330000Y-99695000D03*
D21*
X101600000Y-99695000D03*
X104140000Y-99695000D03*
X106680000Y-99695000D03*
X109220000Y-99695000D03*
X111760000Y-99695000D03*
X114300000Y-99695000D03*
X116840000Y-99695000D03*
X154940000Y-102235000D03*
X157480000Y-102235000D03*
X160020000Y-102235000D03*
X162560000Y-102235000D03*
X165100000Y-102235000D03*
X167640000Y-102235000D03*
X170180000Y-102235000D03*
D12*
X171450000Y-102235000D03*
D21*
X154940000Y-99695000D03*
X157480000Y-99695000D03*
X160020000Y-99695000D03*
X162560000Y-99695000D03*
X165100000Y-99695000D03*
X167640000Y-99695000D03*
X170180000Y-99695000D03*
D12*
X171450000Y-99695000D03*
%TD*%
D13*
%TO.C,R6*%
X116840000Y-126365000D03*
D14*
X116840000Y-118745000D03*
%TD*%
D13*
%TO.C,R4*%
X111760000Y-126365000D03*
D14*
X111760000Y-118745000D03*
%TD*%
D11*
%TO.C,JpVDD1*%
X93980000Y-128905000D03*
D12*
X96520000Y-128905000D03*
X99060000Y-128905000D03*
%TD*%
D11*
%TO.C,J8*%
X109220000Y-114300000D03*
D12*
X111760000Y-114300000D03*
X114300000Y-114300000D03*
X116840000Y-114300000D03*
X119380000Y-114300000D03*
X121920000Y-114300000D03*
X124460000Y-114300000D03*
X127000000Y-114300000D03*
%TD*%
D11*
%TO.C,JpVDD5*%
X96520000Y-118745000D03*
D12*
X99060000Y-118745000D03*
X101600000Y-118745000D03*
%TD*%
D19*
%TO.C,J3*%
X90004900Y-76835000D03*
X127165100Y-76835000D03*
D20*
X88265000Y-90805000D03*
X90805000Y-90805000D03*
X93345000Y-90805000D03*
X95885000Y-90805000D03*
X98425000Y-90805000D03*
X100965000Y-90805000D03*
X103505000Y-90805000D03*
X106045000Y-90805000D03*
X108585000Y-90805000D03*
X111125000Y-90805000D03*
X113665000Y-90805000D03*
X116205000Y-90805000D03*
X118745000Y-90805000D03*
X121285000Y-90805000D03*
X123825000Y-90805000D03*
X126365000Y-90805000D03*
X128905000Y-90805000D03*
X88265000Y-62865000D03*
X90805000Y-62865000D03*
X93345000Y-62865000D03*
X95885000Y-62865000D03*
X98425000Y-62865000D03*
X100965000Y-62865000D03*
X103505000Y-62865000D03*
X106045000Y-62865000D03*
X108585000Y-62865000D03*
X111125000Y-62865000D03*
X113665000Y-62865000D03*
X116205000Y-62865000D03*
X118745000Y-62865000D03*
X121285000Y-62865000D03*
X123825000Y-62865000D03*
X126365000Y-62865000D03*
X128905000Y-62865000D03*
%TD*%
D13*
%TO.C,R2*%
X144145000Y-138430000D03*
D14*
X136525000Y-138430000D03*
%TD*%
D11*
%TO.C,J7*%
X109220000Y-111760000D03*
D12*
X111760000Y-111760000D03*
X114300000Y-111760000D03*
X116840000Y-111760000D03*
X119380000Y-111760000D03*
X121920000Y-111760000D03*
X124460000Y-111760000D03*
X127000000Y-111760000D03*
%TD*%
D10*
%TO.C,C6*%
X194310000Y-140970000D03*
X189310000Y-140970000D03*
%TD*%
D16*
%TO.C,CE1*%
X134620000Y-62865000D03*
%TD*%
D15*
%TO.C,REF\u002A\u002A*%
X175260000Y-52705000D03*
%TD*%
D17*
%TO.C,U11*%
X106045000Y-139065000D03*
D18*
X108585000Y-139065000D03*
X111125000Y-139065000D03*
X113665000Y-139065000D03*
X116205000Y-139065000D03*
X118745000Y-139065000D03*
X121285000Y-139065000D03*
X121285000Y-131445000D03*
X118745000Y-131445000D03*
X116205000Y-131445000D03*
X113665000Y-131445000D03*
X111125000Y-131445000D03*
X108585000Y-131445000D03*
X106045000Y-131445000D03*
%TD*%
D13*
%TO.C,R3*%
X184785000Y-139065000D03*
D14*
X177165000Y-139065000D03*
%TD*%
D11*
%TO.C,PMOD1*%
X80645000Y-111760000D03*
D12*
X80645000Y-106680000D03*
X80645000Y-109220000D03*
X80645000Y-104140000D03*
X80645000Y-101600000D03*
X80645000Y-99060000D03*
X78105000Y-111760000D03*
X78105000Y-109220000D03*
X78105000Y-106680000D03*
X78105000Y-104140000D03*
X78105000Y-101600000D03*
X78105000Y-99060000D03*
%TD*%
D13*
%TO.C,R11*%
X142240000Y-109855000D03*
D14*
X134620000Y-109855000D03*
%TD*%
D11*
%TO.C,JpVDD4*%
X96520000Y-113665000D03*
D12*
X99060000Y-113665000D03*
X101600000Y-113665000D03*
%TD*%
D22*
%TO.C,U9*%
X199895000Y-120465000D03*
D23*
X196865000Y-120765000D03*
X196865000Y-125615000D03*
D22*
X199895000Y-125915000D03*
D12*
X200025000Y-114300000D03*
X197485000Y-114300000D03*
D11*
X194945000Y-114300000D03*
D12*
X192405000Y-114300000D03*
X189865000Y-114300000D03*
X187325000Y-114300000D03*
X184785000Y-114300000D03*
D11*
X182245000Y-114300000D03*
D12*
X179705000Y-114300000D03*
X177165000Y-114300000D03*
X174625000Y-114300000D03*
X172085000Y-114300000D03*
D11*
X169545000Y-114300000D03*
D12*
X167005000Y-114300000D03*
X164465000Y-114300000D03*
X161925000Y-114300000D03*
X159385000Y-114300000D03*
D11*
X156845000Y-114300000D03*
D12*
X154305000Y-114300000D03*
X151765000Y-114300000D03*
X151765000Y-132080000D03*
X154305000Y-132080000D03*
D11*
X156845000Y-132080000D03*
D12*
X159385000Y-132080000D03*
X161925000Y-132080000D03*
X164465000Y-132080000D03*
X167005000Y-132080000D03*
D11*
X169545000Y-132080000D03*
D12*
X172085000Y-132080000D03*
X174625000Y-132080000D03*
X177165000Y-132080000D03*
X179705000Y-132080000D03*
D11*
X182245000Y-132080000D03*
D12*
X184785000Y-132080000D03*
X187325000Y-132080000D03*
X189865000Y-132080000D03*
X192405000Y-132080000D03*
D11*
X194945000Y-132080000D03*
D12*
X197485000Y-132080000D03*
X200025000Y-132080000D03*
X151995000Y-120650000D03*
D11*
X151995000Y-123190000D03*
D12*
X151995000Y-125730000D03*
%TD*%
D15*
%TO.C,REF\u002A\u002A*%
X96520000Y-52705000D03*
%TD*%
D10*
%TO.C,C4*%
X170100000Y-140970000D03*
X165100000Y-140970000D03*
%TD*%
D13*
%TO.C,R7*%
X114300000Y-126365000D03*
D14*
X114300000Y-118745000D03*
%TD*%
D10*
%TO.C,C7*%
X81915000Y-63460000D03*
X81915000Y-58460000D03*
%TD*%
D13*
%TO.C,R5*%
X109220000Y-126365000D03*
D14*
X109220000Y-118745000D03*
%TD*%
D16*
%TO.C,GND1*%
X196215000Y-65405000D03*
%TD*%
D24*
%TO.C,RV1*%
X139685000Y-129540000D03*
X137145000Y-132080000D03*
X139685000Y-134620000D03*
%TD*%
D13*
%TO.C,R10*%
X142240000Y-112395000D03*
D14*
X134620000Y-112395000D03*
%TD*%
D11*
%TO.C,JpVDD3*%
X90170000Y-123825000D03*
D12*
X87630000Y-123825000D03*
X85090000Y-123825000D03*
%TD*%
D25*
%TO.C,JP3*%
X136525000Y-95855000D03*
D26*
X136525000Y-97155000D03*
%TD*%
D27*
%TO.C,JP4*%
X181005000Y-95885000D03*
D28*
X179705000Y-95885000D03*
%TD*%
M02*
