%TF.GenerationSoftware,KiCad,Pcbnew,7.0.7*%
%TF.CreationDate,2025-01-28T12:58:33-05:00*%
%TF.ProjectId,cross-point-exp-brd-mini-smd,63726f73-732d-4706-9f69-6e742d657870,rev?*%
%TF.SameCoordinates,Original*%
%TF.FileFunction,Copper,L1,Top*%
%TF.FilePolarity,Positive*%
%FSLAX46Y46*%
G04 Gerber Fmt 4.6, Leading zero omitted, Abs format (unit mm)*
G04 Created by KiCad (PCBNEW 7.0.7) date 2025-01-28 12:58:33*
%MOMM*%
%LPD*%
G01*
G04 APERTURE LIST*
G04 Aperture macros list*
%AMFreePoly0*
4,1,19,0.550000,-0.750000,0.000000,-0.750000,0.000000,-0.744911,-0.071157,-0.744911,-0.207708,-0.704816,-0.327430,-0.627875,-0.420627,-0.520320,-0.479746,-0.390866,-0.500000,-0.250000,-0.500000,0.250000,-0.479746,0.390866,-0.420627,0.520320,-0.327430,0.627875,-0.207708,0.704816,-0.071157,0.744911,0.000000,0.744911,0.000000,0.750000,0.550000,0.750000,0.550000,-0.750000,0.550000,-0.750000,
$1*%
%AMFreePoly1*
4,1,19,0.000000,0.744911,0.071157,0.744911,0.207708,0.704816,0.327430,0.627875,0.420627,0.520320,0.479746,0.390866,0.500000,0.250000,0.500000,-0.250000,0.479746,-0.390866,0.420627,-0.520320,0.327430,-0.627875,0.207708,-0.704816,0.071157,-0.744911,0.000000,-0.744911,0.000000,-0.750000,-0.550000,-0.750000,-0.550000,0.750000,0.000000,0.750000,0.000000,0.744911,0.000000,0.744911,
$1*%
G04 Aperture macros list end*
%TA.AperFunction,ComponentPad*%
%ADD10C,1.600000*%
%TD*%
%TA.AperFunction,ComponentPad*%
%ADD11R,1.700000X1.700000*%
%TD*%
%TA.AperFunction,ComponentPad*%
%ADD12O,1.700000X1.700000*%
%TD*%
%TA.AperFunction,ComponentPad*%
%ADD13C,1.400000*%
%TD*%
%TA.AperFunction,ComponentPad*%
%ADD14O,1.400000X1.400000*%
%TD*%
%TA.AperFunction,ComponentPad*%
%ADD15C,1.500000*%
%TD*%
%TA.AperFunction,ComponentPad*%
%ADD16R,1.600000X1.600000*%
%TD*%
%TA.AperFunction,ComponentPad*%
%ADD17O,1.600000X1.600000*%
%TD*%
%TA.AperFunction,SMDPad,CuDef*%
%ADD18R,0.500000X1.200000*%
%TD*%
%TA.AperFunction,SMDPad,CuDef*%
%ADD19R,1.200000X0.500000*%
%TD*%
%TA.AperFunction,ComponentPad*%
%ADD20O,1.700000X2.300000*%
%TD*%
%TA.AperFunction,ComponentPad*%
%ADD21O,4.240000X1.700000*%
%TD*%
%TA.AperFunction,SMDPad,CuDef*%
%ADD22FreePoly0,270.000000*%
%TD*%
%TA.AperFunction,SMDPad,CuDef*%
%ADD23R,1.500000X1.000000*%
%TD*%
%TA.AperFunction,SMDPad,CuDef*%
%ADD24FreePoly1,270.000000*%
%TD*%
%TA.AperFunction,SMDPad,CuDef*%
%ADD25R,1.700000X3.500000*%
%TD*%
%TA.AperFunction,SMDPad,CuDef*%
%ADD26R,3.500000X1.700000*%
%TD*%
%TA.AperFunction,ComponentPad*%
%ADD27C,1.440000*%
%TD*%
%TA.AperFunction,ViaPad*%
%ADD28C,0.700001*%
%TD*%
%TA.AperFunction,Conductor*%
%ADD29C,0.406400*%
%TD*%
%TA.AperFunction,Conductor*%
%ADD30C,1.270000*%
%TD*%
%TA.AperFunction,Conductor*%
%ADD31C,0.812800*%
%TD*%
G04 APERTURE END LIST*
D10*
%TO.P,C2,1*%
%TO.N,Net-(DC1-Pin_4)*%
X93305000Y-134610000D03*
%TO.P,C2,2*%
%TO.N,Net-(DC1-Pin_3)*%
X88305000Y-134610000D03*
%TD*%
D11*
%TO.P,JVEE1,1,Pin_1*%
%TO.N,GND*%
X82550000Y-118745000D03*
D12*
%TO.P,JVEE1,2,Pin_2*%
%TO.N,VEE1*%
X85090000Y-118745000D03*
%TO.P,JVEE1,3,Pin_3*%
%TO.N,VEE*%
X87630000Y-118745000D03*
%TO.P,JVEE1,4,Pin_4*%
%TO.N,GND*%
X90170000Y-118745000D03*
%TD*%
D10*
%TO.P,C5,1*%
%TO.N,VDD1*%
X99060000Y-132755000D03*
%TO.P,C5,2*%
%TO.N,GND*%
X99060000Y-137755000D03*
%TD*%
%TO.P,C3,1*%
%TO.N,VEE*%
X89535000Y-114300000D03*
%TO.P,C3,2*%
%TO.N,GND*%
X89535000Y-109300000D03*
%TD*%
D13*
%TO.P,R9,1*%
%TO.N,Net-(U11D-+)*%
X119380000Y-126365000D03*
D14*
%TO.P,R9,2*%
%TO.N,CinH*%
X119380000Y-118745000D03*
%TD*%
D15*
%TO.P,TP6,1,1*%
%TO.N,Net-(U11B-+)*%
X139700000Y-132080000D03*
%TD*%
D10*
%TO.P,C8,1*%
%TO.N,GND*%
X81915000Y-95210000D03*
%TO.P,C8,2*%
%TO.N,VEE1*%
X81915000Y-90210000D03*
%TD*%
D13*
%TO.P,R12,1*%
%TO.N,Net-(DC1-Pin_3)*%
X89535000Y-140325000D03*
D14*
%TO.P,R12,2*%
%TO.N,Net-(DC1-Pin_4)*%
X97155000Y-140325000D03*
%TD*%
D16*
%TO.P,U10,1,Vdd*%
%TO.N,VSYS*%
X134620000Y-123190000D03*
D17*
%TO.P,U10,2,~{CS}*%
%TO.N,DACCS*%
X137160000Y-123190000D03*
%TO.P,U10,3,SCK*%
%TO.N,DACSCK*%
X139700000Y-123190000D03*
%TO.P,U10,4,SDI*%
%TO.N,DACDATA*%
X142240000Y-123190000D03*
%TO.P,U10,5,~{LDAC}*%
%TO.N,GND*%
X142240000Y-115570000D03*
%TO.P,U10,6,VB*%
%TO.N,DAC2OUT*%
X139700000Y-115570000D03*
%TO.P,U10,7,Vss*%
%TO.N,GND*%
X137160000Y-115570000D03*
%TO.P,U10,8,VA*%
%TO.N,DAC1OUT*%
X134620000Y-115570000D03*
%TD*%
D11*
%TO.P,JpVDD2,1,Pin_1*%
%TO.N,VDD1*%
X96520000Y-123825000D03*
D12*
%TO.P,JpVDD2,2,Pin_2*%
%TO.N,Net-(DC1-Pin_4)*%
X99060000Y-123825000D03*
%TO.P,JpVDD2,3,Pin_3*%
%TO.N,GND*%
X101600000Y-123825000D03*
%TD*%
D18*
%TO.P,U3,1,X14*%
%TO.N,CC14*%
X150320000Y-82535000D03*
%TO.P,U3,2,X15*%
%TO.N,CC15*%
X151120000Y-82535000D03*
%TO.P,U3,3,X6*%
%TO.N,CC6*%
X151920000Y-82535000D03*
%TO.P,U3,4,X7*%
%TO.N,CC7*%
X152720000Y-82535000D03*
%TO.P,U3,5,X8*%
%TO.N,CC8*%
X153520000Y-82535000D03*
%TO.P,U3,6,X9*%
%TO.N,CC9*%
X154320000Y-82535000D03*
%TO.P,U3,7,X10*%
%TO.N,CC10*%
X155120000Y-82535000D03*
%TO.P,U3,8,X11*%
%TO.N,CC11*%
X155920000Y-82535000D03*
%TO.P,U3,9*%
%TO.N,N/C*%
X156720000Y-82535000D03*
%TO.P,U3,10,P/_S*%
%TO.N,GND*%
X157520000Y-82535000D03*
%TO.P,U3,11,Y7*%
%TO.N,JP16*%
X158320000Y-82535000D03*
D19*
%TO.P,U3,12,VSS*%
%TO.N,GND*%
X160020000Y-80835000D03*
%TO.P,U3,13,Y6*%
%TO.N,JP15*%
X160020000Y-80035000D03*
%TO.P,U3,14,STB*%
%TO.N,CSC*%
X160020000Y-79235000D03*
%TO.P,U3,15,Y5*%
%TO.N,JP14*%
X160020000Y-78435000D03*
%TO.P,U3,16,VEE*%
%TO.N,VEE1*%
X160020000Y-77635000D03*
%TO.P,U3,17,Y4*%
%TO.N,JP13*%
X160020000Y-76835000D03*
%TO.P,U3,18,AX1*%
%TO.N,GND*%
X160020000Y-76035000D03*
%TO.P,U3,19,AX2*%
X160020000Y-75235000D03*
%TO.P,U3,20,AY0*%
X160020000Y-74435000D03*
%TO.P,U3,21,AY1*%
X160020000Y-73635000D03*
%TO.P,U3,22*%
%TO.N,N/C*%
X160020000Y-72835000D03*
D18*
%TO.P,U3,23*%
X158320000Y-71135000D03*
%TO.P,U3,24,X13*%
%TO.N,CC13*%
X157520000Y-71135000D03*
%TO.P,U3,25,X12*%
%TO.N,CC12*%
X156720000Y-71135000D03*
%TO.P,U3,26,X5*%
%TO.N,CC5*%
X155920000Y-71135000D03*
%TO.P,U3,27,X4*%
%TO.N,CC4*%
X155120000Y-71135000D03*
%TO.P,U3,28,X3*%
%TO.N,CC3*%
X154320000Y-71135000D03*
%TO.P,U3,29,X2*%
%TO.N,CC2*%
X153520000Y-71135000D03*
%TO.P,U3,30,X1*%
%TO.N,CC1*%
X152720000Y-71135000D03*
%TO.P,U3,31,X0*%
%TO.N,CC0*%
X151920000Y-71135000D03*
%TO.P,U3,32*%
%TO.N,N/C*%
X151120000Y-71135000D03*
%TO.P,U3,33,Y0*%
%TO.N,JP9*%
X150320000Y-71135000D03*
D19*
%TO.P,U3,34,CS/CLK*%
%TO.N,CLK*%
X148620000Y-72835000D03*
%TO.P,U3,35,Y1*%
%TO.N,JP10*%
X148620000Y-73635000D03*
%TO.P,U3,36,DATA*%
%TO.N,DATA*%
X148620000Y-74435000D03*
%TO.P,U3,37,Y2*%
%TO.N,JP11*%
X148620000Y-75235000D03*
%TO.P,U3,38,VDD*%
%TO.N,VDD1*%
X148620000Y-76035000D03*
%TO.P,U3,39,Y3*%
%TO.N,JP12*%
X148620000Y-76835000D03*
%TO.P,U3,40,AY2*%
%TO.N,GND*%
X148620000Y-77635000D03*
%TO.P,U3,41,RST*%
%TO.N,RST*%
X148620000Y-78435000D03*
%TO.P,U3,42,AX3*%
%TO.N,GND*%
X148620000Y-79235000D03*
%TO.P,U3,43,AX0*%
X148620000Y-80035000D03*
%TO.P,U3,44*%
%TO.N,N/C*%
X148620000Y-80835000D03*
%TD*%
D11*
%TO.P,J1,1,Pin_1*%
%TO.N,JP1*%
X81915000Y-67945000D03*
D12*
%TO.P,J1,2,Pin_2*%
%TO.N,JP2*%
X81915000Y-70485000D03*
%TO.P,J1,3,Pin_3*%
%TO.N,JP3*%
X81915000Y-73025000D03*
%TO.P,J1,4,Pin_4*%
%TO.N,JP4*%
X81915000Y-75565000D03*
%TO.P,J1,5,Pin_5*%
%TO.N,JP5*%
X81915000Y-78105000D03*
%TO.P,J1,6,Pin_6*%
%TO.N,JP6*%
X81915000Y-80645000D03*
%TO.P,J1,7,Pin_7*%
%TO.N,JP7*%
X81915000Y-83185000D03*
%TO.P,J1,8,Pin_8*%
%TO.N,JP8*%
X81915000Y-85725000D03*
%TD*%
D11*
%TO.P,J2,1,Pin_1*%
%TO.N,JP9*%
X189230000Y-67945000D03*
D12*
%TO.P,J2,2,Pin_2*%
%TO.N,JP10*%
X189230000Y-70485000D03*
%TO.P,J2,3,Pin_3*%
%TO.N,JP11*%
X189230000Y-73025000D03*
%TO.P,J2,4,Pin_4*%
%TO.N,JP12*%
X189230000Y-75565000D03*
%TO.P,J2,5,Pin_5*%
%TO.N,JP13*%
X189230000Y-78105000D03*
%TO.P,J2,6,Pin_6*%
%TO.N,JP14*%
X189230000Y-80645000D03*
%TO.P,J2,7,Pin_7*%
%TO.N,JP15*%
X189230000Y-83185000D03*
%TO.P,J2,8,Pin_8*%
%TO.N,JP16*%
X189230000Y-85725000D03*
%TD*%
D20*
%TO.P,J4,1,Pin_1*%
%TO.N,CC14*%
X142875000Y-90805000D03*
%TO.P,J4,2,Pin_2*%
%TO.N,CC15*%
X145415000Y-90805000D03*
%TO.P,J4,3,Pin_3*%
%TO.N,CC6*%
X147955000Y-90805000D03*
%TO.P,J4,4,Pin_4*%
%TO.N,CC7*%
X150495000Y-90805000D03*
%TO.P,J4,5,Pin_5*%
%TO.N,CC8*%
X153035000Y-90805000D03*
%TO.P,J4,6,Pin_6*%
%TO.N,CC9*%
X155575000Y-90805000D03*
%TO.P,J4,7,Pin_7*%
%TO.N,CC10*%
X158115000Y-90805000D03*
%TO.P,J4,8,Pin_8*%
%TO.N,CC11*%
X160655000Y-90805000D03*
%TO.P,J4,9,Pin_9*%
%TO.N,CD14*%
X163195000Y-90805000D03*
%TO.P,J4,10,Pin_10*%
%TO.N,CD15*%
X165735000Y-90805000D03*
%TO.P,J4,11,Pin_11*%
%TO.N,CD6*%
X168275000Y-90805000D03*
%TO.P,J4,12,Pin_12*%
%TO.N,CD7*%
X170815000Y-90805000D03*
%TO.P,J4,13,Pin_13*%
%TO.N,CD8*%
X173355000Y-90805000D03*
%TO.P,J4,14,Pin_14*%
%TO.N,CD9*%
X175895000Y-90805000D03*
%TO.P,J4,15,Pin_15*%
%TO.N,CD10*%
X178435000Y-90805000D03*
%TO.P,J4,16,Pin_16*%
%TO.N,CD11*%
X180975000Y-90805000D03*
%TO.P,J4,17,Pin_17*%
%TO.N,Net-(J4-Pin_17)*%
X183515000Y-90805000D03*
%TO.P,J4,18,Pin_18*%
%TO.N,CE2*%
X142875000Y-62865000D03*
%TO.P,J4,19,Pin_19*%
%TO.N,CC0*%
X145415000Y-62865000D03*
%TO.P,J4,20,Pin_20*%
%TO.N,CC1*%
X147955000Y-62865000D03*
%TO.P,J4,21,Pin_21*%
%TO.N,CC2*%
X150495000Y-62865000D03*
%TO.P,J4,22,Pin_22*%
%TO.N,CC3*%
X153035000Y-62865000D03*
%TO.P,J4,23,Pin_23*%
%TO.N,CC4*%
X155575000Y-62865000D03*
%TO.P,J4,24,Pin_24*%
%TO.N,CC5*%
X158115000Y-62865000D03*
%TO.P,J4,25,Pin_25*%
%TO.N,CC12*%
X160655000Y-62865000D03*
%TO.P,J4,26,Pin_26*%
%TO.N,CC13*%
X163195000Y-62865000D03*
%TO.P,J4,27,Pin_27*%
%TO.N,CD0*%
X165735000Y-62865000D03*
%TO.P,J4,28,Pin_28*%
%TO.N,CD1*%
X168275000Y-62865000D03*
%TO.P,J4,29,Pin_29*%
%TO.N,CD2*%
X170815000Y-62865000D03*
%TO.P,J4,30,Pin_30*%
%TO.N,CD3*%
X173355000Y-62865000D03*
%TO.P,J4,31,Pin_31*%
%TO.N,CD4*%
X175895000Y-62865000D03*
%TO.P,J4,32,Pin_32*%
%TO.N,CD5*%
X178435000Y-62865000D03*
%TO.P,J4,33,Pin_33*%
%TO.N,CD12*%
X180975000Y-62865000D03*
%TO.P,J4,34,Pin_34*%
%TO.N,CD13*%
X183515000Y-62865000D03*
%TD*%
D11*
%TO.P,DC1,1,Pin_1*%
%TO.N,GND*%
X83820000Y-139700000D03*
D12*
%TO.P,DC1,2,Pin_2*%
%TO.N,VBUS*%
X83820000Y-137160000D03*
%TO.P,DC1,3,Pin_3*%
%TO.N,Net-(DC1-Pin_3)*%
X83820000Y-134620000D03*
%TO.P,DC1,4,Pin_4*%
%TO.N,Net-(DC1-Pin_4)*%
X83820000Y-132080000D03*
%TD*%
D13*
%TO.P,R1,1*%
%TO.N,ADC0*%
X132715000Y-136525000D03*
D14*
%TO.P,R1,2*%
%TO.N,Net-(U11A--)*%
X125095000Y-136525000D03*
%TD*%
D10*
%TO.P,C1,1*%
%TO.N,Net-(U11B-+)*%
X130810000Y-132080000D03*
%TO.P,C1,2*%
%TO.N,GND*%
X130810000Y-127080000D03*
%TD*%
D13*
%TO.P,R8,1*%
%TO.N,Net-(U11D-+)*%
X121920000Y-126365000D03*
D14*
%TO.P,R8,2*%
%TO.N,CinL*%
X121920000Y-118745000D03*
%TD*%
D12*
%TO.P,J5,1,Pin_1*%
%TO.N,GND*%
X100330000Y-53975000D03*
D21*
X101600000Y-53975000D03*
X104140000Y-53975000D03*
X106680000Y-53975000D03*
X109220000Y-53975000D03*
X111760000Y-53975000D03*
X114300000Y-53975000D03*
X116840000Y-53975000D03*
D12*
%TO.P,J5,2,Pin_2*%
%TO.N,VDD*%
X100330000Y-51435000D03*
D21*
X101600000Y-51435000D03*
X104140000Y-51435000D03*
X106680000Y-51435000D03*
X109220000Y-51435000D03*
X111760000Y-51435000D03*
X114300000Y-51435000D03*
X116840000Y-51435000D03*
%TO.P,J5,3,Pin_3*%
%TO.N,GND*%
X154940000Y-53975000D03*
X157480000Y-53975000D03*
X160020000Y-53975000D03*
X162560000Y-53975000D03*
X165100000Y-53975000D03*
X167640000Y-53975000D03*
X170180000Y-53975000D03*
D12*
X171450000Y-53975000D03*
D21*
%TO.P,J5,4,Pin_4*%
%TO.N,VDD*%
X154940000Y-51435000D03*
X157480000Y-51435000D03*
X160020000Y-51435000D03*
X162560000Y-51435000D03*
X165100000Y-51435000D03*
X167640000Y-51435000D03*
X170180000Y-51435000D03*
D12*
X171450000Y-51435000D03*
%TD*%
%TO.P,J6,1,Pin_1*%
%TO.N,VEE*%
X100330000Y-102235000D03*
D21*
X101600000Y-102235000D03*
X104140000Y-102235000D03*
X106680000Y-102235000D03*
X109220000Y-102235000D03*
X111760000Y-102235000D03*
X114300000Y-102235000D03*
X116840000Y-102235000D03*
D12*
%TO.P,J6,2,Pin_2*%
%TO.N,VCC*%
X100330000Y-99695000D03*
D21*
X101600000Y-99695000D03*
X104140000Y-99695000D03*
X106680000Y-99695000D03*
X109220000Y-99695000D03*
X111760000Y-99695000D03*
X114300000Y-99695000D03*
X116840000Y-99695000D03*
%TO.P,J6,3,Pin_3*%
%TO.N,VEE*%
X154940000Y-102235000D03*
X157480000Y-102235000D03*
X160020000Y-102235000D03*
X162560000Y-102235000D03*
X165100000Y-102235000D03*
X167640000Y-102235000D03*
X170180000Y-102235000D03*
D12*
X171450000Y-102235000D03*
D21*
%TO.P,J6,4,Pin_4*%
%TO.N,VCC*%
X154940000Y-99695000D03*
X157480000Y-99695000D03*
X160020000Y-99695000D03*
X162560000Y-99695000D03*
X165100000Y-99695000D03*
X167640000Y-99695000D03*
X170180000Y-99695000D03*
D12*
X171450000Y-99695000D03*
%TD*%
D13*
%TO.P,R6,1*%
%TO.N,Net-(U11C-+)*%
X116840000Y-126365000D03*
D14*
%TO.P,R6,2*%
%TO.N,BinL*%
X116840000Y-118745000D03*
%TD*%
D13*
%TO.P,R4,1*%
%TO.N,Net-(U11A-+)*%
X111760000Y-126365000D03*
D14*
%TO.P,R4,2*%
%TO.N,AinL*%
X111760000Y-118745000D03*
%TD*%
D11*
%TO.P,JpVDD1,1,Pin_1*%
%TO.N,VBUS*%
X93980000Y-128905000D03*
D12*
%TO.P,JpVDD1,2,Pin_2*%
%TO.N,VDD1*%
X96520000Y-128905000D03*
%TO.P,JpVDD1,3,Pin_3*%
%TO.N,VSYS*%
X99060000Y-128905000D03*
%TD*%
D11*
%TO.P,J8,1,Pin_1*%
%TO.N,V165*%
X109220000Y-114300000D03*
D12*
%TO.P,J8,2,Pin_2*%
X111760000Y-114300000D03*
%TO.P,J8,3,Pin_3*%
X114300000Y-114300000D03*
%TO.P,J8,4,Pin_4*%
X116840000Y-114300000D03*
%TO.P,J8,5,Pin_5*%
X119380000Y-114300000D03*
%TO.P,J8,6,Pin_6*%
X121920000Y-114300000D03*
%TO.P,J8,7,Pin_7*%
%TO.N,GND*%
X124460000Y-114300000D03*
%TO.P,J8,8,Pin_8*%
X127000000Y-114300000D03*
%TD*%
D11*
%TO.P,JpVDD5,1,Pin_1*%
%TO.N,VDD1*%
X96520000Y-118745000D03*
D12*
%TO.P,JpVDD5,2,Pin_2*%
%TO.N,VDD*%
X99060000Y-118745000D03*
%TO.P,JpVDD5,3,Pin_3*%
%TO.N,V3P3*%
X101600000Y-118745000D03*
%TD*%
D22*
%TO.P,JP1,1,A*%
%TO.N,V3P3*%
X80645000Y-124430000D03*
D23*
%TO.P,JP1,2,C*%
%TO.N,Net-(JP1-C)*%
X80645000Y-125730000D03*
D24*
%TO.P,JP1,3,B*%
%TO.N,VBUS*%
X80645000Y-127030000D03*
%TD*%
D20*
%TO.P,J3,1,Pin_1*%
%TO.N,CA14*%
X88265000Y-90805000D03*
%TO.P,J3,2,Pin_2*%
%TO.N,CA15*%
X90805000Y-90805000D03*
%TO.P,J3,3,Pin_3*%
%TO.N,CA6*%
X93345000Y-90805000D03*
%TO.P,J3,4,Pin_4*%
%TO.N,CA7*%
X95885000Y-90805000D03*
%TO.P,J3,5,Pin_5*%
%TO.N,CA8*%
X98425000Y-90805000D03*
%TO.P,J3,6,Pin_6*%
%TO.N,CA9*%
X100965000Y-90805000D03*
%TO.P,J3,7,Pin_7*%
%TO.N,CA10*%
X103505000Y-90805000D03*
%TO.P,J3,8,Pin_8*%
%TO.N,CA11*%
X106045000Y-90805000D03*
%TO.P,J3,9,Pin_9*%
%TO.N,CB14*%
X108585000Y-90805000D03*
%TO.P,J3,10,Pin_10*%
%TO.N,CB15*%
X111125000Y-90805000D03*
%TO.P,J3,11,Pin_11*%
%TO.N,CB6*%
X113665000Y-90805000D03*
%TO.P,J3,12,Pin_12*%
%TO.N,CB7*%
X116205000Y-90805000D03*
%TO.P,J3,13,Pin_13*%
%TO.N,CB8*%
X118745000Y-90805000D03*
%TO.P,J3,14,Pin_14*%
%TO.N,CB9*%
X121285000Y-90805000D03*
%TO.P,J3,15,Pin_15*%
%TO.N,CB10*%
X123825000Y-90805000D03*
%TO.P,J3,16,Pin_16*%
%TO.N,CB11*%
X126365000Y-90805000D03*
%TO.P,J3,17,Pin_17*%
%TO.N,Net-(J3-Pin_17)*%
X128905000Y-90805000D03*
%TO.P,J3,18,Pin_18*%
%TO.N,CA0*%
X88265000Y-62865000D03*
%TO.P,J3,19,Pin_19*%
%TO.N,CA1*%
X90805000Y-62865000D03*
%TO.P,J3,20,Pin_20*%
%TO.N,CA2*%
X93345000Y-62865000D03*
%TO.P,J3,21,Pin_21*%
%TO.N,CA3*%
X95885000Y-62865000D03*
%TO.P,J3,22,Pin_22*%
%TO.N,CA4*%
X98425000Y-62865000D03*
%TO.P,J3,23,Pin_23*%
%TO.N,CA5*%
X100965000Y-62865000D03*
%TO.P,J3,24,Pin_24*%
%TO.N,CA12*%
X103505000Y-62865000D03*
%TO.P,J3,25,Pin_25*%
%TO.N,CA13*%
X106045000Y-62865000D03*
%TO.P,J3,26,Pin_26*%
%TO.N,CB0*%
X108585000Y-62865000D03*
%TO.P,J3,27,Pin_27*%
%TO.N,CB1*%
X111125000Y-62865000D03*
%TO.P,J3,28,Pin_28*%
%TO.N,CB2*%
X113665000Y-62865000D03*
%TO.P,J3,29,Pin_29*%
%TO.N,CB3*%
X116205000Y-62865000D03*
%TO.P,J3,30,Pin_30*%
%TO.N,CB4*%
X118745000Y-62865000D03*
%TO.P,J3,31,Pin_31*%
%TO.N,CB5*%
X121285000Y-62865000D03*
%TO.P,J3,32,Pin_32*%
%TO.N,CB12*%
X123825000Y-62865000D03*
%TO.P,J3,33,Pin_33*%
%TO.N,CB13*%
X126365000Y-62865000D03*
%TO.P,J3,34,Pin_34*%
%TO.N,CE0*%
X128905000Y-62865000D03*
%TD*%
D18*
%TO.P,U1,1,X14*%
%TO.N,CA14*%
X96315000Y-82535000D03*
%TO.P,U1,2,X15*%
%TO.N,CA15*%
X97115000Y-82535000D03*
%TO.P,U1,3,X6*%
%TO.N,CA6*%
X97915000Y-82535000D03*
%TO.P,U1,4,X7*%
%TO.N,CA7*%
X98715000Y-82535000D03*
%TO.P,U1,5,X8*%
%TO.N,CA8*%
X99515000Y-82535000D03*
%TO.P,U1,6,X9*%
%TO.N,CA9*%
X100315000Y-82535000D03*
%TO.P,U1,7,X10*%
%TO.N,CA10*%
X101115000Y-82535000D03*
%TO.P,U1,8,X11*%
%TO.N,CA11*%
X101915000Y-82535000D03*
%TO.P,U1,9*%
%TO.N,N/C*%
X102715000Y-82535000D03*
%TO.P,U1,10,P/_S*%
%TO.N,GND*%
X103515000Y-82535000D03*
%TO.P,U1,11,Y7*%
%TO.N,JP8*%
X104315000Y-82535000D03*
D19*
%TO.P,U1,12,VSS*%
%TO.N,GND*%
X106015000Y-80835000D03*
%TO.P,U1,13,Y6*%
%TO.N,JP7*%
X106015000Y-80035000D03*
%TO.P,U1,14,STB*%
%TO.N,CSA*%
X106015000Y-79235000D03*
%TO.P,U1,15,Y5*%
%TO.N,JP6*%
X106015000Y-78435000D03*
%TO.P,U1,16,VEE*%
%TO.N,VEE1*%
X106015000Y-77635000D03*
%TO.P,U1,17,Y4*%
%TO.N,JP5*%
X106015000Y-76835000D03*
%TO.P,U1,18,AX1*%
%TO.N,GND*%
X106015000Y-76035000D03*
%TO.P,U1,19,AX2*%
X106015000Y-75235000D03*
%TO.P,U1,20,AY0*%
X106015000Y-74435000D03*
%TO.P,U1,21,AY1*%
X106015000Y-73635000D03*
%TO.P,U1,22*%
%TO.N,N/C*%
X106015000Y-72835000D03*
D18*
%TO.P,U1,23*%
X104315000Y-71135000D03*
%TO.P,U1,24,X13*%
%TO.N,CA13*%
X103515000Y-71135000D03*
%TO.P,U1,25,X12*%
%TO.N,CA12*%
X102715000Y-71135000D03*
%TO.P,U1,26,X5*%
%TO.N,CA5*%
X101915000Y-71135000D03*
%TO.P,U1,27,X4*%
%TO.N,CA4*%
X101115000Y-71135000D03*
%TO.P,U1,28,X3*%
%TO.N,CA3*%
X100315000Y-71135000D03*
%TO.P,U1,29,X2*%
%TO.N,CA2*%
X99515000Y-71135000D03*
%TO.P,U1,30,X1*%
%TO.N,CA1*%
X98715000Y-71135000D03*
%TO.P,U1,31,X0*%
%TO.N,CA0*%
X97915000Y-71135000D03*
%TO.P,U1,32*%
%TO.N,N/C*%
X97115000Y-71135000D03*
%TO.P,U1,33,Y0*%
%TO.N,JP1*%
X96315000Y-71135000D03*
D19*
%TO.P,U1,34,CS/CLK*%
%TO.N,CLK*%
X94615000Y-72835000D03*
%TO.P,U1,35,Y1*%
%TO.N,JP2*%
X94615000Y-73635000D03*
%TO.P,U1,36,DATA*%
%TO.N,DATA*%
X94615000Y-74435000D03*
%TO.P,U1,37,Y2*%
%TO.N,JP3*%
X94615000Y-75235000D03*
%TO.P,U1,38,VDD*%
%TO.N,VDD1*%
X94615000Y-76035000D03*
%TO.P,U1,39,Y3*%
%TO.N,JP4*%
X94615000Y-76835000D03*
%TO.P,U1,40,AY2*%
%TO.N,GND*%
X94615000Y-77635000D03*
%TO.P,U1,41,RST*%
%TO.N,RST*%
X94615000Y-78435000D03*
%TO.P,U1,42,AX3*%
%TO.N,GND*%
X94615000Y-79235000D03*
%TO.P,U1,43,AX0*%
X94615000Y-80035000D03*
%TO.P,U1,44*%
%TO.N,N/C*%
X94615000Y-80835000D03*
%TD*%
D13*
%TO.P,R2,1*%
%TO.N,ADC1*%
X144145000Y-138430000D03*
D14*
%TO.P,R2,2*%
%TO.N,Net-(U11C--)*%
X136525000Y-138430000D03*
%TD*%
D11*
%TO.P,J7,1,Pin_1*%
%TO.N,AinH*%
X109220000Y-111760000D03*
D12*
%TO.P,J7,2,Pin_2*%
%TO.N,AinL*%
X111760000Y-111760000D03*
%TO.P,J7,3,Pin_3*%
%TO.N,BinH*%
X114300000Y-111760000D03*
%TO.P,J7,4,Pin_4*%
%TO.N,BinL*%
X116840000Y-111760000D03*
%TO.P,J7,5,Pin_5*%
%TO.N,CinH*%
X119380000Y-111760000D03*
%TO.P,J7,6,Pin_6*%
%TO.N,CinL*%
X121920000Y-111760000D03*
%TO.P,J7,7,Pin_7*%
%TO.N,DAC1OUT*%
X124460000Y-111760000D03*
%TO.P,J7,8,Pin_8*%
%TO.N,DAC2OUT*%
X127000000Y-111760000D03*
%TD*%
D10*
%TO.P,C6,1*%
%TO.N,VSYS*%
X194310000Y-140970000D03*
%TO.P,C6,2*%
%TO.N,GND*%
X189310000Y-140970000D03*
%TD*%
D15*
%TO.P,CE1,1,1*%
%TO.N,CE1*%
X134620000Y-62865000D03*
%TD*%
D16*
%TO.P,U11,1*%
%TO.N,Net-(U11A--)*%
X106045000Y-139065000D03*
D17*
%TO.P,U11,2,-*%
X108585000Y-139065000D03*
%TO.P,U11,3,+*%
%TO.N,Net-(U11A-+)*%
X111125000Y-139065000D03*
%TO.P,U11,4,V+*%
%TO.N,VSYS*%
X113665000Y-139065000D03*
%TO.P,U11,5,+*%
%TO.N,Net-(U11B-+)*%
X116205000Y-139065000D03*
%TO.P,U11,6,-*%
%TO.N,V165*%
X118745000Y-139065000D03*
%TO.P,U11,7*%
X121285000Y-139065000D03*
%TO.P,U11,8*%
%TO.N,Net-(U11C--)*%
X121285000Y-131445000D03*
%TO.P,U11,9,-*%
X118745000Y-131445000D03*
%TO.P,U11,10,+*%
%TO.N,Net-(U11C-+)*%
X116205000Y-131445000D03*
%TO.P,U11,11,V-*%
%TO.N,GND*%
X113665000Y-131445000D03*
%TO.P,U11,12,+*%
%TO.N,Net-(U11D-+)*%
X111125000Y-131445000D03*
%TO.P,U11,13,-*%
%TO.N,Net-(U11D--)*%
X108585000Y-131445000D03*
%TO.P,U11,14*%
X106045000Y-131445000D03*
%TD*%
D13*
%TO.P,R3,1*%
%TO.N,ADC2*%
X184785000Y-139065000D03*
D14*
%TO.P,R3,2*%
%TO.N,Net-(U11D--)*%
X177165000Y-139065000D03*
%TD*%
D18*
%TO.P,U2,1,X14*%
%TO.N,CB14*%
X113490000Y-82535000D03*
%TO.P,U2,2,X15*%
%TO.N,CB15*%
X114290000Y-82535000D03*
%TO.P,U2,3,X6*%
%TO.N,CB6*%
X115090000Y-82535000D03*
%TO.P,U2,4,X7*%
%TO.N,CB7*%
X115890000Y-82535000D03*
%TO.P,U2,5,X8*%
%TO.N,CB8*%
X116690000Y-82535000D03*
%TO.P,U2,6,X9*%
%TO.N,CB9*%
X117490000Y-82535000D03*
%TO.P,U2,7,X10*%
%TO.N,CB10*%
X118290000Y-82535000D03*
%TO.P,U2,8,X11*%
%TO.N,CB11*%
X119090000Y-82535000D03*
%TO.P,U2,9*%
%TO.N,N/C*%
X119890000Y-82535000D03*
%TO.P,U2,10,P/_S*%
%TO.N,GND*%
X120690000Y-82535000D03*
%TO.P,U2,11,Y7*%
%TO.N,JP8*%
X121490000Y-82535000D03*
D19*
%TO.P,U2,12,VSS*%
%TO.N,GND*%
X123190000Y-80835000D03*
%TO.P,U2,13,Y6*%
%TO.N,JP7*%
X123190000Y-80035000D03*
%TO.P,U2,14,STB*%
%TO.N,CSB*%
X123190000Y-79235000D03*
%TO.P,U2,15,Y5*%
%TO.N,JP6*%
X123190000Y-78435000D03*
%TO.P,U2,16,VEE*%
%TO.N,VEE1*%
X123190000Y-77635000D03*
%TO.P,U2,17,Y4*%
%TO.N,JP5*%
X123190000Y-76835000D03*
%TO.P,U2,18,AX1*%
%TO.N,GND*%
X123190000Y-76035000D03*
%TO.P,U2,19,AX2*%
X123190000Y-75235000D03*
%TO.P,U2,20,AY0*%
X123190000Y-74435000D03*
%TO.P,U2,21,AY1*%
X123190000Y-73635000D03*
%TO.P,U2,22*%
%TO.N,N/C*%
X123190000Y-72835000D03*
D18*
%TO.P,U2,23*%
X121490000Y-71135000D03*
%TO.P,U2,24,X13*%
%TO.N,CB13*%
X120690000Y-71135000D03*
%TO.P,U2,25,X12*%
%TO.N,CB12*%
X119890000Y-71135000D03*
%TO.P,U2,26,X5*%
%TO.N,CB5*%
X119090000Y-71135000D03*
%TO.P,U2,27,X4*%
%TO.N,CB4*%
X118290000Y-71135000D03*
%TO.P,U2,28,X3*%
%TO.N,CB3*%
X117490000Y-71135000D03*
%TO.P,U2,29,X2*%
%TO.N,CB2*%
X116690000Y-71135000D03*
%TO.P,U2,30,X1*%
%TO.N,CB1*%
X115890000Y-71135000D03*
%TO.P,U2,31,X0*%
%TO.N,CB0*%
X115090000Y-71135000D03*
%TO.P,U2,32*%
%TO.N,N/C*%
X114290000Y-71135000D03*
%TO.P,U2,33,Y0*%
%TO.N,JP1*%
X113490000Y-71135000D03*
D19*
%TO.P,U2,34,CS/CLK*%
%TO.N,CLK*%
X111790000Y-72835000D03*
%TO.P,U2,35,Y1*%
%TO.N,JP2*%
X111790000Y-73635000D03*
%TO.P,U2,36,DATA*%
%TO.N,DATA*%
X111790000Y-74435000D03*
%TO.P,U2,37,Y2*%
%TO.N,JP3*%
X111790000Y-75235000D03*
%TO.P,U2,38,VDD*%
%TO.N,VDD1*%
X111790000Y-76035000D03*
%TO.P,U2,39,Y3*%
%TO.N,JP4*%
X111790000Y-76835000D03*
%TO.P,U2,40,AY2*%
%TO.N,GND*%
X111790000Y-77635000D03*
%TO.P,U2,41,RST*%
%TO.N,RST*%
X111790000Y-78435000D03*
%TO.P,U2,42,AX3*%
%TO.N,GND*%
X111790000Y-79235000D03*
%TO.P,U2,43,AX0*%
X111790000Y-80035000D03*
%TO.P,U2,44*%
%TO.N,N/C*%
X111790000Y-80835000D03*
%TD*%
D11*
%TO.P,PMOD1,1,Pin_1*%
%TO.N,CS*%
X80645000Y-111760000D03*
D12*
%TO.P,PMOD1,2,Pin_2*%
%TO.N,MOSI*%
X80645000Y-106680000D03*
%TO.P,PMOD1,3,Pin_3*%
%TO.N,MISO*%
X80645000Y-109220000D03*
%TO.P,PMOD1,4,Pin_4*%
%TO.N,SCK*%
X80645000Y-104140000D03*
%TO.P,PMOD1,5,Pin_5*%
%TO.N,GND*%
X80645000Y-101600000D03*
%TO.P,PMOD1,6,Pin_6*%
%TO.N,Net-(JP1-C)*%
X80645000Y-99060000D03*
%TO.P,PMOD1,7,Pin_7*%
%TO.N,GPIO11*%
X78105000Y-111760000D03*
%TO.P,PMOD1,8,Pin_8*%
%TO.N,GPIO10*%
X78105000Y-109220000D03*
%TO.P,PMOD1,9,Pin_9*%
%TO.N,GPIO9*%
X78105000Y-106680000D03*
%TO.P,PMOD1,10,Pin_10*%
%TO.N,GPIO8*%
X78105000Y-104140000D03*
%TO.P,PMOD1,11,Pin_11*%
%TO.N,GND*%
X78105000Y-101600000D03*
%TO.P,PMOD1,12,Pin_12*%
%TO.N,Net-(JP1-C)*%
X78105000Y-99060000D03*
%TD*%
D13*
%TO.P,R11,1*%
%TO.N,ADC3*%
X142240000Y-109855000D03*
D14*
%TO.P,R11,2*%
%TO.N,GND*%
X134620000Y-109855000D03*
%TD*%
D11*
%TO.P,JpVDD4,1,Pin_1*%
%TO.N,GND*%
X96520000Y-113665000D03*
D12*
%TO.P,JpVDD4,2,Pin_2*%
%TO.N,VCC*%
X99060000Y-113665000D03*
%TO.P,JpVDD4,3,Pin_3*%
%TO.N,V3P3*%
X101600000Y-113665000D03*
%TD*%
%TO.P,U9,1,GPIO0*%
%TO.N,CLK*%
X200025000Y-114300000D03*
D25*
X200025000Y-113400000D03*
D12*
%TO.P,U9,2,GPIO1*%
%TO.N,DATA*%
X197485000Y-114300000D03*
D25*
X197485000Y-113400000D03*
D11*
%TO.P,U9,3,GND*%
%TO.N,GND*%
X194945000Y-114300000D03*
D25*
X194945000Y-113400000D03*
D12*
%TO.P,U9,4,GPIO2*%
%TO.N,RST*%
X192405000Y-114300000D03*
D25*
X192405000Y-113400000D03*
D12*
%TO.P,U9,5,GPIO3*%
%TO.N,CSD*%
X189865000Y-114300000D03*
D25*
X189865000Y-113400000D03*
D12*
%TO.P,U9,6,GPIO4*%
%TO.N,CSE*%
X187325000Y-114300000D03*
D25*
X187325000Y-113400000D03*
D12*
%TO.P,U9,7,GPIO5*%
%TO.N,CSC*%
X184785000Y-114300000D03*
D25*
X184785000Y-113400000D03*
D11*
%TO.P,U9,8,GND*%
%TO.N,GND*%
X182245000Y-114300000D03*
D25*
X182245000Y-113400000D03*
D12*
%TO.P,U9,9,GPIO6*%
%TO.N,CSB*%
X179705000Y-114300000D03*
D25*
X179705000Y-113400000D03*
D12*
%TO.P,U9,10,GPIO7*%
%TO.N,CSA*%
X177165000Y-114300000D03*
D25*
X177165000Y-113400000D03*
D12*
%TO.P,U9,11,GPIO8*%
%TO.N,GPIO8*%
X174625000Y-114300000D03*
D25*
X174625000Y-113400000D03*
D12*
%TO.P,U9,12,GPIO9*%
%TO.N,GPIO9*%
X172085000Y-114300000D03*
D25*
X172085000Y-113400000D03*
D11*
%TO.P,U9,13,GND*%
%TO.N,GND*%
X169545000Y-114300000D03*
D25*
X169545000Y-113400000D03*
D12*
%TO.P,U9,14,GPIO10*%
%TO.N,GPIO10*%
X167005000Y-114300000D03*
D25*
X167005000Y-113400000D03*
D12*
%TO.P,U9,15,GPIO11*%
%TO.N,GPIO11*%
X164465000Y-114300000D03*
D25*
X164465000Y-113400000D03*
D12*
%TO.P,U9,16,GPIO12*%
%TO.N,MISO*%
X161925000Y-114300000D03*
D25*
X161925000Y-113400000D03*
D12*
%TO.P,U9,17,GPIO13*%
%TO.N,CS*%
X159385000Y-114300000D03*
D25*
X159385000Y-113400000D03*
D11*
%TO.P,U9,18,GND*%
%TO.N,GND*%
X156845000Y-114300000D03*
D25*
X156845000Y-113400000D03*
D12*
%TO.P,U9,19,GPIO14*%
%TO.N,SCK*%
X154305000Y-114300000D03*
D25*
X154305000Y-113400000D03*
D12*
%TO.P,U9,20,GPIO15*%
%TO.N,MOSI*%
X151765000Y-114300000D03*
D25*
X151765000Y-113400000D03*
D12*
%TO.P,U9,21,GPIO16*%
%TO.N,unconnected-(U9-GPIO16-Pad21)*%
X151765000Y-132080000D03*
D25*
X151765000Y-132980000D03*
D12*
%TO.P,U9,22,GPIO17*%
%TO.N,DACCS*%
X154305000Y-132080000D03*
D25*
X154305000Y-132980000D03*
D11*
%TO.P,U9,23,GND*%
%TO.N,GND*%
X156845000Y-132080000D03*
D25*
X156845000Y-132980000D03*
D12*
%TO.P,U9,24,GPIO18*%
%TO.N,DACSCK*%
X159385000Y-132080000D03*
D25*
X159385000Y-132980000D03*
D12*
%TO.P,U9,25,GPIO19*%
%TO.N,DACDATA*%
X161925000Y-132080000D03*
D25*
X161925000Y-132980000D03*
D12*
%TO.P,U9,26,GPIO20*%
%TO.N,unconnected-(U9-GPIO20-Pad26)*%
X164465000Y-132080000D03*
D25*
X164465000Y-132980000D03*
D12*
%TO.P,U9,27,GPIO21*%
%TO.N,unconnected-(U9-GPIO21-Pad27)*%
X167005000Y-132080000D03*
D25*
X167005000Y-132980000D03*
D11*
%TO.P,U9,28,GND*%
%TO.N,GND*%
X169545000Y-132080000D03*
D25*
X169545000Y-132980000D03*
D12*
%TO.P,U9,29,GPIO22*%
%TO.N,unconnected-(U9-GPIO22-Pad29)*%
X172085000Y-132080000D03*
D25*
X172085000Y-132980000D03*
D12*
%TO.P,U9,30,RUN*%
%TO.N,unconnected-(U9-RUN-Pad30)*%
X174625000Y-132080000D03*
D25*
X174625000Y-132980000D03*
D12*
%TO.P,U9,31,GPIO26_ADC0*%
%TO.N,ADC0*%
X177165000Y-132080000D03*
D25*
X177165000Y-132980000D03*
D12*
%TO.P,U9,32,GPIO27_ADC1*%
%TO.N,ADC1*%
X179705000Y-132080000D03*
D25*
X179705000Y-132980000D03*
D11*
%TO.P,U9,33,AGND*%
%TO.N,GND*%
X182245000Y-132080000D03*
D25*
X182245000Y-132980000D03*
D12*
%TO.P,U9,34,GPIO28_ADC2*%
%TO.N,ADC2*%
X184785000Y-132080000D03*
D25*
X184785000Y-132980000D03*
D12*
%TO.P,U9,35,ADC_VREF*%
%TO.N,ADC3*%
X187325000Y-132080000D03*
D25*
X187325000Y-132980000D03*
D12*
%TO.P,U9,36,3V3*%
%TO.N,V3P3*%
X189865000Y-132080000D03*
D25*
X189865000Y-132980000D03*
D12*
%TO.P,U9,37,3V3_EN*%
%TO.N,unconnected-(U9-3V3_EN-Pad37)*%
X192405000Y-132080000D03*
D25*
X192405000Y-132980000D03*
D11*
%TO.P,U9,38,GND*%
%TO.N,GND*%
X194945000Y-132080000D03*
D25*
X194945000Y-132980000D03*
D12*
%TO.P,U9,39,VSYS*%
%TO.N,VSYS*%
X197485000Y-132080000D03*
D25*
X197485000Y-132980000D03*
D12*
%TO.P,U9,40,VBUS*%
%TO.N,VBUS*%
X200025000Y-132080000D03*
D25*
X200025000Y-132980000D03*
D12*
%TO.P,U9,41,SWCLK*%
%TO.N,unconnected-(U9-SWCLK-Pad41)*%
X151995000Y-120650000D03*
D26*
X151095000Y-120650000D03*
D11*
%TO.P,U9,42,GND*%
%TO.N,unconnected-(U9-GND-Pad42)*%
X151995000Y-123190000D03*
D26*
X151095000Y-123190000D03*
D12*
%TO.P,U9,43,SWDIO*%
%TO.N,unconnected-(U9-SWDIO-Pad43)*%
X151995000Y-125730000D03*
D26*
X151095000Y-125730000D03*
%TD*%
D10*
%TO.P,C4,1*%
%TO.N,VBUS*%
X170100000Y-140970000D03*
%TO.P,C4,2*%
%TO.N,GND*%
X165100000Y-140970000D03*
%TD*%
D18*
%TO.P,U4,1,X14*%
%TO.N,CD14*%
X168100000Y-82535000D03*
%TO.P,U4,2,X15*%
%TO.N,CD15*%
X168900000Y-82535000D03*
%TO.P,U4,3,X6*%
%TO.N,CD6*%
X169700000Y-82535000D03*
%TO.P,U4,4,X7*%
%TO.N,CD7*%
X170500000Y-82535000D03*
%TO.P,U4,5,X8*%
%TO.N,CD8*%
X171300000Y-82535000D03*
%TO.P,U4,6,X9*%
%TO.N,CD9*%
X172100000Y-82535000D03*
%TO.P,U4,7,X10*%
%TO.N,CD10*%
X172900000Y-82535000D03*
%TO.P,U4,8,X11*%
%TO.N,CD11*%
X173700000Y-82535000D03*
%TO.P,U4,9*%
%TO.N,N/C*%
X174500000Y-82535000D03*
%TO.P,U4,10,P/_S*%
%TO.N,GND*%
X175300000Y-82535000D03*
%TO.P,U4,11,Y7*%
%TO.N,JP16*%
X176100000Y-82535000D03*
D19*
%TO.P,U4,12,VSS*%
%TO.N,GND*%
X177800000Y-80835000D03*
%TO.P,U4,13,Y6*%
%TO.N,JP15*%
X177800000Y-80035000D03*
%TO.P,U4,14,STB*%
%TO.N,CSD*%
X177800000Y-79235000D03*
%TO.P,U4,15,Y5*%
%TO.N,JP14*%
X177800000Y-78435000D03*
%TO.P,U4,16,VEE*%
%TO.N,VEE1*%
X177800000Y-77635000D03*
%TO.P,U4,17,Y4*%
%TO.N,JP13*%
X177800000Y-76835000D03*
%TO.P,U4,18,AX1*%
%TO.N,GND*%
X177800000Y-76035000D03*
%TO.P,U4,19,AX2*%
X177800000Y-75235000D03*
%TO.P,U4,20,AY0*%
X177800000Y-74435000D03*
%TO.P,U4,21,AY1*%
X177800000Y-73635000D03*
%TO.P,U4,22*%
%TO.N,N/C*%
X177800000Y-72835000D03*
D18*
%TO.P,U4,23*%
X176100000Y-71135000D03*
%TO.P,U4,24,X13*%
%TO.N,CD13*%
X175300000Y-71135000D03*
%TO.P,U4,25,X12*%
%TO.N,CD12*%
X174500000Y-71135000D03*
%TO.P,U4,26,X5*%
%TO.N,CD5*%
X173700000Y-71135000D03*
%TO.P,U4,27,X4*%
%TO.N,CD4*%
X172900000Y-71135000D03*
%TO.P,U4,28,X3*%
%TO.N,CD3*%
X172100000Y-71135000D03*
%TO.P,U4,29,X2*%
%TO.N,CD2*%
X171300000Y-71135000D03*
%TO.P,U4,30,X1*%
%TO.N,CD1*%
X170500000Y-71135000D03*
%TO.P,U4,31,X0*%
%TO.N,CD0*%
X169700000Y-71135000D03*
%TO.P,U4,32*%
%TO.N,N/C*%
X168900000Y-71135000D03*
%TO.P,U4,33,Y0*%
%TO.N,JP9*%
X168100000Y-71135000D03*
D19*
%TO.P,U4,34,CS/CLK*%
%TO.N,CLK*%
X166400000Y-72835000D03*
%TO.P,U4,35,Y1*%
%TO.N,JP10*%
X166400000Y-73635000D03*
%TO.P,U4,36,DATA*%
%TO.N,DATA*%
X166400000Y-74435000D03*
%TO.P,U4,37,Y2*%
%TO.N,JP11*%
X166400000Y-75235000D03*
%TO.P,U4,38,VDD*%
%TO.N,VDD1*%
X166400000Y-76035000D03*
%TO.P,U4,39,Y3*%
%TO.N,JP12*%
X166400000Y-76835000D03*
%TO.P,U4,40,AY2*%
%TO.N,GND*%
X166400000Y-77635000D03*
%TO.P,U4,41,RST*%
%TO.N,RST*%
X166400000Y-78435000D03*
%TO.P,U4,42,AX3*%
%TO.N,GND*%
X166400000Y-79235000D03*
%TO.P,U4,43,AX0*%
X166400000Y-80035000D03*
%TO.P,U4,44*%
%TO.N,N/C*%
X166400000Y-80835000D03*
%TD*%
D13*
%TO.P,R7,1*%
%TO.N,Net-(U11C-+)*%
X114300000Y-126365000D03*
D14*
%TO.P,R7,2*%
%TO.N,BinH*%
X114300000Y-118745000D03*
%TD*%
D18*
%TO.P,U5,1,X14*%
%TO.N,AinH*%
X131875000Y-82535000D03*
%TO.P,U5,2,X15*%
%TO.N,BinH*%
X132675000Y-82535000D03*
%TO.P,U5,3,X6*%
%TO.N,CinH*%
X133475000Y-82535000D03*
%TO.P,U5,4,X7*%
%TO.N,DAC1OUT*%
X134275000Y-82535000D03*
%TO.P,U5,5,X8*%
%TO.N,JP5*%
X135075000Y-82535000D03*
%TO.P,U5,6,X9*%
%TO.N,JP6*%
X135875000Y-82535000D03*
%TO.P,U5,7,X10*%
%TO.N,JP7*%
X136675000Y-82535000D03*
%TO.P,U5,8,X11*%
%TO.N,JP8*%
X137475000Y-82535000D03*
%TO.P,U5,9*%
%TO.N,N/C*%
X138275000Y-82535000D03*
%TO.P,U5,10,P/_S*%
%TO.N,GND*%
X139075000Y-82535000D03*
%TO.P,U5,11,Y7*%
%TO.N,JP16*%
X139875000Y-82535000D03*
D19*
%TO.P,U5,12,VSS*%
%TO.N,GND*%
X141575000Y-80835000D03*
%TO.P,U5,13,Y6*%
%TO.N,JP15*%
X141575000Y-80035000D03*
%TO.P,U5,14,STB*%
%TO.N,CSE*%
X141575000Y-79235000D03*
%TO.P,U5,15,Y5*%
%TO.N,JP14*%
X141575000Y-78435000D03*
%TO.P,U5,16,VEE*%
%TO.N,VEE1*%
X141575000Y-77635000D03*
%TO.P,U5,17,Y4*%
%TO.N,JP13*%
X141575000Y-76835000D03*
%TO.P,U5,18,AX1*%
%TO.N,GND*%
X141575000Y-76035000D03*
%TO.P,U5,19,AX2*%
X141575000Y-75235000D03*
%TO.P,U5,20,AY0*%
X141575000Y-74435000D03*
%TO.P,U5,21,AY1*%
X141575000Y-73635000D03*
%TO.P,U5,22*%
%TO.N,N/C*%
X141575000Y-72835000D03*
D18*
%TO.P,U5,23*%
X139875000Y-71135000D03*
%TO.P,U5,24,X13*%
%TO.N,JP12*%
X139075000Y-71135000D03*
%TO.P,U5,25,X12*%
%TO.N,JP11*%
X138275000Y-71135000D03*
%TO.P,U5,26,X5*%
%TO.N,JP10*%
X137475000Y-71135000D03*
%TO.P,U5,27,X4*%
%TO.N,JP9*%
X136675000Y-71135000D03*
%TO.P,U5,28,X3*%
%TO.N,DAC2OUT*%
X135875000Y-71135000D03*
%TO.P,U5,29,X2*%
%TO.N,CE2*%
X135075000Y-71135000D03*
%TO.P,U5,30,X1*%
%TO.N,CE1*%
X134275000Y-71135000D03*
%TO.P,U5,31,X0*%
%TO.N,CE0*%
X133475000Y-71135000D03*
%TO.P,U5,32*%
%TO.N,N/C*%
X132675000Y-71135000D03*
%TO.P,U5,33,Y0*%
%TO.N,JP1*%
X131875000Y-71135000D03*
D19*
%TO.P,U5,34,CS/CLK*%
%TO.N,CLK*%
X130175000Y-72835000D03*
%TO.P,U5,35,Y1*%
%TO.N,JP2*%
X130175000Y-73635000D03*
%TO.P,U5,36,DATA*%
%TO.N,DATA*%
X130175000Y-74435000D03*
%TO.P,U5,37,Y2*%
%TO.N,JP3*%
X130175000Y-75235000D03*
%TO.P,U5,38,VDD*%
%TO.N,VDD1*%
X130175000Y-76035000D03*
%TO.P,U5,39,Y3*%
%TO.N,JP4*%
X130175000Y-76835000D03*
%TO.P,U5,40,AY2*%
%TO.N,GND*%
X130175000Y-77635000D03*
%TO.P,U5,41,RST*%
%TO.N,RST*%
X130175000Y-78435000D03*
%TO.P,U5,42,AX3*%
%TO.N,GND*%
X130175000Y-79235000D03*
%TO.P,U5,43,AX0*%
X130175000Y-80035000D03*
%TO.P,U5,44*%
%TO.N,N/C*%
X130175000Y-80835000D03*
%TD*%
D10*
%TO.P,C7,1*%
%TO.N,VDD1*%
X81915000Y-63460000D03*
%TO.P,C7,2*%
%TO.N,GND*%
X81915000Y-58460000D03*
%TD*%
D13*
%TO.P,R5,1*%
%TO.N,Net-(U11A-+)*%
X109220000Y-126365000D03*
D14*
%TO.P,R5,2*%
%TO.N,AinH*%
X109220000Y-118745000D03*
%TD*%
D15*
%TO.P,GND1,1,1*%
%TO.N,GND*%
X196215000Y-65405000D03*
%TD*%
D27*
%TO.P,RV1,1,1*%
%TO.N,V3P3*%
X139685000Y-129540000D03*
%TO.P,RV1,2,2*%
%TO.N,Net-(U11B-+)*%
X137145000Y-132080000D03*
%TO.P,RV1,3,3*%
%TO.N,GND*%
X139685000Y-134620000D03*
%TD*%
D13*
%TO.P,R10,1*%
%TO.N,ADC3*%
X142240000Y-112395000D03*
D14*
%TO.P,R10,2*%
%TO.N,DAC1OUT*%
X134620000Y-112395000D03*
%TD*%
D11*
%TO.P,JpVDD3,1,Pin_1*%
%TO.N,VBUS*%
X90170000Y-123825000D03*
D12*
%TO.P,JpVDD3,2,Pin_2*%
%TO.N,Net-(DC1-Pin_3)*%
X87630000Y-123825000D03*
%TO.P,JpVDD3,3,Pin_3*%
%TO.N,VEE1*%
X85090000Y-123825000D03*
%TD*%
D28*
%TO.N,JP1*%
X130810000Y-69215000D03*
X111760000Y-69215000D03*
X92011500Y-69278500D03*
%TO.N,JP2*%
X109855000Y-70485000D03*
X91440000Y-70485000D03*
X128270000Y-70612000D03*
%TO.N,JP3*%
X115570000Y-74930000D03*
X132715000Y-74930000D03*
X98425000Y-74930000D03*
%TO.N,JP4*%
X92710000Y-77470000D03*
X132715000Y-76200000D03*
X109220000Y-76200000D03*
%TO.N,JP5*%
X120650000Y-78105000D03*
X136017000Y-78740000D03*
X103505000Y-78105000D03*
%TO.N,JP6*%
X125730000Y-81915000D03*
X135255000Y-84455000D03*
X109220000Y-81915000D03*
%TO.N,JP7*%
X135890000Y-85725000D03*
X106680000Y-83185000D03*
X124460000Y-83185000D03*
%TO.N,JP8*%
X121920000Y-84455000D03*
X137795000Y-85725000D03*
X104775000Y-84455000D03*
%TO.N,JP9*%
X167005000Y-69215000D03*
X137160000Y-69215000D03*
X148590000Y-69215000D03*
%TO.N,JP10*%
X147193000Y-70485000D03*
X141605000Y-70485000D03*
X164465000Y-70485000D03*
%TO.N,JP11*%
X168529000Y-75692000D03*
X137160000Y-73660000D03*
X151257000Y-75692000D03*
%TO.N,JP12*%
X170815000Y-76200000D03*
X138430000Y-74930000D03*
X152400000Y-76835000D03*
%TO.N,JP13*%
X157480000Y-78105000D03*
X175260000Y-78105000D03*
X139573000Y-77216000D03*
%TO.N,JP14*%
X180721000Y-81915000D03*
X144145000Y-81915000D03*
X163449000Y-81915000D03*
%TO.N,JP15*%
X143002000Y-83185000D03*
X179705000Y-83185000D03*
X161290000Y-83185000D03*
%TO.N,JP16*%
X176530000Y-84455000D03*
X158750000Y-84455000D03*
X140970000Y-84455000D03*
%TO.N,GND*%
X126365000Y-66675000D03*
X85090000Y-114300000D03*
X107315000Y-66675000D03*
X162560000Y-66675000D03*
X182880000Y-66675000D03*
X85090000Y-101600000D03*
X85090000Y-100330000D03*
X140970000Y-66675000D03*
X85090000Y-113030000D03*
%TO.N,VEE*%
X100965000Y-110490000D03*
%TO.N,VDD*%
X86360000Y-97155000D03*
X91440000Y-97155000D03*
%TO.N,RST*%
X169545000Y-79248000D03*
X132969000Y-79756000D03*
X184150000Y-80645000D03*
X151765000Y-79248000D03*
X97790000Y-79375000D03*
X114300000Y-79375000D03*
%TO.N,CSA*%
X172720000Y-96520000D03*
X108585000Y-86995000D03*
%TO.N,CSB*%
X175260000Y-95250000D03*
X121285000Y-79756000D03*
X130175000Y-86995000D03*
X128270000Y-80010000D03*
%TO.N,CSC*%
X161925000Y-88265000D03*
X185420000Y-93980000D03*
%TO.N,CSD*%
X189865000Y-92075000D03*
X175895000Y-79375000D03*
%TO.N,CSE*%
X139573000Y-79756000D03*
X182245000Y-86995000D03*
X146685000Y-79756000D03*
X143510000Y-86995000D03*
%TO.N,ADC3*%
X187325000Y-127635000D03*
%TO.N,CLK*%
X183515000Y-70485000D03*
X96520000Y-73025000D03*
X114300000Y-72390000D03*
X133350000Y-72390000D03*
X168910000Y-72390000D03*
X151765000Y-72390000D03*
%TO.N,DATA*%
X182245000Y-71755000D03*
X133350000Y-73660000D03*
X151130000Y-73660000D03*
X114935000Y-73660000D03*
X169545000Y-73660000D03*
X97790000Y-73660000D03*
%TO.N,VSYS*%
X146050000Y-135255000D03*
X146050000Y-140970000D03*
X113665000Y-142240000D03*
%TO.N,V165*%
X106680000Y-122555000D03*
%TO.N,VBUS*%
X170180000Y-144145000D03*
%TO.N,VEE1*%
X164465000Y-85725000D03*
X141605000Y-85725000D03*
X127000000Y-85725000D03*
X109855000Y-85725000D03*
X86360000Y-85725000D03*
X180975000Y-85725000D03*
%TO.N,VDD1*%
X128270000Y-67945000D03*
X108585000Y-67945000D03*
X146050000Y-67945000D03*
X89535000Y-67945000D03*
X163195000Y-67945000D03*
%TO.N,Net-(DC1-Pin_4)*%
X90775000Y-132080000D03*
%TO.N,CS*%
X146685000Y-111125000D03*
%TO.N,MOSI*%
X149225000Y-106045000D03*
%TO.N,MISO*%
X156210000Y-108585000D03*
%TO.N,VCC*%
X136525000Y-99695000D03*
%TO.N,SCK*%
X151765000Y-104775000D03*
%TD*%
D29*
%TO.N,JP1*%
X111760000Y-70167500D02*
X112727500Y-71135000D01*
X111760000Y-69215000D02*
X111760000Y-70167500D01*
X112727500Y-71135000D02*
X113490000Y-71135000D01*
X92011500Y-69278500D02*
X93868000Y-71135000D01*
X131875000Y-70280000D02*
X131875000Y-71135000D01*
X130810000Y-69215000D02*
X131875000Y-70280000D01*
X93868000Y-71135000D02*
X96315000Y-71135000D01*
%TO.N,JP2*%
X128270000Y-72586400D02*
X129318600Y-73635000D01*
X93608600Y-73635000D02*
X94615000Y-73635000D01*
X111790000Y-73635000D02*
X110783600Y-73635000D01*
X91440000Y-70485000D02*
X91440000Y-71466400D01*
X109855000Y-72706400D02*
X109855000Y-70485000D01*
X128270000Y-70612000D02*
X128270000Y-72586400D01*
X91440000Y-71466400D02*
X93608600Y-73635000D01*
X129318600Y-73635000D02*
X130175000Y-73635000D01*
X110783600Y-73635000D02*
X109855000Y-72706400D01*
%TO.N,JP3*%
X98425000Y-74930000D02*
X98120000Y-75235000D01*
X115570000Y-74930000D02*
X115265000Y-75235000D01*
X132715000Y-74930000D02*
X132410000Y-75235000D01*
X98120000Y-75235000D02*
X94615000Y-75235000D01*
X115265000Y-75235000D02*
X111790000Y-75235000D01*
X132410000Y-75235000D02*
X130175000Y-75235000D01*
%TO.N,JP4*%
X130175000Y-76835000D02*
X131445000Y-76835000D01*
X132080000Y-76200000D02*
X132715000Y-76200000D01*
X92710000Y-77470000D02*
X93345000Y-76835000D01*
X131445000Y-76835000D02*
X132080000Y-76200000D01*
X109855000Y-76835000D02*
X109220000Y-76200000D01*
X111790000Y-76835000D02*
X109855000Y-76835000D01*
X93345000Y-76835000D02*
X94615000Y-76835000D01*
%TO.N,JP5*%
X104775000Y-76835000D02*
X106015000Y-76835000D01*
X136017000Y-80518000D02*
X135075000Y-81460000D01*
X136017000Y-78740000D02*
X136017000Y-80518000D01*
X123190000Y-76835000D02*
X121920000Y-76835000D01*
X135075000Y-81460000D02*
X135075000Y-82535000D01*
X121920000Y-76835000D02*
X120650000Y-78105000D01*
X103505000Y-78105000D02*
X104775000Y-76835000D01*
%TO.N,JP6*%
X135875000Y-83835000D02*
X135255000Y-84455000D01*
X135875000Y-82535000D02*
X135875000Y-83835000D01*
X109220000Y-80010000D02*
X107645000Y-78435000D01*
X107645000Y-78435000D02*
X106015000Y-78435000D01*
X125730000Y-81915000D02*
X125730000Y-80010000D01*
X125730000Y-80010000D02*
X124155000Y-78435000D01*
X124155000Y-78435000D02*
X123190000Y-78435000D01*
X109220000Y-81915000D02*
X109220000Y-80010000D01*
%TO.N,JP7*%
X106871400Y-80035000D02*
X106015000Y-80035000D01*
X107315000Y-82550000D02*
X107315000Y-80478600D01*
X136675000Y-84940000D02*
X136675000Y-82535000D01*
X124333000Y-83058000D02*
X124333000Y-80171600D01*
X124460000Y-83185000D02*
X124333000Y-83058000D01*
X106680000Y-83185000D02*
X107315000Y-82550000D01*
X124196400Y-80035000D02*
X123190000Y-80035000D01*
X124333000Y-80171600D02*
X124196400Y-80035000D01*
X135890000Y-85725000D02*
X136675000Y-84940000D01*
X107315000Y-80478600D02*
X106871400Y-80035000D01*
%TO.N,JP8*%
X104775000Y-84455000D02*
X104315000Y-83995000D01*
X137475000Y-85405000D02*
X137475000Y-82535000D01*
X104359200Y-82579200D02*
X104315000Y-82535000D01*
X121920000Y-84455000D02*
X121490000Y-84025000D01*
X104315000Y-83995000D02*
X104315000Y-82535000D01*
X137795000Y-85725000D02*
X137475000Y-85405000D01*
X121490000Y-84025000D02*
X121490000Y-82535000D01*
%TO.N,JP9*%
X148590000Y-69215000D02*
X148590000Y-69850000D01*
X148590000Y-69850000D02*
X149875000Y-71135000D01*
X137160000Y-69215000D02*
X136675000Y-69700000D01*
X168100000Y-70310000D02*
X168100000Y-71135000D01*
X136675000Y-69700000D02*
X136675000Y-71135000D01*
X149875000Y-71135000D02*
X150320000Y-71135000D01*
X167005000Y-69215000D02*
X168100000Y-70310000D01*
%TO.N,JP10*%
X137475000Y-70278600D02*
X137475000Y-71135000D01*
X147193000Y-72898000D02*
X147930000Y-73635000D01*
X147193000Y-70485000D02*
X147193000Y-72898000D01*
X165543600Y-73635000D02*
X166400000Y-73635000D01*
X137903600Y-69850000D02*
X137475000Y-70278600D01*
X141605000Y-70485000D02*
X140970000Y-69850000D01*
X164465000Y-70485000D02*
X164465000Y-72556400D01*
X164465000Y-72556400D02*
X165543600Y-73635000D01*
X140970000Y-69850000D02*
X137903600Y-69850000D01*
X147930000Y-73635000D02*
X148620000Y-73635000D01*
%TO.N,JP11*%
X168529000Y-75692000D02*
X168072000Y-75235000D01*
X168072000Y-75235000D02*
X166400000Y-75235000D01*
X150800000Y-75235000D02*
X148620000Y-75235000D01*
X151257000Y-75692000D02*
X150800000Y-75235000D01*
X138275000Y-72545000D02*
X137160000Y-73660000D01*
X138275000Y-71135000D02*
X138275000Y-72545000D01*
%TO.N,JP12*%
X170180000Y-76835000D02*
X166400000Y-76835000D01*
X138430000Y-74930000D02*
X138430000Y-74295000D01*
X139075000Y-72141400D02*
X139075000Y-71135000D01*
X138430000Y-74295000D02*
X139065000Y-73660000D01*
X139065000Y-72151400D02*
X139075000Y-72141400D01*
X148620000Y-76835000D02*
X152400000Y-76835000D01*
X139065000Y-73660000D02*
X139065000Y-72151400D01*
X170815000Y-76200000D02*
X170180000Y-76835000D01*
%TO.N,JP13*%
X175260000Y-78105000D02*
X175260000Y-77470000D01*
X158750000Y-76835000D02*
X157480000Y-78105000D01*
X139573000Y-77216000D02*
X139954000Y-76835000D01*
X139954000Y-76835000D02*
X141575000Y-76835000D01*
X175895000Y-76835000D02*
X177800000Y-76835000D01*
X175260000Y-77470000D02*
X175895000Y-76835000D01*
X160020000Y-76835000D02*
X158750000Y-76835000D01*
%TO.N,JP14*%
X144145000Y-79998600D02*
X142581400Y-78435000D01*
X142581400Y-78435000D02*
X141575000Y-78435000D01*
X178806400Y-78435000D02*
X177800000Y-78435000D01*
X144145000Y-81915000D02*
X144145000Y-79998600D01*
X163449000Y-79629000D02*
X162255000Y-78435000D01*
X180721000Y-81915000D02*
X180721000Y-80349600D01*
X180721000Y-80349600D02*
X178806400Y-78435000D01*
X163449000Y-81915000D02*
X163449000Y-79629000D01*
X162255000Y-78435000D02*
X160020000Y-78435000D01*
%TO.N,JP15*%
X161290000Y-83185000D02*
X161290000Y-80471800D01*
X142581400Y-80035000D02*
X141575000Y-80035000D01*
X179705000Y-80933600D02*
X178806400Y-80035000D01*
X160853200Y-80035000D02*
X160020000Y-80035000D01*
X161290000Y-80471800D02*
X160853200Y-80035000D01*
X143002000Y-83185000D02*
X143002000Y-80455600D01*
X143002000Y-80455600D02*
X142581400Y-80035000D01*
X178806400Y-80035000D02*
X177800000Y-80035000D01*
X179705000Y-83185000D02*
X179705000Y-80933600D01*
%TO.N,JP16*%
X158750000Y-84455000D02*
X158320000Y-84025000D01*
X176100000Y-84025000D02*
X176100000Y-82535000D01*
X176530000Y-84455000D02*
X176100000Y-84025000D01*
X140970000Y-84455000D02*
X139875000Y-83360000D01*
X158320000Y-84025000D02*
X158320000Y-82535000D01*
X139875000Y-83360000D02*
X139875000Y-82535000D01*
%TO.N,CA13*%
X103515000Y-66665000D02*
X106045000Y-64135000D01*
X103515000Y-71135000D02*
X103515000Y-66665000D01*
X106045000Y-64135000D02*
X106045000Y-62992000D01*
%TO.N,CA5*%
X100965000Y-62992000D02*
X100965000Y-64770000D01*
X101915000Y-71135000D02*
X101915000Y-65720000D01*
X101915000Y-65720000D02*
X100965000Y-64770000D01*
%TO.N,CA3*%
X95885000Y-62992000D02*
X95885000Y-64135000D01*
X100315000Y-71135000D02*
X100315000Y-68565000D01*
X100315000Y-68565000D02*
X95885000Y-64135000D01*
%TO.N,CA1*%
X98715000Y-71135000D02*
X98715000Y-69505000D01*
X95758000Y-69088000D02*
X90805000Y-64135000D01*
X90805000Y-64135000D02*
X90805000Y-62992000D01*
X98715000Y-69505000D02*
X98298000Y-69088000D01*
X98298000Y-69088000D02*
X95758000Y-69088000D01*
%TO.N,CA14*%
X88265000Y-89535000D02*
X88265000Y-90932000D01*
X95265000Y-82535000D02*
X88265000Y-89535000D01*
X96315000Y-82535000D02*
X95265000Y-82535000D01*
%TO.N,CA6*%
X97915000Y-82535000D02*
X97915000Y-85090000D01*
X97915000Y-85090000D02*
X97790000Y-85090000D01*
X93345000Y-89535000D02*
X93345000Y-90932000D01*
X97790000Y-85090000D02*
X93345000Y-89535000D01*
%TO.N,CA8*%
X98425000Y-88265000D02*
X98425000Y-90932000D01*
X99515000Y-87175000D02*
X98425000Y-88265000D01*
X99515000Y-82535000D02*
X99515000Y-87175000D01*
%TO.N,CA10*%
X101115000Y-82535000D02*
X101115000Y-86510000D01*
X101115000Y-86510000D02*
X103505000Y-88900000D01*
X103505000Y-88900000D02*
X103505000Y-90932000D01*
%TO.N,CB13*%
X120690000Y-69810000D02*
X126365000Y-64135000D01*
X126365000Y-64135000D02*
X126365000Y-62992000D01*
X120690000Y-71135000D02*
X120690000Y-69810000D01*
%TO.N,CB5*%
X121285000Y-64770000D02*
X121285000Y-62992000D01*
X119090000Y-66965000D02*
X121285000Y-64770000D01*
X119090000Y-71135000D02*
X119090000Y-66965000D01*
%TO.N,CB3*%
X117490000Y-71135000D02*
X117490000Y-66055000D01*
X116205000Y-64770000D02*
X116205000Y-62992000D01*
X117490000Y-66055000D02*
X116205000Y-64770000D01*
%TO.N,CB1*%
X111125000Y-64770000D02*
X111125000Y-62992000D01*
X115890000Y-71135000D02*
X115890000Y-69535000D01*
X115890000Y-69535000D02*
X111125000Y-64770000D01*
%TO.N,CB14*%
X113490000Y-82535000D02*
X113490000Y-83995000D01*
X113490000Y-83995000D02*
X108585000Y-88900000D01*
X108585000Y-88900000D02*
X108585000Y-90932000D01*
%TO.N,CB6*%
X113665000Y-88265000D02*
X113665000Y-90932000D01*
X115090000Y-82535000D02*
X115090000Y-86840000D01*
X115090000Y-86840000D02*
X113665000Y-88265000D01*
%TO.N,CB8*%
X118745000Y-88900000D02*
X118745000Y-90932000D01*
X116690000Y-86845000D02*
X118745000Y-88900000D01*
X116690000Y-82535000D02*
X116690000Y-86845000D01*
%TO.N,CB10*%
X118290000Y-82535000D02*
X118290000Y-84000000D01*
X118290000Y-84000000D02*
X123825000Y-89535000D01*
X123825000Y-89535000D02*
X123825000Y-90932000D01*
%TO.N,CA12*%
X102715000Y-65560000D02*
X103505000Y-64770000D01*
X103505000Y-62992000D02*
X103505000Y-64770000D01*
X102715000Y-71135000D02*
X102715000Y-65560000D01*
%TO.N,CA4*%
X101115000Y-67460000D02*
X98425000Y-64770000D01*
X101115000Y-71135000D02*
X101115000Y-67460000D01*
X98425000Y-62992000D02*
X98425000Y-64770000D01*
%TO.N,CA2*%
X98552000Y-68072000D02*
X99515000Y-69035000D01*
X93345000Y-64135000D02*
X97282000Y-68072000D01*
X99515000Y-69035000D02*
X99515000Y-71135000D01*
X93345000Y-62992000D02*
X93345000Y-64135000D01*
X97282000Y-68072000D02*
X98552000Y-68072000D01*
%TO.N,CA0*%
X97915000Y-71135000D02*
X97915000Y-70128600D01*
X97915000Y-70128600D02*
X97636400Y-69850000D01*
X97636400Y-69850000D02*
X94615000Y-69850000D01*
X88265000Y-62992000D02*
X88265000Y-63500000D01*
X94615000Y-69850000D02*
X88265000Y-63500000D01*
%TO.N,CA15*%
X90805000Y-89535000D02*
X90805000Y-90932000D01*
X97115000Y-82535000D02*
X97115000Y-83225000D01*
X97115000Y-83225000D02*
X90805000Y-89535000D01*
%TO.N,CA7*%
X98715000Y-86070000D02*
X95885000Y-88900000D01*
X95885000Y-88900000D02*
X95885000Y-90932000D01*
X98715000Y-82535000D02*
X98715000Y-86070000D01*
%TO.N,CA9*%
X100315000Y-88250000D02*
X100965000Y-88900000D01*
X100315000Y-82535000D02*
X100315000Y-88250000D01*
X100965000Y-88900000D02*
X100965000Y-90932000D01*
%TO.N,CA11*%
X106045000Y-88900000D02*
X106045000Y-90932000D01*
X101915000Y-84770000D02*
X106045000Y-88900000D01*
X101915000Y-82535000D02*
X101915000Y-84770000D01*
%TO.N,CB12*%
X119890000Y-71135000D02*
X119890000Y-68705000D01*
X119890000Y-68705000D02*
X123825000Y-64770000D01*
X123825000Y-64770000D02*
X123825000Y-62992000D01*
%TO.N,CB4*%
X118745000Y-64770000D02*
X118745000Y-62992000D01*
X118290000Y-71135000D02*
X118290000Y-65225000D01*
X118290000Y-65225000D02*
X118745000Y-64770000D01*
%TO.N,CB2*%
X113665000Y-64770000D02*
X113665000Y-62992000D01*
X116690000Y-71135000D02*
X116690000Y-67795000D01*
X116690000Y-67795000D02*
X113665000Y-64770000D01*
%TO.N,CB0*%
X114811400Y-69850000D02*
X114300000Y-69850000D01*
X108585000Y-64135000D02*
X108585000Y-62865000D01*
X115090000Y-71135000D02*
X115090000Y-70128600D01*
X115090000Y-70128600D02*
X114811400Y-69850000D01*
X114300000Y-69850000D02*
X108585000Y-64135000D01*
%TO.N,CB15*%
X114290000Y-85735000D02*
X111125000Y-88900000D01*
X111125000Y-88900000D02*
X111125000Y-90932000D01*
X114290000Y-82535000D02*
X114290000Y-85735000D01*
%TO.N,CB7*%
X115890000Y-88585000D02*
X116205000Y-88900000D01*
X116205000Y-88900000D02*
X116205000Y-90932000D01*
X115890000Y-82535000D02*
X115890000Y-88585000D01*
%TO.N,CB9*%
X117490000Y-85105000D02*
X121285000Y-88900000D01*
X117490000Y-82535000D02*
X117490000Y-85105000D01*
X121285000Y-88900000D02*
X121285000Y-90932000D01*
%TO.N,CB11*%
X126365000Y-89535000D02*
X126365000Y-90932000D01*
X119090000Y-83530000D02*
X123190000Y-87630000D01*
X124460000Y-87630000D02*
X126365000Y-89535000D01*
X123190000Y-87630000D02*
X124460000Y-87630000D01*
X119090000Y-82535000D02*
X119090000Y-83530000D01*
%TO.N,CC13*%
X157520000Y-71135000D02*
X157520000Y-69810000D01*
X157520000Y-69810000D02*
X163195000Y-64135000D01*
X163195000Y-64135000D02*
X163195000Y-62865000D01*
%TO.N,CC5*%
X155920000Y-71135000D02*
X155920000Y-67600000D01*
X158115000Y-65405000D02*
X158115000Y-62865000D01*
X155920000Y-67600000D02*
X158115000Y-65405000D01*
%TO.N,CC3*%
X153035000Y-66040000D02*
X153035000Y-62865000D01*
X154320000Y-67325000D02*
X153035000Y-66040000D01*
X154320000Y-71135000D02*
X154320000Y-67325000D01*
%TO.N,CC1*%
X152720000Y-69535000D02*
X147955000Y-64770000D01*
X152720000Y-71135000D02*
X152720000Y-69535000D01*
X152720000Y-71135000D02*
X152649200Y-71064200D01*
X147955000Y-64770000D02*
X147955000Y-62865000D01*
%TO.N,CC14*%
X142875000Y-89535000D02*
X142875000Y-90805000D01*
X150320000Y-82535000D02*
X149875000Y-82535000D01*
X149875000Y-82535000D02*
X142875000Y-89535000D01*
%TO.N,CC6*%
X147955000Y-88900000D02*
X147955000Y-90805000D01*
X151920000Y-84935000D02*
X147955000Y-88900000D01*
X151920000Y-82535000D02*
X151920000Y-84935000D01*
%TO.N,CC8*%
X153520000Y-82535000D02*
X153520000Y-88415000D01*
X153520000Y-88415000D02*
X153035000Y-88900000D01*
X153035000Y-88900000D02*
X153035000Y-90805000D01*
X153035000Y-90805000D02*
X153162000Y-90932000D01*
%TO.N,CC10*%
X158115000Y-88900000D02*
X158115000Y-90805000D01*
X155120000Y-85905000D02*
X158115000Y-88900000D01*
X155120000Y-82535000D02*
X155120000Y-85905000D01*
%TO.N,CD13*%
X175300000Y-71135000D02*
X175300000Y-69810000D01*
X175300000Y-69810000D02*
X176530000Y-68580000D01*
X183515000Y-64135000D02*
X183515000Y-62865000D01*
X176530000Y-68580000D02*
X179070000Y-68580000D01*
X179070000Y-68580000D02*
X183515000Y-64135000D01*
%TO.N,CD5*%
X178435000Y-64135000D02*
X178435000Y-62865000D01*
X175895000Y-66040000D02*
X176530000Y-66040000D01*
X173700000Y-68235000D02*
X175895000Y-66040000D01*
X173700000Y-71135000D02*
X173700000Y-68235000D01*
X176530000Y-66040000D02*
X178435000Y-64135000D01*
%TO.N,CD3*%
X173355000Y-62865000D02*
X173355000Y-64770000D01*
X172100000Y-71135000D02*
X172100000Y-66025000D01*
X172100000Y-66025000D02*
X173355000Y-64770000D01*
%TO.N,CD1*%
X170500000Y-71135000D02*
X170500000Y-68900000D01*
X168275000Y-66675000D02*
X168275000Y-62865000D01*
X170500000Y-68900000D02*
X168275000Y-66675000D01*
%TO.N,CD14*%
X168100000Y-82535000D02*
X168100000Y-83995000D01*
X163195000Y-88900000D02*
X163195000Y-90805000D01*
X168100000Y-83995000D02*
X163195000Y-88900000D01*
%TO.N,CD6*%
X169700000Y-87475000D02*
X168275000Y-88900000D01*
X169700000Y-82535000D02*
X169700000Y-87475000D01*
X168275000Y-88900000D02*
X168275000Y-90805000D01*
%TO.N,CD8*%
X171300000Y-86845000D02*
X173355000Y-88900000D01*
X171300000Y-82535000D02*
X171300000Y-86845000D01*
X173355000Y-88900000D02*
X173355000Y-90678000D01*
%TO.N,CD10*%
X172900000Y-84000000D02*
X178435000Y-89535000D01*
X172900000Y-82535000D02*
X172900000Y-84000000D01*
X178435000Y-89535000D02*
X178435000Y-90805000D01*
%TO.N,CE0*%
X133475000Y-69340000D02*
X133475000Y-71135000D01*
X128905000Y-62865000D02*
X128905000Y-64770000D01*
X128905000Y-64770000D02*
X133475000Y-69340000D01*
%TO.N,CC12*%
X156720000Y-71135000D02*
X156720000Y-68705000D01*
X156720000Y-68705000D02*
X160655000Y-64770000D01*
X160655000Y-62865000D02*
X160655000Y-64770000D01*
%TO.N,CC4*%
X155120000Y-65225000D02*
X155575000Y-64770000D01*
X155575000Y-62865000D02*
X155575000Y-64770000D01*
X155120000Y-71135000D02*
X155120000Y-65225000D01*
%TO.N,GND*%
X94615000Y-79235000D02*
X96104200Y-79235000D01*
X176530000Y-75158600D02*
X176530000Y-76035000D01*
X137765000Y-77063600D02*
X137765000Y-80238600D01*
X102009200Y-80835000D02*
X103724200Y-80835000D01*
X143510000Y-70485000D02*
X143510000Y-72706400D01*
X158750000Y-76035000D02*
X156603600Y-76035000D01*
X177800000Y-80835000D02*
X175450000Y-80835000D01*
X130175000Y-79235000D02*
X131415000Y-79235000D01*
D30*
X85090000Y-113030000D02*
X85090000Y-114300000D01*
D29*
X116840000Y-76200000D02*
X119857800Y-76200000D01*
X160020000Y-75235000D02*
X158826400Y-75235000D01*
X119857800Y-76200000D02*
X120022800Y-76035000D01*
X106015000Y-74435000D02*
X104160000Y-74435000D01*
X113030000Y-80010000D02*
X113284000Y-80264000D01*
X162560000Y-66675000D02*
X161925000Y-67310000D01*
X141575000Y-80835000D02*
X139073600Y-80835000D01*
X121755000Y-73635000D02*
X121285000Y-74105000D01*
X148620000Y-79235000D02*
X150109200Y-79235000D01*
X175300000Y-81057900D02*
X175300000Y-80685000D01*
X134620000Y-79907594D02*
X134620000Y-77280000D01*
X101600000Y-80645000D02*
X101600000Y-77470000D01*
X142581400Y-73635000D02*
X141575000Y-73635000D01*
X131415000Y-79235000D02*
X131415000Y-79980000D01*
X104110000Y-75120000D02*
X104110000Y-74485000D01*
D30*
X85090000Y-101600000D02*
X85090000Y-100330000D01*
D29*
X139035000Y-80873600D02*
X139075000Y-80913600D01*
X151406290Y-77635000D02*
X151876290Y-78105000D01*
X107315000Y-66675000D02*
X107315000Y-73025000D01*
X109385000Y-77635000D02*
X107785000Y-76035000D01*
X167889200Y-79989400D02*
X167889200Y-79235000D01*
X137765000Y-80238600D02*
X138400000Y-80873600D01*
X157520000Y-82535000D02*
X157520000Y-81181800D01*
X132080000Y-80645000D02*
X132207000Y-80772000D01*
X103724200Y-80835000D02*
X106015000Y-80835000D01*
X162395000Y-76035000D02*
X160020000Y-76035000D01*
X167843600Y-80035000D02*
X167889200Y-79989400D01*
X175300000Y-80685000D02*
X175260000Y-80645000D01*
X111790000Y-77635000D02*
X109385000Y-77635000D01*
X177800000Y-74435000D02*
X176618600Y-74435000D01*
X94615000Y-77635000D02*
X95960300Y-77635000D01*
X182880000Y-67310000D02*
X180340000Y-69850000D01*
X141575000Y-73635000D02*
X140140000Y-73635000D01*
X101819200Y-80645000D02*
X101600000Y-80645000D01*
X125730000Y-72390000D02*
X124485000Y-73635000D01*
X176618600Y-74435000D02*
X176530000Y-74523600D01*
X120022800Y-76035000D02*
X123190000Y-76035000D01*
X139670000Y-74740000D02*
X139670000Y-75375000D01*
X168275000Y-80645000D02*
X167889200Y-80259200D01*
X106015000Y-75235000D02*
X104225000Y-75235000D01*
X111790000Y-77635000D02*
X115405000Y-77635000D01*
X158838600Y-74435000D02*
X158750000Y-74523600D01*
X176530000Y-73888600D02*
X176530000Y-74523600D01*
X131915000Y-77635000D02*
X132270000Y-77280000D01*
X176783600Y-73635000D02*
X176530000Y-73888600D01*
X111790000Y-80035000D02*
X113005000Y-80035000D01*
X113005000Y-80035000D02*
X113030000Y-80010000D01*
X113030000Y-79235000D02*
X113030000Y-80010000D01*
X131415000Y-79845000D02*
X131415000Y-79235000D01*
X176530000Y-76035000D02*
X174155000Y-76035000D01*
X158826400Y-75235000D02*
X158750000Y-75158600D01*
X104745000Y-76035000D02*
X104110000Y-76035000D01*
X156361000Y-81181800D02*
X157520000Y-81181800D01*
X158750000Y-74523600D02*
X158750000Y-75158600D01*
X166400000Y-79235000D02*
X167889200Y-79235000D01*
X160020000Y-73635000D02*
X159003600Y-73635000D01*
X139073600Y-80835000D02*
X139035000Y-80873600D01*
X133755594Y-80772000D02*
X134620000Y-79907594D01*
X148620000Y-80035000D02*
X150109200Y-80035000D01*
X123190000Y-73635000D02*
X121755000Y-73635000D01*
X123190000Y-74435000D02*
X121615000Y-74435000D01*
X174155000Y-76035000D02*
X172720000Y-77470000D01*
X166400000Y-80035000D02*
X167843600Y-80035000D01*
X123190000Y-75235000D02*
X121425000Y-75235000D01*
X150495000Y-80645000D02*
X155824200Y-80645000D01*
X155824200Y-80645000D02*
X156361000Y-81181800D01*
X125730000Y-67310000D02*
X125730000Y-72390000D01*
X101600000Y-77470000D02*
X103035000Y-76035000D01*
X96125300Y-77470000D02*
X101600000Y-77470000D01*
X103515000Y-81044200D02*
X103724200Y-80835000D01*
X160020000Y-76035000D02*
X158750000Y-76035000D01*
X96104200Y-79235000D02*
X96104200Y-80645000D01*
X163995000Y-77635000D02*
X162395000Y-76035000D01*
X155824200Y-76814400D02*
X155824200Y-80645000D01*
X177800000Y-75235000D02*
X176606400Y-75235000D01*
X130175000Y-77635000D02*
X131915000Y-77635000D01*
X121285000Y-75375000D02*
X121285000Y-76035000D01*
X148620000Y-77635000D02*
X151406290Y-77635000D01*
X126365000Y-66675000D02*
X125730000Y-67310000D01*
X115697000Y-80264000D02*
X120289600Y-80264000D01*
X120690000Y-82535000D02*
X120690000Y-80835000D01*
X157866800Y-80835000D02*
X160020000Y-80835000D01*
X121615000Y-74435000D02*
X121285000Y-74105000D01*
X106015000Y-73635000D02*
X104325000Y-73635000D01*
X139975000Y-74435000D02*
X139670000Y-74740000D01*
X139810000Y-75235000D02*
X139670000Y-75375000D01*
X104110000Y-73850000D02*
X104110000Y-74485000D01*
X104225000Y-75235000D02*
X104110000Y-75120000D01*
X138400000Y-80873600D02*
X139035000Y-80873600D01*
X115405000Y-77635000D02*
X116840000Y-76200000D01*
X157520000Y-81181800D02*
X157866800Y-80835000D01*
X121285000Y-74105000D02*
X121285000Y-75375000D01*
X106705000Y-73635000D02*
X106015000Y-73635000D01*
X175450000Y-80835000D02*
X175300000Y-80685000D01*
X161265000Y-73635000D02*
X160020000Y-73635000D01*
X132207000Y-80772000D02*
X133755594Y-80772000D01*
X150109200Y-80035000D02*
X150109200Y-79235000D01*
X124485000Y-73635000D02*
X123190000Y-73635000D01*
X172720000Y-80645000D02*
X172720000Y-77470000D01*
X141575000Y-74435000D02*
X139975000Y-74435000D01*
X104160000Y-74435000D02*
X104110000Y-74485000D01*
X139075000Y-80913600D02*
X139075000Y-82535000D01*
X182880000Y-66675000D02*
X182880000Y-67310000D01*
X106015000Y-76035000D02*
X104745000Y-76035000D01*
X172555000Y-77635000D02*
X172720000Y-77470000D01*
X103515000Y-82535000D02*
X103515000Y-81044200D01*
X121425000Y-75235000D02*
X121285000Y-75375000D01*
X161925000Y-73025000D02*
X161290000Y-73660000D01*
X158750000Y-73888600D02*
X158750000Y-74523600D01*
D30*
X85090000Y-113030000D02*
X85090000Y-101600000D01*
D29*
X180340000Y-69850000D02*
X180340000Y-72101400D01*
X166400000Y-77635000D02*
X172555000Y-77635000D01*
X176606400Y-75235000D02*
X176530000Y-75158600D01*
X178806400Y-73635000D02*
X177800000Y-73635000D01*
X131415000Y-79980000D02*
X132080000Y-80645000D01*
X175300000Y-81057900D02*
X175300000Y-82535000D01*
X140970000Y-66675000D02*
X140970000Y-67945000D01*
X156603600Y-76035000D02*
X155824200Y-76814400D01*
X120690000Y-80873600D02*
X120728600Y-80835000D01*
X115697000Y-80264000D02*
X115697000Y-77927000D01*
X161925000Y-67310000D02*
X161925000Y-73025000D01*
X175260000Y-80645000D02*
X168275000Y-80645000D01*
X150109200Y-79375000D02*
X150109200Y-80259200D01*
X96104200Y-79950800D02*
X96104200Y-79235000D01*
X140140000Y-73635000D02*
X139670000Y-74105000D01*
X150109200Y-80259200D02*
X150495000Y-80645000D01*
X120690000Y-80835000D02*
X120690000Y-80873600D01*
X95960300Y-77635000D02*
X96125300Y-77470000D01*
X158750000Y-75158600D02*
X158750000Y-76035000D01*
X161290000Y-73660000D02*
X161265000Y-73635000D01*
X113030000Y-79235000D02*
X111790000Y-79235000D01*
X159003600Y-73635000D02*
X158750000Y-73888600D01*
X180340000Y-72101400D02*
X178806400Y-73635000D01*
X96104200Y-80645000D02*
X101819200Y-80645000D01*
X101819200Y-80645000D02*
X102009200Y-80835000D01*
X166400000Y-77635000D02*
X163995000Y-77635000D01*
X120289600Y-80264000D02*
X120690000Y-80664400D01*
X177800000Y-76035000D02*
X176530000Y-76035000D01*
X130175000Y-80035000D02*
X131225000Y-80035000D01*
X96020000Y-80035000D02*
X96104200Y-79950800D01*
X103035000Y-76035000D02*
X104110000Y-76035000D01*
X131225000Y-80035000D02*
X131415000Y-79845000D01*
X143510000Y-72706400D02*
X142581400Y-73635000D01*
X167889200Y-80259200D02*
X167889200Y-79235000D01*
X141575000Y-76035000D02*
X138793600Y-76035000D01*
X132270000Y-77280000D02*
X137765000Y-77280000D01*
X107785000Y-76035000D02*
X106015000Y-76035000D01*
X139670000Y-74105000D02*
X139670000Y-74740000D01*
X120690000Y-80664400D02*
X120690000Y-80835000D01*
X120728600Y-80835000D02*
X123190000Y-80835000D01*
X115697000Y-77927000D02*
X115405000Y-77635000D01*
X94615000Y-80035000D02*
X96020000Y-80035000D01*
X107315000Y-73025000D02*
X106705000Y-73635000D01*
X176530000Y-74523600D02*
X176530000Y-75158600D01*
X113284000Y-80264000D02*
X115697000Y-80264000D01*
X140970000Y-67945000D02*
X143510000Y-70485000D01*
X104110000Y-76035000D02*
X104110000Y-74485000D01*
X160020000Y-74435000D02*
X158838600Y-74435000D01*
X151876290Y-78105000D02*
X155824200Y-78105000D01*
X141575000Y-75235000D02*
X139810000Y-75235000D01*
X138793600Y-76035000D02*
X137765000Y-77063600D01*
X177800000Y-73635000D02*
X176783600Y-73635000D01*
X104325000Y-73635000D02*
X104110000Y-73850000D01*
X139670000Y-75375000D02*
X139670000Y-76035000D01*
%TO.N,CC2*%
X153520000Y-68430000D02*
X150495000Y-65405000D01*
X150495000Y-65405000D02*
X150495000Y-62865000D01*
X153520000Y-71135000D02*
X153520000Y-68430000D01*
D31*
%TO.N,VEE*%
X87630000Y-117475000D02*
X89535000Y-115570000D01*
X100330000Y-104140000D02*
X100330000Y-102235000D01*
X100965000Y-104775000D02*
X100330000Y-104140000D01*
X87630000Y-118745000D02*
X87630000Y-117475000D01*
X100965000Y-110490000D02*
X100965000Y-104775000D01*
X89535000Y-115570000D02*
X89535000Y-114300000D01*
%TO.N,VDD*%
X93345000Y-114935000D02*
X94615000Y-116205000D01*
X97155000Y-116205000D02*
X99060000Y-118110000D01*
X100330000Y-51435000D02*
X171450000Y-51435000D01*
X86360000Y-97155000D02*
X79375000Y-90170000D01*
X79375000Y-90170000D02*
X79375000Y-56515000D01*
X93345000Y-106045000D02*
X93345000Y-114935000D01*
X99060000Y-118110000D02*
X99060000Y-118745000D01*
X91440000Y-97155000D02*
X91440000Y-104140000D01*
X91440000Y-104140000D02*
X93345000Y-106045000D01*
X94615000Y-116205000D02*
X97155000Y-116205000D01*
X86360000Y-49530000D02*
X98425000Y-49530000D01*
X79375000Y-56515000D02*
X86360000Y-49530000D01*
X98425000Y-49530000D02*
X100330000Y-51435000D01*
D29*
%TO.N,RST*%
X96850000Y-78435000D02*
X94615000Y-78435000D01*
X185420000Y-81915000D02*
X185420000Y-85725000D01*
X169545000Y-79248000D02*
X168732000Y-78435000D01*
X97790000Y-79375000D02*
X96850000Y-78435000D01*
X132156000Y-78435000D02*
X130175000Y-78435000D01*
X192405000Y-92710000D02*
X192405000Y-114300000D01*
X113360000Y-78435000D02*
X111790000Y-78435000D01*
X184150000Y-80645000D02*
X185420000Y-81915000D01*
X151765000Y-79248000D02*
X150952000Y-78435000D01*
X132969000Y-79248000D02*
X132156000Y-78435000D01*
X132969000Y-79756000D02*
X132969000Y-79248000D01*
X114300000Y-79375000D02*
X113360000Y-78435000D01*
X168732000Y-78435000D02*
X166400000Y-78435000D01*
X185420000Y-85725000D02*
X192405000Y-92710000D01*
X150952000Y-78435000D02*
X148620000Y-78435000D01*
%TO.N,CC0*%
X151920000Y-71135000D02*
X151920000Y-70278600D01*
X145415000Y-64135000D02*
X145415000Y-62865000D01*
X151920000Y-70278600D02*
X151237400Y-69596000D01*
X151237400Y-69596000D02*
X150876000Y-69596000D01*
X150876000Y-69596000D02*
X145415000Y-64135000D01*
%TO.N,CC15*%
X145415000Y-89535000D02*
X145415000Y-90805000D01*
X151120000Y-82535000D02*
X151120000Y-83830000D01*
X151120000Y-83830000D02*
X145415000Y-89535000D01*
%TO.N,CC7*%
X150495000Y-88900000D02*
X150495000Y-90805000D01*
X152720000Y-86675000D02*
X150495000Y-88900000D01*
X152720000Y-82535000D02*
X152720000Y-86675000D01*
%TO.N,CC9*%
X154320000Y-87645000D02*
X155575000Y-88900000D01*
X155575000Y-88900000D02*
X155575000Y-90805000D01*
X154320000Y-82535000D02*
X154320000Y-87645000D01*
%TO.N,CC11*%
X160655000Y-88900000D02*
X160655000Y-90805000D01*
X155920000Y-82535000D02*
X155920000Y-84165000D01*
X155920000Y-84165000D02*
X160655000Y-88900000D01*
%TO.N,CD12*%
X176530000Y-67310000D02*
X177800000Y-67310000D01*
X177800000Y-67310000D02*
X180975000Y-64135000D01*
X174500000Y-71135000D02*
X174500000Y-69340000D01*
X180975000Y-64135000D02*
X180975000Y-62865000D01*
X174500000Y-69340000D02*
X176530000Y-67310000D01*
%TO.N,CSA*%
X175895000Y-96520000D02*
X179070000Y-99695000D01*
X179070000Y-109220000D02*
X177165000Y-111125000D01*
X108585000Y-86995000D02*
X108585000Y-85852000D01*
X108068201Y-85335201D02*
X108068201Y-80224221D01*
X108585000Y-85852000D02*
X108068201Y-85335201D01*
X179070000Y-99695000D02*
X179070000Y-109220000D01*
X107078980Y-79235000D02*
X106015000Y-79235000D01*
X108068201Y-80224221D02*
X107078980Y-79235000D01*
X177165000Y-111125000D02*
X177165000Y-114300000D01*
X172720000Y-96520000D02*
X175895000Y-96520000D01*
%TO.N,CSB*%
X175260000Y-95250000D02*
X176530000Y-95250000D01*
X179705000Y-111125000D02*
X179705000Y-114300000D01*
X180975000Y-99695000D02*
X180975000Y-109855000D01*
X128270000Y-85090000D02*
X128270000Y-80010000D01*
X130175000Y-86995000D02*
X128270000Y-85090000D01*
X180975000Y-109855000D02*
X179705000Y-111125000D01*
X176530000Y-95250000D02*
X180975000Y-99695000D01*
X121806000Y-79235000D02*
X123190000Y-79235000D01*
X121285000Y-79756000D02*
X121806000Y-79235000D01*
%TO.N,CSC*%
X161150000Y-79235000D02*
X160020000Y-79235000D01*
X185420000Y-93980000D02*
X185420000Y-110490000D01*
X185420000Y-110490000D02*
X184785000Y-111125000D01*
X184785000Y-111125000D02*
X184785000Y-114300000D01*
X162560000Y-87630000D02*
X162560000Y-80645000D01*
X161925000Y-88265000D02*
X162560000Y-87630000D01*
X162560000Y-80645000D02*
X161150000Y-79235000D01*
%TO.N,CSD*%
X189865000Y-92075000D02*
X189865000Y-114300000D01*
X175895000Y-79375000D02*
X176035000Y-79235000D01*
X176035000Y-79235000D02*
X177800000Y-79235000D01*
%TO.N,CSE*%
X146685000Y-83820000D02*
X143510000Y-86995000D01*
X140094000Y-79235000D02*
X141575000Y-79235000D01*
X139573000Y-79756000D02*
X140094000Y-79235000D01*
X187325000Y-90170000D02*
X187325000Y-114300000D01*
X182245000Y-86995000D02*
X184150000Y-86995000D01*
X146685000Y-79756000D02*
X146685000Y-83820000D01*
X184150000Y-86995000D02*
X187325000Y-90170000D01*
%TO.N,CD4*%
X175895000Y-62865000D02*
X175895000Y-64315000D01*
X175895000Y-64315000D02*
X172900000Y-67310000D01*
X172900000Y-71135000D02*
X172900000Y-67310000D01*
%TO.N,ADC3*%
X142240000Y-109855000D02*
X142240000Y-112395000D01*
X147320000Y-117475000D02*
X142240000Y-112395000D01*
X168910000Y-127635000D02*
X158750000Y-117475000D01*
X187325000Y-127635000D02*
X168910000Y-127635000D01*
X158750000Y-117475000D02*
X147320000Y-117475000D01*
%TO.N,CLK*%
X148620000Y-72835000D02*
X151320000Y-72835000D01*
X151320000Y-72835000D02*
X151765000Y-72390000D01*
X190500000Y-71755000D02*
X193040000Y-74295000D01*
X132905000Y-72835000D02*
X130175000Y-72835000D01*
X96330000Y-72835000D02*
X94615000Y-72835000D01*
X96520000Y-73025000D02*
X96330000Y-72835000D01*
X198755000Y-109855000D02*
X200025000Y-111125000D01*
X133350000Y-72390000D02*
X132905000Y-72835000D01*
X198755000Y-92075000D02*
X198755000Y-109855000D01*
X193040000Y-86360000D02*
X198755000Y-92075000D01*
X113855000Y-72835000D02*
X111790000Y-72835000D01*
X166400000Y-72835000D02*
X168465000Y-72835000D01*
X200025000Y-111125000D02*
X200025000Y-114300000D01*
X183515000Y-70485000D02*
X184785000Y-71755000D01*
X168465000Y-72835000D02*
X168910000Y-72390000D01*
X193040000Y-74295000D02*
X193040000Y-86360000D01*
X184785000Y-71755000D02*
X190500000Y-71755000D01*
X114300000Y-72390000D02*
X113855000Y-72835000D01*
%TO.N,DATA*%
X97015000Y-74435000D02*
X94615000Y-74435000D01*
X114160000Y-74435000D02*
X111790000Y-74435000D01*
X97790000Y-73660000D02*
X97015000Y-74435000D01*
X191770000Y-87630000D02*
X197485000Y-93345000D01*
X151130000Y-73660000D02*
X150355000Y-74435000D01*
X191770000Y-75565000D02*
X191770000Y-87630000D01*
X184785000Y-74295000D02*
X190500000Y-74295000D01*
X190500000Y-74295000D02*
X191770000Y-75565000D01*
X133350000Y-73660000D02*
X132080000Y-73660000D01*
X169545000Y-73660000D02*
X168770000Y-74435000D01*
X150355000Y-74435000D02*
X148620000Y-74435000D01*
X182245000Y-71755000D02*
X184785000Y-74295000D01*
X114935000Y-73660000D02*
X114160000Y-74435000D01*
X168770000Y-74435000D02*
X166400000Y-74435000D01*
X132080000Y-73660000D02*
X131305000Y-74435000D01*
X131305000Y-74435000D02*
X130175000Y-74435000D01*
X197485000Y-93345000D02*
X197485000Y-114300000D01*
%TO.N,CD2*%
X171300000Y-71135000D02*
X171300000Y-66525000D01*
X171300000Y-66525000D02*
X170815000Y-66040000D01*
X170815000Y-66040000D02*
X170815000Y-62865000D01*
%TO.N,CD0*%
X165735000Y-66040000D02*
X165735000Y-62865000D01*
X169700000Y-70005000D02*
X165735000Y-66040000D01*
X169700000Y-71135000D02*
X169700000Y-70005000D01*
%TO.N,CD15*%
X168900000Y-85735000D02*
X165735000Y-88900000D01*
X168900000Y-82535000D02*
X168900000Y-85735000D01*
X165735000Y-88900000D02*
X165735000Y-90805000D01*
D31*
%TO.N,VSYS*%
X146050000Y-135255000D02*
X146050000Y-132715000D01*
X146685000Y-142875000D02*
X192405000Y-142875000D01*
X105410000Y-142240000D02*
X102235000Y-139065000D01*
X102235000Y-139065000D02*
X102235000Y-132080000D01*
X137795000Y-127635000D02*
X134620000Y-124460000D01*
X192405000Y-142875000D02*
X197485000Y-137795000D01*
X146050000Y-140970000D02*
X146050000Y-142240000D01*
X134620000Y-124460000D02*
X134620000Y-123190000D01*
X146050000Y-142240000D02*
X113665000Y-142240000D01*
X197485000Y-137795000D02*
X197485000Y-132080000D01*
X140970000Y-127635000D02*
X137795000Y-127635000D01*
X102235000Y-132080000D02*
X99060000Y-128905000D01*
X113665000Y-142240000D02*
X105410000Y-142240000D01*
X146685000Y-142875000D02*
X146050000Y-142240000D01*
X146050000Y-132715000D02*
X140970000Y-127635000D01*
D29*
%TO.N,DACCS*%
X144145000Y-126365000D02*
X139065000Y-126365000D01*
X147955000Y-130175000D02*
X144145000Y-126365000D01*
X137160000Y-124460000D02*
X137160000Y-123190000D01*
X154305000Y-132080000D02*
X154305000Y-131445000D01*
X139065000Y-126365000D02*
X137160000Y-124460000D01*
X153035000Y-130175000D02*
X147955000Y-130175000D01*
X154305000Y-131445000D02*
X153035000Y-130175000D01*
%TO.N,DACSCK*%
X159385000Y-130175000D02*
X158115000Y-128905000D01*
X139700000Y-124460000D02*
X139700000Y-123190000D01*
X158115000Y-128905000D02*
X148590000Y-128905000D01*
X144780000Y-125095000D02*
X140335000Y-125095000D01*
X148590000Y-128905000D02*
X144780000Y-125095000D01*
X159385000Y-132080000D02*
X159385000Y-130175000D01*
X140335000Y-125095000D02*
X139700000Y-124460000D01*
%TO.N,DACDATA*%
X159385000Y-127635000D02*
X149225000Y-127635000D01*
X161925000Y-132080000D02*
X161925000Y-130175000D01*
X144780000Y-123190000D02*
X142240000Y-123190000D01*
X149225000Y-127635000D02*
X144780000Y-123190000D01*
X161925000Y-130175000D02*
X159385000Y-127635000D01*
%TO.N,DAC2OUT*%
X146050000Y-83185000D02*
X146050000Y-80645000D01*
X141605000Y-65405000D02*
X139065000Y-65405000D01*
X139700000Y-114300000D02*
X139700000Y-115570000D01*
X136525000Y-111125000D02*
X139700000Y-114300000D01*
X139700000Y-89535000D02*
X146050000Y-83185000D01*
X146050000Y-80645000D02*
X145669000Y-80264000D01*
X130175000Y-111760000D02*
X130810000Y-111125000D01*
X135875000Y-69865000D02*
X135875000Y-71135000D01*
X127000000Y-111760000D02*
X130175000Y-111760000D01*
X144780000Y-68580000D02*
X141605000Y-65405000D01*
X127000000Y-107377527D02*
X139700000Y-94677527D01*
X144780000Y-74295000D02*
X144780000Y-68580000D01*
X135890000Y-69850000D02*
X135875000Y-69865000D01*
X139065000Y-65405000D02*
X135890000Y-68580000D01*
X135890000Y-68580000D02*
X135890000Y-69850000D01*
X145669000Y-80264000D02*
X145669000Y-78486000D01*
X146685000Y-76200000D02*
X144780000Y-74295000D01*
X130810000Y-111125000D02*
X136525000Y-111125000D01*
X146685000Y-77470000D02*
X146685000Y-76200000D01*
X139700000Y-94677527D02*
X139700000Y-89535000D01*
X145669000Y-78486000D02*
X146685000Y-77470000D01*
X127000000Y-111760000D02*
X127000000Y-107377527D01*
%TO.N,DAC1OUT*%
X130175000Y-113030000D02*
X132715000Y-115570000D01*
X132715000Y-115570000D02*
X134620000Y-115570000D01*
X134275000Y-97500000D02*
X134275000Y-82535000D01*
X134620000Y-112395000D02*
X134620000Y-115570000D01*
X124460000Y-111760000D02*
X125730000Y-113030000D01*
X125730000Y-113030000D02*
X130175000Y-113030000D01*
X124460000Y-107315000D02*
X134275000Y-97500000D01*
X124460000Y-111760000D02*
X124460000Y-107315000D01*
%TO.N,ADC0*%
X156845000Y-136525000D02*
X132715000Y-136525000D01*
X177165000Y-135255000D02*
X176530000Y-135890000D01*
X176530000Y-135890000D02*
X157480000Y-135890000D01*
X157480000Y-135890000D02*
X156845000Y-136525000D01*
X177165000Y-132080000D02*
X177165000Y-135255000D01*
%TO.N,ADC1*%
X179705000Y-132080000D02*
X179705000Y-135255000D01*
X156845000Y-138430000D02*
X144145000Y-138430000D01*
X158115000Y-137160000D02*
X156845000Y-138430000D01*
X179705000Y-135255000D02*
X177800000Y-137160000D01*
X177800000Y-137160000D02*
X158115000Y-137160000D01*
%TO.N,ADC2*%
X184785000Y-132080000D02*
X184785000Y-139065000D01*
%TO.N,AinL*%
X110506800Y-112378200D02*
X110506800Y-115586800D01*
X111760000Y-111125000D02*
X110506800Y-112378200D01*
X111760000Y-116840000D02*
X111760000Y-118745000D01*
X110506800Y-115586800D02*
X111760000Y-116840000D01*
%TO.N,BinL*%
X115570000Y-115570000D02*
X116840000Y-116840000D01*
X116840000Y-111760000D02*
X115570000Y-113030000D01*
X116840000Y-116840000D02*
X116840000Y-118745000D01*
X115570000Y-113030000D02*
X115570000Y-115570000D01*
%TO.N,CinL*%
X120666800Y-115586800D02*
X121920000Y-116840000D01*
X120666800Y-113013200D02*
X120666800Y-115586800D01*
X121920000Y-116840000D02*
X121920000Y-118745000D01*
X121920000Y-111760000D02*
X120666800Y-113013200D01*
%TO.N,V165*%
X118745000Y-139065000D02*
X121285000Y-139065000D01*
X104140000Y-132715000D02*
X107315000Y-135890000D01*
X118745000Y-137795000D02*
X118745000Y-139065000D01*
X107315000Y-135890000D02*
X116840000Y-135890000D01*
X106680000Y-122555000D02*
X106680000Y-126365000D01*
X104140000Y-128905000D02*
X104140000Y-132715000D01*
X116840000Y-135890000D02*
X118745000Y-137795000D01*
X106680000Y-126365000D02*
X104140000Y-128905000D01*
D31*
%TO.N,V3P3*%
X146685000Y-119380000D02*
X130175000Y-119380000D01*
X189865000Y-132080000D02*
X189865000Y-130810000D01*
X101600000Y-113665000D02*
X101600000Y-118745000D01*
X101600000Y-121285000D02*
X101600000Y-118745000D01*
X154940000Y-118745000D02*
X147320000Y-118745000D01*
X139685000Y-129540000D02*
X136525000Y-129540000D01*
X130175000Y-119380000D02*
X128270000Y-121285000D01*
X101600000Y-121285000D02*
X82550000Y-121285000D01*
X136525000Y-129540000D02*
X128270000Y-121285000D01*
X80645000Y-123190000D02*
X80645000Y-124430000D01*
X128270000Y-121285000D02*
X101600000Y-121285000D01*
X82550000Y-121285000D02*
X80645000Y-123190000D01*
X165735000Y-129540000D02*
X154940000Y-118745000D01*
X147320000Y-118745000D02*
X146685000Y-119380000D01*
X188595000Y-129540000D02*
X165735000Y-129540000D01*
X189865000Y-130810000D02*
X188595000Y-129540000D01*
D29*
%TO.N,AinH*%
X107950000Y-117475000D02*
X109220000Y-118745000D01*
X112395000Y-106680000D02*
X117475000Y-106680000D01*
X109220000Y-109855000D02*
X112395000Y-106680000D01*
X109220000Y-111760000D02*
X107950000Y-113030000D01*
X109220000Y-111760000D02*
X109220000Y-109855000D01*
X117475000Y-106680000D02*
X131875000Y-92280000D01*
X131875000Y-92280000D02*
X131875000Y-82535000D01*
X107950000Y-113030000D02*
X107950000Y-117475000D01*
%TO.N,BinH*%
X113030000Y-115570000D02*
X114300000Y-116840000D01*
X114300000Y-109855000D02*
X115570000Y-108585000D01*
X113030000Y-113030000D02*
X113030000Y-115570000D01*
X118110000Y-108585000D02*
X132675000Y-94020000D01*
X114300000Y-111760000D02*
X113030000Y-113030000D01*
X115570000Y-108585000D02*
X118110000Y-108585000D01*
X132675000Y-94020000D02*
X132675000Y-82535000D01*
X114300000Y-111760000D02*
X114300000Y-109855000D01*
X114300000Y-116840000D02*
X114300000Y-118745000D01*
%TO.N,CinH*%
X118110000Y-113030000D02*
X118110000Y-115570000D01*
X118110000Y-115570000D02*
X119380000Y-116840000D01*
X119380000Y-109831270D02*
X133475000Y-95736270D01*
X119380000Y-111760000D02*
X119380000Y-109831270D01*
X119380000Y-111760000D02*
X118110000Y-113030000D01*
X119380000Y-116840000D02*
X119380000Y-118745000D01*
X133475000Y-95736270D02*
X133475000Y-82535000D01*
%TO.N,Net-(U11A-+)*%
X109220000Y-126365000D02*
X111760000Y-126365000D01*
%TO.N,Net-(U11B-+)*%
X130810000Y-132080000D02*
X137145000Y-132080000D01*
X137145000Y-132080000D02*
X139700000Y-132080000D01*
%TO.N,Net-(U11C-+)*%
X116205000Y-128270000D02*
X116840000Y-127635000D01*
X116205000Y-131445000D02*
X116205000Y-128270000D01*
X116840000Y-127635000D02*
X116840000Y-126365000D01*
X114300000Y-126365000D02*
X116840000Y-126365000D01*
%TO.N,Net-(U11A--)*%
X125095000Y-138430000D02*
X122555000Y-140970000D01*
X122555000Y-140970000D02*
X109220000Y-140970000D01*
X109220000Y-140970000D02*
X108585000Y-140335000D01*
X108585000Y-140335000D02*
X108585000Y-139065000D01*
X125095000Y-136525000D02*
X125095000Y-138430000D01*
X106045000Y-139065000D02*
X108585000Y-139065000D01*
%TO.N,Net-(U11C--)*%
X125095000Y-131445000D02*
X121285000Y-131445000D01*
X136525000Y-138430000D02*
X132080000Y-138430000D01*
X118745000Y-131445000D02*
X121285000Y-131445000D01*
X132080000Y-138430000D02*
X125095000Y-131445000D01*
%TO.N,Net-(U11D--)*%
X177165000Y-139065000D02*
X158750000Y-139065000D01*
X131445000Y-139700000D02*
X126365000Y-134620000D01*
X158750000Y-139065000D02*
X158115000Y-139700000D01*
X126365000Y-134620000D02*
X110490000Y-134620000D01*
X108585000Y-132715000D02*
X108585000Y-131445000D01*
X106045000Y-131445000D02*
X108585000Y-131445000D01*
X110490000Y-134620000D02*
X108585000Y-132715000D01*
X158115000Y-139700000D02*
X131445000Y-139700000D01*
%TO.N,Net-(U11D-+)*%
X116840000Y-133350000D02*
X117475000Y-132715000D01*
X119380000Y-128270000D02*
X119380000Y-126365000D01*
X111125000Y-131445000D02*
X111125000Y-132715000D01*
X119380000Y-126365000D02*
X121920000Y-126365000D01*
X111760000Y-133350000D02*
X116840000Y-133350000D01*
X117475000Y-132715000D02*
X117475000Y-130175000D01*
X111125000Y-132715000D02*
X111760000Y-133350000D01*
X117475000Y-130175000D02*
X119380000Y-128270000D01*
D31*
%TO.N,VBUS*%
X84455000Y-144145000D02*
X81280000Y-140970000D01*
X90170000Y-123825000D02*
X90170000Y-128905000D01*
X81280000Y-137160000D02*
X81280000Y-128905000D01*
X81280000Y-128905000D02*
X90170000Y-128905000D01*
X80645000Y-128270000D02*
X81280000Y-128905000D01*
X83820000Y-137160000D02*
X81280000Y-137160000D01*
X90170000Y-128905000D02*
X93980000Y-128905000D01*
X200025000Y-132080000D02*
X200025000Y-139065000D01*
X81280000Y-140970000D02*
X81280000Y-137160000D01*
X194945000Y-144145000D02*
X170180000Y-144145000D01*
X200025000Y-139065000D02*
X194945000Y-144145000D01*
X80645000Y-127030000D02*
X80645000Y-128270000D01*
X170180000Y-144145000D02*
X84455000Y-144145000D01*
D29*
%TO.N,VEE1*%
X143053200Y-77635000D02*
X141575000Y-77635000D01*
X145161000Y-82804000D02*
X145161000Y-81026000D01*
X127000000Y-80010000D02*
X124625000Y-77635000D01*
D31*
X84455000Y-92710000D02*
X87630000Y-95885000D01*
D29*
X124625000Y-77635000D02*
X123190000Y-77635000D01*
D31*
X85090000Y-116840000D02*
X85090000Y-118745000D01*
X84455000Y-90170000D02*
X84455000Y-92710000D01*
D29*
X110490000Y-80010000D02*
X108115000Y-77635000D01*
X141605000Y-85725000D02*
X142240000Y-85725000D01*
X179235000Y-77635000D02*
X177800000Y-77635000D01*
X180975000Y-84455000D02*
X181737000Y-83693000D01*
D31*
X84455000Y-90170000D02*
X81955000Y-90170000D01*
D29*
X180975000Y-85725000D02*
X180975000Y-84455000D01*
X108115000Y-77635000D02*
X106015000Y-77635000D01*
X142240000Y-85725000D02*
X145161000Y-82804000D01*
X144780000Y-80645000D02*
X144780000Y-79361800D01*
D31*
X87630000Y-95885000D02*
X87630000Y-114300000D01*
D29*
X144780000Y-79361800D02*
X143053200Y-77635000D01*
X145161000Y-81026000D02*
X144780000Y-80645000D01*
X164465000Y-79375000D02*
X162725000Y-77635000D01*
D31*
X87630000Y-114300000D02*
X85090000Y-116840000D01*
X81955000Y-90170000D02*
X81915000Y-90210000D01*
X84455000Y-87630000D02*
X84455000Y-90170000D01*
D29*
X109855000Y-85725000D02*
X110490000Y-85090000D01*
X164465000Y-85725000D02*
X164465000Y-79375000D01*
X181737000Y-83693000D02*
X181737000Y-80137000D01*
X181737000Y-80137000D02*
X179235000Y-77635000D01*
D31*
X86360000Y-85725000D02*
X84455000Y-87630000D01*
D29*
X127000000Y-85725000D02*
X127000000Y-80010000D01*
X110490000Y-85090000D02*
X110490000Y-80010000D01*
X162725000Y-77635000D02*
X160020000Y-77635000D01*
D31*
%TO.N,VDD1*%
X87630000Y-75565000D02*
X87630000Y-87630000D01*
X89535000Y-73660000D02*
X87630000Y-75565000D01*
D29*
X110933600Y-76035000D02*
X111790000Y-76035000D01*
D31*
X96520000Y-128905000D02*
X96520000Y-130810000D01*
D29*
X146050000Y-74321400D02*
X147763600Y-76035000D01*
D31*
X96520000Y-123825000D02*
X96520000Y-128905000D01*
D29*
X127000000Y-73716400D02*
X129318600Y-76035000D01*
D31*
X89535000Y-73660000D02*
X89535000Y-67945000D01*
D29*
X108585000Y-73686400D02*
X110933600Y-76035000D01*
D31*
X94615000Y-118745000D02*
X96520000Y-118745000D01*
D29*
X163195000Y-67945000D02*
X163195000Y-73686400D01*
X147763600Y-76035000D02*
X148620000Y-76035000D01*
D31*
X89535000Y-95250000D02*
X89535000Y-104775000D01*
D29*
X93180000Y-76035000D02*
X94615000Y-76035000D01*
X90805000Y-73660000D02*
X93180000Y-76035000D01*
D31*
X87630000Y-87630000D02*
X86360000Y-88900000D01*
X91440000Y-106680000D02*
X91440000Y-115570000D01*
X86360000Y-92075000D02*
X89535000Y-95250000D01*
X83780000Y-63460000D02*
X81915000Y-63460000D01*
D29*
X89535000Y-73660000D02*
X90805000Y-73660000D01*
D31*
X88265000Y-67945000D02*
X83780000Y-63460000D01*
D29*
X128270000Y-67945000D02*
X127000000Y-69215000D01*
D31*
X86360000Y-88900000D02*
X86360000Y-92075000D01*
D29*
X127000000Y-69215000D02*
X127000000Y-73716400D01*
X129318600Y-76035000D02*
X130175000Y-76035000D01*
X163195000Y-73686400D02*
X165543600Y-76035000D01*
D31*
X96520000Y-130810000D02*
X98465000Y-132755000D01*
X89535000Y-67945000D02*
X88265000Y-67945000D01*
X98465000Y-132755000D02*
X99060000Y-132755000D01*
D29*
X146050000Y-67945000D02*
X146050000Y-74321400D01*
D31*
X91440000Y-115570000D02*
X94615000Y-118745000D01*
D29*
X165543600Y-76035000D02*
X166400000Y-76035000D01*
D31*
X89535000Y-104775000D02*
X91440000Y-106680000D01*
D29*
X108585000Y-67945000D02*
X108585000Y-73686400D01*
D31*
%TO.N,Net-(DC1-Pin_4)*%
X93305000Y-135205000D02*
X97155000Y-139055000D01*
X93305000Y-134610000D02*
X93305000Y-135205000D01*
X90775000Y-132080000D02*
X93305000Y-134610000D01*
X83820000Y-132080000D02*
X90775000Y-132080000D01*
X97155000Y-139055000D02*
X97155000Y-140325000D01*
%TO.N,Net-(DC1-Pin_3)*%
X88305000Y-137190000D02*
X89535000Y-138420000D01*
X88305000Y-134610000D02*
X88305000Y-137190000D01*
X88295000Y-134600000D02*
X88305000Y-134610000D01*
X89535000Y-138420000D02*
X89535000Y-140325000D01*
X83820000Y-134620000D02*
X88295000Y-134620000D01*
X88295000Y-134620000D02*
X88305000Y-134610000D01*
D29*
%TO.N,CD7*%
X170815000Y-88900000D02*
X170815000Y-90805000D01*
X170500000Y-88585000D02*
X170815000Y-88900000D01*
X170500000Y-82535000D02*
X170500000Y-88585000D01*
%TO.N,CD9*%
X172100000Y-85105000D02*
X175895000Y-88900000D01*
X175895000Y-88900000D02*
X175895000Y-90805000D01*
X172100000Y-82535000D02*
X172100000Y-85105000D01*
%TO.N,CD11*%
X173700000Y-82535000D02*
X173700000Y-83391400D01*
X177303600Y-86995000D02*
X178435000Y-86995000D01*
X180975000Y-89535000D02*
X180975000Y-90805000D01*
X178435000Y-86995000D02*
X180975000Y-89535000D01*
X173700000Y-83391400D02*
X177303600Y-86995000D01*
D31*
%TO.N,Net-(JP1-C)*%
X82550000Y-114300000D02*
X78740000Y-118110000D01*
X80645000Y-99060000D02*
X82550000Y-100965000D01*
X78740000Y-125730000D02*
X80645000Y-125730000D01*
X78740000Y-118110000D02*
X78740000Y-125730000D01*
X82550000Y-100965000D02*
X82550000Y-114300000D01*
X78105000Y-99060000D02*
X80645000Y-99060000D01*
D29*
%TO.N,CS*%
X150495000Y-116205000D02*
X158750000Y-116205000D01*
X158750000Y-116205000D02*
X159385000Y-115570000D01*
X148590000Y-113030000D02*
X148590000Y-114300000D01*
X146685000Y-111125000D02*
X148590000Y-113030000D01*
X148590000Y-114300000D02*
X150495000Y-116205000D01*
X159385000Y-115570000D02*
X159385000Y-114300000D01*
%TO.N,MOSI*%
X151765000Y-108585000D02*
X151765000Y-114300000D01*
X149225000Y-106045000D02*
X151765000Y-108585000D01*
%TO.N,MISO*%
X159385000Y-108585000D02*
X161925000Y-111125000D01*
X156210000Y-108585000D02*
X159385000Y-108585000D01*
X161925000Y-111125000D02*
X161925000Y-114300000D01*
%TO.N,CE2*%
X135075000Y-71135000D02*
X135075000Y-67490000D01*
X135075000Y-67490000D02*
X139700000Y-62865000D01*
X139700000Y-62865000D02*
X142875000Y-62865000D01*
D31*
%TO.N,VCC*%
X93345000Y-99695000D02*
X95250000Y-97790000D01*
X99060000Y-113665000D02*
X99060000Y-109220000D01*
X95250000Y-97790000D02*
X98425000Y-97790000D01*
X98425000Y-97790000D02*
X100330000Y-99695000D01*
X93345000Y-103505000D02*
X93345000Y-99695000D01*
X107950000Y-99695000D02*
X102235000Y-99695000D01*
X171450000Y-99695000D02*
X136525000Y-99695000D01*
X99060000Y-109220000D02*
X93345000Y-103505000D01*
D29*
%TO.N,CE1*%
X134275000Y-65115000D02*
X134620000Y-64770000D01*
X134275000Y-71135000D02*
X134275000Y-65115000D01*
X134620000Y-64770000D02*
X134620000Y-62865000D01*
%TO.N,SCK*%
X154305000Y-107315000D02*
X154305000Y-114300000D01*
X151765000Y-104775000D02*
X154305000Y-107315000D01*
%TD*%
M02*
