%TF.GenerationSoftware,KiCad,Pcbnew,7.0.7*%
%TF.CreationDate,2025-01-28T12:58:34-05:00*%
%TF.ProjectId,cross-point-exp-brd-mini-smd,63726f73-732d-4706-9f69-6e742d657870,rev?*%
%TF.SameCoordinates,Original*%
%TF.FileFunction,Legend,Bot*%
%TF.FilePolarity,Positive*%
%FSLAX46Y46*%
G04 Gerber Fmt 4.6, Leading zero omitted, Abs format (unit mm)*
G04 Created by KiCad (PCBNEW 7.0.7) date 2025-01-28 12:58:34*
%MOMM*%
%LPD*%
G01*
G04 APERTURE LIST*
%ADD10C,0.254000*%
%ADD11C,0.381000*%
%ADD12C,0.228600*%
%ADD13C,0.150000*%
%ADD14C,0.120000*%
G04 APERTURE END LIST*
D10*
X194814180Y-67249318D02*
X194814180Y-68156461D01*
X194814180Y-68156461D02*
X194868609Y-68337889D01*
X194868609Y-68337889D02*
X194977466Y-68458842D01*
X194977466Y-68458842D02*
X195140752Y-68519318D01*
X195140752Y-68519318D02*
X195249609Y-68519318D01*
X194269895Y-68519318D02*
X194269895Y-67249318D01*
X194269895Y-67249318D02*
X193834466Y-67249318D01*
X193834466Y-67249318D02*
X193725609Y-67309794D01*
X193725609Y-67309794D02*
X193671180Y-67370270D01*
X193671180Y-67370270D02*
X193616752Y-67491222D01*
X193616752Y-67491222D02*
X193616752Y-67672651D01*
X193616752Y-67672651D02*
X193671180Y-67793603D01*
X193671180Y-67793603D02*
X193725609Y-67854080D01*
X193725609Y-67854080D02*
X193834466Y-67914556D01*
X193834466Y-67914556D02*
X194269895Y-67914556D01*
X193072466Y-68519318D02*
X192854752Y-68519318D01*
X192854752Y-68519318D02*
X192745895Y-68458842D01*
X192745895Y-68458842D02*
X192691466Y-68398365D01*
X192691466Y-68398365D02*
X192582609Y-68216937D01*
X192582609Y-68216937D02*
X192528180Y-67975032D01*
X192528180Y-67975032D02*
X192528180Y-67491222D01*
X192528180Y-67491222D02*
X192582609Y-67370270D01*
X192582609Y-67370270D02*
X192637038Y-67309794D01*
X192637038Y-67309794D02*
X192745895Y-67249318D01*
X192745895Y-67249318D02*
X192963609Y-67249318D01*
X192963609Y-67249318D02*
X193072466Y-67309794D01*
X193072466Y-67309794D02*
X193126895Y-67370270D01*
X193126895Y-67370270D02*
X193181323Y-67491222D01*
X193181323Y-67491222D02*
X193181323Y-67793603D01*
X193181323Y-67793603D02*
X193126895Y-67914556D01*
X193126895Y-67914556D02*
X193072466Y-67975032D01*
X193072466Y-67975032D02*
X192963609Y-68035508D01*
X192963609Y-68035508D02*
X192745895Y-68035508D01*
X192745895Y-68035508D02*
X192637038Y-67975032D01*
X192637038Y-67975032D02*
X192582609Y-67914556D01*
X192582609Y-67914556D02*
X192528180Y-67793603D01*
X194814180Y-79949318D02*
X194814180Y-80856461D01*
X194814180Y-80856461D02*
X194868609Y-81037889D01*
X194868609Y-81037889D02*
X194977466Y-81158842D01*
X194977466Y-81158842D02*
X195140752Y-81219318D01*
X195140752Y-81219318D02*
X195249609Y-81219318D01*
X194269895Y-81219318D02*
X194269895Y-79949318D01*
X194269895Y-79949318D02*
X193834466Y-79949318D01*
X193834466Y-79949318D02*
X193725609Y-80009794D01*
X193725609Y-80009794D02*
X193671180Y-80070270D01*
X193671180Y-80070270D02*
X193616752Y-80191222D01*
X193616752Y-80191222D02*
X193616752Y-80372651D01*
X193616752Y-80372651D02*
X193671180Y-80493603D01*
X193671180Y-80493603D02*
X193725609Y-80554080D01*
X193725609Y-80554080D02*
X193834466Y-80614556D01*
X193834466Y-80614556D02*
X194269895Y-80614556D01*
X192528180Y-81219318D02*
X193181323Y-81219318D01*
X192854752Y-81219318D02*
X192854752Y-79949318D01*
X192854752Y-79949318D02*
X192963609Y-80130746D01*
X192963609Y-80130746D02*
X193072466Y-80251699D01*
X193072466Y-80251699D02*
X193181323Y-80312175D01*
X191548467Y-80372651D02*
X191548467Y-81219318D01*
X191820609Y-79888842D02*
X192092752Y-80795984D01*
X192092752Y-80795984D02*
X191385181Y-80795984D01*
X79505818Y-72329318D02*
X79505818Y-73236461D01*
X79505818Y-73236461D02*
X79560247Y-73417889D01*
X79560247Y-73417889D02*
X79669104Y-73538842D01*
X79669104Y-73538842D02*
X79832390Y-73599318D01*
X79832390Y-73599318D02*
X79941247Y-73599318D01*
X78961533Y-73599318D02*
X78961533Y-72329318D01*
X78961533Y-72329318D02*
X78526104Y-72329318D01*
X78526104Y-72329318D02*
X78417247Y-72389794D01*
X78417247Y-72389794D02*
X78362818Y-72450270D01*
X78362818Y-72450270D02*
X78308390Y-72571222D01*
X78308390Y-72571222D02*
X78308390Y-72752651D01*
X78308390Y-72752651D02*
X78362818Y-72873603D01*
X78362818Y-72873603D02*
X78417247Y-72934080D01*
X78417247Y-72934080D02*
X78526104Y-72994556D01*
X78526104Y-72994556D02*
X78961533Y-72994556D01*
X77927390Y-72329318D02*
X77219818Y-72329318D01*
X77219818Y-72329318D02*
X77600818Y-72813127D01*
X77600818Y-72813127D02*
X77437533Y-72813127D01*
X77437533Y-72813127D02*
X77328676Y-72873603D01*
X77328676Y-72873603D02*
X77274247Y-72934080D01*
X77274247Y-72934080D02*
X77219818Y-73055032D01*
X77219818Y-73055032D02*
X77219818Y-73357413D01*
X77219818Y-73357413D02*
X77274247Y-73478365D01*
X77274247Y-73478365D02*
X77328676Y-73538842D01*
X77328676Y-73538842D02*
X77437533Y-73599318D01*
X77437533Y-73599318D02*
X77764104Y-73599318D01*
X77764104Y-73599318D02*
X77872961Y-73538842D01*
X77872961Y-73538842D02*
X77927390Y-73478365D01*
X194814180Y-69789318D02*
X194814180Y-70696461D01*
X194814180Y-70696461D02*
X194868609Y-70877889D01*
X194868609Y-70877889D02*
X194977466Y-70998842D01*
X194977466Y-70998842D02*
X195140752Y-71059318D01*
X195140752Y-71059318D02*
X195249609Y-71059318D01*
X194269895Y-71059318D02*
X194269895Y-69789318D01*
X194269895Y-69789318D02*
X193834466Y-69789318D01*
X193834466Y-69789318D02*
X193725609Y-69849794D01*
X193725609Y-69849794D02*
X193671180Y-69910270D01*
X193671180Y-69910270D02*
X193616752Y-70031222D01*
X193616752Y-70031222D02*
X193616752Y-70212651D01*
X193616752Y-70212651D02*
X193671180Y-70333603D01*
X193671180Y-70333603D02*
X193725609Y-70394080D01*
X193725609Y-70394080D02*
X193834466Y-70454556D01*
X193834466Y-70454556D02*
X194269895Y-70454556D01*
X192528180Y-71059318D02*
X193181323Y-71059318D01*
X192854752Y-71059318D02*
X192854752Y-69789318D01*
X192854752Y-69789318D02*
X192963609Y-69970746D01*
X192963609Y-69970746D02*
X193072466Y-70091699D01*
X193072466Y-70091699D02*
X193181323Y-70152175D01*
X191820609Y-69789318D02*
X191711752Y-69789318D01*
X191711752Y-69789318D02*
X191602895Y-69849794D01*
X191602895Y-69849794D02*
X191548467Y-69910270D01*
X191548467Y-69910270D02*
X191494038Y-70031222D01*
X191494038Y-70031222D02*
X191439609Y-70273127D01*
X191439609Y-70273127D02*
X191439609Y-70575508D01*
X191439609Y-70575508D02*
X191494038Y-70817413D01*
X191494038Y-70817413D02*
X191548467Y-70938365D01*
X191548467Y-70938365D02*
X191602895Y-70998842D01*
X191602895Y-70998842D02*
X191711752Y-71059318D01*
X191711752Y-71059318D02*
X191820609Y-71059318D01*
X191820609Y-71059318D02*
X191929467Y-70998842D01*
X191929467Y-70998842D02*
X191983895Y-70938365D01*
X191983895Y-70938365D02*
X192038324Y-70817413D01*
X192038324Y-70817413D02*
X192092752Y-70575508D01*
X192092752Y-70575508D02*
X192092752Y-70273127D01*
X192092752Y-70273127D02*
X192038324Y-70031222D01*
X192038324Y-70031222D02*
X191983895Y-69910270D01*
X191983895Y-69910270D02*
X191929467Y-69849794D01*
X191929467Y-69849794D02*
X191820609Y-69789318D01*
X194814180Y-72329318D02*
X194814180Y-73236461D01*
X194814180Y-73236461D02*
X194868609Y-73417889D01*
X194868609Y-73417889D02*
X194977466Y-73538842D01*
X194977466Y-73538842D02*
X195140752Y-73599318D01*
X195140752Y-73599318D02*
X195249609Y-73599318D01*
X194269895Y-73599318D02*
X194269895Y-72329318D01*
X194269895Y-72329318D02*
X193834466Y-72329318D01*
X193834466Y-72329318D02*
X193725609Y-72389794D01*
X193725609Y-72389794D02*
X193671180Y-72450270D01*
X193671180Y-72450270D02*
X193616752Y-72571222D01*
X193616752Y-72571222D02*
X193616752Y-72752651D01*
X193616752Y-72752651D02*
X193671180Y-72873603D01*
X193671180Y-72873603D02*
X193725609Y-72934080D01*
X193725609Y-72934080D02*
X193834466Y-72994556D01*
X193834466Y-72994556D02*
X194269895Y-72994556D01*
X192528180Y-73599318D02*
X193181323Y-73599318D01*
X192854752Y-73599318D02*
X192854752Y-72329318D01*
X192854752Y-72329318D02*
X192963609Y-72510746D01*
X192963609Y-72510746D02*
X193072466Y-72631699D01*
X193072466Y-72631699D02*
X193181323Y-72692175D01*
X191439609Y-73599318D02*
X192092752Y-73599318D01*
X191766181Y-73599318D02*
X191766181Y-72329318D01*
X191766181Y-72329318D02*
X191875038Y-72510746D01*
X191875038Y-72510746D02*
X191983895Y-72631699D01*
X191983895Y-72631699D02*
X192092752Y-72692175D01*
X194814180Y-85029318D02*
X194814180Y-85936461D01*
X194814180Y-85936461D02*
X194868609Y-86117889D01*
X194868609Y-86117889D02*
X194977466Y-86238842D01*
X194977466Y-86238842D02*
X195140752Y-86299318D01*
X195140752Y-86299318D02*
X195249609Y-86299318D01*
X194269895Y-86299318D02*
X194269895Y-85029318D01*
X194269895Y-85029318D02*
X193834466Y-85029318D01*
X193834466Y-85029318D02*
X193725609Y-85089794D01*
X193725609Y-85089794D02*
X193671180Y-85150270D01*
X193671180Y-85150270D02*
X193616752Y-85271222D01*
X193616752Y-85271222D02*
X193616752Y-85452651D01*
X193616752Y-85452651D02*
X193671180Y-85573603D01*
X193671180Y-85573603D02*
X193725609Y-85634080D01*
X193725609Y-85634080D02*
X193834466Y-85694556D01*
X193834466Y-85694556D02*
X194269895Y-85694556D01*
X192528180Y-86299318D02*
X193181323Y-86299318D01*
X192854752Y-86299318D02*
X192854752Y-85029318D01*
X192854752Y-85029318D02*
X192963609Y-85210746D01*
X192963609Y-85210746D02*
X193072466Y-85331699D01*
X193072466Y-85331699D02*
X193181323Y-85392175D01*
X191548467Y-85029318D02*
X191766181Y-85029318D01*
X191766181Y-85029318D02*
X191875038Y-85089794D01*
X191875038Y-85089794D02*
X191929467Y-85150270D01*
X191929467Y-85150270D02*
X192038324Y-85331699D01*
X192038324Y-85331699D02*
X192092752Y-85573603D01*
X192092752Y-85573603D02*
X192092752Y-86057413D01*
X192092752Y-86057413D02*
X192038324Y-86178365D01*
X192038324Y-86178365D02*
X191983895Y-86238842D01*
X191983895Y-86238842D02*
X191875038Y-86299318D01*
X191875038Y-86299318D02*
X191657324Y-86299318D01*
X191657324Y-86299318D02*
X191548467Y-86238842D01*
X191548467Y-86238842D02*
X191494038Y-86178365D01*
X191494038Y-86178365D02*
X191439609Y-86057413D01*
X191439609Y-86057413D02*
X191439609Y-85755032D01*
X191439609Y-85755032D02*
X191494038Y-85634080D01*
X191494038Y-85634080D02*
X191548467Y-85573603D01*
X191548467Y-85573603D02*
X191657324Y-85513127D01*
X191657324Y-85513127D02*
X191875038Y-85513127D01*
X191875038Y-85513127D02*
X191983895Y-85573603D01*
X191983895Y-85573603D02*
X192038324Y-85634080D01*
X192038324Y-85634080D02*
X192092752Y-85755032D01*
X79505818Y-85029318D02*
X79505818Y-85936461D01*
X79505818Y-85936461D02*
X79560247Y-86117889D01*
X79560247Y-86117889D02*
X79669104Y-86238842D01*
X79669104Y-86238842D02*
X79832390Y-86299318D01*
X79832390Y-86299318D02*
X79941247Y-86299318D01*
X78961533Y-86299318D02*
X78961533Y-85029318D01*
X78961533Y-85029318D02*
X78526104Y-85029318D01*
X78526104Y-85029318D02*
X78417247Y-85089794D01*
X78417247Y-85089794D02*
X78362818Y-85150270D01*
X78362818Y-85150270D02*
X78308390Y-85271222D01*
X78308390Y-85271222D02*
X78308390Y-85452651D01*
X78308390Y-85452651D02*
X78362818Y-85573603D01*
X78362818Y-85573603D02*
X78417247Y-85634080D01*
X78417247Y-85634080D02*
X78526104Y-85694556D01*
X78526104Y-85694556D02*
X78961533Y-85694556D01*
X77655247Y-85573603D02*
X77764104Y-85513127D01*
X77764104Y-85513127D02*
X77818533Y-85452651D01*
X77818533Y-85452651D02*
X77872961Y-85331699D01*
X77872961Y-85331699D02*
X77872961Y-85271222D01*
X77872961Y-85271222D02*
X77818533Y-85150270D01*
X77818533Y-85150270D02*
X77764104Y-85089794D01*
X77764104Y-85089794D02*
X77655247Y-85029318D01*
X77655247Y-85029318D02*
X77437533Y-85029318D01*
X77437533Y-85029318D02*
X77328676Y-85089794D01*
X77328676Y-85089794D02*
X77274247Y-85150270D01*
X77274247Y-85150270D02*
X77219818Y-85271222D01*
X77219818Y-85271222D02*
X77219818Y-85331699D01*
X77219818Y-85331699D02*
X77274247Y-85452651D01*
X77274247Y-85452651D02*
X77328676Y-85513127D01*
X77328676Y-85513127D02*
X77437533Y-85573603D01*
X77437533Y-85573603D02*
X77655247Y-85573603D01*
X77655247Y-85573603D02*
X77764104Y-85634080D01*
X77764104Y-85634080D02*
X77818533Y-85694556D01*
X77818533Y-85694556D02*
X77872961Y-85815508D01*
X77872961Y-85815508D02*
X77872961Y-86057413D01*
X77872961Y-86057413D02*
X77818533Y-86178365D01*
X77818533Y-86178365D02*
X77764104Y-86238842D01*
X77764104Y-86238842D02*
X77655247Y-86299318D01*
X77655247Y-86299318D02*
X77437533Y-86299318D01*
X77437533Y-86299318D02*
X77328676Y-86238842D01*
X77328676Y-86238842D02*
X77274247Y-86178365D01*
X77274247Y-86178365D02*
X77219818Y-86057413D01*
X77219818Y-86057413D02*
X77219818Y-85815508D01*
X77219818Y-85815508D02*
X77274247Y-85694556D01*
X77274247Y-85694556D02*
X77328676Y-85634080D01*
X77328676Y-85634080D02*
X77437533Y-85573603D01*
X79505818Y-67249318D02*
X79505818Y-68156461D01*
X79505818Y-68156461D02*
X79560247Y-68337889D01*
X79560247Y-68337889D02*
X79669104Y-68458842D01*
X79669104Y-68458842D02*
X79832390Y-68519318D01*
X79832390Y-68519318D02*
X79941247Y-68519318D01*
X78961533Y-68519318D02*
X78961533Y-67249318D01*
X78961533Y-67249318D02*
X78526104Y-67249318D01*
X78526104Y-67249318D02*
X78417247Y-67309794D01*
X78417247Y-67309794D02*
X78362818Y-67370270D01*
X78362818Y-67370270D02*
X78308390Y-67491222D01*
X78308390Y-67491222D02*
X78308390Y-67672651D01*
X78308390Y-67672651D02*
X78362818Y-67793603D01*
X78362818Y-67793603D02*
X78417247Y-67854080D01*
X78417247Y-67854080D02*
X78526104Y-67914556D01*
X78526104Y-67914556D02*
X78961533Y-67914556D01*
X77219818Y-68519318D02*
X77872961Y-68519318D01*
X77546390Y-68519318D02*
X77546390Y-67249318D01*
X77546390Y-67249318D02*
X77655247Y-67430746D01*
X77655247Y-67430746D02*
X77764104Y-67551699D01*
X77764104Y-67551699D02*
X77872961Y-67612175D01*
X116382609Y-109131680D02*
X116437037Y-109204252D01*
X116437037Y-109204252D02*
X116600323Y-109276823D01*
X116600323Y-109276823D02*
X116709180Y-109276823D01*
X116709180Y-109276823D02*
X116872466Y-109204252D01*
X116872466Y-109204252D02*
X116981323Y-109059109D01*
X116981323Y-109059109D02*
X117035752Y-108913966D01*
X117035752Y-108913966D02*
X117090180Y-108623680D01*
X117090180Y-108623680D02*
X117090180Y-108405966D01*
X117090180Y-108405966D02*
X117035752Y-108115680D01*
X117035752Y-108115680D02*
X116981323Y-107970537D01*
X116981323Y-107970537D02*
X116872466Y-107825394D01*
X116872466Y-107825394D02*
X116709180Y-107752823D01*
X116709180Y-107752823D02*
X116600323Y-107752823D01*
X116600323Y-107752823D02*
X116437037Y-107825394D01*
X116437037Y-107825394D02*
X116382609Y-107897966D01*
X115892752Y-109276823D02*
X115892752Y-107752823D01*
X115892752Y-108478537D02*
X115239609Y-108478537D01*
X115239609Y-109276823D02*
X115239609Y-107752823D01*
X114314323Y-108478537D02*
X114151037Y-108551109D01*
X114151037Y-108551109D02*
X114096608Y-108623680D01*
X114096608Y-108623680D02*
X114042180Y-108768823D01*
X114042180Y-108768823D02*
X114042180Y-108986537D01*
X114042180Y-108986537D02*
X114096608Y-109131680D01*
X114096608Y-109131680D02*
X114151037Y-109204252D01*
X114151037Y-109204252D02*
X114259894Y-109276823D01*
X114259894Y-109276823D02*
X114695323Y-109276823D01*
X114695323Y-109276823D02*
X114695323Y-107752823D01*
X114695323Y-107752823D02*
X114314323Y-107752823D01*
X114314323Y-107752823D02*
X114205466Y-107825394D01*
X114205466Y-107825394D02*
X114151037Y-107897966D01*
X114151037Y-107897966D02*
X114096608Y-108043109D01*
X114096608Y-108043109D02*
X114096608Y-108188252D01*
X114096608Y-108188252D02*
X114151037Y-108333394D01*
X114151037Y-108333394D02*
X114205466Y-108405966D01*
X114205466Y-108405966D02*
X114314323Y-108478537D01*
X114314323Y-108478537D02*
X114695323Y-108478537D01*
D11*
X160676485Y-144915763D02*
X160404343Y-145006477D01*
X160404343Y-145006477D02*
X159950771Y-145006477D01*
X159950771Y-145006477D02*
X159769343Y-144915763D01*
X159769343Y-144915763D02*
X159678628Y-144825048D01*
X159678628Y-144825048D02*
X159587914Y-144643620D01*
X159587914Y-144643620D02*
X159587914Y-144462191D01*
X159587914Y-144462191D02*
X159678628Y-144280763D01*
X159678628Y-144280763D02*
X159769343Y-144190048D01*
X159769343Y-144190048D02*
X159950771Y-144099334D01*
X159950771Y-144099334D02*
X160313628Y-144008620D01*
X160313628Y-144008620D02*
X160495057Y-143917905D01*
X160495057Y-143917905D02*
X160585771Y-143827191D01*
X160585771Y-143827191D02*
X160676485Y-143645763D01*
X160676485Y-143645763D02*
X160676485Y-143464334D01*
X160676485Y-143464334D02*
X160585771Y-143282905D01*
X160585771Y-143282905D02*
X160495057Y-143192191D01*
X160495057Y-143192191D02*
X160313628Y-143101477D01*
X160313628Y-143101477D02*
X159860057Y-143101477D01*
X159860057Y-143101477D02*
X159587914Y-143192191D01*
X158499342Y-145006477D02*
X158680771Y-144915763D01*
X158680771Y-144915763D02*
X158771485Y-144825048D01*
X158771485Y-144825048D02*
X158862199Y-144643620D01*
X158862199Y-144643620D02*
X158862199Y-144099334D01*
X158862199Y-144099334D02*
X158771485Y-143917905D01*
X158771485Y-143917905D02*
X158680771Y-143827191D01*
X158680771Y-143827191D02*
X158499342Y-143736477D01*
X158499342Y-143736477D02*
X158227199Y-143736477D01*
X158227199Y-143736477D02*
X158045771Y-143827191D01*
X158045771Y-143827191D02*
X157955057Y-143917905D01*
X157955057Y-143917905D02*
X157864342Y-144099334D01*
X157864342Y-144099334D02*
X157864342Y-144643620D01*
X157864342Y-144643620D02*
X157955057Y-144825048D01*
X157955057Y-144825048D02*
X158045771Y-144915763D01*
X158045771Y-144915763D02*
X158227199Y-145006477D01*
X158227199Y-145006477D02*
X158499342Y-145006477D01*
X157320057Y-143736477D02*
X156594343Y-143736477D01*
X157047914Y-145006477D02*
X157047914Y-143373620D01*
X157047914Y-143373620D02*
X156957200Y-143192191D01*
X156957200Y-143192191D02*
X156775771Y-143101477D01*
X156775771Y-143101477D02*
X156594343Y-143101477D01*
X156231486Y-143736477D02*
X155505772Y-143736477D01*
X155959343Y-143101477D02*
X155959343Y-144734334D01*
X155959343Y-144734334D02*
X155868629Y-144915763D01*
X155868629Y-144915763D02*
X155687200Y-145006477D01*
X155687200Y-145006477D02*
X155505772Y-145006477D01*
X155052201Y-143736477D02*
X154689344Y-145006477D01*
X154689344Y-145006477D02*
X154326486Y-144099334D01*
X154326486Y-144099334D02*
X153963629Y-145006477D01*
X153963629Y-145006477D02*
X153600772Y-143736477D01*
X152058630Y-145006477D02*
X152058630Y-144008620D01*
X152058630Y-144008620D02*
X152149344Y-143827191D01*
X152149344Y-143827191D02*
X152330772Y-143736477D01*
X152330772Y-143736477D02*
X152693630Y-143736477D01*
X152693630Y-143736477D02*
X152875058Y-143827191D01*
X152058630Y-144915763D02*
X152240058Y-145006477D01*
X152240058Y-145006477D02*
X152693630Y-145006477D01*
X152693630Y-145006477D02*
X152875058Y-144915763D01*
X152875058Y-144915763D02*
X152965772Y-144734334D01*
X152965772Y-144734334D02*
X152965772Y-144552905D01*
X152965772Y-144552905D02*
X152875058Y-144371477D01*
X152875058Y-144371477D02*
X152693630Y-144280763D01*
X152693630Y-144280763D02*
X152240058Y-144280763D01*
X152240058Y-144280763D02*
X152058630Y-144190048D01*
X151151487Y-145006477D02*
X151151487Y-143736477D01*
X151151487Y-144099334D02*
X151060773Y-143917905D01*
X151060773Y-143917905D02*
X150970059Y-143827191D01*
X150970059Y-143827191D02*
X150788630Y-143736477D01*
X150788630Y-143736477D02*
X150607201Y-143736477D01*
X149246487Y-144915763D02*
X149427915Y-145006477D01*
X149427915Y-145006477D02*
X149790773Y-145006477D01*
X149790773Y-145006477D02*
X149972201Y-144915763D01*
X149972201Y-144915763D02*
X150062915Y-144734334D01*
X150062915Y-144734334D02*
X150062915Y-144008620D01*
X150062915Y-144008620D02*
X149972201Y-143827191D01*
X149972201Y-143827191D02*
X149790773Y-143736477D01*
X149790773Y-143736477D02*
X149427915Y-143736477D01*
X149427915Y-143736477D02*
X149246487Y-143827191D01*
X149246487Y-143827191D02*
X149155773Y-144008620D01*
X149155773Y-144008620D02*
X149155773Y-144190048D01*
X149155773Y-144190048D02*
X150062915Y-144371477D01*
X145799344Y-144825048D02*
X145890058Y-144915763D01*
X145890058Y-144915763D02*
X146162201Y-145006477D01*
X146162201Y-145006477D02*
X146343629Y-145006477D01*
X146343629Y-145006477D02*
X146615772Y-144915763D01*
X146615772Y-144915763D02*
X146797201Y-144734334D01*
X146797201Y-144734334D02*
X146887915Y-144552905D01*
X146887915Y-144552905D02*
X146978629Y-144190048D01*
X146978629Y-144190048D02*
X146978629Y-143917905D01*
X146978629Y-143917905D02*
X146887915Y-143555048D01*
X146887915Y-143555048D02*
X146797201Y-143373620D01*
X146797201Y-143373620D02*
X146615772Y-143192191D01*
X146615772Y-143192191D02*
X146343629Y-143101477D01*
X146343629Y-143101477D02*
X146162201Y-143101477D01*
X146162201Y-143101477D02*
X145890058Y-143192191D01*
X145890058Y-143192191D02*
X145799344Y-143282905D01*
X144710772Y-145006477D02*
X144892201Y-144915763D01*
X144892201Y-144915763D02*
X144982915Y-144825048D01*
X144982915Y-144825048D02*
X145073629Y-144643620D01*
X145073629Y-144643620D02*
X145073629Y-144099334D01*
X145073629Y-144099334D02*
X144982915Y-143917905D01*
X144982915Y-143917905D02*
X144892201Y-143827191D01*
X144892201Y-143827191D02*
X144710772Y-143736477D01*
X144710772Y-143736477D02*
X144438629Y-143736477D01*
X144438629Y-143736477D02*
X144257201Y-143827191D01*
X144257201Y-143827191D02*
X144166487Y-143917905D01*
X144166487Y-143917905D02*
X144075772Y-144099334D01*
X144075772Y-144099334D02*
X144075772Y-144643620D01*
X144075772Y-144643620D02*
X144166487Y-144825048D01*
X144166487Y-144825048D02*
X144257201Y-144915763D01*
X144257201Y-144915763D02*
X144438629Y-145006477D01*
X144438629Y-145006477D02*
X144710772Y-145006477D01*
X143259344Y-143736477D02*
X143259344Y-145006477D01*
X143259344Y-143917905D02*
X143168630Y-143827191D01*
X143168630Y-143827191D02*
X142987201Y-143736477D01*
X142987201Y-143736477D02*
X142715058Y-143736477D01*
X142715058Y-143736477D02*
X142533630Y-143827191D01*
X142533630Y-143827191D02*
X142442916Y-144008620D01*
X142442916Y-144008620D02*
X142442916Y-145006477D01*
X141807916Y-143736477D02*
X141082202Y-143736477D01*
X141535773Y-145006477D02*
X141535773Y-143373620D01*
X141535773Y-143373620D02*
X141445059Y-143192191D01*
X141445059Y-143192191D02*
X141263630Y-143101477D01*
X141263630Y-143101477D02*
X141082202Y-143101477D01*
X140447202Y-145006477D02*
X140447202Y-143736477D01*
X140447202Y-143101477D02*
X140537916Y-143192191D01*
X140537916Y-143192191D02*
X140447202Y-143282905D01*
X140447202Y-143282905D02*
X140356488Y-143192191D01*
X140356488Y-143192191D02*
X140447202Y-143101477D01*
X140447202Y-143101477D02*
X140447202Y-143282905D01*
X138723631Y-143736477D02*
X138723631Y-145278620D01*
X138723631Y-145278620D02*
X138814345Y-145460048D01*
X138814345Y-145460048D02*
X138905059Y-145550763D01*
X138905059Y-145550763D02*
X139086488Y-145641477D01*
X139086488Y-145641477D02*
X139358631Y-145641477D01*
X139358631Y-145641477D02*
X139540059Y-145550763D01*
X138723631Y-144915763D02*
X138905059Y-145006477D01*
X138905059Y-145006477D02*
X139267916Y-145006477D01*
X139267916Y-145006477D02*
X139449345Y-144915763D01*
X139449345Y-144915763D02*
X139540059Y-144825048D01*
X139540059Y-144825048D02*
X139630773Y-144643620D01*
X139630773Y-144643620D02*
X139630773Y-144099334D01*
X139630773Y-144099334D02*
X139540059Y-143917905D01*
X139540059Y-143917905D02*
X139449345Y-143827191D01*
X139449345Y-143827191D02*
X139267916Y-143736477D01*
X139267916Y-143736477D02*
X138905059Y-143736477D01*
X138905059Y-143736477D02*
X138723631Y-143827191D01*
X137000060Y-143736477D02*
X137000060Y-145006477D01*
X137816488Y-143736477D02*
X137816488Y-144734334D01*
X137816488Y-144734334D02*
X137725774Y-144915763D01*
X137725774Y-144915763D02*
X137544345Y-145006477D01*
X137544345Y-145006477D02*
X137272202Y-145006477D01*
X137272202Y-145006477D02*
X137090774Y-144915763D01*
X137090774Y-144915763D02*
X137000060Y-144825048D01*
X136092917Y-145006477D02*
X136092917Y-143736477D01*
X136092917Y-144099334D02*
X136002203Y-143917905D01*
X136002203Y-143917905D02*
X135911489Y-143827191D01*
X135911489Y-143827191D02*
X135730060Y-143736477D01*
X135730060Y-143736477D02*
X135548631Y-143736477D01*
X134097203Y-145006477D02*
X134097203Y-144008620D01*
X134097203Y-144008620D02*
X134187917Y-143827191D01*
X134187917Y-143827191D02*
X134369345Y-143736477D01*
X134369345Y-143736477D02*
X134732203Y-143736477D01*
X134732203Y-143736477D02*
X134913631Y-143827191D01*
X134097203Y-144915763D02*
X134278631Y-145006477D01*
X134278631Y-145006477D02*
X134732203Y-145006477D01*
X134732203Y-145006477D02*
X134913631Y-144915763D01*
X134913631Y-144915763D02*
X135004345Y-144734334D01*
X135004345Y-144734334D02*
X135004345Y-144552905D01*
X135004345Y-144552905D02*
X134913631Y-144371477D01*
X134913631Y-144371477D02*
X134732203Y-144280763D01*
X134732203Y-144280763D02*
X134278631Y-144280763D01*
X134278631Y-144280763D02*
X134097203Y-144190048D01*
X133190060Y-145006477D02*
X133190060Y-143101477D01*
X133190060Y-143827191D02*
X133008632Y-143736477D01*
X133008632Y-143736477D02*
X132645774Y-143736477D01*
X132645774Y-143736477D02*
X132464346Y-143827191D01*
X132464346Y-143827191D02*
X132373632Y-143917905D01*
X132373632Y-143917905D02*
X132282917Y-144099334D01*
X132282917Y-144099334D02*
X132282917Y-144643620D01*
X132282917Y-144643620D02*
X132373632Y-144825048D01*
X132373632Y-144825048D02*
X132464346Y-144915763D01*
X132464346Y-144915763D02*
X132645774Y-145006477D01*
X132645774Y-145006477D02*
X133008632Y-145006477D01*
X133008632Y-145006477D02*
X133190060Y-144915763D01*
X131194346Y-145006477D02*
X131375775Y-144915763D01*
X131375775Y-144915763D02*
X131466489Y-144734334D01*
X131466489Y-144734334D02*
X131466489Y-143101477D01*
X129742918Y-144915763D02*
X129924346Y-145006477D01*
X129924346Y-145006477D02*
X130287204Y-145006477D01*
X130287204Y-145006477D02*
X130468632Y-144915763D01*
X130468632Y-144915763D02*
X130559346Y-144734334D01*
X130559346Y-144734334D02*
X130559346Y-144008620D01*
X130559346Y-144008620D02*
X130468632Y-143827191D01*
X130468632Y-143827191D02*
X130287204Y-143736477D01*
X130287204Y-143736477D02*
X129924346Y-143736477D01*
X129924346Y-143736477D02*
X129742918Y-143827191D01*
X129742918Y-143827191D02*
X129652204Y-144008620D01*
X129652204Y-144008620D02*
X129652204Y-144190048D01*
X129652204Y-144190048D02*
X130559346Y-144371477D01*
X127475060Y-144915763D02*
X127202918Y-145006477D01*
X127202918Y-145006477D02*
X126749346Y-145006477D01*
X126749346Y-145006477D02*
X126567918Y-144915763D01*
X126567918Y-144915763D02*
X126477203Y-144825048D01*
X126477203Y-144825048D02*
X126386489Y-144643620D01*
X126386489Y-144643620D02*
X126386489Y-144462191D01*
X126386489Y-144462191D02*
X126477203Y-144280763D01*
X126477203Y-144280763D02*
X126567918Y-144190048D01*
X126567918Y-144190048D02*
X126749346Y-144099334D01*
X126749346Y-144099334D02*
X127112203Y-144008620D01*
X127112203Y-144008620D02*
X127293632Y-143917905D01*
X127293632Y-143917905D02*
X127384346Y-143827191D01*
X127384346Y-143827191D02*
X127475060Y-143645763D01*
X127475060Y-143645763D02*
X127475060Y-143464334D01*
X127475060Y-143464334D02*
X127384346Y-143282905D01*
X127384346Y-143282905D02*
X127293632Y-143192191D01*
X127293632Y-143192191D02*
X127112203Y-143101477D01*
X127112203Y-143101477D02*
X126658632Y-143101477D01*
X126658632Y-143101477D02*
X126386489Y-143192191D01*
X125297917Y-145006477D02*
X125479346Y-144915763D01*
X125479346Y-144915763D02*
X125570060Y-144825048D01*
X125570060Y-144825048D02*
X125660774Y-144643620D01*
X125660774Y-144643620D02*
X125660774Y-144099334D01*
X125660774Y-144099334D02*
X125570060Y-143917905D01*
X125570060Y-143917905D02*
X125479346Y-143827191D01*
X125479346Y-143827191D02*
X125297917Y-143736477D01*
X125297917Y-143736477D02*
X125025774Y-143736477D01*
X125025774Y-143736477D02*
X124844346Y-143827191D01*
X124844346Y-143827191D02*
X124753632Y-143917905D01*
X124753632Y-143917905D02*
X124662917Y-144099334D01*
X124662917Y-144099334D02*
X124662917Y-144643620D01*
X124662917Y-144643620D02*
X124753632Y-144825048D01*
X124753632Y-144825048D02*
X124844346Y-144915763D01*
X124844346Y-144915763D02*
X125025774Y-145006477D01*
X125025774Y-145006477D02*
X125297917Y-145006477D01*
X123574346Y-145006477D02*
X123755775Y-144915763D01*
X123755775Y-144915763D02*
X123846489Y-144734334D01*
X123846489Y-144734334D02*
X123846489Y-143101477D01*
X122032204Y-145006477D02*
X122032204Y-143101477D01*
X122032204Y-144915763D02*
X122213632Y-145006477D01*
X122213632Y-145006477D02*
X122576489Y-145006477D01*
X122576489Y-145006477D02*
X122757918Y-144915763D01*
X122757918Y-144915763D02*
X122848632Y-144825048D01*
X122848632Y-144825048D02*
X122939346Y-144643620D01*
X122939346Y-144643620D02*
X122939346Y-144099334D01*
X122939346Y-144099334D02*
X122848632Y-143917905D01*
X122848632Y-143917905D02*
X122757918Y-143827191D01*
X122757918Y-143827191D02*
X122576489Y-143736477D01*
X122576489Y-143736477D02*
X122213632Y-143736477D01*
X122213632Y-143736477D02*
X122032204Y-143827191D01*
X120399347Y-144915763D02*
X120580775Y-145006477D01*
X120580775Y-145006477D02*
X120943633Y-145006477D01*
X120943633Y-145006477D02*
X121125061Y-144915763D01*
X121125061Y-144915763D02*
X121215775Y-144734334D01*
X121215775Y-144734334D02*
X121215775Y-144008620D01*
X121215775Y-144008620D02*
X121125061Y-143827191D01*
X121125061Y-143827191D02*
X120943633Y-143736477D01*
X120943633Y-143736477D02*
X120580775Y-143736477D01*
X120580775Y-143736477D02*
X120399347Y-143827191D01*
X120399347Y-143827191D02*
X120308633Y-144008620D01*
X120308633Y-144008620D02*
X120308633Y-144190048D01*
X120308633Y-144190048D02*
X121215775Y-144371477D01*
X119492204Y-145006477D02*
X119492204Y-143736477D01*
X119492204Y-144099334D02*
X119401490Y-143917905D01*
X119401490Y-143917905D02*
X119310776Y-143827191D01*
X119310776Y-143827191D02*
X119129347Y-143736477D01*
X119129347Y-143736477D02*
X118947918Y-143736477D01*
X118312918Y-144280763D02*
X116861490Y-144280763D01*
X115047204Y-145006477D02*
X115954347Y-145006477D01*
X115954347Y-145006477D02*
X115954347Y-143101477D01*
X113686490Y-144915763D02*
X113867918Y-145006477D01*
X113867918Y-145006477D02*
X114230776Y-145006477D01*
X114230776Y-145006477D02*
X114412204Y-144915763D01*
X114412204Y-144915763D02*
X114502918Y-144734334D01*
X114502918Y-144734334D02*
X114502918Y-144008620D01*
X114502918Y-144008620D02*
X114412204Y-143827191D01*
X114412204Y-143827191D02*
X114230776Y-143736477D01*
X114230776Y-143736477D02*
X113867918Y-143736477D01*
X113867918Y-143736477D02*
X113686490Y-143827191D01*
X113686490Y-143827191D02*
X113595776Y-144008620D01*
X113595776Y-144008620D02*
X113595776Y-144190048D01*
X113595776Y-144190048D02*
X114502918Y-144371477D01*
X112870061Y-144915763D02*
X112688633Y-145006477D01*
X112688633Y-145006477D02*
X112325776Y-145006477D01*
X112325776Y-145006477D02*
X112144347Y-144915763D01*
X112144347Y-144915763D02*
X112053633Y-144734334D01*
X112053633Y-144734334D02*
X112053633Y-144643620D01*
X112053633Y-144643620D02*
X112144347Y-144462191D01*
X112144347Y-144462191D02*
X112325776Y-144371477D01*
X112325776Y-144371477D02*
X112597919Y-144371477D01*
X112597919Y-144371477D02*
X112779347Y-144280763D01*
X112779347Y-144280763D02*
X112870061Y-144099334D01*
X112870061Y-144099334D02*
X112870061Y-144008620D01*
X112870061Y-144008620D02*
X112779347Y-143827191D01*
X112779347Y-143827191D02*
X112597919Y-143736477D01*
X112597919Y-143736477D02*
X112325776Y-143736477D01*
X112325776Y-143736477D02*
X112144347Y-143827191D01*
X111327918Y-144915763D02*
X111146490Y-145006477D01*
X111146490Y-145006477D02*
X110783633Y-145006477D01*
X110783633Y-145006477D02*
X110602204Y-144915763D01*
X110602204Y-144915763D02*
X110511490Y-144734334D01*
X110511490Y-144734334D02*
X110511490Y-144643620D01*
X110511490Y-144643620D02*
X110602204Y-144462191D01*
X110602204Y-144462191D02*
X110783633Y-144371477D01*
X110783633Y-144371477D02*
X111055776Y-144371477D01*
X111055776Y-144371477D02*
X111237204Y-144280763D01*
X111237204Y-144280763D02*
X111327918Y-144099334D01*
X111327918Y-144099334D02*
X111327918Y-144008620D01*
X111327918Y-144008620D02*
X111237204Y-143827191D01*
X111237204Y-143827191D02*
X111055776Y-143736477D01*
X111055776Y-143736477D02*
X110783633Y-143736477D01*
X110783633Y-143736477D02*
X110602204Y-143827191D01*
X107608632Y-144008620D02*
X107336489Y-144099334D01*
X107336489Y-144099334D02*
X107245775Y-144190048D01*
X107245775Y-144190048D02*
X107155061Y-144371477D01*
X107155061Y-144371477D02*
X107155061Y-144643620D01*
X107155061Y-144643620D02*
X107245775Y-144825048D01*
X107245775Y-144825048D02*
X107336489Y-144915763D01*
X107336489Y-144915763D02*
X107517918Y-145006477D01*
X107517918Y-145006477D02*
X108243632Y-145006477D01*
X108243632Y-145006477D02*
X108243632Y-143101477D01*
X108243632Y-143101477D02*
X107608632Y-143101477D01*
X107608632Y-143101477D02*
X107427204Y-143192191D01*
X107427204Y-143192191D02*
X107336489Y-143282905D01*
X107336489Y-143282905D02*
X107245775Y-143464334D01*
X107245775Y-143464334D02*
X107245775Y-143645763D01*
X107245775Y-143645763D02*
X107336489Y-143827191D01*
X107336489Y-143827191D02*
X107427204Y-143917905D01*
X107427204Y-143917905D02*
X107608632Y-144008620D01*
X107608632Y-144008620D02*
X108243632Y-144008620D01*
X106338632Y-145006477D02*
X106338632Y-143736477D01*
X106338632Y-144099334D02*
X106247918Y-143917905D01*
X106247918Y-143917905D02*
X106157204Y-143827191D01*
X106157204Y-143827191D02*
X105975775Y-143736477D01*
X105975775Y-143736477D02*
X105794346Y-143736477D01*
X104433632Y-144915763D02*
X104615060Y-145006477D01*
X104615060Y-145006477D02*
X104977918Y-145006477D01*
X104977918Y-145006477D02*
X105159346Y-144915763D01*
X105159346Y-144915763D02*
X105250060Y-144734334D01*
X105250060Y-144734334D02*
X105250060Y-144008620D01*
X105250060Y-144008620D02*
X105159346Y-143827191D01*
X105159346Y-143827191D02*
X104977918Y-143736477D01*
X104977918Y-143736477D02*
X104615060Y-143736477D01*
X104615060Y-143736477D02*
X104433632Y-143827191D01*
X104433632Y-143827191D02*
X104342918Y-144008620D01*
X104342918Y-144008620D02*
X104342918Y-144190048D01*
X104342918Y-144190048D02*
X105250060Y-144371477D01*
X102710061Y-145006477D02*
X102710061Y-144008620D01*
X102710061Y-144008620D02*
X102800775Y-143827191D01*
X102800775Y-143827191D02*
X102982203Y-143736477D01*
X102982203Y-143736477D02*
X103345061Y-143736477D01*
X103345061Y-143736477D02*
X103526489Y-143827191D01*
X102710061Y-144915763D02*
X102891489Y-145006477D01*
X102891489Y-145006477D02*
X103345061Y-145006477D01*
X103345061Y-145006477D02*
X103526489Y-144915763D01*
X103526489Y-144915763D02*
X103617203Y-144734334D01*
X103617203Y-144734334D02*
X103617203Y-144552905D01*
X103617203Y-144552905D02*
X103526489Y-144371477D01*
X103526489Y-144371477D02*
X103345061Y-144280763D01*
X103345061Y-144280763D02*
X102891489Y-144280763D01*
X102891489Y-144280763D02*
X102710061Y-144190048D01*
X100986490Y-145006477D02*
X100986490Y-143101477D01*
X100986490Y-144915763D02*
X101167918Y-145006477D01*
X101167918Y-145006477D02*
X101530775Y-145006477D01*
X101530775Y-145006477D02*
X101712204Y-144915763D01*
X101712204Y-144915763D02*
X101802918Y-144825048D01*
X101802918Y-144825048D02*
X101893632Y-144643620D01*
X101893632Y-144643620D02*
X101893632Y-144099334D01*
X101893632Y-144099334D02*
X101802918Y-143917905D01*
X101802918Y-143917905D02*
X101712204Y-143827191D01*
X101712204Y-143827191D02*
X101530775Y-143736477D01*
X101530775Y-143736477D02*
X101167918Y-143736477D01*
X101167918Y-143736477D02*
X100986490Y-143827191D01*
X100079347Y-145006477D02*
X100079347Y-143101477D01*
X100079347Y-143827191D02*
X99897919Y-143736477D01*
X99897919Y-143736477D02*
X99535061Y-143736477D01*
X99535061Y-143736477D02*
X99353633Y-143827191D01*
X99353633Y-143827191D02*
X99262919Y-143917905D01*
X99262919Y-143917905D02*
X99172204Y-144099334D01*
X99172204Y-144099334D02*
X99172204Y-144643620D01*
X99172204Y-144643620D02*
X99262919Y-144825048D01*
X99262919Y-144825048D02*
X99353633Y-144915763D01*
X99353633Y-144915763D02*
X99535061Y-145006477D01*
X99535061Y-145006477D02*
X99897919Y-145006477D01*
X99897919Y-145006477D02*
X100079347Y-144915763D01*
X98083633Y-145006477D02*
X98265062Y-144915763D01*
X98265062Y-144915763D02*
X98355776Y-144825048D01*
X98355776Y-144825048D02*
X98446490Y-144643620D01*
X98446490Y-144643620D02*
X98446490Y-144099334D01*
X98446490Y-144099334D02*
X98355776Y-143917905D01*
X98355776Y-143917905D02*
X98265062Y-143827191D01*
X98265062Y-143827191D02*
X98083633Y-143736477D01*
X98083633Y-143736477D02*
X97811490Y-143736477D01*
X97811490Y-143736477D02*
X97630062Y-143827191D01*
X97630062Y-143827191D02*
X97539348Y-143917905D01*
X97539348Y-143917905D02*
X97448633Y-144099334D01*
X97448633Y-144099334D02*
X97448633Y-144643620D01*
X97448633Y-144643620D02*
X97539348Y-144825048D01*
X97539348Y-144825048D02*
X97630062Y-144915763D01*
X97630062Y-144915763D02*
X97811490Y-145006477D01*
X97811490Y-145006477D02*
X98083633Y-145006477D01*
X95815777Y-145006477D02*
X95815777Y-144008620D01*
X95815777Y-144008620D02*
X95906491Y-143827191D01*
X95906491Y-143827191D02*
X96087919Y-143736477D01*
X96087919Y-143736477D02*
X96450777Y-143736477D01*
X96450777Y-143736477D02*
X96632205Y-143827191D01*
X95815777Y-144915763D02*
X95997205Y-145006477D01*
X95997205Y-145006477D02*
X96450777Y-145006477D01*
X96450777Y-145006477D02*
X96632205Y-144915763D01*
X96632205Y-144915763D02*
X96722919Y-144734334D01*
X96722919Y-144734334D02*
X96722919Y-144552905D01*
X96722919Y-144552905D02*
X96632205Y-144371477D01*
X96632205Y-144371477D02*
X96450777Y-144280763D01*
X96450777Y-144280763D02*
X95997205Y-144280763D01*
X95997205Y-144280763D02*
X95815777Y-144190048D01*
X94908634Y-145006477D02*
X94908634Y-143736477D01*
X94908634Y-144099334D02*
X94817920Y-143917905D01*
X94817920Y-143917905D02*
X94727206Y-143827191D01*
X94727206Y-143827191D02*
X94545777Y-143736477D01*
X94545777Y-143736477D02*
X94364348Y-143736477D01*
X92912920Y-145006477D02*
X92912920Y-143101477D01*
X92912920Y-144915763D02*
X93094348Y-145006477D01*
X93094348Y-145006477D02*
X93457205Y-145006477D01*
X93457205Y-145006477D02*
X93638634Y-144915763D01*
X93638634Y-144915763D02*
X93729348Y-144825048D01*
X93729348Y-144825048D02*
X93820062Y-144643620D01*
X93820062Y-144643620D02*
X93820062Y-144099334D01*
X93820062Y-144099334D02*
X93729348Y-143917905D01*
X93729348Y-143917905D02*
X93638634Y-143827191D01*
X93638634Y-143827191D02*
X93457205Y-143736477D01*
X93457205Y-143736477D02*
X93094348Y-143736477D01*
X93094348Y-143736477D02*
X92912920Y-143827191D01*
D10*
X126500275Y-116204794D02*
X126621228Y-116144318D01*
X126621228Y-116144318D02*
X126802656Y-116144318D01*
X126802656Y-116144318D02*
X126984085Y-116204794D01*
X126984085Y-116204794D02*
X127105037Y-116325746D01*
X127105037Y-116325746D02*
X127165514Y-116446699D01*
X127165514Y-116446699D02*
X127225990Y-116688603D01*
X127225990Y-116688603D02*
X127225990Y-116870032D01*
X127225990Y-116870032D02*
X127165514Y-117111937D01*
X127165514Y-117111937D02*
X127105037Y-117232889D01*
X127105037Y-117232889D02*
X126984085Y-117353842D01*
X126984085Y-117353842D02*
X126802656Y-117414318D01*
X126802656Y-117414318D02*
X126681704Y-117414318D01*
X126681704Y-117414318D02*
X126500275Y-117353842D01*
X126500275Y-117353842D02*
X126439799Y-117293365D01*
X126439799Y-117293365D02*
X126439799Y-116870032D01*
X126439799Y-116870032D02*
X126681704Y-116870032D01*
X131695180Y-110066461D02*
X131150895Y-110066461D01*
X131804037Y-110429318D02*
X131423037Y-109159318D01*
X131423037Y-109159318D02*
X131042037Y-110429318D01*
X130769895Y-109159318D02*
X130497752Y-110429318D01*
X130497752Y-110429318D02*
X130280038Y-109522175D01*
X130280038Y-109522175D02*
X130062323Y-110429318D01*
X130062323Y-110429318D02*
X129790181Y-109159318D01*
X129409180Y-109280270D02*
X129354752Y-109219794D01*
X129354752Y-109219794D02*
X129245895Y-109159318D01*
X129245895Y-109159318D02*
X128973752Y-109159318D01*
X128973752Y-109159318D02*
X128864895Y-109219794D01*
X128864895Y-109219794D02*
X128810466Y-109280270D01*
X128810466Y-109280270D02*
X128756037Y-109401222D01*
X128756037Y-109401222D02*
X128756037Y-109522175D01*
X128756037Y-109522175D02*
X128810466Y-109703603D01*
X128810466Y-109703603D02*
X129463609Y-110429318D01*
X129463609Y-110429318D02*
X128756037Y-110429318D01*
X123960275Y-116204794D02*
X124081228Y-116144318D01*
X124081228Y-116144318D02*
X124262656Y-116144318D01*
X124262656Y-116144318D02*
X124444085Y-116204794D01*
X124444085Y-116204794D02*
X124565037Y-116325746D01*
X124565037Y-116325746D02*
X124625514Y-116446699D01*
X124625514Y-116446699D02*
X124685990Y-116688603D01*
X124685990Y-116688603D02*
X124685990Y-116870032D01*
X124685990Y-116870032D02*
X124625514Y-117111937D01*
X124625514Y-117111937D02*
X124565037Y-117232889D01*
X124565037Y-117232889D02*
X124444085Y-117353842D01*
X124444085Y-117353842D02*
X124262656Y-117414318D01*
X124262656Y-117414318D02*
X124141704Y-117414318D01*
X124141704Y-117414318D02*
X123960275Y-117353842D01*
X123960275Y-117353842D02*
X123899799Y-117293365D01*
X123899799Y-117293365D02*
X123899799Y-116870032D01*
X123899799Y-116870032D02*
X124141704Y-116870032D01*
X194814180Y-82489318D02*
X194814180Y-83396461D01*
X194814180Y-83396461D02*
X194868609Y-83577889D01*
X194868609Y-83577889D02*
X194977466Y-83698842D01*
X194977466Y-83698842D02*
X195140752Y-83759318D01*
X195140752Y-83759318D02*
X195249609Y-83759318D01*
X194269895Y-83759318D02*
X194269895Y-82489318D01*
X194269895Y-82489318D02*
X193834466Y-82489318D01*
X193834466Y-82489318D02*
X193725609Y-82549794D01*
X193725609Y-82549794D02*
X193671180Y-82610270D01*
X193671180Y-82610270D02*
X193616752Y-82731222D01*
X193616752Y-82731222D02*
X193616752Y-82912651D01*
X193616752Y-82912651D02*
X193671180Y-83033603D01*
X193671180Y-83033603D02*
X193725609Y-83094080D01*
X193725609Y-83094080D02*
X193834466Y-83154556D01*
X193834466Y-83154556D02*
X194269895Y-83154556D01*
X192528180Y-83759318D02*
X193181323Y-83759318D01*
X192854752Y-83759318D02*
X192854752Y-82489318D01*
X192854752Y-82489318D02*
X192963609Y-82670746D01*
X192963609Y-82670746D02*
X193072466Y-82791699D01*
X193072466Y-82791699D02*
X193181323Y-82852175D01*
X191494038Y-82489318D02*
X192038324Y-82489318D01*
X192038324Y-82489318D02*
X192092752Y-83094080D01*
X192092752Y-83094080D02*
X192038324Y-83033603D01*
X192038324Y-83033603D02*
X191929467Y-82973127D01*
X191929467Y-82973127D02*
X191657324Y-82973127D01*
X191657324Y-82973127D02*
X191548467Y-83033603D01*
X191548467Y-83033603D02*
X191494038Y-83094080D01*
X191494038Y-83094080D02*
X191439609Y-83215032D01*
X191439609Y-83215032D02*
X191439609Y-83517413D01*
X191439609Y-83517413D02*
X191494038Y-83638365D01*
X191494038Y-83638365D02*
X191548467Y-83698842D01*
X191548467Y-83698842D02*
X191657324Y-83759318D01*
X191657324Y-83759318D02*
X191929467Y-83759318D01*
X191929467Y-83759318D02*
X192038324Y-83698842D01*
X192038324Y-83698842D02*
X192092752Y-83638365D01*
X111302609Y-109131680D02*
X111357037Y-109204252D01*
X111357037Y-109204252D02*
X111520323Y-109276823D01*
X111520323Y-109276823D02*
X111629180Y-109276823D01*
X111629180Y-109276823D02*
X111792466Y-109204252D01*
X111792466Y-109204252D02*
X111901323Y-109059109D01*
X111901323Y-109059109D02*
X111955752Y-108913966D01*
X111955752Y-108913966D02*
X112010180Y-108623680D01*
X112010180Y-108623680D02*
X112010180Y-108405966D01*
X112010180Y-108405966D02*
X111955752Y-108115680D01*
X111955752Y-108115680D02*
X111901323Y-107970537D01*
X111901323Y-107970537D02*
X111792466Y-107825394D01*
X111792466Y-107825394D02*
X111629180Y-107752823D01*
X111629180Y-107752823D02*
X111520323Y-107752823D01*
X111520323Y-107752823D02*
X111357037Y-107825394D01*
X111357037Y-107825394D02*
X111302609Y-107897966D01*
X110812752Y-109276823D02*
X110812752Y-107752823D01*
X110812752Y-108478537D02*
X110159609Y-108478537D01*
X110159609Y-109276823D02*
X110159609Y-107752823D01*
X109669751Y-108841394D02*
X109125466Y-108841394D01*
X109778608Y-109276823D02*
X109397608Y-107752823D01*
X109397608Y-107752823D02*
X109016608Y-109276823D01*
X79505818Y-74869318D02*
X79505818Y-75776461D01*
X79505818Y-75776461D02*
X79560247Y-75957889D01*
X79560247Y-75957889D02*
X79669104Y-76078842D01*
X79669104Y-76078842D02*
X79832390Y-76139318D01*
X79832390Y-76139318D02*
X79941247Y-76139318D01*
X78961533Y-76139318D02*
X78961533Y-74869318D01*
X78961533Y-74869318D02*
X78526104Y-74869318D01*
X78526104Y-74869318D02*
X78417247Y-74929794D01*
X78417247Y-74929794D02*
X78362818Y-74990270D01*
X78362818Y-74990270D02*
X78308390Y-75111222D01*
X78308390Y-75111222D02*
X78308390Y-75292651D01*
X78308390Y-75292651D02*
X78362818Y-75413603D01*
X78362818Y-75413603D02*
X78417247Y-75474080D01*
X78417247Y-75474080D02*
X78526104Y-75534556D01*
X78526104Y-75534556D02*
X78961533Y-75534556D01*
X77328676Y-75292651D02*
X77328676Y-76139318D01*
X77600818Y-74808842D02*
X77872961Y-75715984D01*
X77872961Y-75715984D02*
X77165390Y-75715984D01*
X117610275Y-117414318D02*
X118335990Y-117414318D01*
X117973133Y-117414318D02*
X117973133Y-116144318D01*
X117973133Y-116144318D02*
X118094085Y-116325746D01*
X118094085Y-116325746D02*
X118215037Y-116446699D01*
X118215037Y-116446699D02*
X118335990Y-116507175D01*
X117065990Y-117293365D02*
X117005513Y-117353842D01*
X117005513Y-117353842D02*
X117065990Y-117414318D01*
X117065990Y-117414318D02*
X117126466Y-117353842D01*
X117126466Y-117353842D02*
X117065990Y-117293365D01*
X117065990Y-117293365D02*
X117065990Y-117414318D01*
X115916942Y-116144318D02*
X116158847Y-116144318D01*
X116158847Y-116144318D02*
X116279799Y-116204794D01*
X116279799Y-116204794D02*
X116340275Y-116265270D01*
X116340275Y-116265270D02*
X116461228Y-116446699D01*
X116461228Y-116446699D02*
X116521704Y-116688603D01*
X116521704Y-116688603D02*
X116521704Y-117172413D01*
X116521704Y-117172413D02*
X116461228Y-117293365D01*
X116461228Y-117293365D02*
X116400751Y-117353842D01*
X116400751Y-117353842D02*
X116279799Y-117414318D01*
X116279799Y-117414318D02*
X116037894Y-117414318D01*
X116037894Y-117414318D02*
X115916942Y-117353842D01*
X115916942Y-117353842D02*
X115856466Y-117293365D01*
X115856466Y-117293365D02*
X115795989Y-117172413D01*
X115795989Y-117172413D02*
X115795989Y-116870032D01*
X115795989Y-116870032D02*
X115856466Y-116749080D01*
X115856466Y-116749080D02*
X115916942Y-116688603D01*
X115916942Y-116688603D02*
X116037894Y-116628127D01*
X116037894Y-116628127D02*
X116279799Y-116628127D01*
X116279799Y-116628127D02*
X116400751Y-116688603D01*
X116400751Y-116688603D02*
X116461228Y-116749080D01*
X116461228Y-116749080D02*
X116521704Y-116870032D01*
X114646942Y-116144318D02*
X115251704Y-116144318D01*
X115251704Y-116144318D02*
X115312180Y-116749080D01*
X115312180Y-116749080D02*
X115251704Y-116688603D01*
X115251704Y-116688603D02*
X115130751Y-116628127D01*
X115130751Y-116628127D02*
X114828370Y-116628127D01*
X114828370Y-116628127D02*
X114707418Y-116688603D01*
X114707418Y-116688603D02*
X114646942Y-116749080D01*
X114646942Y-116749080D02*
X114586465Y-116870032D01*
X114586465Y-116870032D02*
X114586465Y-117172413D01*
X114586465Y-117172413D02*
X114646942Y-117293365D01*
X114646942Y-117293365D02*
X114707418Y-117353842D01*
X114707418Y-117353842D02*
X114828370Y-117414318D01*
X114828370Y-117414318D02*
X115130751Y-117414318D01*
X115130751Y-117414318D02*
X115251704Y-117353842D01*
X115251704Y-117353842D02*
X115312180Y-117293365D01*
X114223608Y-116144318D02*
X113800275Y-117414318D01*
X113800275Y-117414318D02*
X113376941Y-116144318D01*
X126615180Y-108796461D02*
X126070895Y-108796461D01*
X126724037Y-109159318D02*
X126343037Y-107889318D01*
X126343037Y-107889318D02*
X125962037Y-109159318D01*
X125689895Y-107889318D02*
X125417752Y-109159318D01*
X125417752Y-109159318D02*
X125200038Y-108252175D01*
X125200038Y-108252175D02*
X124982323Y-109159318D01*
X124982323Y-109159318D02*
X124710181Y-107889318D01*
X123676037Y-109159318D02*
X124329180Y-109159318D01*
X124002609Y-109159318D02*
X124002609Y-107889318D01*
X124002609Y-107889318D02*
X124111466Y-108070746D01*
X124111466Y-108070746D02*
X124220323Y-108191699D01*
X124220323Y-108191699D02*
X124329180Y-108252175D01*
X79505818Y-69789318D02*
X79505818Y-70696461D01*
X79505818Y-70696461D02*
X79560247Y-70877889D01*
X79560247Y-70877889D02*
X79669104Y-70998842D01*
X79669104Y-70998842D02*
X79832390Y-71059318D01*
X79832390Y-71059318D02*
X79941247Y-71059318D01*
X78961533Y-71059318D02*
X78961533Y-69789318D01*
X78961533Y-69789318D02*
X78526104Y-69789318D01*
X78526104Y-69789318D02*
X78417247Y-69849794D01*
X78417247Y-69849794D02*
X78362818Y-69910270D01*
X78362818Y-69910270D02*
X78308390Y-70031222D01*
X78308390Y-70031222D02*
X78308390Y-70212651D01*
X78308390Y-70212651D02*
X78362818Y-70333603D01*
X78362818Y-70333603D02*
X78417247Y-70394080D01*
X78417247Y-70394080D02*
X78526104Y-70454556D01*
X78526104Y-70454556D02*
X78961533Y-70454556D01*
X77872961Y-69910270D02*
X77818533Y-69849794D01*
X77818533Y-69849794D02*
X77709676Y-69789318D01*
X77709676Y-69789318D02*
X77437533Y-69789318D01*
X77437533Y-69789318D02*
X77328676Y-69849794D01*
X77328676Y-69849794D02*
X77274247Y-69910270D01*
X77274247Y-69910270D02*
X77219818Y-70031222D01*
X77219818Y-70031222D02*
X77219818Y-70152175D01*
X77219818Y-70152175D02*
X77274247Y-70333603D01*
X77274247Y-70333603D02*
X77927390Y-71059318D01*
X77927390Y-71059318D02*
X77219818Y-71059318D01*
X79505818Y-82489318D02*
X79505818Y-83396461D01*
X79505818Y-83396461D02*
X79560247Y-83577889D01*
X79560247Y-83577889D02*
X79669104Y-83698842D01*
X79669104Y-83698842D02*
X79832390Y-83759318D01*
X79832390Y-83759318D02*
X79941247Y-83759318D01*
X78961533Y-83759318D02*
X78961533Y-82489318D01*
X78961533Y-82489318D02*
X78526104Y-82489318D01*
X78526104Y-82489318D02*
X78417247Y-82549794D01*
X78417247Y-82549794D02*
X78362818Y-82610270D01*
X78362818Y-82610270D02*
X78308390Y-82731222D01*
X78308390Y-82731222D02*
X78308390Y-82912651D01*
X78308390Y-82912651D02*
X78362818Y-83033603D01*
X78362818Y-83033603D02*
X78417247Y-83094080D01*
X78417247Y-83094080D02*
X78526104Y-83154556D01*
X78526104Y-83154556D02*
X78961533Y-83154556D01*
X77927390Y-82489318D02*
X77165390Y-82489318D01*
X77165390Y-82489318D02*
X77655247Y-83759318D01*
X87115952Y-144611368D02*
X87841667Y-144611368D01*
X87478810Y-144611368D02*
X87478810Y-143341368D01*
X87478810Y-143341368D02*
X87599762Y-143522796D01*
X87599762Y-143522796D02*
X87720714Y-143643749D01*
X87720714Y-143643749D02*
X87841667Y-143704225D01*
X86632143Y-143462320D02*
X86571667Y-143401844D01*
X86571667Y-143401844D02*
X86450714Y-143341368D01*
X86450714Y-143341368D02*
X86148333Y-143341368D01*
X86148333Y-143341368D02*
X86027381Y-143401844D01*
X86027381Y-143401844D02*
X85966905Y-143462320D01*
X85966905Y-143462320D02*
X85906428Y-143583272D01*
X85906428Y-143583272D02*
X85906428Y-143704225D01*
X85906428Y-143704225D02*
X85966905Y-143885653D01*
X85966905Y-143885653D02*
X86692619Y-144611368D01*
X86692619Y-144611368D02*
X85906428Y-144611368D01*
X84455000Y-143280892D02*
X85543571Y-144913749D01*
X84092143Y-143462320D02*
X84031667Y-143401844D01*
X84031667Y-143401844D02*
X83910714Y-143341368D01*
X83910714Y-143341368D02*
X83608333Y-143341368D01*
X83608333Y-143341368D02*
X83487381Y-143401844D01*
X83487381Y-143401844D02*
X83426905Y-143462320D01*
X83426905Y-143462320D02*
X83366428Y-143583272D01*
X83366428Y-143583272D02*
X83366428Y-143704225D01*
X83366428Y-143704225D02*
X83426905Y-143885653D01*
X83426905Y-143885653D02*
X84152619Y-144611368D01*
X84152619Y-144611368D02*
X83366428Y-144611368D01*
X82640714Y-143885653D02*
X82761666Y-143825177D01*
X82761666Y-143825177D02*
X82822143Y-143764701D01*
X82822143Y-143764701D02*
X82882619Y-143643749D01*
X82882619Y-143643749D02*
X82882619Y-143583272D01*
X82882619Y-143583272D02*
X82822143Y-143462320D01*
X82822143Y-143462320D02*
X82761666Y-143401844D01*
X82761666Y-143401844D02*
X82640714Y-143341368D01*
X82640714Y-143341368D02*
X82398809Y-143341368D01*
X82398809Y-143341368D02*
X82277857Y-143401844D01*
X82277857Y-143401844D02*
X82217381Y-143462320D01*
X82217381Y-143462320D02*
X82156904Y-143583272D01*
X82156904Y-143583272D02*
X82156904Y-143643749D01*
X82156904Y-143643749D02*
X82217381Y-143764701D01*
X82217381Y-143764701D02*
X82277857Y-143825177D01*
X82277857Y-143825177D02*
X82398809Y-143885653D01*
X82398809Y-143885653D02*
X82640714Y-143885653D01*
X82640714Y-143885653D02*
X82761666Y-143946130D01*
X82761666Y-143946130D02*
X82822143Y-144006606D01*
X82822143Y-144006606D02*
X82882619Y-144127558D01*
X82882619Y-144127558D02*
X82882619Y-144369463D01*
X82882619Y-144369463D02*
X82822143Y-144490415D01*
X82822143Y-144490415D02*
X82761666Y-144550892D01*
X82761666Y-144550892D02*
X82640714Y-144611368D01*
X82640714Y-144611368D02*
X82398809Y-144611368D01*
X82398809Y-144611368D02*
X82277857Y-144550892D01*
X82277857Y-144550892D02*
X82217381Y-144490415D01*
X82217381Y-144490415D02*
X82156904Y-144369463D01*
X82156904Y-144369463D02*
X82156904Y-144127558D01*
X82156904Y-144127558D02*
X82217381Y-144006606D01*
X82217381Y-144006606D02*
X82277857Y-143946130D01*
X82277857Y-143946130D02*
X82398809Y-143885653D01*
X80705476Y-143280892D02*
X81794047Y-144913749D01*
X80342619Y-143462320D02*
X80282143Y-143401844D01*
X80282143Y-143401844D02*
X80161190Y-143341368D01*
X80161190Y-143341368D02*
X79858809Y-143341368D01*
X79858809Y-143341368D02*
X79737857Y-143401844D01*
X79737857Y-143401844D02*
X79677381Y-143462320D01*
X79677381Y-143462320D02*
X79616904Y-143583272D01*
X79616904Y-143583272D02*
X79616904Y-143704225D01*
X79616904Y-143704225D02*
X79677381Y-143885653D01*
X79677381Y-143885653D02*
X80403095Y-144611368D01*
X80403095Y-144611368D02*
X79616904Y-144611368D01*
X78830714Y-143341368D02*
X78709761Y-143341368D01*
X78709761Y-143341368D02*
X78588809Y-143401844D01*
X78588809Y-143401844D02*
X78528333Y-143462320D01*
X78528333Y-143462320D02*
X78467857Y-143583272D01*
X78467857Y-143583272D02*
X78407380Y-143825177D01*
X78407380Y-143825177D02*
X78407380Y-144127558D01*
X78407380Y-144127558D02*
X78467857Y-144369463D01*
X78467857Y-144369463D02*
X78528333Y-144490415D01*
X78528333Y-144490415D02*
X78588809Y-144550892D01*
X78588809Y-144550892D02*
X78709761Y-144611368D01*
X78709761Y-144611368D02*
X78830714Y-144611368D01*
X78830714Y-144611368D02*
X78951666Y-144550892D01*
X78951666Y-144550892D02*
X79012142Y-144490415D01*
X79012142Y-144490415D02*
X79072619Y-144369463D01*
X79072619Y-144369463D02*
X79133095Y-144127558D01*
X79133095Y-144127558D02*
X79133095Y-143825177D01*
X79133095Y-143825177D02*
X79072619Y-143583272D01*
X79072619Y-143583272D02*
X79012142Y-143462320D01*
X79012142Y-143462320D02*
X78951666Y-143401844D01*
X78951666Y-143401844D02*
X78830714Y-143341368D01*
X77923571Y-143462320D02*
X77863095Y-143401844D01*
X77863095Y-143401844D02*
X77742142Y-143341368D01*
X77742142Y-143341368D02*
X77439761Y-143341368D01*
X77439761Y-143341368D02*
X77318809Y-143401844D01*
X77318809Y-143401844D02*
X77258333Y-143462320D01*
X77258333Y-143462320D02*
X77197856Y-143583272D01*
X77197856Y-143583272D02*
X77197856Y-143704225D01*
X77197856Y-143704225D02*
X77258333Y-143885653D01*
X77258333Y-143885653D02*
X77984047Y-144611368D01*
X77984047Y-144611368D02*
X77197856Y-144611368D01*
X76109285Y-143764701D02*
X76109285Y-144611368D01*
X76411666Y-143280892D02*
X76714047Y-144188034D01*
X76714047Y-144188034D02*
X75927856Y-144188034D01*
X79505818Y-77409318D02*
X79505818Y-78316461D01*
X79505818Y-78316461D02*
X79560247Y-78497889D01*
X79560247Y-78497889D02*
X79669104Y-78618842D01*
X79669104Y-78618842D02*
X79832390Y-78679318D01*
X79832390Y-78679318D02*
X79941247Y-78679318D01*
X78961533Y-78679318D02*
X78961533Y-77409318D01*
X78961533Y-77409318D02*
X78526104Y-77409318D01*
X78526104Y-77409318D02*
X78417247Y-77469794D01*
X78417247Y-77469794D02*
X78362818Y-77530270D01*
X78362818Y-77530270D02*
X78308390Y-77651222D01*
X78308390Y-77651222D02*
X78308390Y-77832651D01*
X78308390Y-77832651D02*
X78362818Y-77953603D01*
X78362818Y-77953603D02*
X78417247Y-78014080D01*
X78417247Y-78014080D02*
X78526104Y-78074556D01*
X78526104Y-78074556D02*
X78961533Y-78074556D01*
X77274247Y-77409318D02*
X77818533Y-77409318D01*
X77818533Y-77409318D02*
X77872961Y-78014080D01*
X77872961Y-78014080D02*
X77818533Y-77953603D01*
X77818533Y-77953603D02*
X77709676Y-77893127D01*
X77709676Y-77893127D02*
X77437533Y-77893127D01*
X77437533Y-77893127D02*
X77328676Y-77953603D01*
X77328676Y-77953603D02*
X77274247Y-78014080D01*
X77274247Y-78014080D02*
X77219818Y-78135032D01*
X77219818Y-78135032D02*
X77219818Y-78437413D01*
X77219818Y-78437413D02*
X77274247Y-78558365D01*
X77274247Y-78558365D02*
X77328676Y-78618842D01*
X77328676Y-78618842D02*
X77437533Y-78679318D01*
X77437533Y-78679318D02*
X77709676Y-78679318D01*
X77709676Y-78679318D02*
X77818533Y-78618842D01*
X77818533Y-78618842D02*
X77872961Y-78558365D01*
X194814180Y-74869318D02*
X194814180Y-75776461D01*
X194814180Y-75776461D02*
X194868609Y-75957889D01*
X194868609Y-75957889D02*
X194977466Y-76078842D01*
X194977466Y-76078842D02*
X195140752Y-76139318D01*
X195140752Y-76139318D02*
X195249609Y-76139318D01*
X194269895Y-76139318D02*
X194269895Y-74869318D01*
X194269895Y-74869318D02*
X193834466Y-74869318D01*
X193834466Y-74869318D02*
X193725609Y-74929794D01*
X193725609Y-74929794D02*
X193671180Y-74990270D01*
X193671180Y-74990270D02*
X193616752Y-75111222D01*
X193616752Y-75111222D02*
X193616752Y-75292651D01*
X193616752Y-75292651D02*
X193671180Y-75413603D01*
X193671180Y-75413603D02*
X193725609Y-75474080D01*
X193725609Y-75474080D02*
X193834466Y-75534556D01*
X193834466Y-75534556D02*
X194269895Y-75534556D01*
X192528180Y-76139318D02*
X193181323Y-76139318D01*
X192854752Y-76139318D02*
X192854752Y-74869318D01*
X192854752Y-74869318D02*
X192963609Y-75050746D01*
X192963609Y-75050746D02*
X193072466Y-75171699D01*
X193072466Y-75171699D02*
X193181323Y-75232175D01*
X192092752Y-74990270D02*
X192038324Y-74929794D01*
X192038324Y-74929794D02*
X191929467Y-74869318D01*
X191929467Y-74869318D02*
X191657324Y-74869318D01*
X191657324Y-74869318D02*
X191548467Y-74929794D01*
X191548467Y-74929794D02*
X191494038Y-74990270D01*
X191494038Y-74990270D02*
X191439609Y-75111222D01*
X191439609Y-75111222D02*
X191439609Y-75232175D01*
X191439609Y-75232175D02*
X191494038Y-75413603D01*
X191494038Y-75413603D02*
X192147181Y-76139318D01*
X192147181Y-76139318D02*
X191439609Y-76139318D01*
X79505818Y-79949318D02*
X79505818Y-80856461D01*
X79505818Y-80856461D02*
X79560247Y-81037889D01*
X79560247Y-81037889D02*
X79669104Y-81158842D01*
X79669104Y-81158842D02*
X79832390Y-81219318D01*
X79832390Y-81219318D02*
X79941247Y-81219318D01*
X78961533Y-81219318D02*
X78961533Y-79949318D01*
X78961533Y-79949318D02*
X78526104Y-79949318D01*
X78526104Y-79949318D02*
X78417247Y-80009794D01*
X78417247Y-80009794D02*
X78362818Y-80070270D01*
X78362818Y-80070270D02*
X78308390Y-80191222D01*
X78308390Y-80191222D02*
X78308390Y-80372651D01*
X78308390Y-80372651D02*
X78362818Y-80493603D01*
X78362818Y-80493603D02*
X78417247Y-80554080D01*
X78417247Y-80554080D02*
X78526104Y-80614556D01*
X78526104Y-80614556D02*
X78961533Y-80614556D01*
X77328676Y-79949318D02*
X77546390Y-79949318D01*
X77546390Y-79949318D02*
X77655247Y-80009794D01*
X77655247Y-80009794D02*
X77709676Y-80070270D01*
X77709676Y-80070270D02*
X77818533Y-80251699D01*
X77818533Y-80251699D02*
X77872961Y-80493603D01*
X77872961Y-80493603D02*
X77872961Y-80977413D01*
X77872961Y-80977413D02*
X77818533Y-81098365D01*
X77818533Y-81098365D02*
X77764104Y-81158842D01*
X77764104Y-81158842D02*
X77655247Y-81219318D01*
X77655247Y-81219318D02*
X77437533Y-81219318D01*
X77437533Y-81219318D02*
X77328676Y-81158842D01*
X77328676Y-81158842D02*
X77274247Y-81098365D01*
X77274247Y-81098365D02*
X77219818Y-80977413D01*
X77219818Y-80977413D02*
X77219818Y-80675032D01*
X77219818Y-80675032D02*
X77274247Y-80554080D01*
X77274247Y-80554080D02*
X77328676Y-80493603D01*
X77328676Y-80493603D02*
X77437533Y-80433127D01*
X77437533Y-80433127D02*
X77655247Y-80433127D01*
X77655247Y-80433127D02*
X77764104Y-80493603D01*
X77764104Y-80493603D02*
X77818533Y-80554080D01*
X77818533Y-80554080D02*
X77872961Y-80675032D01*
X121462609Y-109131680D02*
X121517037Y-109204252D01*
X121517037Y-109204252D02*
X121680323Y-109276823D01*
X121680323Y-109276823D02*
X121789180Y-109276823D01*
X121789180Y-109276823D02*
X121952466Y-109204252D01*
X121952466Y-109204252D02*
X122061323Y-109059109D01*
X122061323Y-109059109D02*
X122115752Y-108913966D01*
X122115752Y-108913966D02*
X122170180Y-108623680D01*
X122170180Y-108623680D02*
X122170180Y-108405966D01*
X122170180Y-108405966D02*
X122115752Y-108115680D01*
X122115752Y-108115680D02*
X122061323Y-107970537D01*
X122061323Y-107970537D02*
X121952466Y-107825394D01*
X121952466Y-107825394D02*
X121789180Y-107752823D01*
X121789180Y-107752823D02*
X121680323Y-107752823D01*
X121680323Y-107752823D02*
X121517037Y-107825394D01*
X121517037Y-107825394D02*
X121462609Y-107897966D01*
X120972752Y-109276823D02*
X120972752Y-107752823D01*
X120972752Y-108478537D02*
X120319609Y-108478537D01*
X120319609Y-109276823D02*
X120319609Y-107752823D01*
X119122180Y-109131680D02*
X119176608Y-109204252D01*
X119176608Y-109204252D02*
X119339894Y-109276823D01*
X119339894Y-109276823D02*
X119448751Y-109276823D01*
X119448751Y-109276823D02*
X119612037Y-109204252D01*
X119612037Y-109204252D02*
X119720894Y-109059109D01*
X119720894Y-109059109D02*
X119775323Y-108913966D01*
X119775323Y-108913966D02*
X119829751Y-108623680D01*
X119829751Y-108623680D02*
X119829751Y-108405966D01*
X119829751Y-108405966D02*
X119775323Y-108115680D01*
X119775323Y-108115680D02*
X119720894Y-107970537D01*
X119720894Y-107970537D02*
X119612037Y-107825394D01*
X119612037Y-107825394D02*
X119448751Y-107752823D01*
X119448751Y-107752823D02*
X119339894Y-107752823D01*
X119339894Y-107752823D02*
X119176608Y-107825394D01*
X119176608Y-107825394D02*
X119122180Y-107897966D01*
X194814180Y-77409318D02*
X194814180Y-78316461D01*
X194814180Y-78316461D02*
X194868609Y-78497889D01*
X194868609Y-78497889D02*
X194977466Y-78618842D01*
X194977466Y-78618842D02*
X195140752Y-78679318D01*
X195140752Y-78679318D02*
X195249609Y-78679318D01*
X194269895Y-78679318D02*
X194269895Y-77409318D01*
X194269895Y-77409318D02*
X193834466Y-77409318D01*
X193834466Y-77409318D02*
X193725609Y-77469794D01*
X193725609Y-77469794D02*
X193671180Y-77530270D01*
X193671180Y-77530270D02*
X193616752Y-77651222D01*
X193616752Y-77651222D02*
X193616752Y-77832651D01*
X193616752Y-77832651D02*
X193671180Y-77953603D01*
X193671180Y-77953603D02*
X193725609Y-78014080D01*
X193725609Y-78014080D02*
X193834466Y-78074556D01*
X193834466Y-78074556D02*
X194269895Y-78074556D01*
X192528180Y-78679318D02*
X193181323Y-78679318D01*
X192854752Y-78679318D02*
X192854752Y-77409318D01*
X192854752Y-77409318D02*
X192963609Y-77590746D01*
X192963609Y-77590746D02*
X193072466Y-77711699D01*
X193072466Y-77711699D02*
X193181323Y-77772175D01*
X192147181Y-77409318D02*
X191439609Y-77409318D01*
X191439609Y-77409318D02*
X191820609Y-77893127D01*
X191820609Y-77893127D02*
X191657324Y-77893127D01*
X191657324Y-77893127D02*
X191548467Y-77953603D01*
X191548467Y-77953603D02*
X191494038Y-78014080D01*
X191494038Y-78014080D02*
X191439609Y-78135032D01*
X191439609Y-78135032D02*
X191439609Y-78437413D01*
X191439609Y-78437413D02*
X191494038Y-78558365D01*
X191494038Y-78558365D02*
X191548467Y-78618842D01*
X191548467Y-78618842D02*
X191657324Y-78679318D01*
X191657324Y-78679318D02*
X191983895Y-78679318D01*
X191983895Y-78679318D02*
X192092752Y-78618842D01*
X192092752Y-78618842D02*
X192147181Y-78558365D01*
D12*
X153809095Y-59639286D02*
X153760714Y-59566714D01*
X153760714Y-59566714D02*
X153663952Y-59494143D01*
X153663952Y-59494143D02*
X153422047Y-59494143D01*
X153422047Y-59494143D02*
X153325285Y-59566714D01*
X153325285Y-59566714D02*
X153276904Y-59639286D01*
X153276904Y-59639286D02*
X153228523Y-59784429D01*
X153228523Y-59784429D02*
X153228523Y-59929572D01*
X153228523Y-59929572D02*
X153276904Y-60147286D01*
X153276904Y-60147286D02*
X153857476Y-61018143D01*
X153857476Y-61018143D02*
X153228523Y-61018143D01*
X152841476Y-59639286D02*
X152793095Y-59566714D01*
X152793095Y-59566714D02*
X152696333Y-59494143D01*
X152696333Y-59494143D02*
X152454428Y-59494143D01*
X152454428Y-59494143D02*
X152357666Y-59566714D01*
X152357666Y-59566714D02*
X152309285Y-59639286D01*
X152309285Y-59639286D02*
X152260904Y-59784429D01*
X152260904Y-59784429D02*
X152260904Y-59929572D01*
X152260904Y-59929572D02*
X152309285Y-60147286D01*
X152309285Y-60147286D02*
X152889857Y-61018143D01*
X152889857Y-61018143D02*
X152260904Y-61018143D01*
X176717476Y-59494143D02*
X176088523Y-59494143D01*
X176088523Y-59494143D02*
X176427190Y-60074714D01*
X176427190Y-60074714D02*
X176282047Y-60074714D01*
X176282047Y-60074714D02*
X176185285Y-60147286D01*
X176185285Y-60147286D02*
X176136904Y-60219857D01*
X176136904Y-60219857D02*
X176088523Y-60365000D01*
X176088523Y-60365000D02*
X176088523Y-60727857D01*
X176088523Y-60727857D02*
X176136904Y-60873000D01*
X176136904Y-60873000D02*
X176185285Y-60945572D01*
X176185285Y-60945572D02*
X176282047Y-61018143D01*
X176282047Y-61018143D02*
X176572333Y-61018143D01*
X176572333Y-61018143D02*
X176669095Y-60945572D01*
X176669095Y-60945572D02*
X176717476Y-60873000D01*
X175120904Y-61018143D02*
X175701476Y-61018143D01*
X175411190Y-61018143D02*
X175411190Y-59494143D01*
X175411190Y-59494143D02*
X175507952Y-59711857D01*
X175507952Y-59711857D02*
X175604714Y-59857000D01*
X175604714Y-59857000D02*
X175701476Y-59929572D01*
X145705285Y-92659286D02*
X145656904Y-92586714D01*
X145656904Y-92586714D02*
X145560142Y-92514143D01*
X145560142Y-92514143D02*
X145318237Y-92514143D01*
X145318237Y-92514143D02*
X145221475Y-92586714D01*
X145221475Y-92586714D02*
X145173094Y-92659286D01*
X145173094Y-92659286D02*
X145124713Y-92804429D01*
X145124713Y-92804429D02*
X145124713Y-92949572D01*
X145124713Y-92949572D02*
X145173094Y-93167286D01*
X145173094Y-93167286D02*
X145753666Y-94038143D01*
X145753666Y-94038143D02*
X145124713Y-94038143D01*
X148729095Y-59639286D02*
X148680714Y-59566714D01*
X148680714Y-59566714D02*
X148583952Y-59494143D01*
X148583952Y-59494143D02*
X148342047Y-59494143D01*
X148342047Y-59494143D02*
X148245285Y-59566714D01*
X148245285Y-59566714D02*
X148196904Y-59639286D01*
X148196904Y-59639286D02*
X148148523Y-59784429D01*
X148148523Y-59784429D02*
X148148523Y-59929572D01*
X148148523Y-59929572D02*
X148196904Y-60147286D01*
X148196904Y-60147286D02*
X148777476Y-61018143D01*
X148777476Y-61018143D02*
X148148523Y-61018143D01*
X147519571Y-59494143D02*
X147422809Y-59494143D01*
X147422809Y-59494143D02*
X147326047Y-59566714D01*
X147326047Y-59566714D02*
X147277666Y-59639286D01*
X147277666Y-59639286D02*
X147229285Y-59784429D01*
X147229285Y-59784429D02*
X147180904Y-60074714D01*
X147180904Y-60074714D02*
X147180904Y-60437572D01*
X147180904Y-60437572D02*
X147229285Y-60727857D01*
X147229285Y-60727857D02*
X147277666Y-60873000D01*
X147277666Y-60873000D02*
X147326047Y-60945572D01*
X147326047Y-60945572D02*
X147422809Y-61018143D01*
X147422809Y-61018143D02*
X147519571Y-61018143D01*
X147519571Y-61018143D02*
X147616333Y-60945572D01*
X147616333Y-60945572D02*
X147664714Y-60873000D01*
X147664714Y-60873000D02*
X147713095Y-60727857D01*
X147713095Y-60727857D02*
X147761476Y-60437572D01*
X147761476Y-60437572D02*
X147761476Y-60074714D01*
X147761476Y-60074714D02*
X147713095Y-59784429D01*
X147713095Y-59784429D02*
X147664714Y-59639286D01*
X147664714Y-59639286D02*
X147616333Y-59566714D01*
X147616333Y-59566714D02*
X147519571Y-59494143D01*
X173548523Y-94038143D02*
X174129095Y-94038143D01*
X173838809Y-94038143D02*
X173838809Y-92514143D01*
X173838809Y-92514143D02*
X173935571Y-92731857D01*
X173935571Y-92731857D02*
X174032333Y-92877000D01*
X174032333Y-92877000D02*
X174129095Y-92949572D01*
X173209857Y-92514143D02*
X172580904Y-92514143D01*
X172580904Y-92514143D02*
X172919571Y-93094714D01*
X172919571Y-93094714D02*
X172774428Y-93094714D01*
X172774428Y-93094714D02*
X172677666Y-93167286D01*
X172677666Y-93167286D02*
X172629285Y-93239857D01*
X172629285Y-93239857D02*
X172580904Y-93385000D01*
X172580904Y-93385000D02*
X172580904Y-93747857D01*
X172580904Y-93747857D02*
X172629285Y-93893000D01*
X172629285Y-93893000D02*
X172677666Y-93965572D01*
X172677666Y-93965572D02*
X172774428Y-94038143D01*
X172774428Y-94038143D02*
X173064714Y-94038143D01*
X173064714Y-94038143D02*
X173161476Y-93965572D01*
X173161476Y-93965572D02*
X173209857Y-93893000D01*
X168468523Y-94038143D02*
X169049095Y-94038143D01*
X168758809Y-94038143D02*
X168758809Y-92514143D01*
X168758809Y-92514143D02*
X168855571Y-92731857D01*
X168855571Y-92731857D02*
X168952333Y-92877000D01*
X168952333Y-92877000D02*
X169049095Y-92949572D01*
X167500904Y-94038143D02*
X168081476Y-94038143D01*
X167791190Y-94038143D02*
X167791190Y-92514143D01*
X167791190Y-92514143D02*
X167887952Y-92731857D01*
X167887952Y-92731857D02*
X167984714Y-92877000D01*
X167984714Y-92877000D02*
X168081476Y-92949572D01*
X165928523Y-94038143D02*
X166509095Y-94038143D01*
X166218809Y-94038143D02*
X166218809Y-92514143D01*
X166218809Y-92514143D02*
X166315571Y-92731857D01*
X166315571Y-92731857D02*
X166412333Y-92877000D01*
X166412333Y-92877000D02*
X166509095Y-92949572D01*
X165299571Y-92514143D02*
X165202809Y-92514143D01*
X165202809Y-92514143D02*
X165106047Y-92586714D01*
X165106047Y-92586714D02*
X165057666Y-92659286D01*
X165057666Y-92659286D02*
X165009285Y-92804429D01*
X165009285Y-92804429D02*
X164960904Y-93094714D01*
X164960904Y-93094714D02*
X164960904Y-93457572D01*
X164960904Y-93457572D02*
X165009285Y-93747857D01*
X165009285Y-93747857D02*
X165057666Y-93893000D01*
X165057666Y-93893000D02*
X165106047Y-93965572D01*
X165106047Y-93965572D02*
X165202809Y-94038143D01*
X165202809Y-94038143D02*
X165299571Y-94038143D01*
X165299571Y-94038143D02*
X165396333Y-93965572D01*
X165396333Y-93965572D02*
X165444714Y-93893000D01*
X165444714Y-93893000D02*
X165493095Y-93747857D01*
X165493095Y-93747857D02*
X165541476Y-93457572D01*
X165541476Y-93457572D02*
X165541476Y-93094714D01*
X165541476Y-93094714D02*
X165493095Y-92804429D01*
X165493095Y-92804429D02*
X165444714Y-92659286D01*
X165444714Y-92659286D02*
X165396333Y-92586714D01*
X165396333Y-92586714D02*
X165299571Y-92514143D01*
X179257476Y-59494143D02*
X178628523Y-59494143D01*
X178628523Y-59494143D02*
X178967190Y-60074714D01*
X178967190Y-60074714D02*
X178822047Y-60074714D01*
X178822047Y-60074714D02*
X178725285Y-60147286D01*
X178725285Y-60147286D02*
X178676904Y-60219857D01*
X178676904Y-60219857D02*
X178628523Y-60365000D01*
X178628523Y-60365000D02*
X178628523Y-60727857D01*
X178628523Y-60727857D02*
X178676904Y-60873000D01*
X178676904Y-60873000D02*
X178725285Y-60945572D01*
X178725285Y-60945572D02*
X178822047Y-61018143D01*
X178822047Y-61018143D02*
X179112333Y-61018143D01*
X179112333Y-61018143D02*
X179209095Y-60945572D01*
X179209095Y-60945572D02*
X179257476Y-60873000D01*
X178241476Y-59639286D02*
X178193095Y-59566714D01*
X178193095Y-59566714D02*
X178096333Y-59494143D01*
X178096333Y-59494143D02*
X177854428Y-59494143D01*
X177854428Y-59494143D02*
X177757666Y-59566714D01*
X177757666Y-59566714D02*
X177709285Y-59639286D01*
X177709285Y-59639286D02*
X177660904Y-59784429D01*
X177660904Y-59784429D02*
X177660904Y-59929572D01*
X177660904Y-59929572D02*
X177709285Y-60147286D01*
X177709285Y-60147286D02*
X178289857Y-61018143D01*
X178289857Y-61018143D02*
X177660904Y-61018143D01*
X163388523Y-94038143D02*
X163194999Y-94038143D01*
X163194999Y-94038143D02*
X163098237Y-93965572D01*
X163098237Y-93965572D02*
X163049856Y-93893000D01*
X163049856Y-93893000D02*
X162953094Y-93675286D01*
X162953094Y-93675286D02*
X162904713Y-93385000D01*
X162904713Y-93385000D02*
X162904713Y-92804429D01*
X162904713Y-92804429D02*
X162953094Y-92659286D01*
X162953094Y-92659286D02*
X163001475Y-92586714D01*
X163001475Y-92586714D02*
X163098237Y-92514143D01*
X163098237Y-92514143D02*
X163291761Y-92514143D01*
X163291761Y-92514143D02*
X163388523Y-92586714D01*
X163388523Y-92586714D02*
X163436904Y-92659286D01*
X163436904Y-92659286D02*
X163485285Y-92804429D01*
X163485285Y-92804429D02*
X163485285Y-93167286D01*
X163485285Y-93167286D02*
X163436904Y-93312429D01*
X163436904Y-93312429D02*
X163388523Y-93385000D01*
X163388523Y-93385000D02*
X163291761Y-93457572D01*
X163291761Y-93457572D02*
X163098237Y-93457572D01*
X163098237Y-93457572D02*
X163001475Y-93385000D01*
X163001475Y-93385000D02*
X162953094Y-93312429D01*
X162953094Y-93312429D02*
X162904713Y-93167286D01*
X181797476Y-59494143D02*
X181168523Y-59494143D01*
X181168523Y-59494143D02*
X181507190Y-60074714D01*
X181507190Y-60074714D02*
X181362047Y-60074714D01*
X181362047Y-60074714D02*
X181265285Y-60147286D01*
X181265285Y-60147286D02*
X181216904Y-60219857D01*
X181216904Y-60219857D02*
X181168523Y-60365000D01*
X181168523Y-60365000D02*
X181168523Y-60727857D01*
X181168523Y-60727857D02*
X181216904Y-60873000D01*
X181216904Y-60873000D02*
X181265285Y-60945572D01*
X181265285Y-60945572D02*
X181362047Y-61018143D01*
X181362047Y-61018143D02*
X181652333Y-61018143D01*
X181652333Y-61018143D02*
X181749095Y-60945572D01*
X181749095Y-60945572D02*
X181797476Y-60873000D01*
X180829857Y-59494143D02*
X180200904Y-59494143D01*
X180200904Y-59494143D02*
X180539571Y-60074714D01*
X180539571Y-60074714D02*
X180394428Y-60074714D01*
X180394428Y-60074714D02*
X180297666Y-60147286D01*
X180297666Y-60147286D02*
X180249285Y-60219857D01*
X180249285Y-60219857D02*
X180200904Y-60365000D01*
X180200904Y-60365000D02*
X180200904Y-60727857D01*
X180200904Y-60727857D02*
X180249285Y-60873000D01*
X180249285Y-60873000D02*
X180297666Y-60945572D01*
X180297666Y-60945572D02*
X180394428Y-61018143D01*
X180394428Y-61018143D02*
X180684714Y-61018143D01*
X180684714Y-61018143D02*
X180781476Y-60945572D01*
X180781476Y-60945572D02*
X180829857Y-60873000D01*
X150301475Y-93022143D02*
X150301475Y-94038143D01*
X150543380Y-92441572D02*
X150785285Y-93530143D01*
X150785285Y-93530143D02*
X150156332Y-93530143D01*
X160751761Y-93167286D02*
X160848523Y-93094714D01*
X160848523Y-93094714D02*
X160896904Y-93022143D01*
X160896904Y-93022143D02*
X160945285Y-92877000D01*
X160945285Y-92877000D02*
X160945285Y-92804429D01*
X160945285Y-92804429D02*
X160896904Y-92659286D01*
X160896904Y-92659286D02*
X160848523Y-92586714D01*
X160848523Y-92586714D02*
X160751761Y-92514143D01*
X160751761Y-92514143D02*
X160558237Y-92514143D01*
X160558237Y-92514143D02*
X160461475Y-92586714D01*
X160461475Y-92586714D02*
X160413094Y-92659286D01*
X160413094Y-92659286D02*
X160364713Y-92804429D01*
X160364713Y-92804429D02*
X160364713Y-92877000D01*
X160364713Y-92877000D02*
X160413094Y-93022143D01*
X160413094Y-93022143D02*
X160461475Y-93094714D01*
X160461475Y-93094714D02*
X160558237Y-93167286D01*
X160558237Y-93167286D02*
X160751761Y-93167286D01*
X160751761Y-93167286D02*
X160848523Y-93239857D01*
X160848523Y-93239857D02*
X160896904Y-93312429D01*
X160896904Y-93312429D02*
X160945285Y-93457572D01*
X160945285Y-93457572D02*
X160945285Y-93747857D01*
X160945285Y-93747857D02*
X160896904Y-93893000D01*
X160896904Y-93893000D02*
X160848523Y-93965572D01*
X160848523Y-93965572D02*
X160751761Y-94038143D01*
X160751761Y-94038143D02*
X160558237Y-94038143D01*
X160558237Y-94038143D02*
X160461475Y-93965572D01*
X160461475Y-93965572D02*
X160413094Y-93893000D01*
X160413094Y-93893000D02*
X160364713Y-93747857D01*
X160364713Y-93747857D02*
X160364713Y-93457572D01*
X160364713Y-93457572D02*
X160413094Y-93312429D01*
X160413094Y-93312429D02*
X160461475Y-93239857D01*
X160461475Y-93239857D02*
X160558237Y-93167286D01*
X166509095Y-59639286D02*
X166460714Y-59566714D01*
X166460714Y-59566714D02*
X166363952Y-59494143D01*
X166363952Y-59494143D02*
X166122047Y-59494143D01*
X166122047Y-59494143D02*
X166025285Y-59566714D01*
X166025285Y-59566714D02*
X165976904Y-59639286D01*
X165976904Y-59639286D02*
X165928523Y-59784429D01*
X165928523Y-59784429D02*
X165928523Y-59929572D01*
X165928523Y-59929572D02*
X165976904Y-60147286D01*
X165976904Y-60147286D02*
X166557476Y-61018143D01*
X166557476Y-61018143D02*
X165928523Y-61018143D01*
X165589857Y-59494143D02*
X164912523Y-59494143D01*
X164912523Y-59494143D02*
X165347952Y-61018143D01*
X155381475Y-92514143D02*
X155574999Y-92514143D01*
X155574999Y-92514143D02*
X155671761Y-92586714D01*
X155671761Y-92586714D02*
X155720142Y-92659286D01*
X155720142Y-92659286D02*
X155816904Y-92877000D01*
X155816904Y-92877000D02*
X155865285Y-93167286D01*
X155865285Y-93167286D02*
X155865285Y-93747857D01*
X155865285Y-93747857D02*
X155816904Y-93893000D01*
X155816904Y-93893000D02*
X155768523Y-93965572D01*
X155768523Y-93965572D02*
X155671761Y-94038143D01*
X155671761Y-94038143D02*
X155478237Y-94038143D01*
X155478237Y-94038143D02*
X155381475Y-93965572D01*
X155381475Y-93965572D02*
X155333094Y-93893000D01*
X155333094Y-93893000D02*
X155284713Y-93747857D01*
X155284713Y-93747857D02*
X155284713Y-93385000D01*
X155284713Y-93385000D02*
X155333094Y-93239857D01*
X155333094Y-93239857D02*
X155381475Y-93167286D01*
X155381475Y-93167286D02*
X155478237Y-93094714D01*
X155478237Y-93094714D02*
X155671761Y-93094714D01*
X155671761Y-93094714D02*
X155768523Y-93167286D01*
X155768523Y-93167286D02*
X155816904Y-93239857D01*
X155816904Y-93239857D02*
X155865285Y-93385000D01*
X181168523Y-94038143D02*
X181749095Y-94038143D01*
X181458809Y-94038143D02*
X181458809Y-92514143D01*
X181458809Y-92514143D02*
X181555571Y-92731857D01*
X181555571Y-92731857D02*
X181652333Y-92877000D01*
X181652333Y-92877000D02*
X181749095Y-92949572D01*
X180297666Y-92514143D02*
X180491190Y-92514143D01*
X180491190Y-92514143D02*
X180587952Y-92586714D01*
X180587952Y-92586714D02*
X180636333Y-92659286D01*
X180636333Y-92659286D02*
X180733095Y-92877000D01*
X180733095Y-92877000D02*
X180781476Y-93167286D01*
X180781476Y-93167286D02*
X180781476Y-93747857D01*
X180781476Y-93747857D02*
X180733095Y-93893000D01*
X180733095Y-93893000D02*
X180684714Y-93965572D01*
X180684714Y-93965572D02*
X180587952Y-94038143D01*
X180587952Y-94038143D02*
X180394428Y-94038143D01*
X180394428Y-94038143D02*
X180297666Y-93965572D01*
X180297666Y-93965572D02*
X180249285Y-93893000D01*
X180249285Y-93893000D02*
X180200904Y-93747857D01*
X180200904Y-93747857D02*
X180200904Y-93385000D01*
X180200904Y-93385000D02*
X180249285Y-93239857D01*
X180249285Y-93239857D02*
X180297666Y-93167286D01*
X180297666Y-93167286D02*
X180394428Y-93094714D01*
X180394428Y-93094714D02*
X180587952Y-93094714D01*
X180587952Y-93094714D02*
X180684714Y-93167286D01*
X180684714Y-93167286D02*
X180733095Y-93239857D01*
X180733095Y-93239857D02*
X180781476Y-93385000D01*
X174177476Y-59494143D02*
X173548523Y-59494143D01*
X173548523Y-59494143D02*
X173887190Y-60074714D01*
X173887190Y-60074714D02*
X173742047Y-60074714D01*
X173742047Y-60074714D02*
X173645285Y-60147286D01*
X173645285Y-60147286D02*
X173596904Y-60219857D01*
X173596904Y-60219857D02*
X173548523Y-60365000D01*
X173548523Y-60365000D02*
X173548523Y-60727857D01*
X173548523Y-60727857D02*
X173596904Y-60873000D01*
X173596904Y-60873000D02*
X173645285Y-60945572D01*
X173645285Y-60945572D02*
X173742047Y-61018143D01*
X173742047Y-61018143D02*
X174032333Y-61018143D01*
X174032333Y-61018143D02*
X174129095Y-60945572D01*
X174129095Y-60945572D02*
X174177476Y-60873000D01*
X172919571Y-59494143D02*
X172822809Y-59494143D01*
X172822809Y-59494143D02*
X172726047Y-59566714D01*
X172726047Y-59566714D02*
X172677666Y-59639286D01*
X172677666Y-59639286D02*
X172629285Y-59784429D01*
X172629285Y-59784429D02*
X172580904Y-60074714D01*
X172580904Y-60074714D02*
X172580904Y-60437572D01*
X172580904Y-60437572D02*
X172629285Y-60727857D01*
X172629285Y-60727857D02*
X172677666Y-60873000D01*
X172677666Y-60873000D02*
X172726047Y-60945572D01*
X172726047Y-60945572D02*
X172822809Y-61018143D01*
X172822809Y-61018143D02*
X172919571Y-61018143D01*
X172919571Y-61018143D02*
X173016333Y-60945572D01*
X173016333Y-60945572D02*
X173064714Y-60873000D01*
X173064714Y-60873000D02*
X173113095Y-60727857D01*
X173113095Y-60727857D02*
X173161476Y-60437572D01*
X173161476Y-60437572D02*
X173161476Y-60074714D01*
X173161476Y-60074714D02*
X173113095Y-59784429D01*
X173113095Y-59784429D02*
X173064714Y-59639286D01*
X173064714Y-59639286D02*
X173016333Y-59566714D01*
X173016333Y-59566714D02*
X172919571Y-59494143D01*
X143068523Y-61018143D02*
X143649095Y-61018143D01*
X143358809Y-61018143D02*
X143358809Y-59494143D01*
X143358809Y-59494143D02*
X143455571Y-59711857D01*
X143455571Y-59711857D02*
X143552333Y-59857000D01*
X143552333Y-59857000D02*
X143649095Y-59929572D01*
X142487952Y-60147286D02*
X142584714Y-60074714D01*
X142584714Y-60074714D02*
X142633095Y-60002143D01*
X142633095Y-60002143D02*
X142681476Y-59857000D01*
X142681476Y-59857000D02*
X142681476Y-59784429D01*
X142681476Y-59784429D02*
X142633095Y-59639286D01*
X142633095Y-59639286D02*
X142584714Y-59566714D01*
X142584714Y-59566714D02*
X142487952Y-59494143D01*
X142487952Y-59494143D02*
X142294428Y-59494143D01*
X142294428Y-59494143D02*
X142197666Y-59566714D01*
X142197666Y-59566714D02*
X142149285Y-59639286D01*
X142149285Y-59639286D02*
X142100904Y-59784429D01*
X142100904Y-59784429D02*
X142100904Y-59857000D01*
X142100904Y-59857000D02*
X142149285Y-60002143D01*
X142149285Y-60002143D02*
X142197666Y-60074714D01*
X142197666Y-60074714D02*
X142294428Y-60147286D01*
X142294428Y-60147286D02*
X142487952Y-60147286D01*
X142487952Y-60147286D02*
X142584714Y-60219857D01*
X142584714Y-60219857D02*
X142633095Y-60292429D01*
X142633095Y-60292429D02*
X142681476Y-60437572D01*
X142681476Y-60437572D02*
X142681476Y-60727857D01*
X142681476Y-60727857D02*
X142633095Y-60873000D01*
X142633095Y-60873000D02*
X142584714Y-60945572D01*
X142584714Y-60945572D02*
X142487952Y-61018143D01*
X142487952Y-61018143D02*
X142294428Y-61018143D01*
X142294428Y-61018143D02*
X142197666Y-60945572D01*
X142197666Y-60945572D02*
X142149285Y-60873000D01*
X142149285Y-60873000D02*
X142100904Y-60727857D01*
X142100904Y-60727857D02*
X142100904Y-60437572D01*
X142100904Y-60437572D02*
X142149285Y-60292429D01*
X142149285Y-60292429D02*
X142197666Y-60219857D01*
X142197666Y-60219857D02*
X142294428Y-60147286D01*
X183708523Y-94038143D02*
X184289095Y-94038143D01*
X183998809Y-94038143D02*
X183998809Y-92514143D01*
X183998809Y-92514143D02*
X184095571Y-92731857D01*
X184095571Y-92731857D02*
X184192333Y-92877000D01*
X184192333Y-92877000D02*
X184289095Y-92949572D01*
X183369857Y-92514143D02*
X182692523Y-92514143D01*
X182692523Y-92514143D02*
X183127952Y-94038143D01*
X158453666Y-92514143D02*
X157776332Y-92514143D01*
X157776332Y-92514143D02*
X158211761Y-94038143D01*
X151269095Y-59639286D02*
X151220714Y-59566714D01*
X151220714Y-59566714D02*
X151123952Y-59494143D01*
X151123952Y-59494143D02*
X150882047Y-59494143D01*
X150882047Y-59494143D02*
X150785285Y-59566714D01*
X150785285Y-59566714D02*
X150736904Y-59639286D01*
X150736904Y-59639286D02*
X150688523Y-59784429D01*
X150688523Y-59784429D02*
X150688523Y-59929572D01*
X150688523Y-59929572D02*
X150736904Y-60147286D01*
X150736904Y-60147286D02*
X151317476Y-61018143D01*
X151317476Y-61018143D02*
X150688523Y-61018143D01*
X149720904Y-61018143D02*
X150301476Y-61018143D01*
X150011190Y-61018143D02*
X150011190Y-59494143D01*
X150011190Y-59494143D02*
X150107952Y-59711857D01*
X150107952Y-59711857D02*
X150204714Y-59857000D01*
X150204714Y-59857000D02*
X150301476Y-59929572D01*
X163969095Y-59639286D02*
X163920714Y-59566714D01*
X163920714Y-59566714D02*
X163823952Y-59494143D01*
X163823952Y-59494143D02*
X163582047Y-59494143D01*
X163582047Y-59494143D02*
X163485285Y-59566714D01*
X163485285Y-59566714D02*
X163436904Y-59639286D01*
X163436904Y-59639286D02*
X163388523Y-59784429D01*
X163388523Y-59784429D02*
X163388523Y-59929572D01*
X163388523Y-59929572D02*
X163436904Y-60147286D01*
X163436904Y-60147286D02*
X164017476Y-61018143D01*
X164017476Y-61018143D02*
X163388523Y-61018143D01*
X162517666Y-59494143D02*
X162711190Y-59494143D01*
X162711190Y-59494143D02*
X162807952Y-59566714D01*
X162807952Y-59566714D02*
X162856333Y-59639286D01*
X162856333Y-59639286D02*
X162953095Y-59857000D01*
X162953095Y-59857000D02*
X163001476Y-60147286D01*
X163001476Y-60147286D02*
X163001476Y-60727857D01*
X163001476Y-60727857D02*
X162953095Y-60873000D01*
X162953095Y-60873000D02*
X162904714Y-60945572D01*
X162904714Y-60945572D02*
X162807952Y-61018143D01*
X162807952Y-61018143D02*
X162614428Y-61018143D01*
X162614428Y-61018143D02*
X162517666Y-60945572D01*
X162517666Y-60945572D02*
X162469285Y-60873000D01*
X162469285Y-60873000D02*
X162420904Y-60727857D01*
X162420904Y-60727857D02*
X162420904Y-60365000D01*
X162420904Y-60365000D02*
X162469285Y-60219857D01*
X162469285Y-60219857D02*
X162517666Y-60147286D01*
X162517666Y-60147286D02*
X162614428Y-60074714D01*
X162614428Y-60074714D02*
X162807952Y-60074714D01*
X162807952Y-60074714D02*
X162904714Y-60147286D01*
X162904714Y-60147286D02*
X162953095Y-60219857D01*
X162953095Y-60219857D02*
X163001476Y-60365000D01*
X184337476Y-59494143D02*
X183708523Y-59494143D01*
X183708523Y-59494143D02*
X184047190Y-60074714D01*
X184047190Y-60074714D02*
X183902047Y-60074714D01*
X183902047Y-60074714D02*
X183805285Y-60147286D01*
X183805285Y-60147286D02*
X183756904Y-60219857D01*
X183756904Y-60219857D02*
X183708523Y-60365000D01*
X183708523Y-60365000D02*
X183708523Y-60727857D01*
X183708523Y-60727857D02*
X183756904Y-60873000D01*
X183756904Y-60873000D02*
X183805285Y-60945572D01*
X183805285Y-60945572D02*
X183902047Y-61018143D01*
X183902047Y-61018143D02*
X184192333Y-61018143D01*
X184192333Y-61018143D02*
X184289095Y-60945572D01*
X184289095Y-60945572D02*
X184337476Y-60873000D01*
X182837666Y-60002143D02*
X182837666Y-61018143D01*
X183079571Y-59421572D02*
X183321476Y-60510143D01*
X183321476Y-60510143D02*
X182692523Y-60510143D01*
X158889095Y-59639286D02*
X158840714Y-59566714D01*
X158840714Y-59566714D02*
X158743952Y-59494143D01*
X158743952Y-59494143D02*
X158502047Y-59494143D01*
X158502047Y-59494143D02*
X158405285Y-59566714D01*
X158405285Y-59566714D02*
X158356904Y-59639286D01*
X158356904Y-59639286D02*
X158308523Y-59784429D01*
X158308523Y-59784429D02*
X158308523Y-59929572D01*
X158308523Y-59929572D02*
X158356904Y-60147286D01*
X158356904Y-60147286D02*
X158937476Y-61018143D01*
X158937476Y-61018143D02*
X158308523Y-61018143D01*
X157437666Y-60002143D02*
X157437666Y-61018143D01*
X157679571Y-59421572D02*
X157921476Y-60510143D01*
X157921476Y-60510143D02*
X157292523Y-60510143D01*
X156349095Y-59639286D02*
X156300714Y-59566714D01*
X156300714Y-59566714D02*
X156203952Y-59494143D01*
X156203952Y-59494143D02*
X155962047Y-59494143D01*
X155962047Y-59494143D02*
X155865285Y-59566714D01*
X155865285Y-59566714D02*
X155816904Y-59639286D01*
X155816904Y-59639286D02*
X155768523Y-59784429D01*
X155768523Y-59784429D02*
X155768523Y-59929572D01*
X155768523Y-59929572D02*
X155816904Y-60147286D01*
X155816904Y-60147286D02*
X156397476Y-61018143D01*
X156397476Y-61018143D02*
X155768523Y-61018143D01*
X155429857Y-59494143D02*
X154800904Y-59494143D01*
X154800904Y-59494143D02*
X155139571Y-60074714D01*
X155139571Y-60074714D02*
X154994428Y-60074714D01*
X154994428Y-60074714D02*
X154897666Y-60147286D01*
X154897666Y-60147286D02*
X154849285Y-60219857D01*
X154849285Y-60219857D02*
X154800904Y-60365000D01*
X154800904Y-60365000D02*
X154800904Y-60727857D01*
X154800904Y-60727857D02*
X154849285Y-60873000D01*
X154849285Y-60873000D02*
X154897666Y-60945572D01*
X154897666Y-60945572D02*
X154994428Y-61018143D01*
X154994428Y-61018143D02*
X155284714Y-61018143D01*
X155284714Y-61018143D02*
X155381476Y-60945572D01*
X155381476Y-60945572D02*
X155429857Y-60873000D01*
X148293666Y-92514143D02*
X147664713Y-92514143D01*
X147664713Y-92514143D02*
X148003380Y-93094714D01*
X148003380Y-93094714D02*
X147858237Y-93094714D01*
X147858237Y-93094714D02*
X147761475Y-93167286D01*
X147761475Y-93167286D02*
X147713094Y-93239857D01*
X147713094Y-93239857D02*
X147664713Y-93385000D01*
X147664713Y-93385000D02*
X147664713Y-93747857D01*
X147664713Y-93747857D02*
X147713094Y-93893000D01*
X147713094Y-93893000D02*
X147761475Y-93965572D01*
X147761475Y-93965572D02*
X147858237Y-94038143D01*
X147858237Y-94038143D02*
X148148523Y-94038143D01*
X148148523Y-94038143D02*
X148245285Y-93965572D01*
X148245285Y-93965572D02*
X148293666Y-93893000D01*
X145608523Y-61018143D02*
X146189095Y-61018143D01*
X145898809Y-61018143D02*
X145898809Y-59494143D01*
X145898809Y-59494143D02*
X145995571Y-59711857D01*
X145995571Y-59711857D02*
X146092333Y-59857000D01*
X146092333Y-59857000D02*
X146189095Y-59929572D01*
X145124714Y-61018143D02*
X144931190Y-61018143D01*
X144931190Y-61018143D02*
X144834428Y-60945572D01*
X144834428Y-60945572D02*
X144786047Y-60873000D01*
X144786047Y-60873000D02*
X144689285Y-60655286D01*
X144689285Y-60655286D02*
X144640904Y-60365000D01*
X144640904Y-60365000D02*
X144640904Y-59784429D01*
X144640904Y-59784429D02*
X144689285Y-59639286D01*
X144689285Y-59639286D02*
X144737666Y-59566714D01*
X144737666Y-59566714D02*
X144834428Y-59494143D01*
X144834428Y-59494143D02*
X145027952Y-59494143D01*
X145027952Y-59494143D02*
X145124714Y-59566714D01*
X145124714Y-59566714D02*
X145173095Y-59639286D01*
X145173095Y-59639286D02*
X145221476Y-59784429D01*
X145221476Y-59784429D02*
X145221476Y-60147286D01*
X145221476Y-60147286D02*
X145173095Y-60292429D01*
X145173095Y-60292429D02*
X145124714Y-60365000D01*
X145124714Y-60365000D02*
X145027952Y-60437572D01*
X145027952Y-60437572D02*
X144834428Y-60437572D01*
X144834428Y-60437572D02*
X144737666Y-60365000D01*
X144737666Y-60365000D02*
X144689285Y-60292429D01*
X144689285Y-60292429D02*
X144640904Y-60147286D01*
X171589095Y-59639286D02*
X171540714Y-59566714D01*
X171540714Y-59566714D02*
X171443952Y-59494143D01*
X171443952Y-59494143D02*
X171202047Y-59494143D01*
X171202047Y-59494143D02*
X171105285Y-59566714D01*
X171105285Y-59566714D02*
X171056904Y-59639286D01*
X171056904Y-59639286D02*
X171008523Y-59784429D01*
X171008523Y-59784429D02*
X171008523Y-59929572D01*
X171008523Y-59929572D02*
X171056904Y-60147286D01*
X171056904Y-60147286D02*
X171637476Y-61018143D01*
X171637476Y-61018143D02*
X171008523Y-61018143D01*
X170524714Y-61018143D02*
X170331190Y-61018143D01*
X170331190Y-61018143D02*
X170234428Y-60945572D01*
X170234428Y-60945572D02*
X170186047Y-60873000D01*
X170186047Y-60873000D02*
X170089285Y-60655286D01*
X170089285Y-60655286D02*
X170040904Y-60365000D01*
X170040904Y-60365000D02*
X170040904Y-59784429D01*
X170040904Y-59784429D02*
X170089285Y-59639286D01*
X170089285Y-59639286D02*
X170137666Y-59566714D01*
X170137666Y-59566714D02*
X170234428Y-59494143D01*
X170234428Y-59494143D02*
X170427952Y-59494143D01*
X170427952Y-59494143D02*
X170524714Y-59566714D01*
X170524714Y-59566714D02*
X170573095Y-59639286D01*
X170573095Y-59639286D02*
X170621476Y-59784429D01*
X170621476Y-59784429D02*
X170621476Y-60147286D01*
X170621476Y-60147286D02*
X170573095Y-60292429D01*
X170573095Y-60292429D02*
X170524714Y-60365000D01*
X170524714Y-60365000D02*
X170427952Y-60437572D01*
X170427952Y-60437572D02*
X170234428Y-60437572D01*
X170234428Y-60437572D02*
X170137666Y-60365000D01*
X170137666Y-60365000D02*
X170089285Y-60292429D01*
X170089285Y-60292429D02*
X170040904Y-60147286D01*
X176088523Y-94038143D02*
X176669095Y-94038143D01*
X176378809Y-94038143D02*
X176378809Y-92514143D01*
X176378809Y-92514143D02*
X176475571Y-92731857D01*
X176475571Y-92731857D02*
X176572333Y-92877000D01*
X176572333Y-92877000D02*
X176669095Y-92949572D01*
X175217666Y-93022143D02*
X175217666Y-94038143D01*
X175459571Y-92441572D02*
X175701476Y-93530143D01*
X175701476Y-93530143D02*
X175072523Y-93530143D01*
X161429095Y-59639286D02*
X161380714Y-59566714D01*
X161380714Y-59566714D02*
X161283952Y-59494143D01*
X161283952Y-59494143D02*
X161042047Y-59494143D01*
X161042047Y-59494143D02*
X160945285Y-59566714D01*
X160945285Y-59566714D02*
X160896904Y-59639286D01*
X160896904Y-59639286D02*
X160848523Y-59784429D01*
X160848523Y-59784429D02*
X160848523Y-59929572D01*
X160848523Y-59929572D02*
X160896904Y-60147286D01*
X160896904Y-60147286D02*
X161477476Y-61018143D01*
X161477476Y-61018143D02*
X160848523Y-61018143D01*
X159929285Y-59494143D02*
X160413095Y-59494143D01*
X160413095Y-59494143D02*
X160461476Y-60219857D01*
X160461476Y-60219857D02*
X160413095Y-60147286D01*
X160413095Y-60147286D02*
X160316333Y-60074714D01*
X160316333Y-60074714D02*
X160074428Y-60074714D01*
X160074428Y-60074714D02*
X159977666Y-60147286D01*
X159977666Y-60147286D02*
X159929285Y-60219857D01*
X159929285Y-60219857D02*
X159880904Y-60365000D01*
X159880904Y-60365000D02*
X159880904Y-60727857D01*
X159880904Y-60727857D02*
X159929285Y-60873000D01*
X159929285Y-60873000D02*
X159977666Y-60945572D01*
X159977666Y-60945572D02*
X160074428Y-61018143D01*
X160074428Y-61018143D02*
X160316333Y-61018143D01*
X160316333Y-61018143D02*
X160413095Y-60945572D01*
X160413095Y-60945572D02*
X160461476Y-60873000D01*
X169049095Y-59639286D02*
X169000714Y-59566714D01*
X169000714Y-59566714D02*
X168903952Y-59494143D01*
X168903952Y-59494143D02*
X168662047Y-59494143D01*
X168662047Y-59494143D02*
X168565285Y-59566714D01*
X168565285Y-59566714D02*
X168516904Y-59639286D01*
X168516904Y-59639286D02*
X168468523Y-59784429D01*
X168468523Y-59784429D02*
X168468523Y-59929572D01*
X168468523Y-59929572D02*
X168516904Y-60147286D01*
X168516904Y-60147286D02*
X169097476Y-61018143D01*
X169097476Y-61018143D02*
X168468523Y-61018143D01*
X167887952Y-60147286D02*
X167984714Y-60074714D01*
X167984714Y-60074714D02*
X168033095Y-60002143D01*
X168033095Y-60002143D02*
X168081476Y-59857000D01*
X168081476Y-59857000D02*
X168081476Y-59784429D01*
X168081476Y-59784429D02*
X168033095Y-59639286D01*
X168033095Y-59639286D02*
X167984714Y-59566714D01*
X167984714Y-59566714D02*
X167887952Y-59494143D01*
X167887952Y-59494143D02*
X167694428Y-59494143D01*
X167694428Y-59494143D02*
X167597666Y-59566714D01*
X167597666Y-59566714D02*
X167549285Y-59639286D01*
X167549285Y-59639286D02*
X167500904Y-59784429D01*
X167500904Y-59784429D02*
X167500904Y-59857000D01*
X167500904Y-59857000D02*
X167549285Y-60002143D01*
X167549285Y-60002143D02*
X167597666Y-60074714D01*
X167597666Y-60074714D02*
X167694428Y-60147286D01*
X167694428Y-60147286D02*
X167887952Y-60147286D01*
X167887952Y-60147286D02*
X167984714Y-60219857D01*
X167984714Y-60219857D02*
X168033095Y-60292429D01*
X168033095Y-60292429D02*
X168081476Y-60437572D01*
X168081476Y-60437572D02*
X168081476Y-60727857D01*
X168081476Y-60727857D02*
X168033095Y-60873000D01*
X168033095Y-60873000D02*
X167984714Y-60945572D01*
X167984714Y-60945572D02*
X167887952Y-61018143D01*
X167887952Y-61018143D02*
X167694428Y-61018143D01*
X167694428Y-61018143D02*
X167597666Y-60945572D01*
X167597666Y-60945572D02*
X167549285Y-60873000D01*
X167549285Y-60873000D02*
X167500904Y-60727857D01*
X167500904Y-60727857D02*
X167500904Y-60437572D01*
X167500904Y-60437572D02*
X167549285Y-60292429D01*
X167549285Y-60292429D02*
X167597666Y-60219857D01*
X167597666Y-60219857D02*
X167694428Y-60147286D01*
X178628523Y-94038143D02*
X179209095Y-94038143D01*
X178918809Y-94038143D02*
X178918809Y-92514143D01*
X178918809Y-92514143D02*
X179015571Y-92731857D01*
X179015571Y-92731857D02*
X179112333Y-92877000D01*
X179112333Y-92877000D02*
X179209095Y-92949572D01*
X177709285Y-92514143D02*
X178193095Y-92514143D01*
X178193095Y-92514143D02*
X178241476Y-93239857D01*
X178241476Y-93239857D02*
X178193095Y-93167286D01*
X178193095Y-93167286D02*
X178096333Y-93094714D01*
X178096333Y-93094714D02*
X177854428Y-93094714D01*
X177854428Y-93094714D02*
X177757666Y-93167286D01*
X177757666Y-93167286D02*
X177709285Y-93239857D01*
X177709285Y-93239857D02*
X177660904Y-93385000D01*
X177660904Y-93385000D02*
X177660904Y-93747857D01*
X177660904Y-93747857D02*
X177709285Y-93893000D01*
X177709285Y-93893000D02*
X177757666Y-93965572D01*
X177757666Y-93965572D02*
X177854428Y-94038143D01*
X177854428Y-94038143D02*
X178096333Y-94038143D01*
X178096333Y-94038143D02*
X178193095Y-93965572D01*
X178193095Y-93965572D02*
X178241476Y-93893000D01*
X171008523Y-94038143D02*
X171589095Y-94038143D01*
X171298809Y-94038143D02*
X171298809Y-92514143D01*
X171298809Y-92514143D02*
X171395571Y-92731857D01*
X171395571Y-92731857D02*
X171492333Y-92877000D01*
X171492333Y-92877000D02*
X171589095Y-92949572D01*
X170621476Y-92659286D02*
X170573095Y-92586714D01*
X170573095Y-92586714D02*
X170476333Y-92514143D01*
X170476333Y-92514143D02*
X170234428Y-92514143D01*
X170234428Y-92514143D02*
X170137666Y-92586714D01*
X170137666Y-92586714D02*
X170089285Y-92659286D01*
X170089285Y-92659286D02*
X170040904Y-92804429D01*
X170040904Y-92804429D02*
X170040904Y-92949572D01*
X170040904Y-92949572D02*
X170089285Y-93167286D01*
X170089285Y-93167286D02*
X170669857Y-94038143D01*
X170669857Y-94038143D02*
X170040904Y-94038143D01*
X152793094Y-92514143D02*
X153276904Y-92514143D01*
X153276904Y-92514143D02*
X153325285Y-93239857D01*
X153325285Y-93239857D02*
X153276904Y-93167286D01*
X153276904Y-93167286D02*
X153180142Y-93094714D01*
X153180142Y-93094714D02*
X152938237Y-93094714D01*
X152938237Y-93094714D02*
X152841475Y-93167286D01*
X152841475Y-93167286D02*
X152793094Y-93239857D01*
X152793094Y-93239857D02*
X152744713Y-93385000D01*
X152744713Y-93385000D02*
X152744713Y-93747857D01*
X152744713Y-93747857D02*
X152793094Y-93893000D01*
X152793094Y-93893000D02*
X152841475Y-93965572D01*
X152841475Y-93965572D02*
X152938237Y-94038143D01*
X152938237Y-94038143D02*
X153180142Y-94038143D01*
X153180142Y-94038143D02*
X153276904Y-93965572D01*
X153276904Y-93965572D02*
X153325285Y-93893000D01*
X142584713Y-94038143D02*
X143165285Y-94038143D01*
X142874999Y-94038143D02*
X142874999Y-92514143D01*
X142874999Y-92514143D02*
X142971761Y-92731857D01*
X142971761Y-92731857D02*
X143068523Y-92877000D01*
X143068523Y-92877000D02*
X143165285Y-92949572D01*
X99199095Y-59639286D02*
X99150714Y-59566714D01*
X99150714Y-59566714D02*
X99053952Y-59494143D01*
X99053952Y-59494143D02*
X98812047Y-59494143D01*
X98812047Y-59494143D02*
X98715285Y-59566714D01*
X98715285Y-59566714D02*
X98666904Y-59639286D01*
X98666904Y-59639286D02*
X98618523Y-59784429D01*
X98618523Y-59784429D02*
X98618523Y-59929572D01*
X98618523Y-59929572D02*
X98666904Y-60147286D01*
X98666904Y-60147286D02*
X99247476Y-61018143D01*
X99247476Y-61018143D02*
X98618523Y-61018143D01*
X98231476Y-59639286D02*
X98183095Y-59566714D01*
X98183095Y-59566714D02*
X98086333Y-59494143D01*
X98086333Y-59494143D02*
X97844428Y-59494143D01*
X97844428Y-59494143D02*
X97747666Y-59566714D01*
X97747666Y-59566714D02*
X97699285Y-59639286D01*
X97699285Y-59639286D02*
X97650904Y-59784429D01*
X97650904Y-59784429D02*
X97650904Y-59929572D01*
X97650904Y-59929572D02*
X97699285Y-60147286D01*
X97699285Y-60147286D02*
X98279857Y-61018143D01*
X98279857Y-61018143D02*
X97650904Y-61018143D01*
X122107476Y-59494143D02*
X121478523Y-59494143D01*
X121478523Y-59494143D02*
X121817190Y-60074714D01*
X121817190Y-60074714D02*
X121672047Y-60074714D01*
X121672047Y-60074714D02*
X121575285Y-60147286D01*
X121575285Y-60147286D02*
X121526904Y-60219857D01*
X121526904Y-60219857D02*
X121478523Y-60365000D01*
X121478523Y-60365000D02*
X121478523Y-60727857D01*
X121478523Y-60727857D02*
X121526904Y-60873000D01*
X121526904Y-60873000D02*
X121575285Y-60945572D01*
X121575285Y-60945572D02*
X121672047Y-61018143D01*
X121672047Y-61018143D02*
X121962333Y-61018143D01*
X121962333Y-61018143D02*
X122059095Y-60945572D01*
X122059095Y-60945572D02*
X122107476Y-60873000D01*
X120510904Y-61018143D02*
X121091476Y-61018143D01*
X120801190Y-61018143D02*
X120801190Y-59494143D01*
X120801190Y-59494143D02*
X120897952Y-59711857D01*
X120897952Y-59711857D02*
X120994714Y-59857000D01*
X120994714Y-59857000D02*
X121091476Y-59929572D01*
X91095285Y-92659286D02*
X91046904Y-92586714D01*
X91046904Y-92586714D02*
X90950142Y-92514143D01*
X90950142Y-92514143D02*
X90708237Y-92514143D01*
X90708237Y-92514143D02*
X90611475Y-92586714D01*
X90611475Y-92586714D02*
X90563094Y-92659286D01*
X90563094Y-92659286D02*
X90514713Y-92804429D01*
X90514713Y-92804429D02*
X90514713Y-92949572D01*
X90514713Y-92949572D02*
X90563094Y-93167286D01*
X90563094Y-93167286D02*
X91143666Y-94038143D01*
X91143666Y-94038143D02*
X90514713Y-94038143D01*
X94119095Y-59639286D02*
X94070714Y-59566714D01*
X94070714Y-59566714D02*
X93973952Y-59494143D01*
X93973952Y-59494143D02*
X93732047Y-59494143D01*
X93732047Y-59494143D02*
X93635285Y-59566714D01*
X93635285Y-59566714D02*
X93586904Y-59639286D01*
X93586904Y-59639286D02*
X93538523Y-59784429D01*
X93538523Y-59784429D02*
X93538523Y-59929572D01*
X93538523Y-59929572D02*
X93586904Y-60147286D01*
X93586904Y-60147286D02*
X94167476Y-61018143D01*
X94167476Y-61018143D02*
X93538523Y-61018143D01*
X92909571Y-59494143D02*
X92812809Y-59494143D01*
X92812809Y-59494143D02*
X92716047Y-59566714D01*
X92716047Y-59566714D02*
X92667666Y-59639286D01*
X92667666Y-59639286D02*
X92619285Y-59784429D01*
X92619285Y-59784429D02*
X92570904Y-60074714D01*
X92570904Y-60074714D02*
X92570904Y-60437572D01*
X92570904Y-60437572D02*
X92619285Y-60727857D01*
X92619285Y-60727857D02*
X92667666Y-60873000D01*
X92667666Y-60873000D02*
X92716047Y-60945572D01*
X92716047Y-60945572D02*
X92812809Y-61018143D01*
X92812809Y-61018143D02*
X92909571Y-61018143D01*
X92909571Y-61018143D02*
X93006333Y-60945572D01*
X93006333Y-60945572D02*
X93054714Y-60873000D01*
X93054714Y-60873000D02*
X93103095Y-60727857D01*
X93103095Y-60727857D02*
X93151476Y-60437572D01*
X93151476Y-60437572D02*
X93151476Y-60074714D01*
X93151476Y-60074714D02*
X93103095Y-59784429D01*
X93103095Y-59784429D02*
X93054714Y-59639286D01*
X93054714Y-59639286D02*
X93006333Y-59566714D01*
X93006333Y-59566714D02*
X92909571Y-59494143D01*
X118938523Y-94038143D02*
X119519095Y-94038143D01*
X119228809Y-94038143D02*
X119228809Y-92514143D01*
X119228809Y-92514143D02*
X119325571Y-92731857D01*
X119325571Y-92731857D02*
X119422333Y-92877000D01*
X119422333Y-92877000D02*
X119519095Y-92949572D01*
X118599857Y-92514143D02*
X117970904Y-92514143D01*
X117970904Y-92514143D02*
X118309571Y-93094714D01*
X118309571Y-93094714D02*
X118164428Y-93094714D01*
X118164428Y-93094714D02*
X118067666Y-93167286D01*
X118067666Y-93167286D02*
X118019285Y-93239857D01*
X118019285Y-93239857D02*
X117970904Y-93385000D01*
X117970904Y-93385000D02*
X117970904Y-93747857D01*
X117970904Y-93747857D02*
X118019285Y-93893000D01*
X118019285Y-93893000D02*
X118067666Y-93965572D01*
X118067666Y-93965572D02*
X118164428Y-94038143D01*
X118164428Y-94038143D02*
X118454714Y-94038143D01*
X118454714Y-94038143D02*
X118551476Y-93965572D01*
X118551476Y-93965572D02*
X118599857Y-93893000D01*
X113858523Y-94038143D02*
X114439095Y-94038143D01*
X114148809Y-94038143D02*
X114148809Y-92514143D01*
X114148809Y-92514143D02*
X114245571Y-92731857D01*
X114245571Y-92731857D02*
X114342333Y-92877000D01*
X114342333Y-92877000D02*
X114439095Y-92949572D01*
X112890904Y-94038143D02*
X113471476Y-94038143D01*
X113181190Y-94038143D02*
X113181190Y-92514143D01*
X113181190Y-92514143D02*
X113277952Y-92731857D01*
X113277952Y-92731857D02*
X113374714Y-92877000D01*
X113374714Y-92877000D02*
X113471476Y-92949572D01*
X111318523Y-94038143D02*
X111899095Y-94038143D01*
X111608809Y-94038143D02*
X111608809Y-92514143D01*
X111608809Y-92514143D02*
X111705571Y-92731857D01*
X111705571Y-92731857D02*
X111802333Y-92877000D01*
X111802333Y-92877000D02*
X111899095Y-92949572D01*
X110689571Y-92514143D02*
X110592809Y-92514143D01*
X110592809Y-92514143D02*
X110496047Y-92586714D01*
X110496047Y-92586714D02*
X110447666Y-92659286D01*
X110447666Y-92659286D02*
X110399285Y-92804429D01*
X110399285Y-92804429D02*
X110350904Y-93094714D01*
X110350904Y-93094714D02*
X110350904Y-93457572D01*
X110350904Y-93457572D02*
X110399285Y-93747857D01*
X110399285Y-93747857D02*
X110447666Y-93893000D01*
X110447666Y-93893000D02*
X110496047Y-93965572D01*
X110496047Y-93965572D02*
X110592809Y-94038143D01*
X110592809Y-94038143D02*
X110689571Y-94038143D01*
X110689571Y-94038143D02*
X110786333Y-93965572D01*
X110786333Y-93965572D02*
X110834714Y-93893000D01*
X110834714Y-93893000D02*
X110883095Y-93747857D01*
X110883095Y-93747857D02*
X110931476Y-93457572D01*
X110931476Y-93457572D02*
X110931476Y-93094714D01*
X110931476Y-93094714D02*
X110883095Y-92804429D01*
X110883095Y-92804429D02*
X110834714Y-92659286D01*
X110834714Y-92659286D02*
X110786333Y-92586714D01*
X110786333Y-92586714D02*
X110689571Y-92514143D01*
X124647476Y-59494143D02*
X124018523Y-59494143D01*
X124018523Y-59494143D02*
X124357190Y-60074714D01*
X124357190Y-60074714D02*
X124212047Y-60074714D01*
X124212047Y-60074714D02*
X124115285Y-60147286D01*
X124115285Y-60147286D02*
X124066904Y-60219857D01*
X124066904Y-60219857D02*
X124018523Y-60365000D01*
X124018523Y-60365000D02*
X124018523Y-60727857D01*
X124018523Y-60727857D02*
X124066904Y-60873000D01*
X124066904Y-60873000D02*
X124115285Y-60945572D01*
X124115285Y-60945572D02*
X124212047Y-61018143D01*
X124212047Y-61018143D02*
X124502333Y-61018143D01*
X124502333Y-61018143D02*
X124599095Y-60945572D01*
X124599095Y-60945572D02*
X124647476Y-60873000D01*
X123631476Y-59639286D02*
X123583095Y-59566714D01*
X123583095Y-59566714D02*
X123486333Y-59494143D01*
X123486333Y-59494143D02*
X123244428Y-59494143D01*
X123244428Y-59494143D02*
X123147666Y-59566714D01*
X123147666Y-59566714D02*
X123099285Y-59639286D01*
X123099285Y-59639286D02*
X123050904Y-59784429D01*
X123050904Y-59784429D02*
X123050904Y-59929572D01*
X123050904Y-59929572D02*
X123099285Y-60147286D01*
X123099285Y-60147286D02*
X123679857Y-61018143D01*
X123679857Y-61018143D02*
X123050904Y-61018143D01*
X108778523Y-94038143D02*
X108584999Y-94038143D01*
X108584999Y-94038143D02*
X108488237Y-93965572D01*
X108488237Y-93965572D02*
X108439856Y-93893000D01*
X108439856Y-93893000D02*
X108343094Y-93675286D01*
X108343094Y-93675286D02*
X108294713Y-93385000D01*
X108294713Y-93385000D02*
X108294713Y-92804429D01*
X108294713Y-92804429D02*
X108343094Y-92659286D01*
X108343094Y-92659286D02*
X108391475Y-92586714D01*
X108391475Y-92586714D02*
X108488237Y-92514143D01*
X108488237Y-92514143D02*
X108681761Y-92514143D01*
X108681761Y-92514143D02*
X108778523Y-92586714D01*
X108778523Y-92586714D02*
X108826904Y-92659286D01*
X108826904Y-92659286D02*
X108875285Y-92804429D01*
X108875285Y-92804429D02*
X108875285Y-93167286D01*
X108875285Y-93167286D02*
X108826904Y-93312429D01*
X108826904Y-93312429D02*
X108778523Y-93385000D01*
X108778523Y-93385000D02*
X108681761Y-93457572D01*
X108681761Y-93457572D02*
X108488237Y-93457572D01*
X108488237Y-93457572D02*
X108391475Y-93385000D01*
X108391475Y-93385000D02*
X108343094Y-93312429D01*
X108343094Y-93312429D02*
X108294713Y-93167286D01*
X127187476Y-59494143D02*
X126558523Y-59494143D01*
X126558523Y-59494143D02*
X126897190Y-60074714D01*
X126897190Y-60074714D02*
X126752047Y-60074714D01*
X126752047Y-60074714D02*
X126655285Y-60147286D01*
X126655285Y-60147286D02*
X126606904Y-60219857D01*
X126606904Y-60219857D02*
X126558523Y-60365000D01*
X126558523Y-60365000D02*
X126558523Y-60727857D01*
X126558523Y-60727857D02*
X126606904Y-60873000D01*
X126606904Y-60873000D02*
X126655285Y-60945572D01*
X126655285Y-60945572D02*
X126752047Y-61018143D01*
X126752047Y-61018143D02*
X127042333Y-61018143D01*
X127042333Y-61018143D02*
X127139095Y-60945572D01*
X127139095Y-60945572D02*
X127187476Y-60873000D01*
X126219857Y-59494143D02*
X125590904Y-59494143D01*
X125590904Y-59494143D02*
X125929571Y-60074714D01*
X125929571Y-60074714D02*
X125784428Y-60074714D01*
X125784428Y-60074714D02*
X125687666Y-60147286D01*
X125687666Y-60147286D02*
X125639285Y-60219857D01*
X125639285Y-60219857D02*
X125590904Y-60365000D01*
X125590904Y-60365000D02*
X125590904Y-60727857D01*
X125590904Y-60727857D02*
X125639285Y-60873000D01*
X125639285Y-60873000D02*
X125687666Y-60945572D01*
X125687666Y-60945572D02*
X125784428Y-61018143D01*
X125784428Y-61018143D02*
X126074714Y-61018143D01*
X126074714Y-61018143D02*
X126171476Y-60945572D01*
X126171476Y-60945572D02*
X126219857Y-60873000D01*
X95691475Y-93022143D02*
X95691475Y-94038143D01*
X95933380Y-92441572D02*
X96175285Y-93530143D01*
X96175285Y-93530143D02*
X95546332Y-93530143D01*
X106141761Y-93167286D02*
X106238523Y-93094714D01*
X106238523Y-93094714D02*
X106286904Y-93022143D01*
X106286904Y-93022143D02*
X106335285Y-92877000D01*
X106335285Y-92877000D02*
X106335285Y-92804429D01*
X106335285Y-92804429D02*
X106286904Y-92659286D01*
X106286904Y-92659286D02*
X106238523Y-92586714D01*
X106238523Y-92586714D02*
X106141761Y-92514143D01*
X106141761Y-92514143D02*
X105948237Y-92514143D01*
X105948237Y-92514143D02*
X105851475Y-92586714D01*
X105851475Y-92586714D02*
X105803094Y-92659286D01*
X105803094Y-92659286D02*
X105754713Y-92804429D01*
X105754713Y-92804429D02*
X105754713Y-92877000D01*
X105754713Y-92877000D02*
X105803094Y-93022143D01*
X105803094Y-93022143D02*
X105851475Y-93094714D01*
X105851475Y-93094714D02*
X105948237Y-93167286D01*
X105948237Y-93167286D02*
X106141761Y-93167286D01*
X106141761Y-93167286D02*
X106238523Y-93239857D01*
X106238523Y-93239857D02*
X106286904Y-93312429D01*
X106286904Y-93312429D02*
X106335285Y-93457572D01*
X106335285Y-93457572D02*
X106335285Y-93747857D01*
X106335285Y-93747857D02*
X106286904Y-93893000D01*
X106286904Y-93893000D02*
X106238523Y-93965572D01*
X106238523Y-93965572D02*
X106141761Y-94038143D01*
X106141761Y-94038143D02*
X105948237Y-94038143D01*
X105948237Y-94038143D02*
X105851475Y-93965572D01*
X105851475Y-93965572D02*
X105803094Y-93893000D01*
X105803094Y-93893000D02*
X105754713Y-93747857D01*
X105754713Y-93747857D02*
X105754713Y-93457572D01*
X105754713Y-93457572D02*
X105803094Y-93312429D01*
X105803094Y-93312429D02*
X105851475Y-93239857D01*
X105851475Y-93239857D02*
X105948237Y-93167286D01*
X111899095Y-59639286D02*
X111850714Y-59566714D01*
X111850714Y-59566714D02*
X111753952Y-59494143D01*
X111753952Y-59494143D02*
X111512047Y-59494143D01*
X111512047Y-59494143D02*
X111415285Y-59566714D01*
X111415285Y-59566714D02*
X111366904Y-59639286D01*
X111366904Y-59639286D02*
X111318523Y-59784429D01*
X111318523Y-59784429D02*
X111318523Y-59929572D01*
X111318523Y-59929572D02*
X111366904Y-60147286D01*
X111366904Y-60147286D02*
X111947476Y-61018143D01*
X111947476Y-61018143D02*
X111318523Y-61018143D01*
X110979857Y-59494143D02*
X110302523Y-59494143D01*
X110302523Y-59494143D02*
X110737952Y-61018143D01*
X100771475Y-92514143D02*
X100964999Y-92514143D01*
X100964999Y-92514143D02*
X101061761Y-92586714D01*
X101061761Y-92586714D02*
X101110142Y-92659286D01*
X101110142Y-92659286D02*
X101206904Y-92877000D01*
X101206904Y-92877000D02*
X101255285Y-93167286D01*
X101255285Y-93167286D02*
X101255285Y-93747857D01*
X101255285Y-93747857D02*
X101206904Y-93893000D01*
X101206904Y-93893000D02*
X101158523Y-93965572D01*
X101158523Y-93965572D02*
X101061761Y-94038143D01*
X101061761Y-94038143D02*
X100868237Y-94038143D01*
X100868237Y-94038143D02*
X100771475Y-93965572D01*
X100771475Y-93965572D02*
X100723094Y-93893000D01*
X100723094Y-93893000D02*
X100674713Y-93747857D01*
X100674713Y-93747857D02*
X100674713Y-93385000D01*
X100674713Y-93385000D02*
X100723094Y-93239857D01*
X100723094Y-93239857D02*
X100771475Y-93167286D01*
X100771475Y-93167286D02*
X100868237Y-93094714D01*
X100868237Y-93094714D02*
X101061761Y-93094714D01*
X101061761Y-93094714D02*
X101158523Y-93167286D01*
X101158523Y-93167286D02*
X101206904Y-93239857D01*
X101206904Y-93239857D02*
X101255285Y-93385000D01*
X126558523Y-94038143D02*
X127139095Y-94038143D01*
X126848809Y-94038143D02*
X126848809Y-92514143D01*
X126848809Y-92514143D02*
X126945571Y-92731857D01*
X126945571Y-92731857D02*
X127042333Y-92877000D01*
X127042333Y-92877000D02*
X127139095Y-92949572D01*
X125687666Y-92514143D02*
X125881190Y-92514143D01*
X125881190Y-92514143D02*
X125977952Y-92586714D01*
X125977952Y-92586714D02*
X126026333Y-92659286D01*
X126026333Y-92659286D02*
X126123095Y-92877000D01*
X126123095Y-92877000D02*
X126171476Y-93167286D01*
X126171476Y-93167286D02*
X126171476Y-93747857D01*
X126171476Y-93747857D02*
X126123095Y-93893000D01*
X126123095Y-93893000D02*
X126074714Y-93965572D01*
X126074714Y-93965572D02*
X125977952Y-94038143D01*
X125977952Y-94038143D02*
X125784428Y-94038143D01*
X125784428Y-94038143D02*
X125687666Y-93965572D01*
X125687666Y-93965572D02*
X125639285Y-93893000D01*
X125639285Y-93893000D02*
X125590904Y-93747857D01*
X125590904Y-93747857D02*
X125590904Y-93385000D01*
X125590904Y-93385000D02*
X125639285Y-93239857D01*
X125639285Y-93239857D02*
X125687666Y-93167286D01*
X125687666Y-93167286D02*
X125784428Y-93094714D01*
X125784428Y-93094714D02*
X125977952Y-93094714D01*
X125977952Y-93094714D02*
X126074714Y-93167286D01*
X126074714Y-93167286D02*
X126123095Y-93239857D01*
X126123095Y-93239857D02*
X126171476Y-93385000D01*
X119567476Y-59494143D02*
X118938523Y-59494143D01*
X118938523Y-59494143D02*
X119277190Y-60074714D01*
X119277190Y-60074714D02*
X119132047Y-60074714D01*
X119132047Y-60074714D02*
X119035285Y-60147286D01*
X119035285Y-60147286D02*
X118986904Y-60219857D01*
X118986904Y-60219857D02*
X118938523Y-60365000D01*
X118938523Y-60365000D02*
X118938523Y-60727857D01*
X118938523Y-60727857D02*
X118986904Y-60873000D01*
X118986904Y-60873000D02*
X119035285Y-60945572D01*
X119035285Y-60945572D02*
X119132047Y-61018143D01*
X119132047Y-61018143D02*
X119422333Y-61018143D01*
X119422333Y-61018143D02*
X119519095Y-60945572D01*
X119519095Y-60945572D02*
X119567476Y-60873000D01*
X118309571Y-59494143D02*
X118212809Y-59494143D01*
X118212809Y-59494143D02*
X118116047Y-59566714D01*
X118116047Y-59566714D02*
X118067666Y-59639286D01*
X118067666Y-59639286D02*
X118019285Y-59784429D01*
X118019285Y-59784429D02*
X117970904Y-60074714D01*
X117970904Y-60074714D02*
X117970904Y-60437572D01*
X117970904Y-60437572D02*
X118019285Y-60727857D01*
X118019285Y-60727857D02*
X118067666Y-60873000D01*
X118067666Y-60873000D02*
X118116047Y-60945572D01*
X118116047Y-60945572D02*
X118212809Y-61018143D01*
X118212809Y-61018143D02*
X118309571Y-61018143D01*
X118309571Y-61018143D02*
X118406333Y-60945572D01*
X118406333Y-60945572D02*
X118454714Y-60873000D01*
X118454714Y-60873000D02*
X118503095Y-60727857D01*
X118503095Y-60727857D02*
X118551476Y-60437572D01*
X118551476Y-60437572D02*
X118551476Y-60074714D01*
X118551476Y-60074714D02*
X118503095Y-59784429D01*
X118503095Y-59784429D02*
X118454714Y-59639286D01*
X118454714Y-59639286D02*
X118406333Y-59566714D01*
X118406333Y-59566714D02*
X118309571Y-59494143D01*
X88458523Y-61018143D02*
X89039095Y-61018143D01*
X88748809Y-61018143D02*
X88748809Y-59494143D01*
X88748809Y-59494143D02*
X88845571Y-59711857D01*
X88845571Y-59711857D02*
X88942333Y-59857000D01*
X88942333Y-59857000D02*
X89039095Y-59929572D01*
X87877952Y-60147286D02*
X87974714Y-60074714D01*
X87974714Y-60074714D02*
X88023095Y-60002143D01*
X88023095Y-60002143D02*
X88071476Y-59857000D01*
X88071476Y-59857000D02*
X88071476Y-59784429D01*
X88071476Y-59784429D02*
X88023095Y-59639286D01*
X88023095Y-59639286D02*
X87974714Y-59566714D01*
X87974714Y-59566714D02*
X87877952Y-59494143D01*
X87877952Y-59494143D02*
X87684428Y-59494143D01*
X87684428Y-59494143D02*
X87587666Y-59566714D01*
X87587666Y-59566714D02*
X87539285Y-59639286D01*
X87539285Y-59639286D02*
X87490904Y-59784429D01*
X87490904Y-59784429D02*
X87490904Y-59857000D01*
X87490904Y-59857000D02*
X87539285Y-60002143D01*
X87539285Y-60002143D02*
X87587666Y-60074714D01*
X87587666Y-60074714D02*
X87684428Y-60147286D01*
X87684428Y-60147286D02*
X87877952Y-60147286D01*
X87877952Y-60147286D02*
X87974714Y-60219857D01*
X87974714Y-60219857D02*
X88023095Y-60292429D01*
X88023095Y-60292429D02*
X88071476Y-60437572D01*
X88071476Y-60437572D02*
X88071476Y-60727857D01*
X88071476Y-60727857D02*
X88023095Y-60873000D01*
X88023095Y-60873000D02*
X87974714Y-60945572D01*
X87974714Y-60945572D02*
X87877952Y-61018143D01*
X87877952Y-61018143D02*
X87684428Y-61018143D01*
X87684428Y-61018143D02*
X87587666Y-60945572D01*
X87587666Y-60945572D02*
X87539285Y-60873000D01*
X87539285Y-60873000D02*
X87490904Y-60727857D01*
X87490904Y-60727857D02*
X87490904Y-60437572D01*
X87490904Y-60437572D02*
X87539285Y-60292429D01*
X87539285Y-60292429D02*
X87587666Y-60219857D01*
X87587666Y-60219857D02*
X87684428Y-60147286D01*
X129098523Y-94038143D02*
X129679095Y-94038143D01*
X129388809Y-94038143D02*
X129388809Y-92514143D01*
X129388809Y-92514143D02*
X129485571Y-92731857D01*
X129485571Y-92731857D02*
X129582333Y-92877000D01*
X129582333Y-92877000D02*
X129679095Y-92949572D01*
X128759857Y-92514143D02*
X128082523Y-92514143D01*
X128082523Y-92514143D02*
X128517952Y-94038143D01*
X103843666Y-92514143D02*
X103166332Y-92514143D01*
X103166332Y-92514143D02*
X103601761Y-94038143D01*
X96659095Y-59639286D02*
X96610714Y-59566714D01*
X96610714Y-59566714D02*
X96513952Y-59494143D01*
X96513952Y-59494143D02*
X96272047Y-59494143D01*
X96272047Y-59494143D02*
X96175285Y-59566714D01*
X96175285Y-59566714D02*
X96126904Y-59639286D01*
X96126904Y-59639286D02*
X96078523Y-59784429D01*
X96078523Y-59784429D02*
X96078523Y-59929572D01*
X96078523Y-59929572D02*
X96126904Y-60147286D01*
X96126904Y-60147286D02*
X96707476Y-61018143D01*
X96707476Y-61018143D02*
X96078523Y-61018143D01*
X95110904Y-61018143D02*
X95691476Y-61018143D01*
X95401190Y-61018143D02*
X95401190Y-59494143D01*
X95401190Y-59494143D02*
X95497952Y-59711857D01*
X95497952Y-59711857D02*
X95594714Y-59857000D01*
X95594714Y-59857000D02*
X95691476Y-59929572D01*
X109359095Y-59639286D02*
X109310714Y-59566714D01*
X109310714Y-59566714D02*
X109213952Y-59494143D01*
X109213952Y-59494143D02*
X108972047Y-59494143D01*
X108972047Y-59494143D02*
X108875285Y-59566714D01*
X108875285Y-59566714D02*
X108826904Y-59639286D01*
X108826904Y-59639286D02*
X108778523Y-59784429D01*
X108778523Y-59784429D02*
X108778523Y-59929572D01*
X108778523Y-59929572D02*
X108826904Y-60147286D01*
X108826904Y-60147286D02*
X109407476Y-61018143D01*
X109407476Y-61018143D02*
X108778523Y-61018143D01*
X107907666Y-59494143D02*
X108101190Y-59494143D01*
X108101190Y-59494143D02*
X108197952Y-59566714D01*
X108197952Y-59566714D02*
X108246333Y-59639286D01*
X108246333Y-59639286D02*
X108343095Y-59857000D01*
X108343095Y-59857000D02*
X108391476Y-60147286D01*
X108391476Y-60147286D02*
X108391476Y-60727857D01*
X108391476Y-60727857D02*
X108343095Y-60873000D01*
X108343095Y-60873000D02*
X108294714Y-60945572D01*
X108294714Y-60945572D02*
X108197952Y-61018143D01*
X108197952Y-61018143D02*
X108004428Y-61018143D01*
X108004428Y-61018143D02*
X107907666Y-60945572D01*
X107907666Y-60945572D02*
X107859285Y-60873000D01*
X107859285Y-60873000D02*
X107810904Y-60727857D01*
X107810904Y-60727857D02*
X107810904Y-60365000D01*
X107810904Y-60365000D02*
X107859285Y-60219857D01*
X107859285Y-60219857D02*
X107907666Y-60147286D01*
X107907666Y-60147286D02*
X108004428Y-60074714D01*
X108004428Y-60074714D02*
X108197952Y-60074714D01*
X108197952Y-60074714D02*
X108294714Y-60147286D01*
X108294714Y-60147286D02*
X108343095Y-60219857D01*
X108343095Y-60219857D02*
X108391476Y-60365000D01*
X129727476Y-59494143D02*
X129098523Y-59494143D01*
X129098523Y-59494143D02*
X129437190Y-60074714D01*
X129437190Y-60074714D02*
X129292047Y-60074714D01*
X129292047Y-60074714D02*
X129195285Y-60147286D01*
X129195285Y-60147286D02*
X129146904Y-60219857D01*
X129146904Y-60219857D02*
X129098523Y-60365000D01*
X129098523Y-60365000D02*
X129098523Y-60727857D01*
X129098523Y-60727857D02*
X129146904Y-60873000D01*
X129146904Y-60873000D02*
X129195285Y-60945572D01*
X129195285Y-60945572D02*
X129292047Y-61018143D01*
X129292047Y-61018143D02*
X129582333Y-61018143D01*
X129582333Y-61018143D02*
X129679095Y-60945572D01*
X129679095Y-60945572D02*
X129727476Y-60873000D01*
X128227666Y-60002143D02*
X128227666Y-61018143D01*
X128469571Y-59421572D02*
X128711476Y-60510143D01*
X128711476Y-60510143D02*
X128082523Y-60510143D01*
X104279095Y-59639286D02*
X104230714Y-59566714D01*
X104230714Y-59566714D02*
X104133952Y-59494143D01*
X104133952Y-59494143D02*
X103892047Y-59494143D01*
X103892047Y-59494143D02*
X103795285Y-59566714D01*
X103795285Y-59566714D02*
X103746904Y-59639286D01*
X103746904Y-59639286D02*
X103698523Y-59784429D01*
X103698523Y-59784429D02*
X103698523Y-59929572D01*
X103698523Y-59929572D02*
X103746904Y-60147286D01*
X103746904Y-60147286D02*
X104327476Y-61018143D01*
X104327476Y-61018143D02*
X103698523Y-61018143D01*
X102827666Y-60002143D02*
X102827666Y-61018143D01*
X103069571Y-59421572D02*
X103311476Y-60510143D01*
X103311476Y-60510143D02*
X102682523Y-60510143D01*
X101739095Y-59639286D02*
X101690714Y-59566714D01*
X101690714Y-59566714D02*
X101593952Y-59494143D01*
X101593952Y-59494143D02*
X101352047Y-59494143D01*
X101352047Y-59494143D02*
X101255285Y-59566714D01*
X101255285Y-59566714D02*
X101206904Y-59639286D01*
X101206904Y-59639286D02*
X101158523Y-59784429D01*
X101158523Y-59784429D02*
X101158523Y-59929572D01*
X101158523Y-59929572D02*
X101206904Y-60147286D01*
X101206904Y-60147286D02*
X101787476Y-61018143D01*
X101787476Y-61018143D02*
X101158523Y-61018143D01*
X100819857Y-59494143D02*
X100190904Y-59494143D01*
X100190904Y-59494143D02*
X100529571Y-60074714D01*
X100529571Y-60074714D02*
X100384428Y-60074714D01*
X100384428Y-60074714D02*
X100287666Y-60147286D01*
X100287666Y-60147286D02*
X100239285Y-60219857D01*
X100239285Y-60219857D02*
X100190904Y-60365000D01*
X100190904Y-60365000D02*
X100190904Y-60727857D01*
X100190904Y-60727857D02*
X100239285Y-60873000D01*
X100239285Y-60873000D02*
X100287666Y-60945572D01*
X100287666Y-60945572D02*
X100384428Y-61018143D01*
X100384428Y-61018143D02*
X100674714Y-61018143D01*
X100674714Y-61018143D02*
X100771476Y-60945572D01*
X100771476Y-60945572D02*
X100819857Y-60873000D01*
X93683666Y-92514143D02*
X93054713Y-92514143D01*
X93054713Y-92514143D02*
X93393380Y-93094714D01*
X93393380Y-93094714D02*
X93248237Y-93094714D01*
X93248237Y-93094714D02*
X93151475Y-93167286D01*
X93151475Y-93167286D02*
X93103094Y-93239857D01*
X93103094Y-93239857D02*
X93054713Y-93385000D01*
X93054713Y-93385000D02*
X93054713Y-93747857D01*
X93054713Y-93747857D02*
X93103094Y-93893000D01*
X93103094Y-93893000D02*
X93151475Y-93965572D01*
X93151475Y-93965572D02*
X93248237Y-94038143D01*
X93248237Y-94038143D02*
X93538523Y-94038143D01*
X93538523Y-94038143D02*
X93635285Y-93965572D01*
X93635285Y-93965572D02*
X93683666Y-93893000D01*
X90998523Y-61018143D02*
X91579095Y-61018143D01*
X91288809Y-61018143D02*
X91288809Y-59494143D01*
X91288809Y-59494143D02*
X91385571Y-59711857D01*
X91385571Y-59711857D02*
X91482333Y-59857000D01*
X91482333Y-59857000D02*
X91579095Y-59929572D01*
X90514714Y-61018143D02*
X90321190Y-61018143D01*
X90321190Y-61018143D02*
X90224428Y-60945572D01*
X90224428Y-60945572D02*
X90176047Y-60873000D01*
X90176047Y-60873000D02*
X90079285Y-60655286D01*
X90079285Y-60655286D02*
X90030904Y-60365000D01*
X90030904Y-60365000D02*
X90030904Y-59784429D01*
X90030904Y-59784429D02*
X90079285Y-59639286D01*
X90079285Y-59639286D02*
X90127666Y-59566714D01*
X90127666Y-59566714D02*
X90224428Y-59494143D01*
X90224428Y-59494143D02*
X90417952Y-59494143D01*
X90417952Y-59494143D02*
X90514714Y-59566714D01*
X90514714Y-59566714D02*
X90563095Y-59639286D01*
X90563095Y-59639286D02*
X90611476Y-59784429D01*
X90611476Y-59784429D02*
X90611476Y-60147286D01*
X90611476Y-60147286D02*
X90563095Y-60292429D01*
X90563095Y-60292429D02*
X90514714Y-60365000D01*
X90514714Y-60365000D02*
X90417952Y-60437572D01*
X90417952Y-60437572D02*
X90224428Y-60437572D01*
X90224428Y-60437572D02*
X90127666Y-60365000D01*
X90127666Y-60365000D02*
X90079285Y-60292429D01*
X90079285Y-60292429D02*
X90030904Y-60147286D01*
X116979095Y-59639286D02*
X116930714Y-59566714D01*
X116930714Y-59566714D02*
X116833952Y-59494143D01*
X116833952Y-59494143D02*
X116592047Y-59494143D01*
X116592047Y-59494143D02*
X116495285Y-59566714D01*
X116495285Y-59566714D02*
X116446904Y-59639286D01*
X116446904Y-59639286D02*
X116398523Y-59784429D01*
X116398523Y-59784429D02*
X116398523Y-59929572D01*
X116398523Y-59929572D02*
X116446904Y-60147286D01*
X116446904Y-60147286D02*
X117027476Y-61018143D01*
X117027476Y-61018143D02*
X116398523Y-61018143D01*
X115914714Y-61018143D02*
X115721190Y-61018143D01*
X115721190Y-61018143D02*
X115624428Y-60945572D01*
X115624428Y-60945572D02*
X115576047Y-60873000D01*
X115576047Y-60873000D02*
X115479285Y-60655286D01*
X115479285Y-60655286D02*
X115430904Y-60365000D01*
X115430904Y-60365000D02*
X115430904Y-59784429D01*
X115430904Y-59784429D02*
X115479285Y-59639286D01*
X115479285Y-59639286D02*
X115527666Y-59566714D01*
X115527666Y-59566714D02*
X115624428Y-59494143D01*
X115624428Y-59494143D02*
X115817952Y-59494143D01*
X115817952Y-59494143D02*
X115914714Y-59566714D01*
X115914714Y-59566714D02*
X115963095Y-59639286D01*
X115963095Y-59639286D02*
X116011476Y-59784429D01*
X116011476Y-59784429D02*
X116011476Y-60147286D01*
X116011476Y-60147286D02*
X115963095Y-60292429D01*
X115963095Y-60292429D02*
X115914714Y-60365000D01*
X115914714Y-60365000D02*
X115817952Y-60437572D01*
X115817952Y-60437572D02*
X115624428Y-60437572D01*
X115624428Y-60437572D02*
X115527666Y-60365000D01*
X115527666Y-60365000D02*
X115479285Y-60292429D01*
X115479285Y-60292429D02*
X115430904Y-60147286D01*
X121478523Y-94038143D02*
X122059095Y-94038143D01*
X121768809Y-94038143D02*
X121768809Y-92514143D01*
X121768809Y-92514143D02*
X121865571Y-92731857D01*
X121865571Y-92731857D02*
X121962333Y-92877000D01*
X121962333Y-92877000D02*
X122059095Y-92949572D01*
X120607666Y-93022143D02*
X120607666Y-94038143D01*
X120849571Y-92441572D02*
X121091476Y-93530143D01*
X121091476Y-93530143D02*
X120462523Y-93530143D01*
X106819095Y-59639286D02*
X106770714Y-59566714D01*
X106770714Y-59566714D02*
X106673952Y-59494143D01*
X106673952Y-59494143D02*
X106432047Y-59494143D01*
X106432047Y-59494143D02*
X106335285Y-59566714D01*
X106335285Y-59566714D02*
X106286904Y-59639286D01*
X106286904Y-59639286D02*
X106238523Y-59784429D01*
X106238523Y-59784429D02*
X106238523Y-59929572D01*
X106238523Y-59929572D02*
X106286904Y-60147286D01*
X106286904Y-60147286D02*
X106867476Y-61018143D01*
X106867476Y-61018143D02*
X106238523Y-61018143D01*
X105319285Y-59494143D02*
X105803095Y-59494143D01*
X105803095Y-59494143D02*
X105851476Y-60219857D01*
X105851476Y-60219857D02*
X105803095Y-60147286D01*
X105803095Y-60147286D02*
X105706333Y-60074714D01*
X105706333Y-60074714D02*
X105464428Y-60074714D01*
X105464428Y-60074714D02*
X105367666Y-60147286D01*
X105367666Y-60147286D02*
X105319285Y-60219857D01*
X105319285Y-60219857D02*
X105270904Y-60365000D01*
X105270904Y-60365000D02*
X105270904Y-60727857D01*
X105270904Y-60727857D02*
X105319285Y-60873000D01*
X105319285Y-60873000D02*
X105367666Y-60945572D01*
X105367666Y-60945572D02*
X105464428Y-61018143D01*
X105464428Y-61018143D02*
X105706333Y-61018143D01*
X105706333Y-61018143D02*
X105803095Y-60945572D01*
X105803095Y-60945572D02*
X105851476Y-60873000D01*
X114439095Y-59639286D02*
X114390714Y-59566714D01*
X114390714Y-59566714D02*
X114293952Y-59494143D01*
X114293952Y-59494143D02*
X114052047Y-59494143D01*
X114052047Y-59494143D02*
X113955285Y-59566714D01*
X113955285Y-59566714D02*
X113906904Y-59639286D01*
X113906904Y-59639286D02*
X113858523Y-59784429D01*
X113858523Y-59784429D02*
X113858523Y-59929572D01*
X113858523Y-59929572D02*
X113906904Y-60147286D01*
X113906904Y-60147286D02*
X114487476Y-61018143D01*
X114487476Y-61018143D02*
X113858523Y-61018143D01*
X113277952Y-60147286D02*
X113374714Y-60074714D01*
X113374714Y-60074714D02*
X113423095Y-60002143D01*
X113423095Y-60002143D02*
X113471476Y-59857000D01*
X113471476Y-59857000D02*
X113471476Y-59784429D01*
X113471476Y-59784429D02*
X113423095Y-59639286D01*
X113423095Y-59639286D02*
X113374714Y-59566714D01*
X113374714Y-59566714D02*
X113277952Y-59494143D01*
X113277952Y-59494143D02*
X113084428Y-59494143D01*
X113084428Y-59494143D02*
X112987666Y-59566714D01*
X112987666Y-59566714D02*
X112939285Y-59639286D01*
X112939285Y-59639286D02*
X112890904Y-59784429D01*
X112890904Y-59784429D02*
X112890904Y-59857000D01*
X112890904Y-59857000D02*
X112939285Y-60002143D01*
X112939285Y-60002143D02*
X112987666Y-60074714D01*
X112987666Y-60074714D02*
X113084428Y-60147286D01*
X113084428Y-60147286D02*
X113277952Y-60147286D01*
X113277952Y-60147286D02*
X113374714Y-60219857D01*
X113374714Y-60219857D02*
X113423095Y-60292429D01*
X113423095Y-60292429D02*
X113471476Y-60437572D01*
X113471476Y-60437572D02*
X113471476Y-60727857D01*
X113471476Y-60727857D02*
X113423095Y-60873000D01*
X113423095Y-60873000D02*
X113374714Y-60945572D01*
X113374714Y-60945572D02*
X113277952Y-61018143D01*
X113277952Y-61018143D02*
X113084428Y-61018143D01*
X113084428Y-61018143D02*
X112987666Y-60945572D01*
X112987666Y-60945572D02*
X112939285Y-60873000D01*
X112939285Y-60873000D02*
X112890904Y-60727857D01*
X112890904Y-60727857D02*
X112890904Y-60437572D01*
X112890904Y-60437572D02*
X112939285Y-60292429D01*
X112939285Y-60292429D02*
X112987666Y-60219857D01*
X112987666Y-60219857D02*
X113084428Y-60147286D01*
X124018523Y-94038143D02*
X124599095Y-94038143D01*
X124308809Y-94038143D02*
X124308809Y-92514143D01*
X124308809Y-92514143D02*
X124405571Y-92731857D01*
X124405571Y-92731857D02*
X124502333Y-92877000D01*
X124502333Y-92877000D02*
X124599095Y-92949572D01*
X123099285Y-92514143D02*
X123583095Y-92514143D01*
X123583095Y-92514143D02*
X123631476Y-93239857D01*
X123631476Y-93239857D02*
X123583095Y-93167286D01*
X123583095Y-93167286D02*
X123486333Y-93094714D01*
X123486333Y-93094714D02*
X123244428Y-93094714D01*
X123244428Y-93094714D02*
X123147666Y-93167286D01*
X123147666Y-93167286D02*
X123099285Y-93239857D01*
X123099285Y-93239857D02*
X123050904Y-93385000D01*
X123050904Y-93385000D02*
X123050904Y-93747857D01*
X123050904Y-93747857D02*
X123099285Y-93893000D01*
X123099285Y-93893000D02*
X123147666Y-93965572D01*
X123147666Y-93965572D02*
X123244428Y-94038143D01*
X123244428Y-94038143D02*
X123486333Y-94038143D01*
X123486333Y-94038143D02*
X123583095Y-93965572D01*
X123583095Y-93965572D02*
X123631476Y-93893000D01*
X116398523Y-94038143D02*
X116979095Y-94038143D01*
X116688809Y-94038143D02*
X116688809Y-92514143D01*
X116688809Y-92514143D02*
X116785571Y-92731857D01*
X116785571Y-92731857D02*
X116882333Y-92877000D01*
X116882333Y-92877000D02*
X116979095Y-92949572D01*
X116011476Y-92659286D02*
X115963095Y-92586714D01*
X115963095Y-92586714D02*
X115866333Y-92514143D01*
X115866333Y-92514143D02*
X115624428Y-92514143D01*
X115624428Y-92514143D02*
X115527666Y-92586714D01*
X115527666Y-92586714D02*
X115479285Y-92659286D01*
X115479285Y-92659286D02*
X115430904Y-92804429D01*
X115430904Y-92804429D02*
X115430904Y-92949572D01*
X115430904Y-92949572D02*
X115479285Y-93167286D01*
X115479285Y-93167286D02*
X116059857Y-94038143D01*
X116059857Y-94038143D02*
X115430904Y-94038143D01*
X98183094Y-92514143D02*
X98666904Y-92514143D01*
X98666904Y-92514143D02*
X98715285Y-93239857D01*
X98715285Y-93239857D02*
X98666904Y-93167286D01*
X98666904Y-93167286D02*
X98570142Y-93094714D01*
X98570142Y-93094714D02*
X98328237Y-93094714D01*
X98328237Y-93094714D02*
X98231475Y-93167286D01*
X98231475Y-93167286D02*
X98183094Y-93239857D01*
X98183094Y-93239857D02*
X98134713Y-93385000D01*
X98134713Y-93385000D02*
X98134713Y-93747857D01*
X98134713Y-93747857D02*
X98183094Y-93893000D01*
X98183094Y-93893000D02*
X98231475Y-93965572D01*
X98231475Y-93965572D02*
X98328237Y-94038143D01*
X98328237Y-94038143D02*
X98570142Y-94038143D01*
X98570142Y-94038143D02*
X98666904Y-93965572D01*
X98666904Y-93965572D02*
X98715285Y-93893000D01*
X87974713Y-94038143D02*
X88555285Y-94038143D01*
X88264999Y-94038143D02*
X88264999Y-92514143D01*
X88264999Y-92514143D02*
X88361761Y-92731857D01*
X88361761Y-92731857D02*
X88458523Y-92877000D01*
X88458523Y-92877000D02*
X88555285Y-92949572D01*
D13*
X140533333Y-95974819D02*
X140533333Y-96689104D01*
X140533333Y-96689104D02*
X140580952Y-96831961D01*
X140580952Y-96831961D02*
X140676190Y-96927200D01*
X140676190Y-96927200D02*
X140819047Y-96974819D01*
X140819047Y-96974819D02*
X140914285Y-96974819D01*
X140057142Y-96974819D02*
X140057142Y-95974819D01*
X140057142Y-95974819D02*
X139676190Y-95974819D01*
X139676190Y-95974819D02*
X139580952Y-96022438D01*
X139580952Y-96022438D02*
X139533333Y-96070057D01*
X139533333Y-96070057D02*
X139485714Y-96165295D01*
X139485714Y-96165295D02*
X139485714Y-96308152D01*
X139485714Y-96308152D02*
X139533333Y-96403390D01*
X139533333Y-96403390D02*
X139580952Y-96451009D01*
X139580952Y-96451009D02*
X139676190Y-96498628D01*
X139676190Y-96498628D02*
X140057142Y-96498628D01*
X139152380Y-95974819D02*
X138533333Y-95974819D01*
X138533333Y-95974819D02*
X138866666Y-96355771D01*
X138866666Y-96355771D02*
X138723809Y-96355771D01*
X138723809Y-96355771D02*
X138628571Y-96403390D01*
X138628571Y-96403390D02*
X138580952Y-96451009D01*
X138580952Y-96451009D02*
X138533333Y-96546247D01*
X138533333Y-96546247D02*
X138533333Y-96784342D01*
X138533333Y-96784342D02*
X138580952Y-96879580D01*
X138580952Y-96879580D02*
X138628571Y-96927200D01*
X138628571Y-96927200D02*
X138723809Y-96974819D01*
X138723809Y-96974819D02*
X139009523Y-96974819D01*
X139009523Y-96974819D02*
X139104761Y-96927200D01*
X139104761Y-96927200D02*
X139152380Y-96879580D01*
X184348333Y-95339819D02*
X184348333Y-96054104D01*
X184348333Y-96054104D02*
X184395952Y-96196961D01*
X184395952Y-96196961D02*
X184491190Y-96292200D01*
X184491190Y-96292200D02*
X184634047Y-96339819D01*
X184634047Y-96339819D02*
X184729285Y-96339819D01*
X183872142Y-96339819D02*
X183872142Y-95339819D01*
X183872142Y-95339819D02*
X183491190Y-95339819D01*
X183491190Y-95339819D02*
X183395952Y-95387438D01*
X183395952Y-95387438D02*
X183348333Y-95435057D01*
X183348333Y-95435057D02*
X183300714Y-95530295D01*
X183300714Y-95530295D02*
X183300714Y-95673152D01*
X183300714Y-95673152D02*
X183348333Y-95768390D01*
X183348333Y-95768390D02*
X183395952Y-95816009D01*
X183395952Y-95816009D02*
X183491190Y-95863628D01*
X183491190Y-95863628D02*
X183872142Y-95863628D01*
X182443571Y-95673152D02*
X182443571Y-96339819D01*
X182681666Y-95292200D02*
X182919761Y-96006485D01*
X182919761Y-96006485D02*
X182300714Y-96006485D01*
D14*
%TO.C,JP3*%
X135525000Y-95805000D02*
X135525000Y-97205000D01*
X137525000Y-97205000D02*
X137525000Y-95805000D01*
X136225000Y-97905000D02*
X136825000Y-97905000D01*
X136825000Y-95105000D02*
X136225000Y-95105000D01*
X135525000Y-97205000D02*
G75*
G03*
X136225000Y-97905000I700000J0D01*
G01*
X136225000Y-95105000D02*
G75*
G03*
X135525000Y-95805000I-1J-699999D01*
G01*
X137525000Y-95805000D02*
G75*
G03*
X136825000Y-95105000I-699999J1D01*
G01*
X136825000Y-97905000D02*
G75*
G03*
X137525000Y-97205000I0J700000D01*
G01*
%TO.C,JP4*%
X181055000Y-94885000D02*
X179655000Y-94885000D01*
X179655000Y-96885000D02*
X181055000Y-96885000D01*
X178955000Y-95585000D02*
X178955000Y-96185000D01*
X181755000Y-96185000D02*
X181755000Y-95585000D01*
X179655000Y-94885000D02*
G75*
G03*
X178955000Y-95585000I0J-700000D01*
G01*
X181755000Y-95585000D02*
G75*
G03*
X181055000Y-94885000I-699999J1D01*
G01*
X181055000Y-96885000D02*
G75*
G03*
X181755000Y-96185000I1J699999D01*
G01*
X178955000Y-96185000D02*
G75*
G03*
X179655000Y-96885000I700000J0D01*
G01*
%TD*%
M02*
